<svg xmlns="http://www.w3.org/2000/svg" width="16" height="16" fill="currentColor" class="bi bi-donut-chart" viewBox="0 0 65 65">
	<path d="M32.211,7.211c-13.807,0 -25,11.193 -25,25c0,3.504 0.736,6.968 2.161,10.169c-1.425,-3.201 -2.161,-6.665 -2.161,-10.169c0,-13.807 11.193,-25 25,-25Z" style="fill:none;stroke:#dfdfdf;stroke-width:8px;"/>
	<path d="M14.228,49.578c4.711,4.878 11.201,7.633 17.983,7.633c13.798,0 25,-11.202 25,-25c0,-11.153 -7.388,-20.957 -18.109,-24.031c10.721,3.074 18.109,12.878 18.109,24.031c0,13.798 -11.202,25 -25,25c-6.782,0 -13.272,-2.755 -17.983,-7.633Z" style="fill:none;stroke:#cfcfcf;stroke-width:8px;"/>
</svg>