<?xml version="1.0" standalone="no"?>
<!DOCTYPE svg PUBLIC "-//W3C//DTD SVG 1.1//EN" "http://www.w3.org/Graphics/SVG/1.1/DTD/svg11.dtd">
<svg xmlns="http://www.w3.org/2000/svg">
<defs >
<font id="Sarabun" horiz-adv-x="557" ><font-face
    font-family="Sarabun"
    units-per-em="1000"
    panose-1="0 0 8 0 0 0 0 0 0 0"
    ascent="1068"
    descent="-232"
    alphabetic="0" />
<glyph unicode=" " glyph-name="space" horiz-adv-x="233" />
<glyph unicode="!" glyph-name="exclam" horiz-adv-x="256" d="M131 700H284L184 219H61L131 700ZM47 -10T25 9T3 60Q3 107 33 136T113 166Q148 166 170 146T192 95Q192 48 162 19T82 -10Q47 -10 25 9Z" />
<glyph unicode="&quot;" glyph-name="quotedbl" horiz-adv-x="405" d="M116 710H251L194 448H80L116 710ZM316 710H451L395 448H281L316 710Z" />
<glyph unicode="#" glyph-name="numbersign" horiz-adv-x="707" d="M607 414L569 286H651L633 183H538L483 0H347L402 183H248L193 0H57L112 183H31L49 286H143L181 414H91L109 517H212L267 700H403L348 517H502L557 700H693L638 517H711L693 414H607ZM471 414H317L279
286H433L471 414Z" />
<glyph unicode="$" glyph-name="dollar" horiz-adv-x="541" d="M450 369T483 325T516 220Q516 123 455 63T285 -8L273 -79H163L176 -5Q118 6 73 37T3 114L101 194Q126 154 167 130T250 105Q305 105 337 130T370 197Q370 222 348 244T264 299Q177 346 138 394T98
501Q98 583 153 637T302 706L313 769H423L412 706Q467 697 508 670T568 601L465 533Q426 595 353 595Q303 595 274 574T244 516Q244 492 272 469T378 406Q450 369 483 325Z" />
<glyph unicode="%" glyph-name="percent" horiz-adv-x="968" d="M162 297T122 340T82 456Q82 526 111 584T189 676T299 710Q366 710 406 667T446 551Q446 481 417 423T339 331T230 297Q162 297 122 340ZM701 700H848L295 -13H148L701 700ZM267 396T285 416T315
470T327 542Q327 573 315 592T283 611Q261 611 243 591T213 538T201 465Q201 434 213 415T245 396Q267 396 285 416ZM638 -9T598 34T558 150Q558 220 587 278T665 370T775 404Q842 404 882 361T922 245Q922 175 893 117T815 25T705 -9Q638 -9 598 34ZM743 90T761
110T791 164T803 236Q803 267 791 286T759 305Q737 305 718 285T688 231T677 159Q677 128 689 109T721 90Q743 90 761 110Z" />
<glyph unicode="&amp;" glyph-name="ampersand" horiz-adv-x="697" d="M646 231T573 143Q611 108 638 83L542 -10L471 54Q370 -10 253 -10Q148 -10 86 37T23 166Q23 237 68 298T195 399Q167 461 167 510Q167 567 196 612T275 684T387 710Q460 710 504 674T548
578Q548 515 504 459T373 358Q416 297 492 222Q530 276 548 339H671Q646 231 573 143ZM340 606T319 584T298 527Q298 486 329 430Q371 461 394 496T418 562Q418 583 406 594T372 606Q340 606 319 584ZM172 151T201 129T283 106Q341 106 392 133Q303 225 251 300L242
314Q209 287 191 256T172 191Q172 151 201 129Z" />
<glyph unicode="&apos;" glyph-name="quotesingle" horiz-adv-x="205" d="M116 710H251L194 448H80L116 710Z" />
<glyph unicode="(" glyph-name="parenleft" horiz-adv-x="354" d="M45 41T45 217Q45 322 75 424T160 610T288 750H419Q353 701 300 615T216 424T186 216Q186 126 209 54T276 -61H145Q45 41 45 217Z" />
<glyph unicode=")" glyph-name="parenright" horiz-adv-x="354" d="M34 -13T87 73T170 265T201 473Q201 563 178 635T111 750H242Q342 649 342 471Q342 311 276 167T99 -61H-32Q34 -13 87 73Z" />
<glyph unicode="*" glyph-name="asterisk" horiz-adv-x="448" d="M99 399L208 510L68 501L83 592L221 584L152 695L248 745L289 618L374 745L454 695L345 584L485 592L469 501L332 510L401 399L305 348L264 476L178 348L99 399Z" />
<glyph unicode="+" glyph-name="plus" horiz-adv-x="617" d="M241 214H40L58 310H258L296 524H418L380 310H581L564 214H363L325 0H203L241 214Z" />
<glyph unicode="," glyph-name="comma" horiz-adv-x="291" d="M164 156T185 134T207 75Q207 8 158 -67T31 -191L-15 -126Q13 -106 39 -75T83 -9Q80 -10 73 -10Q49 -10 34 7T19 50Q19 97 50 126T130 156Q164 156 185 134Z" />
<glyph unicode="-" glyph-name="hyphen" horiz-adv-x="340" d="M34 310H327L312 222H18L34 310Z" />
<glyph unicode="." glyph-name="period" horiz-adv-x="291" d="M69 -9T49 10T29 58Q29 104 57 133T130 162Q161 162 181 143T201 94Q201 49 173 20T100 -9Q69 -9 49 10Z" />
<glyph unicode="/" glyph-name="slash" horiz-adv-x="468" d="M442 725H572L57 -43H-73L442 725Z" />
<glyph unicode="0" glyph-name="zero" horiz-adv-x="565" d="M183 -10T135 21T59 107T32 234Q32 374 73 482T187 650T356 710Q418 710 466 679T541 593T568 467Q568 327 527 219T413 50T245 -10Q183 -10 135 21ZM305 94T344 143T404 279T426 479Q426 535 404 570T346
606Q296 606 257 558T196 422T174 222Q174 165 197 130T255 94Q305 94 344 143Z" />
<glyph unicode="1" glyph-name="one" horiz-adv-x="565" d="M92 107H205L281 539L138 462L160 590L359 700H453L349 107H461L442 0H73L92 107Z" />
<glyph unicode="2" glyph-name="two" horiz-adv-x="565" d="M30 104Q139 172 224 249T358 399T406 525Q406 559 386 577T330 596Q285 596 239 572T159 506L95 589Q139 647 205 678T347 710Q444 710 498 667T553 549Q553 458 472 350T222 107H503L484 0H12L30 104Z" />
<glyph unicode="3" glyph-name="three" horiz-adv-x="565" d="M156 -9T98 20T17 100L101 178Q124 145 163 125T244 105Q303 105 339 139T376 226Q376 267 344 291T254 315H194L212 417H271Q308 417 339 432T388 474T406 533Q406 563 385 579T324 595Q280 595 237
576T158 522L106 601Q150 652 216 680T356 709Q414 709 458 690T528 637T553 559Q553 499 516 450T411 372Q464 353 491 317T519 230Q519 161 483 107T382 22T236 -9Q156 -9 98 20Z" />
<glyph unicode="4" glyph-name="four" horiz-adv-x="565" d="M304 109H-5L13 209L399 700H552L467 223H541L521 109H448L428 0H284L304 109ZM324 223L373 505L150 223H324Z" />
<glyph unicode="5" glyph-name="five" horiz-adv-x="565" d="M155 -10T95 20T10 99L88 190Q117 148 155 126T237 104Q279 104 313 126T366 188T385 276Q385 320 362 344T298 368Q268 368 238 351T187 304H68L173 700H586L565 586H280L239 434Q256 451 289 462T354
474Q436 474 484 424T532 290Q532 204 493 136T384 29T227 -10Q155 -10 95 20Z" />
<glyph unicode="6" glyph-name="six" horiz-adv-x="565" d="M185 -10T136 17T60 92T33 204Q33 324 106 438T299 628T551 715L545 607Q459 592 388 551T271 449Q282 455 299 459T333 463Q425 463 478 413T531 275Q531 193 495 128T395 27T249 -10Q185 -10 136 17ZM296
105T324 125T370 181T387 258Q387 300 365 324T304 348Q270 348 241 328T195 272T178 196Q178 154 200 130T261 105Q296 105 324 125Z" />
<glyph unicode="7" glyph-name="seven" horiz-adv-x="565" d="M165 183T229 324T407 586H104L124 700H600L584 607Q465 500 384 341T270 0H126Q165 183 229 324Z" />
<glyph unicode="8" glyph-name="eight" horiz-adv-x="565" d="M177 -10T126 12T47 74T19 166Q19 233 60 289T167 371Q138 384 120 419T101 498Q101 560 133 608T224 683T358 710Q417 710 463 690T535 633T561 549Q561 491 528 441T441 371Q480 355 503 315T527
226Q527 157 491 104T391 20T243 -10Q177 -10 126 12ZM358 421T386 451T415 528Q415 558 395 577T344 596Q298 596 270 566T241 489Q241 459 261 440T313 421Q358 421 386 451ZM314 104T350 141T386 238Q386 275 361 298T296 322Q239 322 203 285T166 189Q166 151
191 128T257 104Q314 104 350 141Z" />
<glyph unicode="9" glyph-name="nine" horiz-adv-x="565" d="M57 94Q147 110 223 153T340 252Q301 238 270 238Q180 238 126 290T72 430Q72 509 108 573T209 673T354 709Q418 709 466 683T542 607T569 494Q569 368 501 256T316 72T60 -15L57 94ZM329 343T359 365T406
424T424 505Q424 547 402 571T340 595Q306 595 277 574T231 517T214 438Q214 394 236 369T295 343Q329 343 359 365Z" />
<glyph unicode=":" glyph-name="colon" horiz-adv-x="291" d="M128 328T108 347T88 395Q88 441 116 469T189 498Q221 498 241 480T261 431Q261 385 233 357T160 328Q128 328 108 347ZM69 -10T49 9T29 58Q29 104 57 132T130 161Q161 161 181 143T201 94Q201 48
173 19T100 -10Q69 -10 49 9Z" />
<glyph unicode=";" glyph-name="semicolon" horiz-adv-x="291" d="M221 498T241 480T261 431Q261 385 233 357T160 328Q128 328 108 347T88 395Q88 441 116 469T189 498Q221 498 241 480ZM162 156T183 134T205 75Q205 8 156 -67T29 -191L-17 -126Q11 -107 37 -76T81
-9Q77 -10 71 -10Q47 -10 32 7T17 50Q17 97 48 126T128 156Q162 156 183 134Z" />
<glyph unicode="&lt;" glyph-name="less" horiz-adv-x="617" d="M58 265L67 318L621 582L601 473L216 290L536 107L518 0L58 265Z" />
<glyph unicode="=" glyph-name="equal" horiz-adv-x="617" d="M86 416H589L571 312H68L86 416ZM48 200H551L533 96H30L48 200Z" />
<glyph unicode="&gt;" glyph-name="greater" horiz-adv-x="617" d="M30 109L415 292L95 475L114 582L574 318L565 265L11 0L30 109Z" />
<glyph unicode="?" glyph-name="question" horiz-adv-x="471" d="M160 186Q160 227 174 260T209 319T265 380Q311 426 334 460T357 540Q357 572 338 589T282 606Q246 606 208 583T139 519L84 601Q121 653 180 681T311 710Q400 710 450 672T501 565Q501 520 484
482T441 415T375 347Q327 301 304 269T280 200V181H160V186ZM163 -10T144 7T124 52Q124 93 151 118T221 144Q252 144 271 127T291 82Q291 41 264 16T194 -10Q163 -10 144 7Z" />
<glyph unicode="@" glyph-name="at" horiz-adv-x="805" d="M222 -151T157 -116T55 -17T19 131Q19 260 80 367T247 536T479 599Q568 599 635 566T739 472T776 332Q776 248 743 178T654 66T529 23H499L484 83Q453 54 411 36T331 18Q274 18 240 48T206 128Q206 175
232 212T304 271T408 292H485L488 306Q489 310 489 319Q489 344 472 359T427 375Q392 375 355 360T292 319L256 369Q290 403 342 425T441 447Q501 447 536 414T572 325Q572 310 569 293L548 171Q546 162 546 144Q546 112 555 97Q589 105 618 137T664 217T682 316Q682
374 656 418T580 486T466 511Q371 511 291 463T165 331T119 148Q119 85 145 38T219 -36T332 -63Q377 -63 425 -51T505 -20L527 -91Q490 -118 430 -134T309 -151Q222 -151 157 -116ZM391 88T424 110T462 158L474 228H401Q356 228 327 204T297 141Q297 117 312 103T354
88Q391 88 424 110Z" />
<glyph unicode="A" glyph-name="A" horiz-adv-x="641" d="M423 116H183L128 0H-29L336 700H463L582 0H438L423 116ZM408 231L371 509L238 231H408Z" />
<glyph unicode="B" glyph-name="B" horiz-adv-x="606" d="M147 700H372Q478 700 535 662T593 553Q593 494 563 452T470 378L469 375Q565 336 565 242Q565 128 499 64T312 0H24L147 700ZM338 421Q384 421 414 449T445 523Q445 554 421 571T349 589H272L242 421H338ZM304
111Q356 111 389 145T423 236Q423 316 307 316H224L188 111H304Z" />
<glyph unicode="C" glyph-name="C" horiz-adv-x="620" d="M241 -10T176 24T76 121T41 269Q41 397 89 497T223 653T420 710Q506 710 569 677T655 587L560 515Q541 554 505 574T419 595Q351 595 298 554T215 439T185 271Q185 192 223 149T331 105Q437 105 502 185L574
113Q490 -10 329 -10Q241 -10 176 24Z" />
<glyph unicode="D" glyph-name="D" horiz-adv-x="642" d="M147 700H387Q508 700 571 639T635 459Q635 236 540 118T263 0H24L147 700ZM283 115Q345 115 392 156T465 272T491 446Q491 517 463 551T374 585H271L189 115H283Z" />
<glyph unicode="E" glyph-name="E" horiz-adv-x="571" d="M147 700H612L592 585H271L243 425H529L509 310H222L189 115H509L489 0H24L147 700Z" />
<glyph unicode="F" glyph-name="F" horiz-adv-x="574" d="M147 700H617L597 585H271L238 398H542L522 283H218L168 0H24L147 700Z" />
<glyph unicode="G" glyph-name="G" horiz-adv-x="653" d="M333 380H626L560 0H451L445 35Q381 -10 295 -10Q217 -10 159 22T70 113T39 252Q39 386 87 490T221 652T418 710Q507 710 572 676T655 587L561 515Q543 554 506 574T417 595Q350 595 297 552T214 433T184
258Q184 178 217 137T316 96Q382 96 440 128L466 278H315L333 380Z" />
<glyph unicode="H" glyph-name="H" horiz-adv-x="692" d="M147 700H291L241 414H509L560 700H703L580 0H437L490 299H221L168 0H24L147 700Z" />
<glyph unicode="I" glyph-name="I" horiz-adv-x="323" d="M169 700H312L189 0H46L169 700Z" />
<glyph unicode="J" glyph-name="J" horiz-adv-x="492" d="M102 -10T52 10T-27 67L46 159Q68 134 99 120T164 105Q213 105 240 137T280 241L360 700H504L420 225Q399 104 336 47T160 -10Q102 -10 52 10Z" />
<glyph unicode="K" glyph-name="K" horiz-adv-x="656" d="M419 423L593 0H441L311 313L204 205L168 0H24L148 700H292L238 396L523 700H692L419 423Z" />
<glyph unicode="L" glyph-name="L" horiz-adv-x="565" d="M147 700H291L188 115H518L498 0H24L147 700Z" />
<glyph unicode="M" glyph-name="M" horiz-adv-x="816" d="M827 700L703 0H561L634 414L413 0H312L238 407L166 0H24L148 700H293L387 159L670 700H827Z" />
<glyph unicode="N" glyph-name="N" horiz-adv-x="699" d="M710 700L587 0H454L249 465L167 0H24L147 700H286L486 243L567 700H710Z" />
<glyph unicode="O" glyph-name="O" horiz-adv-x="690" d="M232 -10T170 24T74 121T40 264Q40 393 87 494T220 653T413 710Q494 710 556 676T652 579T686 436Q686 307 639 206T506 47T313 -10Q232 -10 170 24ZM386 104T435 145T513 259T541 426Q541 502 503 549T404
596Q341 596 292 555T214 441T186 275Q186 199 224 152T323 104Q386 104 435 145Z" />
<glyph unicode="P" glyph-name="P" horiz-adv-x="590" d="M147 700H371Q479 700 538 654T598 525Q598 391 520 316T304 240H210L168 0H24L147 700ZM326 354Q383 354 419 395T455 502Q455 543 431 564T360 585H271L230 354H326Z" />
<glyph unicode="Q" glyph-name="Q" horiz-adv-x="690" d="M686 324T650 233T549 81T397 0Q477 -28 601 -32L561 -130Q463 -125 363 -86T214 2L222 3Q138 28 89 97T40 264Q40 393 87 494T220 653T413 710Q494 710 556 676T652 579T686 436Q686 324 650 233ZM341
596T292 555T214 441T186 275Q186 199 224 152T323 104Q386 104 435 145T513 259T541 426Q541 502 503 549T404 596Q341 596 292 555Z" />
<glyph unicode="R" glyph-name="R" horiz-adv-x="596" d="M147 700H385Q490 700 546 657T602 534Q602 369 451 316V314Q467 301 475 289T487 259L545 0H392L350 213Q343 245 326 255T262 266H215L168 0H24L147 700ZM323 380Q384 380 420 416T457 512Q457 585 357
585H271L235 380H323Z" />
<glyph unicode="S" glyph-name="S" horiz-adv-x="549" d="M158 -10T96 23T3 114L101 194Q126 154 167 130T250 105Q305 105 337 130T370 197Q370 222 348 244T264 299Q177 346 138 394T98 501Q98 563 130 610T222 684T360 710Q433 710 488 681T568 601L465 533Q426
595 353 595Q303 595 274 574T244 516Q244 492 272 469T378 406Q450 369 483 325T516 220Q516 113 442 52T237 -10Q158 -10 96 23Z" />
<glyph unicode="T" glyph-name="T" horiz-adv-x="590" d="M284 594H76L95 700H655L636 594H428L323 0H179L284 594Z" />
<glyph unicode="U" glyph-name="U" horiz-adv-x="662" d="M178 -10T118 43T57 200Q57 237 64 273L139 700H283L208 275Q202 244 202 217Q202 105 306 105Q369 105 408 148T463 275L538 700H682L607 273Q557 -10 293 -10Q178 -10 118 43Z" />
<glyph unicode="V" glyph-name="V" horiz-adv-x="647" d="M711 700L344 0H214L94 700H241L308 183L558 700H711Z" />
<glyph unicode="W" glyph-name="W" horiz-adv-x="874" d="M928 700L657 0H523L487 521L267 0H128L104 700H255L249 237L446 700H582L616 239L773 700H928Z" />
<glyph unicode="X" glyph-name="X" horiz-adv-x="655" d="M264 358L115 700H271L360 475L529 700H699L430 358L585 0H434L334 239L153 0H-18L264 358Z" />
<glyph unicode="Y" glyph-name="Y" horiz-adv-x="628" d="M247 280L94 700H246L341 425L532 700H692L391 280L342 0H198L247 280Z" />
<glyph unicode="Z" glyph-name="Z" horiz-adv-x="592" d="M-6 70L429 585H114L134 700H631L619 628L189 115H542L521 0H-18L-6 70Z" />
<glyph unicode="[" glyph-name="bracketleft" horiz-adv-x="332" d="M125 700H375L357 600H248L142 -5H251L233 -105H-18L125 700Z" />
<glyph unicode="\" glyph-name="backslash" horiz-adv-x="385" d="M63 725H193L438 -43H308L63 725Z" />
<glyph unicode="]" glyph-name="bracketright" horiz-adv-x="332" d="M-8 -5H102L208 600H99L117 700H367L225 -105H-26L-8 -5Z" />
<glyph unicode="^" glyph-name="asciicircum" horiz-adv-x="599" d="M327 700H432L561 223H436L355 557L157 223H29L327 700Z" />
<glyph unicode="_" glyph-name="underscore" horiz-adv-x="358" d="M-83 -223H275L258 -319H-100L-83 -223Z" />
<glyph unicode="`" glyph-name="grave" horiz-adv-x="400" d="M155 731H278L341 555H239L155 731Z" />
<glyph unicode="a" glyph-name="a" horiz-adv-x="558" d="M117 -10T70 43T22 187Q22 281 54 354T145 469T278 510Q330 510 368 491T422 437H424L444 500H551L486 133Q468 28 465 0H345Q351 41 356 66H354Q324 31 283 11T198 -10Q117 -10 70 43ZM287 88T324 118T370
199L388 302Q390 316 390 324Q390 364 363 389T292 415Q252 415 220 387T169 308T150 196Q150 144 171 116T234 88Q287 88 324 118Z" />
<glyph unicode="b" glyph-name="b" horiz-adv-x="558" d="M236 -10T196 11T140 66H138Q136 58 134 44L125 0H5Q17 50 31 133L139 742H266L214 449H216Q275 510 366 510Q446 510 492 462T539 328Q539 232 505 155T412 34T280 -10Q236 -10 196 11ZM306 88T339 117T391
198T410 311Q410 362 388 388T324 415Q275 415 236 383T189 302L170 199Q168 183 168 176Q168 136 194 112T266 88Q306 88 339 117Z" />
<glyph unicode="c" glyph-name="c" horiz-adv-x="492" d="M137 -10T79 44T21 192Q21 285 58 357T162 470T316 510Q387 510 437 484T506 410L418 343Q404 375 376 393T311 412Q266 412 229 385T171 310T150 203Q150 148 177 118T254 88Q291 88 325 106T385 157L450
90Q413 41 359 16T237 -10Q137 -10 79 44Z" />
<glyph unicode="d" glyph-name="d" horiz-adv-x="558" d="M117 -10T70 43T22 187Q22 280 55 353T147 468T281 510Q374 510 412 449H414L466 742H593L486 133L475 63Q466 7 465 0H345Q351 39 356 66H354Q324 31 283 11T198 -10Q117 -10 70 43ZM287 88T324 118T370
199L388 302Q390 316 390 324Q390 364 363 389T292 415Q252 415 220 387T169 308T150 196Q150 144 171 116T234 88Q287 88 324 118Z" />
<glyph unicode="e" glyph-name="e" horiz-adv-x="542" d="M411 510T464 457T518 312Q518 279 511 245L502 203H154Q155 151 181 124T259 97Q303 97 338 112T411 162L469 96Q431 47 369 19T239 -10Q141 -10 83 44T25 191Q25 284 62 356T165 469T317 510Q411 510
464 457ZM401 350T377 378T303 406Q256 406 219 376T166 290H398V296Q401 350 377 378Z" />
<glyph unicode="f" glyph-name="f" horiz-adv-x="377" d="M121 413H40L55 500H137L147 560Q160 634 210 675T339 717Q377 717 411 705T461 674L403 598Q393 608 378 614T347 621Q319 621 299 602T273 550L264 500H405L390 413H249L176 0H49L121 413Z" />
<glyph unicode="g" glyph-name="g" horiz-adv-x="555" d="M550 500L466 20Q444 -107 372 -171T177 -236Q118 -236 66 -222T-21 -182L37 -95Q69 -113 108 -123T183 -134Q316 -134 346 37L348 50Q300 -3 208 -3Q121 -3 72 47T22 187Q22 282 54 355T144 469T277 510Q330
510 368 491T422 437H424L444 500H550ZM387 302T387 319Q387 366 364 390T296 415Q253 415 220 387T169 311T150 200Q150 149 173 123T243 96Q295 96 329 127T373 217L384 281Q387 302 387 319Z" />
<glyph unicode="h" glyph-name="h" horiz-adv-x="567" d="M135 742H263L210 441Q236 473 279 491T371 510Q446 510 489 467T533 349Q533 328 528 300L475 0H347L398 291Q402 317 402 328Q402 369 382 392T325 415Q270 415 231 377T180 272L132 0H4L135 742Z" />
<glyph unicode="i" glyph-name="i" horiz-adv-x="273" d="M160 558T140 575T120 618Q120 658 147 683T217 708Q248 708 267 691T287 648Q287 608 260 583T191 558Q160 558 140 575ZM117 500H244L156 0H29L117 500Z" />
<glyph unicode="j" glyph-name="j" horiz-adv-x="279" d="M174 558T154 575T134 619Q134 658 161 683T232 708Q263 708 282 691T302 647Q302 607 275 583T205 558Q174 558 154 575ZM-68 -205T-96 -202T-143 -193L-121 -104Q-91 -107 -57 -107Q-14 -107 10 -88T41
-26L134 500H262L169 -24Q153 -116 101 -160T-43 -205Q-68 -205 -96 -202Z" />
<glyph unicode="k" glyph-name="k" horiz-adv-x="533" d="M339 319L486 0H346L239 236L165 174L134 0H6L137 742H265L190 330L395 500H555L339 319Z" />
<glyph unicode="l" glyph-name="l" horiz-adv-x="301" d="M87 -10T59 15T31 89Q31 105 34 123L144 742H271L161 122Q160 118 160 110Q160 79 200 79Q222 79 259 92L266 24Q215 -10 142 -10Q87 -10 59 15Z" />
<glyph unicode="m" glyph-name="m" horiz-adv-x="846" d="M69 367L77 418Q87 473 88 500H200Q199 467 190 413H192Q214 459 258 484T359 510Q413 510 448 486T488 422Q516 464 560 487T655 510Q727 510 767 470T808 358Q808 337 803 309L749 0H622L673 295Q676
313 676 328Q676 366 657 386T603 407Q560 407 530 377T491 294L439 0H313L365 291Q368 311 368 326Q368 365 350 386T297 407Q254 407 223 376T183 291L131 0H4L69 367Z" />
<glyph unicode="n" glyph-name="n" horiz-adv-x="563" d="M69 368L73 393Q86 472 87 500H207Q205 457 197 413H199Q226 459 272 484T376 510Q449 510 486 470T523 352Q523 317 516 281L466 0H339L389 282Q393 303 393 326Q393 407 319 407Q266 407 228 371T179
273L131 0H3L69 368Z" />
<glyph unicode="o" glyph-name="o" horiz-adv-x="579" d="M147 -10T87 45T26 194Q26 287 64 359T170 470T329 510Q432 510 492 455T553 306Q553 213 515 141T408 30T250 -10Q147 -10 87 45ZM308 85T345 112T403 187T424 295Q424 351 396 383T316 415Q270 415 233
388T175 313T154 205Q154 149 183 117T262 85Q308 85 345 112Z" />
<glyph unicode="p" glyph-name="p" horiz-adv-x="565" d="M74 367Q85 434 93 500H213Q211 471 205 434H207Q256 510 365 510Q445 510 492 458T540 317Q540 223 509 149T420 32T290 -10Q242 -10 205 6T149 51H146L94 -242H-34L74 367ZM311 85T343 113T393 193T411
307Q411 358 389 385T326 412Q274 412 237 382T190 301L172 198Q170 184 170 178Q170 138 198 112T271 85Q311 85 343 113Z" />
<glyph unicode="q" glyph-name="q" horiz-adv-x="565" d="M349 56H346Q322 24 284 7T200 -10Q121 -10 73 45T25 191Q25 285 57 357T147 470T279 510Q330 510 369 491T424 438H426L439 500H560Q545 439 532 367L425 -242H297L349 56ZM289 85T327 117T374 198L393
301Q395 317 395 323Q395 363 368 387T296 412Q256 412 224 384T173 306T154 194Q154 141 176 113T240 85Q289 85 327 117Z" />
<glyph unicode="r" glyph-name="r" horiz-adv-x="397" d="M77 378Q92 465 95 500H216Q215 455 205 412L203 402H207Q235 452 287 481T403 510Q415 510 432 507L415 406Q411 408 391 408Q343 408 297 382T219 313T177 219L138 0H10L77 378Z" />
<glyph unicode="s" glyph-name="s" horiz-adv-x="441" d="M110 -10T61 16T-2 85L88 140Q101 115 126 100T181 85Q221 85 245 101T270 146Q270 165 253 180T197 212Q125 242 92 277T58 356Q58 427 112 468T259 510Q318 510 363 488T428 427L345 372Q317 415 257
415Q224 415 205 402T186 367Q186 351 203 339T273 305Q339 277 369 245T400 171Q400 118 372 77T292 13T175 -10Q110 -10 61 16Z" />
<glyph unicode="t" glyph-name="t" horiz-adv-x="420" d="M158 -10T121 22T83 113Q83 130 86 149L131 405H40L57 500H148L170 629L300 665H304L276 500H421L404 405H259L217 169Q215 151 215 145Q215 86 283 86Q322 86 358 98L349 11Q301 -10 226 -10Q158 -10 121 22Z" />
<glyph unicode="u" glyph-name="u" horiz-adv-x="561" d="M110 -10T73 29T36 146Q36 181 43 217L92 500H220L171 217Q166 187 166 169Q166 130 183 112T235 93Q287 93 328 133T381 234L427 500H555L490 127Q482 87 475 0H354Q355 48 361 88H359Q332 42 285 16T181
-10Q110 -10 73 29Z" />
<glyph unicode="v" glyph-name="v" horiz-adv-x="528" d="M559 500L275 0H165L57 500H185L243 156L423 500H559Z" />
<glyph unicode="w" glyph-name="w" horiz-adv-x="707" d="M738 500L522 0H410L375 363L210 0H97L57 500H188L196 189L339 500H452L486 189L603 500H738Z" />
<glyph unicode="x" glyph-name="x" horiz-adv-x="520" d="M195 254L71 500H208L274 352L392 500H537L328 254L463 0H325L249 163L116 0H-31L195 254Z" />
<glyph unicode="y" glyph-name="y" horiz-adv-x="505" d="M536 500L253 -23Q161 -192 7 -192Q-32 -192 -73 -181L-55 -80Q-44 -84 -26 -87T6 -90Q49 -90 86 -60T160 37L56 500H188L242 179L398 500H536Z" />
<glyph unicode="z" glyph-name="z" horiz-adv-x="476" d="M-12 68L314 404H62L79 500H488L477 438L156 96H428L411 0H-23L-12 68Z" />
<glyph unicode="{" glyph-name="braceleft" horiz-adv-x="350" d="M56 -114T56 3Q56 24 60 44L88 203L89 212Q89 233 75 246T34 263L47 334Q76 335 96 351T121 393L149 552Q178 710 343 710H404L387 609H329Q313 609 303 599T289 571L258 392Q245 325 171 298Q227
275 227 224Q227 218 225 204L193 25Q192 21 192 14Q192 2 199 -5T219 -13H277L259 -114H198Q56 -114 56 3Z" />
<glyph unicode="|" glyph-name="bar" horiz-adv-x="257" d="M145 700H272L120 -160H-7L145 700Z" />
<glyph unicode="}" glyph-name="braceright" horiz-adv-x="350" d="M-19 -13H39Q54 -13 64 -3T78 25L109 204Q122 273 198 298Q169 310 155 328T141 372Q141 378 143 392L174 571Q175 575 175 582Q175 609 149 609H91L108 710H169Q240 710 276 681T312 593Q312
572 308 552L280 393Q279 389 279 382Q279 361 293 348T334 334L321 263Q291 259 271 243T246 203L219 44Q206 -34 157 -74T24 -114H-37L-19 -13Z" />
<glyph unicode="~" glyph-name="asciitilde" horiz-adv-x="617" d="M49 212Q61 276 109 316T221 356Q248 356 276 345T340 312Q370 296 384 290T411 283Q433 283 449 303T471 356H581L576 325Q565 261 518 220T406 179Q378 179 349 191T283 224Q258 238 242 245T215
252Q195 252 178 232T153 179H43L49 212Z" />
<glyph unicode="&#xa0;" glyph-name="uni00A0" horiz-adv-x="233" />
<glyph unicode="&#xa1;" glyph-name="exclamdown" horiz-adv-x="256" d="M109 334T87 354T65 405Q65 451 95 480T174 510Q209 510 231 491T253 440Q253 393 223 364T143 334Q109 334 87 354ZM72 281H195L125 -200H-28L72 281Z" />
<glyph unicode="&#xa2;" glyph-name="cent" horiz-adv-x="489" d="M303 158T337 176T397 227L462 160Q395 72 277 61L261 -28H182L198 64Q121 77 77 129T33 262Q33 348 65 416T155 527T289 578L305 668H384L368 578Q424 571 463 546T518 480L430 413Q416 445 388
463T323 482Q278 482 241 455T183 380T162 273Q162 218 189 188T266 158Q303 158 337 176Z" />
<glyph unicode="&#xa3;" glyph-name="sterling" horiz-adv-x="551" d="M463 710T506 692T572 644L510 550Q492 571 466 584T414 597Q375 597 348 571T313 502Q307 465 307 381H465L450 296H306Q304 265 302 252Q286 158 210 103H474L456 0H4L19 81Q74 103 115
150T164 243Q168 267 169 296H76L91 381H170Q172 477 177 508Q193 600 258 655T417 710Q463 710 506 692Z" />
<glyph unicode="&#xa4;" glyph-name="currency" horiz-adv-x="631" d="M246 62T210 73T146 103L77 45L9 124L73 180Q49 225 49 290Q49 344 73 397T127 482L82 538L178 617L227 559Q260 579 299 589T375 600Q411 600 448 589T513 559L584 617L650 530L586 482Q598
463 604 436T610 378Q610 323 587 268T533 180L579 124L484 46L432 103Q399 84 359 73T281 62Q246 62 210 73ZM352 173T394 199T461 269T486 366Q486 423 452 457T358 492Q308 492 266 466T199 395T174 298Q174 242 209 208T302 173Q352 173 394 199Z" />
<glyph unicode="&#xa5;" glyph-name="yen" horiz-adv-x="638" d="M480 395H592L575 301H413L398 280L389 228H563L547 136H373L349 0H205L229 136H53L69 228H245L254 280L246 301H81L98 394H212L101 700H253L348 425L539 700H699L480 395Z" />
<glyph unicode="&#xa6;" glyph-name="brokenbar" horiz-adv-x="257" d="M145 700H272L203 308H76L145 700ZM62 232H189L120 -160H-7L62 232Z" />
<glyph unicode="&#xa7;" glyph-name="section" horiz-adv-x="546" d="M509 223T449 168Q475 140 475 98Q475 39 441 -8T346 -81T209 -108Q136 -108 80 -81T-4 -8L88 71Q116 34 151 16T225 -3Q269 -3 299 19T329 74Q329 99 306 116T231 159Q222 164 204 172Q147
200 120 217T76 256T60 312Q60 388 130 442Q97 477 97 521Q97 574 130 617T222 685T352 710Q427 710 477 684T546 608L463 553Q447 578 415 591T343 605Q299 605 271 586T242 539Q242 516 265 497T357 444Q428 409 468 374T509 286Q509 223 449 168ZM367 221Q389
250 389 266Q389 282 365 301T266 356Q235 371 211 384Q187 362 187 338Q187 322 207 308T281 266L323 244L367 221Z" />
<glyph unicode="&#xa8;" glyph-name="dieresis" horiz-adv-x="400" d="M124 555T108 570T92 609Q92 644 114 665T172 687Q197 687 212 672T228 633Q228 599 206 577T149 555Q124 555 108 570ZM334 555T319 570T303 609Q303 644 325 665T383 687Q407 687 423 672T439
633Q439 599 417 577T359 555Q334 555 319 570Z" />
<glyph unicode="&#xa9;" glyph-name="copyright" horiz-adv-x="810" d="M267 -10T197 26T89 127T51 277Q51 397 108 496T265 653T485 710Q578 710 648 674T756 573T794 423Q794 302 737 203T580 47T360 -10Q267 -10 197 26ZM465 69T540 114T659 236T703 408Q703
474 675 525T594 603T473 631Q381 631 306 586T187 464T143 292Q143 226 171 176T252 97T373 69Q465 69 540 114ZM323 143T282 187T241 304Q241 377 271 436T353 529T470 563Q517 563 552 541T597 483L537 431Q512 481 456 481Q423 481 396 459T354 399T338 315Q338
274 356 249T407 224Q436 224 460 237T510 278L551 223Q528 190 484 167T393 143Q323 143 282 187Z" />
<glyph unicode="&#xaa;" glyph-name="ordfeminine" horiz-adv-x="362" d="M118 361T92 385T66 447Q66 504 106 536T218 568H282L284 581Q286 593 286 596Q286 615 274 625T238 636Q186 636 146 596L108 649Q166 707 257 707Q319 707 352 683T385 612Q385 595 383
586L357 439Q351 390 352 367H262Q261 378 261 406Q247 386 219 374T159 361Q118 361 92 385ZM224 425T242 442T267 485L272 510H231Q199 510 181 496T163 457Q163 442 172 434T198 425Q224 425 242 442Z" />
<glyph unicode="&#xab;" glyph-name="guillemotleft" horiz-adv-x="585" d="M34 260L219 460H357L175 260L287 60H149L34 260ZM267 260L452 460H590L408 260L520 60H382L267 260Z" />
<glyph unicode="&#xac;" glyph-name="logicalnot" horiz-adv-x="615" d="M462 320H56L72 408H603L553 121H427L462 320Z" />
<glyph unicode="&#xad;" glyph-name="uni00AD" horiz-adv-x="340" d="M34 310H327L312 222H18L34 310Z" />
<glyph unicode="&#xae;" glyph-name="registered" horiz-adv-x="530" d="M431 710T482 662T534 535Q534 462 499 402T404 307T271 272Q185 272 134 320T82 447Q82 520 117 580T212 675T346 710Q431 710 482 662ZM333 323T379 349T451 422T478 525Q478 585 441
622T340 659Q283 659 237 633T165 560T138 457Q138 397 175 360T276 323Q333 323 379 349ZM373 615T392 600T411 556Q411 520 394 496T345 462L378 370H320L289 457H265L250 370H196L239 615H337Q373 615 392 600ZM358 503T358 548Q358 560 348 564T317 569H285L273
503H307Q358 503 358 548Z" />
<glyph unicode="&#xaf;" glyph-name="overscore" horiz-adv-x="400" d="M92 640H445L434 574H80L92 640Z" />
<glyph unicode="&#xb0;" glyph-name="degree" horiz-adv-x="322" d="M141 440T109 469T77 548Q77 593 99 630T159 688T243 710Q296 710 328 681T360 602Q360 557 338 520T279 462T195 440Q141 440 109 469ZM242 504T266 528T291 590Q291 616 275 631T231 646Q195
646 171 622T146 560Q146 534 162 519T206 504Q242 504 266 528Z" />
<glyph unicode="&#xb1;" glyph-name="plusminus" horiz-adv-x="617" d="M379 306L350 141H228L257 306H57L72 395H273L302 561H424L395 395H596L580 306H379ZM26 89H535L519 0H11L26 89Z" />
<glyph unicode="&#xb2;" glyph-name="uni00B2" horiz-adv-x="430" d="M54 289Q122 330 180 382T273 483T307 565Q307 583 294 593T258 604Q204 604 150 544L94 611Q127 656 177 680T285 705Q358 705 398 675T439 590Q439 530 389 461T229 302H404L388 208H39L54 289Z" />
<glyph unicode="&#xb3;" glyph-name="uni00B3" horiz-adv-x="430" d="M151 198T109 219T46 278L120 346Q140 324 164 312T214 299Q244 299 264 319T285 368Q285 391 268 404T222 418H167L182 505H237Q265 505 284 524T304 569Q304 585 292 594T257 604Q233 604
204 592T150 557L103 628Q138 665 187 685T290 705Q356 705 396 675T437 594Q437 557 415 524T351 467Q380 452 396 425T413 365Q413 317 387 279T313 220T207 198Q151 198 109 219Z" />
<glyph unicode="&#xb4;" glyph-name="acute" horiz-adv-x="400" d="M285 731H408L262 555H161L285 731Z" />
<glyph unicode="&#xb5;" glyph-name="uni00B5" horiz-adv-x="561" d="M92 500H220L170 217Q166 194 166 172Q166 132 183 113T237 93Q289 93 329 134T381 235L427 500H555L490 127Q481 66 475 0H355L354 24Q354 47 358 71H356Q329 30 297 10T217 -10Q168 -10 134
18L95 -204H-32L92 500Z" />
<glyph unicode="&#xb6;" glyph-name="paragraph" horiz-adv-x="544" d="M270 267H264Q174 267 125 308T75 426Q75 510 113 572T224 667T396 700H533L393 -93H328L460 654H396L264 -93H206L270 267Z" />
<glyph unicode="&#xb7;" glyph-name="middot" horiz-adv-x="291" d="M101 176T81 195T61 244Q61 289 89 318T162 347Q193 347 213 328T233 279Q233 234 205 205T132 176Q101 176 81 195Z" />
<glyph unicode="&#xb8;" glyph-name="cedilla" horiz-adv-x="400" d="M74 -257T48 -251T8 -236L38 -172Q50 -179 67 -183T99 -188Q118 -188 131 -178T145 -152Q145 -139 128 -131T84 -125L56 -89L130 13H217L159 -66Q194 -66 215 -86T237 -139Q237 -189 199 -223T99
-257Q74 -257 48 -251Z" />
<glyph unicode="&#xb9;" glyph-name="uni00B9" horiz-adv-x="430" d="M98 302H174L219 555L123 504L143 618L287 698H374L304 302H379L362 208H82L98 302Z" />
<glyph unicode="&#xba;" glyph-name="ordmasculine" horiz-adv-x="390" d="M149 361T109 397T69 497Q69 559 94 606T166 680T271 707Q341 707 381 671T421 571Q421 509 396 462T324 388T218 361Q149 361 109 397ZM267 430T294 470T321 568Q321 602 306 620T263
638Q223 638 196 600T169 503Q169 469 184 450T227 430Q267 430 294 470Z" />
<glyph unicode="&#xbb;" glyph-name="guillemotright" horiz-adv-x="585" d="M180 260L69 460H206L321 260L136 60H-2L180 260ZM414 260L302 460H440L554 260L369 60H231L414 260Z" />
<glyph unicode="&#xbc;" glyph-name="onequarter" horiz-adv-x="1022" d="M747 719H852L332 -38H228L747 719ZM109 351H177L217 577L132 531L149 632L277 704H354L292 351H358L344 268H95L109 351ZM770 62H584L598 139L831 435H952L900 143H943L929 62H886L875
0H759L770 62ZM785 143L812 300L691 143H785Z" />
<glyph unicode="&#xbd;" glyph-name="onehalf" horiz-adv-x="1022" d="M717 719H822L303 -38H198L717 719ZM109 351H177L217 577L132 531L149 632L277 704H354L292 351H358L344 268H95L109 351ZM619 72Q680 108 731 154T813 243T844 317Q844 334 833 343T800 352Q753
352 705 298L655 358Q684 398 728 420T824 442Q889 442 925 415T962 339Q962 286 918 225T775 83H931L916 0H606L619 72Z" />
<glyph unicode="&#xbe;" glyph-name="threequarters" horiz-adv-x="1022" d="M729 719H833L314 -38H209L729 719ZM165 260T128 279T73 331L139 392Q156 372 178 361T222 350Q249 350 267 367T285 411Q285 431 270 443T229 456H180L194 533H242Q267 533 284 550T302
590Q302 604 291 612T260 621Q239 621 213 610T165 579L123 642Q154 675 198 693T290 711Q348 711 384 684T420 612Q420 578 400 549T344 499Q369 486 383 462T398 408Q398 366 375 332T310 279T216 260Q165 260 128 279ZM753 62H567L581 139L815 435H935L884 143H926L912
62H869L858 0H742L753 62ZM768 143L795 300L674 143H768Z" />
<glyph unicode="&#xbf;" glyph-name="questiondown" horiz-adv-x="471" d="M222 356T203 373T183 418Q183 457 211 483T280 510Q312 510 331 493T350 448Q350 410 322 383T253 356Q222 356 203 373ZM69 -210T20 -172T-29 -66Q-29 -21 -13 15T26 78T88 141Q133
184 157 215T188 285Q191 315 191 319H311V314Q311 273 297 240T262 181T207 120Q161 74 138 40T115 -40Q115 -71 134 -88T189 -106Q225 -106 263 -83T333 -19L387 -98Q350 -150 289 -180T157 -210Q69 -210 20 -172Z" />
<glyph unicode="&#xc0;" glyph-name="Agrave" horiz-adv-x="641" d="M423 116H183L128 0H-29L336 700H463L582 0H438L423 116ZM408 231L371 509L238 231H408ZM279 917H403L459 755H357L279 917Z" />
<glyph unicode="&#xc1;" glyph-name="Aacute" horiz-adv-x="641" d="M423 116H183L128 0H-29L336 700H463L582 0H438L423 116ZM408 231L371 509L238 231H408ZM473 917H597L461 755H359L473 917Z" />
<glyph unicode="&#xc2;" glyph-name="Acircumflex" horiz-adv-x="641" d="M423 116H183L128 0H-29L336 700H463L582 0H438L423 116ZM408 231L371 509L238 231H408ZM402 917H475L581 755H475L429 833L356 755H239L402 917Z" />
<glyph unicode="&#xc3;" glyph-name="Atilde" horiz-adv-x="641" d="M423 116H183L128 0H-29L336 700H463L582 0H438L423 116ZM408 231L371 509L238 231H408ZM249 815T284 848T365 881Q385 881 401 874T438 853Q452 844 461 839T480 834Q507 834 516 885H596Q587
820 553 788T471 755Q451 755 434 762T394 784Q367 802 355 802Q344 802 334 789T320 755H240Q249 815 284 848Z" />
<glyph unicode="&#xc4;" glyph-name="Adieresis" horiz-adv-x="641" d="M423 116H183L128 0H-29L336 700H463L582 0H438L423 116ZM408 231L371 509L238 231H408ZM280 755T264 770T248 809Q248 844 270 865T328 887Q353 887 368 872T384 833Q384 799 362 777T305
755Q280 755 264 770ZM490 755T475 770T459 809Q459 844 481 865T539 887Q563 887 579 872T595 833Q595 799 573 777T515 755Q490 755 475 770Z" />
<glyph unicode="&#xc5;" glyph-name="Aring" horiz-adv-x="641" d="M423 116H183L128 0H-29L336 700H463L582 0H438L423 116ZM408 231L371 509L238 231H408ZM370 720T345 742T320 801Q320 854 355 887T445 920Q485 920 510 898T535 839Q535 787 500 754T410 720Q370
720 345 742ZM444 769T461 786T478 831Q478 849 467 860T436 871Q410 871 394 854T377 809Q377 791 388 780T418 769Q444 769 461 786Z" />
<glyph unicode="&#xc6;" glyph-name="AE" horiz-adv-x="827" d="M580 585L551 421H786L767 308H531L497 115H765L745 0H334L351 98H188L130 0H-29L406 700H868L848 585H580ZM370 206L420 491L252 206H370Z" />
<glyph unicode="&#xc7;" glyph-name="Ccedilla" horiz-adv-x="620" d="M437 105T502 185L574 113Q496 -2 352 -9L310 -66Q347 -66 369 -84T391 -131Q391 -178 352 -210T255 -242Q230 -242 205 -236T165 -221L188 -166Q216 -178 252 -178Q273 -178 286 -168T300
-141Q300 -127 284 -121T239 -115L216 -82L272 -6Q164 10 103 82T41 269Q41 397 89 497T223 653T420 710Q506 710 569 677T655 587L560 515Q541 554 505 574T419 595Q351 595 298 554T215 439T185 271Q185 192 223 149T331 105Q437 105 502 185Z" />
<glyph unicode="&#xc8;" glyph-name="Egrave" horiz-adv-x="571" d="M147 700H612L592 585H271L243 425H529L509 310H222L189 115H509L489 0H24L147 700ZM261 917H385L441 755H339L261 917Z" />
<glyph unicode="&#xc9;" glyph-name="Eacute" horiz-adv-x="571" d="M147 700H612L592 585H271L243 425H529L509 310H222L189 115H509L489 0H24L147 700ZM455 917H579L443 755H341L455 917Z" />
<glyph unicode="&#xca;" glyph-name="Ecircumflex" horiz-adv-x="571" d="M147 700H612L592 585H271L243 425H529L509 310H222L189 115H509L489 0H24L147 700ZM384 917H457L563 755H457L411 833L338 755H221L384 917Z" />
<glyph unicode="&#xcb;" glyph-name="Edieresis" horiz-adv-x="571" d="M147 700H612L592 585H271L243 425H529L509 310H222L189 115H509L489 0H24L147 700ZM262 755T246 770T230 809Q230 844 252 865T310 887Q335 887 350 872T366 833Q366 799 344 777T287 755Q262
755 246 770ZM472 755T457 770T441 809Q441 844 463 865T521 887Q545 887 561 872T577 833Q577 799 555 777T497 755Q472 755 457 770Z" />
<glyph unicode="&#xcc;" glyph-name="Igrave" horiz-adv-x="323" d="M169 700H312L189 0H46L169 700ZM120 917H244L300 755H198L120 917Z" />
<glyph unicode="&#xcd;" glyph-name="Iacute" horiz-adv-x="323" d="M169 700H312L189 0H46L169 700ZM314 917H438L302 755H200L314 917Z" />
<glyph unicode="&#xce;" glyph-name="Icircumflex" horiz-adv-x="323" d="M169 700H312L189 0H46L169 700ZM243 917H316L422 755H316L270 833L197 755H80L243 917Z" />
<glyph unicode="&#xcf;" glyph-name="Idieresis" horiz-adv-x="323" d="M169 700H312L189 0H46L169 700ZM121 755T105 770T89 809Q89 844 111 865T169 887Q194 887 209 872T225 833Q225 799 203 777T146 755Q121 755 105 770ZM331 755T316 770T300 809Q300 844
322 865T380 887Q404 887 420 872T436 833Q436 799 414 777T356 755Q331 755 316 770Z" />
<glyph unicode="&#xd0;" glyph-name="Eth" horiz-adv-x="648" d="M513 700T576 639T640 459Q640 236 545 118T269 0H30L80 286H16L34 390H99L153 700H393Q513 700 576 639ZM350 115T397 156T471 272T497 446Q497 517 469 551T380 585H277L243 390H402L383 286H224L194
115H288Q350 115 397 156Z" />
<glyph unicode="&#xd1;" glyph-name="Ntilde" horiz-adv-x="699" d="M710 700L587 0H454L249 465L167 0H24L147 700H286L486 243L567 700H710ZM277 815T312 848T393 881Q413 881 429 874T466 853Q480 844 489 839T508 834Q535 834 544 885H624Q615 820 581 788T499
755Q479 755 462 762T422 784Q395 802 383 802Q372 802 362 789T348 755H268Q277 815 312 848Z" />
<glyph unicode="&#xd2;" glyph-name="Ograve" horiz-adv-x="690" d="M232 -10T170 24T74 121T40 264Q40 393 87 494T220 653T413 710Q494 710 556 676T652 579T686 436Q686 307 639 206T506 47T313 -10Q232 -10 170 24ZM386 104T435 145T513 259T541 426Q541 502
503 549T404 596Q341 596 292 555T214 441T186 275Q186 199 224 152T323 104Q386 104 435 145ZM293 917H417L473 755H371L293 917Z" />
<glyph unicode="&#xd3;" glyph-name="Oacute" horiz-adv-x="690" d="M232 -10T170 24T74 121T40 264Q40 393 87 494T220 653T413 710Q494 710 556 676T652 579T686 436Q686 307 639 206T506 47T313 -10Q232 -10 170 24ZM386 104T435 145T513 259T541 426Q541 502
503 549T404 596Q341 596 292 555T214 441T186 275Q186 199 224 152T323 104Q386 104 435 145ZM487 917H611L475 755H373L487 917Z" />
<glyph unicode="&#xd4;" glyph-name="Ocircumflex" horiz-adv-x="690" d="M232 -10T170 24T74 121T40 264Q40 393 87 494T220 653T413 710Q494 710 556 676T652 579T686 436Q686 307 639 206T506 47T313 -10Q232 -10 170 24ZM386 104T435 145T513 259T541 426Q541
502 503 549T404 596Q341 596 292 555T214 441T186 275Q186 199 224 152T323 104Q386 104 435 145ZM416 917H489L595 755H489L443 833L370 755H253L416 917Z" />
<glyph unicode="&#xd5;" glyph-name="Otilde" horiz-adv-x="690" d="M232 -10T170 24T74 121T40 264Q40 393 87 494T220 653T413 710Q494 710 556 676T652 579T686 436Q686 307 639 206T506 47T313 -10Q232 -10 170 24ZM386 104T435 145T513 259T541 426Q541 502
503 549T404 596Q341 596 292 555T214 441T186 275Q186 199 224 152T323 104Q386 104 435 145ZM263 815T298 848T379 881Q399 881 415 874T452 853Q466 844 475 839T494 834Q521 834 530 885H610Q601 820 567 788T485 755Q465 755 448 762T408 784Q381 802 369
802Q358 802 348 789T334 755H254Q263 815 298 848Z" />
<glyph unicode="&#xd6;" glyph-name="Odieresis" horiz-adv-x="690" d="M232 -10T170 24T74 121T40 264Q40 393 87 494T220 653T413 710Q494 710 556 676T652 579T686 436Q686 307 639 206T506 47T313 -10Q232 -10 170 24ZM386 104T435 145T513 259T541 426Q541
502 503 549T404 596Q341 596 292 555T214 441T186 275Q186 199 224 152T323 104Q386 104 435 145ZM294 755T278 770T262 809Q262 844 284 865T342 887Q367 887 382 872T398 833Q398 799 376 777T319 755Q294 755 278 770ZM504 755T489 770T473 809Q473 844 495
865T553 887Q577 887 593 872T609 833Q609 799 587 777T529 755Q504 755 489 770Z" />
<glyph unicode="&#xd7;" glyph-name="multiply" horiz-adv-x="617" d="M296 185L90 2L23 74L234 263L89 450L181 523L324 341L531 523L598 450L388 263L532 74L439 2L296 185Z" />
<glyph unicode="&#xd8;" glyph-name="Oslash" horiz-adv-x="690" d="M645 602T665 550T686 436Q686 307 639 206T506 47T313 -10Q234 -10 171 24L124 -43H13L101 82Q40 156 40 264Q40 393 87 494T220 653T413 710Q477 710 528 689L553 725H668L607 638Q645 602
665 550ZM186 244T194 214L455 586Q430 596 404 596Q341 596 292 555T214 441T186 275Q186 244 194 214ZM386 104T435 145T513 259T541 426Q541 478 522 519L246 130Q280 104 323 104Q386 104 435 145Z" />
<glyph unicode="&#xd9;" glyph-name="Ugrave" horiz-adv-x="662" d="M178 -10T118 43T57 200Q57 237 64 273L139 700H283L208 275Q202 244 202 217Q202 105 306 105Q369 105 408 148T463 275L538 700H682L607 273Q557 -10 293 -10Q178 -10 118 43ZM289 917H413L469
755H367L289 917Z" />
<glyph unicode="&#xda;" glyph-name="Uacute" horiz-adv-x="662" d="M178 -10T118 43T57 200Q57 237 64 273L139 700H283L208 275Q202 244 202 217Q202 105 306 105Q369 105 408 148T463 275L538 700H682L607 273Q557 -10 293 -10Q178 -10 118 43ZM483 917H607L471
755H369L483 917Z" />
<glyph unicode="&#xdb;" glyph-name="Ucircumflex" horiz-adv-x="662" d="M178 -10T118 43T57 200Q57 237 64 273L139 700H283L208 275Q202 244 202 217Q202 105 306 105Q369 105 408 148T463 275L538 700H682L607 273Q557 -10 293 -10Q178 -10 118 43ZM412 917H485L591
755H485L439 833L366 755H249L412 917Z" />
<glyph unicode="&#xdc;" glyph-name="Udieresis" horiz-adv-x="662" d="M178 -10T118 43T57 200Q57 237 64 273L139 700H283L208 275Q202 244 202 217Q202 105 306 105Q369 105 408 148T463 275L538 700H682L607 273Q557 -10 293 -10Q178 -10 118 43ZM290 755T274
770T258 809Q258 844 280 865T338 887Q363 887 378 872T394 833Q394 799 372 777T315 755Q290 755 274 770ZM500 755T485 770T469 809Q469 844 491 865T549 887Q573 887 589 872T605 833Q605 799 583 777T525 755Q500 755 485 770Z" />
<glyph unicode="&#xdd;" glyph-name="Yacute" horiz-adv-x="628" d="M247 280L94 700H246L341 425L532 700H692L391 280L342 0H198L247 280ZM463 917H587L451 755H349L463 917Z" />
<glyph unicode="&#xde;" glyph-name="Thorn" horiz-adv-x="574" d="M147 700H290L275 608H341Q447 608 506 562T566 434Q566 306 489 233T275 160H196L167 0H24L147 700ZM297 274Q353 274 388 313T424 414Q424 454 400 474T328 495H254L216 274H297Z" />
<glyph unicode="&#xdf;" glyph-name="germandbls" horiz-adv-x="575" d="M270 -10T227 15T168 88L256 140Q282 85 331 85Q361 85 383 108T406 163Q406 184 391 198T342 226Q300 244 279 273T257 339Q257 372 268 395T296 433T340 468Q374 492 391 511T408 561Q408
587 390 601T338 615Q235 615 211 479L127 0H1L86 484Q106 592 171 651T340 710Q429 710 482 673T535 575Q535 534 520 504T485 456T434 415Q407 397 395 384T382 355Q382 341 395 330T452 296Q492 275 513 244T534 174Q534 120 509 78T437 13T331 -10Q270 -10
227 15Z" />
<glyph unicode="&#xe0;" glyph-name="agrave" horiz-adv-x="558" d="M117 -10T70 43T22 187Q22 281 54 354T145 469T278 510Q330 510 368 491T422 437H424L444 500H551L486 133Q468 28 465 0H345Q351 41 356 66H354Q324 31 283 11T198 -10Q117 -10 70 43ZM287
88T324 118T370 199L388 302Q390 316 390 324Q390 364 363 389T292 415Q252 415 220 387T169 308T150 196Q150 144 171 116T234 88Q287 88 324 118ZM191 717H315L371 555H269L191 717Z" />
<glyph unicode="&#xe1;" glyph-name="aacute" horiz-adv-x="558" d="M117 -10T70 43T22 187Q22 281 54 354T145 469T278 510Q330 510 368 491T422 437H424L444 500H551L486 133Q468 28 465 0H345Q351 41 356 66H354Q324 31 283 11T198 -10Q117 -10 70 43ZM287
88T324 118T370 199L388 302Q390 316 390 324Q390 364 363 389T292 415Q252 415 220 387T169 308T150 196Q150 144 171 116T234 88Q287 88 324 118ZM385 717H509L373 555H271L385 717Z" />
<glyph unicode="&#xe2;" glyph-name="acircumflex" horiz-adv-x="558" d="M117 -10T70 43T22 187Q22 281 54 354T145 469T278 510Q330 510 368 491T422 437H424L444 500H551L486 133Q468 28 465 0H345Q351 41 356 66H354Q324 31 283 11T198 -10Q117 -10 70 43ZM287
88T324 118T370 199L388 302Q390 316 390 324Q390 364 363 389T292 415Q252 415 220 387T169 308T150 196Q150 144 171 116T234 88Q287 88 324 118ZM314 717H387L493 555H387L341 633L268 555H151L314 717Z" />
<glyph unicode="&#xe3;" glyph-name="atilde" horiz-adv-x="558" d="M117 -10T70 43T22 187Q22 281 54 354T145 469T278 510Q330 510 368 491T422 437H424L444 500H551L486 133Q468 28 465 0H345Q351 41 356 66H354Q324 31 283 11T198 -10Q117 -10 70 43ZM287
88T324 118T370 199L388 302Q390 316 390 324Q390 364 363 389T292 415Q252 415 220 387T169 308T150 196Q150 144 171 116T234 88Q287 88 324 118ZM161 615T196 648T277 681Q297 681 313 674T350 653Q364 644 373 639T392 634Q419 634 428 685H508Q499 620 465
588T383 555Q363 555 346 562T306 584Q279 602 267 602Q256 602 246 589T232 555H152Q161 615 196 648Z" />
<glyph unicode="&#xe4;" glyph-name="adieresis" horiz-adv-x="558" d="M117 -10T70 43T22 187Q22 281 54 354T145 469T278 510Q330 510 368 491T422 437H424L444 500H551L486 133Q468 28 465 0H345Q351 41 356 66H354Q324 31 283 11T198 -10Q117 -10 70 43ZM287
88T324 118T370 199L388 302Q390 316 390 324Q390 364 363 389T292 415Q252 415 220 387T169 308T150 196Q150 144 171 116T234 88Q287 88 324 118ZM192 555T176 570T160 609Q160 644 182 665T240 687Q265 687 280 672T296 633Q296 599 274 577T217 555Q192 555
176 570ZM402 555T387 570T371 609Q371 644 393 665T451 687Q475 687 491 672T507 633Q507 599 485 577T427 555Q402 555 387 570Z" />
<glyph unicode="&#xe5;" glyph-name="aring" horiz-adv-x="558" d="M117 -10T70 43T22 187Q22 281 54 354T145 469T278 510Q330 510 368 491T422 437H424L444 500H551L486 133Q468 28 465 0H345Q351 41 356 66H354Q324 31 283 11T198 -10Q117 -10 70 43ZM287 88T324
118T370 199L388 302Q390 316 390 324Q390 364 363 389T292 415Q252 415 220 387T169 308T150 196Q150 144 171 116T234 88Q287 88 324 118ZM282 551T257 573T232 632Q232 685 267 718T357 751Q397 751 422 729T447 670Q447 618 412 585T322 551Q282 551 257 573ZM356
600T373 617T390 662Q390 680 379 691T348 702Q322 702 306 685T289 640Q289 622 300 611T330 600Q356 600 373 617Z" />
<glyph unicode="&#xe6;" glyph-name="ae" horiz-adv-x="818" d="M690 510T742 461T795 320Q795 291 789 258L781 214H446V199Q446 97 544 97Q585 97 618 112T689 162L745 96Q709 47 651 19T525 -10Q473 -10 432 7T363 56Q326 25 278 8T179 -10Q97 -10 52 27T7
126Q7 211 69 255T249 299H334L339 329Q341 345 341 350Q341 412 270 412Q179 412 113 352L69 428Q163 510 285 510Q390 510 437 454Q505 510 597 510Q690 510 742 461ZM679 352T657 379T587 406Q546 406 513 377T462 299H677V306Q679 352 657 379ZM238 86T271
111T311 173L319 214H243Q191 214 162 195T132 134Q132 111 148 99T194 86Q238 86 271 111Z" />
<glyph unicode="&#xe7;" glyph-name="ccedilla" horiz-adv-x="492" d="M291 88T325 106T385 157L450 90Q386 6 277 -8L233 -66Q270 -66 292 -84T315 -131Q315 -178 276 -210T178 -242Q153 -242 128 -236T88 -221L111 -166Q139 -178 175 -178Q196 -178 210 -168T224
-141Q224 -128 208 -121T162 -115L139 -82L194 -7Q113 4 67 56T21 192Q21 285 58 357T162 470T316 510Q387 510 437 484T506 410L418 343Q404 375 376 393T311 412Q266 412 229 385T171 310T150 203Q150 148 177 118T254 88Q291 88 325 106Z" />
<glyph unicode="&#xe8;" glyph-name="egrave" horiz-adv-x="542" d="M411 510T464 457T518 312Q518 279 511 245L502 203H154Q155 151 181 124T259 97Q303 97 338 112T411 162L469 96Q431 47 369 19T239 -10Q141 -10 83 44T25 191Q25 284 62 356T165 469T317 510Q411
510 464 457ZM401 350T377 378T303 406Q256 406 219 376T166 290H398V296Q401 350 377 378ZM197 717H321L377 555H275L197 717Z" />
<glyph unicode="&#xe9;" glyph-name="eacute" horiz-adv-x="542" d="M411 510T464 457T518 312Q518 279 511 245L502 203H154Q155 151 181 124T259 97Q303 97 338 112T411 162L469 96Q431 47 369 19T239 -10Q141 -10 83 44T25 191Q25 284 62 356T165 469T317 510Q411
510 464 457ZM401 350T377 378T303 406Q256 406 219 376T166 290H398V296Q401 350 377 378ZM391 717H515L379 555H277L391 717Z" />
<glyph unicode="&#xea;" glyph-name="ecircumflex" horiz-adv-x="542" d="M411 510T464 457T518 312Q518 279 511 245L502 203H154Q155 151 181 124T259 97Q303 97 338 112T411 162L469 96Q431 47 369 19T239 -10Q141 -10 83 44T25 191Q25 284 62 356T165 469T317
510Q411 510 464 457ZM401 350T377 378T303 406Q256 406 219 376T166 290H398V296Q401 350 377 378ZM320 717H393L499 555H393L347 633L274 555H157L320 717Z" />
<glyph unicode="&#xeb;" glyph-name="edieresis" horiz-adv-x="542" d="M411 510T464 457T518 312Q518 279 511 245L502 203H154Q155 151 181 124T259 97Q303 97 338 112T411 162L469 96Q431 47 369 19T239 -10Q141 -10 83 44T25 191Q25 284 62 356T165 469T317
510Q411 510 464 457ZM401 350T377 378T303 406Q256 406 219 376T166 290H398V296Q401 350 377 378ZM198 555T182 570T166 609Q166 644 188 665T246 687Q271 687 286 672T302 633Q302 599 280 577T223 555Q198 555 182 570ZM408 555T393 570T377 609Q377 644 399
665T457 687Q481 687 497 672T513 633Q513 599 491 577T433 555Q408 555 393 570Z" />
<glyph unicode="&#xec;" glyph-name="igrave" horiz-adv-x="279" d="M121 500H247L159 0H33L121 500ZM63 717H187L243 555H141L63 717Z" />
<glyph unicode="&#xed;" glyph-name="iacute" horiz-adv-x="279" d="M121 500H247L159 0H33L121 500ZM257 717H381L245 555H143L257 717Z" />
<glyph unicode="&#xee;" glyph-name="icircumflex" horiz-adv-x="279" d="M121 500H247L159 0H33L121 500ZM186 717H259L365 555H259L213 633L140 555H23L186 717Z" />
<glyph unicode="&#xef;" glyph-name="idieresis" horiz-adv-x="279" d="M121 500H247L159 0H33L121 500ZM64 555T48 570T32 609Q32 644 54 665T112 687Q137 687 152 672T168 633Q168 599 146 577T89 555Q64 555 48 570ZM274 555T259 570T243 609Q243 644 265 665T323
687Q347 687 363 672T379 633Q379 599 357 577T299 555Q274 555 259 570Z" />
<glyph unicode="&#xf0;" glyph-name="eth" horiz-adv-x="511" d="M435 538T461 472T488 328Q488 232 452 155T351 34T206 -10Q121 -10 70 38T19 168Q19 243 54 307T150 409T280 447Q316 447 347 429Q329 488 288 532L148 450L113 518L225 583Q178 611 129 619L153
695Q250 684 321 639L454 716L487 647L385 588Q435 538 461 472ZM262 89T291 111T337 171T354 257Q354 301 333 325T272 350Q238 350 209 328T164 266T147 181Q147 138 168 114T226 89Q262 89 291 111Z" />
<glyph unicode="&#xf1;" glyph-name="ntilde" horiz-adv-x="563" d="M69 368L73 393Q86 472 87 500H207Q205 457 197 413H199Q226 459 272 484T376 510Q449 510 486 470T523 352Q523 317 516 281L466 0H339L389 282Q393 303 393 326Q393 407 319 407Q266 407 228
371T179 273L131 0H3L69 368ZM172 615T207 648T288 681Q308 681 324 674T361 653Q375 644 384 639T403 634Q430 634 439 685H519Q510 620 476 588T394 555Q374 555 357 562T317 584Q290 602 278 602Q267 602 257 589T243 555H163Q172 615 207 648Z" />
<glyph unicode="&#xf2;" glyph-name="ograve" horiz-adv-x="579" d="M147 -10T87 45T26 194Q26 287 64 359T170 470T329 510Q432 510 492 455T553 306Q553 213 515 141T408 30T250 -10Q147 -10 87 45ZM308 85T345 112T403 187T424 295Q424 351 396 383T316 415Q270
415 233 388T175 313T154 205Q154 149 183 117T262 85Q308 85 345 112ZM212 717H336L392 555H290L212 717Z" />
<glyph unicode="&#xf3;" glyph-name="oacute" horiz-adv-x="579" d="M147 -10T87 45T26 194Q26 287 64 359T170 470T329 510Q432 510 492 455T553 306Q553 213 515 141T408 30T250 -10Q147 -10 87 45ZM308 85T345 112T403 187T424 295Q424 351 396 383T316 415Q270
415 233 388T175 313T154 205Q154 149 183 117T262 85Q308 85 345 112ZM406 717H530L394 555H292L406 717Z" />
<glyph unicode="&#xf4;" glyph-name="ocircumflex" horiz-adv-x="579" d="M147 -10T87 45T26 194Q26 287 64 359T170 470T329 510Q432 510 492 455T553 306Q553 213 515 141T408 30T250 -10Q147 -10 87 45ZM308 85T345 112T403 187T424 295Q424 351 396 383T316
415Q270 415 233 388T175 313T154 205Q154 149 183 117T262 85Q308 85 345 112ZM335 717H408L514 555H408L362 633L289 555H172L335 717Z" />
<glyph unicode="&#xf5;" glyph-name="otilde" horiz-adv-x="579" d="M147 -10T87 45T26 194Q26 287 64 359T170 470T329 510Q432 510 492 455T553 306Q553 213 515 141T408 30T250 -10Q147 -10 87 45ZM308 85T345 112T403 187T424 295Q424 351 396 383T316 415Q270
415 233 388T175 313T154 205Q154 149 183 117T262 85Q308 85 345 112ZM182 615T217 648T298 681Q318 681 334 674T371 653Q385 644 394 639T413 634Q440 634 449 685H529Q520 620 486 588T404 555Q384 555 367 562T327 584Q300 602 288 602Q277 602 267 589T253
555H173Q182 615 217 648Z" />
<glyph unicode="&#xf6;" glyph-name="odieresis" horiz-adv-x="579" d="M147 -10T87 45T26 194Q26 287 64 359T170 470T329 510Q432 510 492 455T553 306Q553 213 515 141T408 30T250 -10Q147 -10 87 45ZM308 85T345 112T403 187T424 295Q424 351 396 383T316
415Q270 415 233 388T175 313T154 205Q154 149 183 117T262 85Q308 85 345 112ZM213 555T197 570T181 609Q181 644 203 665T261 687Q286 687 301 672T317 633Q317 599 295 577T238 555Q213 555 197 570ZM423 555T408 570T392 609Q392 644 414 665T472 687Q496 687
512 672T528 633Q528 599 506 577T448 555Q423 555 408 570Z" />
<glyph unicode="&#xf7;" glyph-name="divide" horiz-adv-x="617" d="M301 371T283 387T264 429Q264 466 291 490T356 515Q386 515 404 499T422 457Q422 420 396 396T331 371Q301 371 283 387ZM58 310H581L564 214H40L58 310ZM237 9T219 25T200 68Q200 104 227
128T292 153Q322 153 340 138T358 96Q358 59 332 34T267 9Q237 9 219 25Z" />
<glyph unicode="&#xf8;" glyph-name="oslash" horiz-adv-x="579" d="M516 436T534 396T553 306Q553 213 515 141T408 30T250 -10Q199 -10 157 4L123 -43H35L93 39Q26 95 26 194Q26 287 64 359T170 470T329 510Q376 510 415 498L441 535H533L482 463Q516 436 534
396ZM154 170T166 143L353 410Q335 415 316 415Q270 415 233 388T175 313T154 205Q154 170 166 143ZM308 85T345 112T403 187T424 295Q424 332 410 362L219 92Q242 85 262 85Q308 85 345 112Z" />
<glyph unicode="&#xf9;" glyph-name="ugrave" horiz-adv-x="561" d="M110 -10T73 29T36 146Q36 181 43 217L92 500H220L171 217Q166 187 166 169Q166 130 183 112T235 93Q287 93 328 133T381 234L427 500H555L490 127Q482 87 475 0H354Q355 48 361 88H359Q332
42 285 16T181 -10Q110 -10 73 29ZM211 717H335L391 555H289L211 717Z" />
<glyph unicode="&#xfa;" glyph-name="uacute" horiz-adv-x="561" d="M110 -10T73 29T36 146Q36 181 43 217L92 500H220L171 217Q166 187 166 169Q166 130 183 112T235 93Q287 93 328 133T381 234L427 500H555L490 127Q482 87 475 0H354Q355 48 361 88H359Q332
42 285 16T181 -10Q110 -10 73 29ZM405 717H529L393 555H291L405 717Z" />
<glyph unicode="&#xfb;" glyph-name="ucircumflex" horiz-adv-x="561" d="M110 -10T73 29T36 146Q36 181 43 217L92 500H220L171 217Q166 187 166 169Q166 130 183 112T235 93Q287 93 328 133T381 234L427 500H555L490 127Q482 87 475 0H354Q355 48 361 88H359Q332
42 285 16T181 -10Q110 -10 73 29ZM334 717H407L513 555H407L361 633L288 555H171L334 717Z" />
<glyph unicode="&#xfc;" glyph-name="udieresis" horiz-adv-x="561" d="M110 -10T73 29T36 146Q36 181 43 217L92 500H220L171 217Q166 187 166 169Q166 130 183 112T235 93Q287 93 328 133T381 234L427 500H555L490 127Q482 87 475 0H354Q355 48 361 88H359Q332
42 285 16T181 -10Q110 -10 73 29ZM212 555T196 570T180 609Q180 644 202 665T260 687Q285 687 300 672T316 633Q316 599 294 577T237 555Q212 555 196 570ZM422 555T407 570T391 609Q391 644 413 665T471 687Q495 687 511 672T527 633Q527 599 505 577T447 555Q422
555 407 570Z" />
<glyph unicode="&#xfd;" glyph-name="yacute" horiz-adv-x="505" d="M536 500L253 -23Q161 -192 7 -192Q-32 -192 -73 -181L-55 -80Q-44 -84 -26 -87T6 -90Q49 -90 86 -60T160 37L56 500H188L242 179L398 500H536ZM372 717H496L360 555H258L372 717Z" />
<glyph unicode="&#xfe;" glyph-name="thorn" horiz-adv-x="542" d="M136 742H262L212 462Q234 484 271 497T350 510Q429 510 474 460T519 320Q519 226 485 151T391 33T255 -10Q216 -10 183 0T136 29L92 -222H-34L136 742ZM286 85T319 115T372 198T392 310Q392
361 371 388T308 415Q261 415 227 383T183 296L170 219Q166 191 166 179Q166 135 187 110T247 85Q286 85 319 115Z" />
<glyph unicode="&#xff;" glyph-name="ydieresis" horiz-adv-x="505" d="M536 500L253 -23Q161 -192 7 -192Q-32 -192 -73 -181L-55 -80Q-44 -84 -26 -87T6 -90Q49 -90 86 -60T160 37L56 500H188L242 179L398 500H536ZM179 555T163 570T147 609Q147 644 169 665T227
687Q252 687 267 672T283 633Q283 599 261 577T204 555Q179 555 163 570ZM389 555T374 570T358 609Q358 644 380 665T438 687Q462 687 478 672T494 633Q494 599 472 577T414 555Q389 555 374 570Z" />
<glyph unicode="&#x2013;" glyph-name="endash" horiz-adv-x="540" d="M34 310H527L512 222H18L34 310Z" />
<glyph unicode="&#x2014;" glyph-name="emdash" horiz-adv-x="836" d="M34 310H823L808 222H18L34 310Z" />
<glyph unicode="&#x2018;" glyph-name="quoteleft" horiz-adv-x="327" d="M270 564T285 548T300 505Q300 460 268 430T189 399Q154 399 134 421T113 480Q113 522 136 572T200 668T289 746L334 681Q307 661 280 629T235 563Q239 564 247 564Q270 564 285 548Z" />
<glyph unicode="&#x2019;" glyph-name="quoteright" horiz-adv-x="327" d="M283 728T304 706T326 647Q326 605 303 555T239 458T150 380L104 445Q132 466 158 497T202 563Q199 562 192 562Q168 562 153 579T138 622Q138 666 170 697T248 728Q283 728 304 706Z" />
<glyph unicode="&#x201a;" glyph-name="quotesinglbase" horiz-adv-x="328" d="M183 159T204 137T226 78Q226 37 203 -14T139 -112T50 -189L4 -124Q32 -105 58 -74T102 -6Q99 -7 92 -7Q68 -7 53 9T38 52Q38 96 70 127T148 159Q183 159 204 137Z" />
<glyph unicode="&#x201c;" glyph-name="quotedblleft" horiz-adv-x="564" d="M307 661T280 629T235 563Q239 564 247 564Q270 564 285 548T300 505Q300 460 268 430T189 399Q154 399 134 421T113 480Q113 522 136 572T200 668T289 746L334 681Q307 661 280 629ZM507
564T522 548T537 505Q537 460 505 430T426 399Q391 399 370 421T349 480Q349 522 372 572T436 668T525 746L571 681Q544 661 517 629T472 563Q476 564 483 564Q507 564 522 548Z" />
<glyph unicode="&#x201d;" glyph-name="quotedblright" horiz-adv-x="564" d="M284 730T305 708T326 649Q326 607 303 557T239 460T150 382L104 447Q132 468 158 499T202 565Q199 564 192 564Q168 564 153 581T138 624Q138 668 170 699T249 730Q284 730 305 708ZM520
730T541 708T562 649Q562 607 539 557T475 460T386 382L341 447Q369 467 395 499T439 565Q435 564 428 564Q405 564 390 581T375 624Q375 668 407 699T485 730Q520 730 541 708Z" />
<glyph unicode="&#x201e;" glyph-name="quotedblbase" horiz-adv-x="565" d="M183 159T204 137T226 78Q226 36 203 -14T139 -111T50 -189L4 -124Q32 -105 58 -73T102 -6Q99 -7 92 -7Q68 -7 53 9T38 52Q38 97 70 128T148 159Q183 159 204 137ZM420 159T441 137T462
78Q462 36 439 -15T375 -112T286 -189L241 -124Q269 -103 296 -72T339 -6Q335 -7 328 -7Q304 -7 290 9T275 52Q275 97 307 128T385 159Q420 159 441 137Z" />
<glyph unicode="&#x2022;" glyph-name="bullet" horiz-adv-x="368" d="M114 152T81 184T47 266Q47 342 94 389T218 436Q270 436 303 405T337 323Q337 247 290 200T167 152Q114 152 81 184Z" />
<glyph unicode="&#x2039;" glyph-name="guilsinglleft" horiz-adv-x="352" d="M34 260L219 460H357L175 260L287 60H149L34 260Z" />
<glyph unicode="&#x203a;" glyph-name="guilsinglright" horiz-adv-x="352" d="M180 260L69 460H206L321 260L136 60H-2L180 260Z" />
</font>
</defs>
</svg>
