<?xml version="1.0" standalone="no"?>
<!DOCTYPE svg PUBLIC "-//W3C//DTD SVG 1.1//EN" "http://www.w3.org/Graphics/SVG/1.1/DTD/svg11.dtd">
<svg xmlns="http://www.w3.org/2000/svg">
<defs >
<font id="Sarabun" horiz-adv-x="518" ><font-face
    font-family="Sarabun ExtraLight"
    units-per-em="1000"
    panose-1="0 0 3 0 0 0 0 0 0 0"
    ascent="1068"
    descent="-232"
    alphabetic="0" />
<glyph unicode=" " glyph-name="space" horiz-adv-x="250" />
<glyph unicode="!" glyph-name="exclam" horiz-adv-x="224" d="M78 700H144L134 175H88L78 700ZM89 -10T75 4T61 41Q61 64 75 78T111 92Q134 92 148 78T163 41Q163 18 149 4T111 -10Q89 -10 75 4Z" />
<glyph unicode="&quot;" glyph-name="quotedbl" horiz-adv-x="318" d="M61 710H123L113 474H71L61 710ZM195 710H257L247 474H205L195 710Z" />
<glyph unicode="#" glyph-name="numbersign" horiz-adv-x="671" d="M521 444L498 255H590V210H492L466 0H418L444 210H202L176 0H128L154 210H60V255H160L183 444H81V490H189L215 700H263L237 490H479L505 700H553L527 490H611V444H521ZM473 444H231L208 255H450L473
444Z" />
<glyph unicode="$" glyph-name="dollar" horiz-adv-x="524" d="M470 99T421 50T289 -8V-73H239V-9Q182 -5 131 21T51 88L86 125Q116 86 164 62T260 38Q329 38 371 74T414 168Q414 224 380 263T260 345Q186 382 146 411T88 471T71 541Q71 611 116 656T239 709V770H289V709Q344
704 390 676T459 606L421 578Q397 617 355 639T265 662Q203 662 165 630T127 545Q127 514 141 492T191 445T301 384Q391 338 430 289T470 174Q470 99 421 50Z" />
<glyph unicode="%" glyph-name="percent" horiz-adv-x="857" d="M128 325T89 377T50 518Q50 606 89 658T194 710Q261 710 300 658T339 518Q339 429 300 377T194 325Q128 325 89 377ZM613 700H667L238 -13H184L613 700ZM239 366T265 406T291 518Q291 587 265 627T194
668Q149 668 123 628T97 518Q97 447 123 407T194 366Q239 366 265 406ZM596 -10T558 41T519 182Q519 271 557 323T662 376Q729 376 768 324T807 182Q807 94 768 42T662 -10Q596 -10 558 41ZM708 32T734 72T760 182Q760 253 734 293T662 334Q617 334 591 294T565
182Q565 113 591 73T662 32Q708 32 734 72Z" />
<glyph unicode="&amp;" glyph-name="ampersand" horiz-adv-x="647" d="M585 -10Q555 16 492 74Q448 33 392 12T271 -10Q165 -10 103 45T40 192Q40 254 80 309T189 397Q126 490 126 566Q126 630 169 670T282 710Q350 710 393 672T436 571Q436 518 391 468T264 378L282
355Q351 270 488 142Q539 210 555 306H605Q587 188 524 110Q562 75 599 44L617 28L585 -10ZM238 664T209 637T180 565Q180 501 239 412Q304 445 343 487T382 569Q382 611 355 637T284 664Q238 664 209 637ZM383 38T457 107Q308 248 242 327L215 360Q159 333 128
288T96 193Q96 122 145 80T279 38Q383 38 457 107Z" />
<glyph unicode="&apos;" glyph-name="quotesingle" horiz-adv-x="183" d="M61 710H123L113 474H71L61 710Z" />
<glyph unicode="(" glyph-name="parenleft" horiz-adv-x="293" d="M121 0T81 110T40 344Q40 468 80 578T189 750H248Q178 694 136 584T94 344Q94 215 136 105T248 -62H189Q121 0 81 110Z" />
<glyph unicode=")" glyph-name="parenright" horiz-adv-x="293" d="M114 -7T156 104T199 344Q199 473 157 584T44 750H104Q172 688 212 578T253 344Q253 220 213 110T104 -62H44Q114 -7 156 104Z" />
<glyph unicode="*" glyph-name="asterisk" horiz-adv-x="449" d="M99 392L193 517L40 507V562L193 552L99 678L154 709L224 574L294 709L349 678L255 552L408 562V507L255 517L349 392L294 360L224 496L154 360L99 392Z" />
<glyph unicode="+" glyph-name="plus" horiz-adv-x="600" d="M274 239H54V285H274V524H324V285H545V239H324V0H274V239Z" />
<glyph unicode="," glyph-name="comma" horiz-adv-x="223" d="M138 101T154 81T170 27Q170 -19 146 -72T82 -162L61 -138Q84 -112 100 -76T122 -6L107 -7Q86 -7 73 7T59 45Q59 70 74 85T113 101Q138 101 154 81Z" />
<glyph unicode="-" glyph-name="hyphen" horiz-adv-x="340" d="M40 288H300V244H40V288Z" />
<glyph unicode="." glyph-name="period" horiz-adv-x="223" d="M89 -10T76 4T62 41Q62 64 75 78T111 92Q133 92 147 78T161 41Q161 19 147 5T111 -10Q89 -10 76 4Z" />
<glyph unicode="/" glyph-name="slash" horiz-adv-x="378" d="M354 725H404L24 -43H-26L354 725Z" />
<glyph unicode="0" glyph-name="zero" horiz-adv-x="540" d="M162 -10T105 81T47 350Q47 528 104 619T270 710Q378 710 435 619T493 350Q493 172 436 81T270 -10Q162 -10 105 81ZM350 37T393 117T437 350Q437 503 394 583T270 663Q190 663 147 584T103 350Q103
197 146 117T270 37Q350 37 393 117Z" />
<glyph unicode="1" glyph-name="one" horiz-adv-x="540" d="M138 50H262V630L119 546V599L284 700H318V50H441V0H138V50Z" />
<glyph unicode="2" glyph-name="two" horiz-adv-x="540" d="M70 58Q145 114 219 192T343 357T394 520Q394 585 357 623T254 661Q201 661 154 637T82 575L53 612Q82 657 136 683T255 710Q345 710 398 659T451 523Q451 402 357 277T140 50H487V0H70V58Z" />
<glyph unicode="3" glyph-name="three" horiz-adv-x="540" d="M193 -10T137 16T52 89L82 126Q107 85 156 62T262 39Q338 39 384 79T431 185Q431 258 372 299T212 341H194V393H212Q270 393 313 412T380 467T404 545Q404 600 368 630T270 661Q214 661 167 638T94
574L64 611Q93 657 148 683T270 710Q357 710 408 667T460 552Q460 487 420 438T310 369Q394 355 441 307T488 184Q488 127 460 83T381 15T263 -10Q193 -10 137 16Z" />
<glyph unicode="4" glyph-name="four" horiz-adv-x="540" d="M365 129H30V178L346 700H421V177H504V129H421V0H365V129ZM365 177V641L84 177H365Z" />
<glyph unicode="5" glyph-name="five" horiz-adv-x="540" d="M189 -10T134 16T52 89L82 126Q107 86 153 63T256 39Q336 39 382 88T429 224Q429 306 386 355T270 404Q224 404 185 385T124 334H77L109 700H464V651H160L140 405Q163 427 202 439T283 452Q377 452
432 391T488 226Q488 118 426 54T258 -10Q189 -10 134 16Z" />
<glyph unicode="6" glyph-name="six" horiz-adv-x="540" d="M207 -10T157 21T79 111T51 248Q51 356 101 454T237 621T428 710L435 666Q360 647 296 602T186 495T123 363Q146 398 186 419T283 440Q348 440 394 410T465 328T490 214Q490 150 465 100T391 20T276
-10Q207 -10 157 21ZM347 39T391 87T435 215Q435 294 391 342T274 391Q202 391 158 343T113 215Q113 136 157 88T274 39Q347 39 391 87Z" />
<glyph unicode="7" glyph-name="seven" horiz-adv-x="540" d="M201 121T218 222T283 432T423 651H60V700H481V640Q370 515 312 358T254 0H197Q201 121 218 222Z" />
<glyph unicode="8" glyph-name="eight" horiz-adv-x="540" d="M164 -10T104 43T44 189Q44 254 75 302T170 374Q122 393 96 437T69 537Q69 617 123 663T270 710Q363 710 417 664T471 537Q471 481 445 437T371 374Q434 350 465 302T496 189Q496 97 436 44T270 -10Q164
-10 104 43ZM338 396T376 432T415 530Q415 591 378 626T270 661Q200 661 163 626T125 530Q125 468 163 432T270 396Q338 396 376 432ZM350 39T395 80T440 196Q440 268 395 309T270 350Q191 350 146 309T100 196Q100 123 145 81T270 39Q350 39 395 80Z" />
<glyph unicode="9" glyph-name="nine" horiz-adv-x="540" d="M106 35Q184 53 250 97T361 204T417 335Q396 302 355 282T262 261Q200 261 152 290T78 370T51 486Q51 551 77 602T152 681T265 710Q372 710 431 638T490 444Q490 332 442 236T308 75T113 -10L106 35ZM338
309T383 357T428 485Q428 564 384 612T266 661Q194 661 150 613T106 485Q106 406 150 358T265 309Q338 309 383 357Z" />
<glyph unicode=":" glyph-name="colon" horiz-adv-x="223" d="M90 362T76 376T62 413Q62 435 76 449T111 464Q133 464 147 450T161 413Q161 391 147 377T111 362Q90 362 76 376ZM90 -12T76 2T62 39Q62 61 76 75T111 90Q133 90 147 76T161 39Q161 17 147 3T111
-12Q90 -12 76 2Z" />
<glyph unicode=";" glyph-name="semicolon" horiz-adv-x="223" d="M90 362T76 376T62 413Q62 435 76 449T111 464Q133 464 147 450T161 413Q161 391 147 377T111 362Q90 362 76 376ZM143 101T158 81T174 27Q174 -18 150 -71T86 -162L65 -138Q119 -78 126 -6L111
-7Q90 -7 77 7T63 45Q63 70 78 85T118 101Q143 101 158 81Z" />
<glyph unicode="&lt;" glyph-name="less" horiz-adv-x="600" d="M64 257V295L535 553V501L131 275L535 52V0L64 257Z" />
<glyph unicode="=" glyph-name="equal" horiz-adv-x="600" d="M77 386H523V340H77V386ZM77 188H523V142H77V188Z" />
<glyph unicode="&gt;" glyph-name="greater" horiz-adv-x="600" d="M64 52L468 275L64 501V553L535 295V257L64 0V52Z" />
<glyph unicode="?" glyph-name="question" horiz-adv-x="442" d="M187 173T187 203Q187 248 208 287T271 381Q308 430 326 463T345 533Q345 597 312 629T214 662Q171 662 134 641T74 583L40 619Q69 661 116 685T218 709Q307 709 354 664T401 535Q401 491 381 456T320
370Q278 318 258 282T237 199Q237 176 242 153H194Q187 173 187 203ZM198 -10T184 4T169 41Q169 64 183 78T220 93Q243 93 257 79T272 41Q272 18 258 4T220 -10Q198 -10 184 4Z" />
<glyph unicode="@" glyph-name="at" horiz-adv-x="788" d="M272 -143T196 -99T77 23T34 203Q34 316 82 404T216 542T413 591Q511 591 588 550T707 436T750 267Q750 197 727 141T662 50T567 13L526 10L512 80Q484 45 441 23T356 1Q292 1 252 39T211 138Q211 203
260 244T387 285H505V314Q505 362 474 392T393 423Q354 423 318 403T262 352L232 384Q255 419 300 441T394 464Q466 464 508 421T551 303V118Q551 91 560 55Q601 57 633 84T684 157T702 262Q702 345 666 410T563 511T413 547Q317 547 242 504T126 382T84 204Q84
116 121 48T225 -59T378 -97Q424 -97 470 -86T544 -58L562 -96Q531 -117 477 -130T370 -143Q272 -143 196 -99ZM395 42T429 60T484 104T505 154V245H393Q332 245 295 217T258 139Q258 92 290 67T361 42Q395 42 429 60Z" />
<glyph unicode="A" glyph-name="A" horiz-adv-x="566" d="M429 176H137L81 0H20L255 700H311L546 0H485L429 176ZM414 223L283 633L152 223H414Z" />
<glyph unicode="B" glyph-name="B" horiz-adv-x="579" d="M91 700H271Q381 700 435 660T490 536Q490 474 460 432T374 375V372Q451 355 485 314T519 196Q519 94 463 47T282 0H91V700ZM276 394Q434 394 434 536Q434 595 394 623T269 652H147V394H276ZM295 48Q383
48 424 83T465 193Q465 276 415 312T248 348H147V48H295Z" />
<glyph unicode="C" glyph-name="C" horiz-adv-x="566" d="M239 -10T175 33T76 158T41 350Q41 460 76 541T178 666T334 710Q399 710 453 684T536 612L506 575Q476 619 435 640T336 661Q223 661 161 580T98 350Q98 203 159 121T330 39Q389 39 434 61T506 125L536
88Q508 43 452 17T328 -10Q239 -10 175 33Z" />
<glyph unicode="D" glyph-name="D" horiz-adv-x="612" d="M91 700H299Q436 700 499 620T562 365Q562 236 532 156T438 38T270 0H91V700ZM286 49Q400 49 453 125T506 365Q506 468 485 530T419 622T298 651H147V49H286Z" />
<glyph unicode="E" glyph-name="E" horiz-adv-x="541" d="M91 700H480V651H147V393H445V345H147V49H480V0H91V700Z" />
<glyph unicode="F" glyph-name="F" horiz-adv-x="535" d="M91 700H485V651H147V364H463V315H147V0H91V700Z" />
<glyph unicode="G" glyph-name="G" horiz-adv-x="629" d="M559 349V0H530L512 53Q479 23 433 7T332 -10Q243 -10 178 33T77 158T41 350Q41 460 76 541T178 666T335 710Q406 710 462 684T547 612L518 576Q490 617 444 639T336 661Q223 661 161 580T98 350Q98 203
161 120T336 37Q388 37 432 55T505 106V305H326V349H559Z" />
<glyph unicode="H" glyph-name="H" horiz-adv-x="670" d="M90 700H146V377H524V700H580V0H524V328H146V0H90V700Z" />
<glyph unicode="I" glyph-name="I" horiz-adv-x="276" d="M110 700H166V0H110V700Z" />
<glyph unicode="J" glyph-name="J" horiz-adv-x="407" d="M96 -10T64 0T9 29L29 72Q51 56 78 48T133 39Q198 39 229 85T260 230V700H316V222Q316 105 271 48T132 -10Q96 -10 64 0Z" />
<glyph unicode="K" glyph-name="K" horiz-adv-x="572" d="M502 0L254 376L147 252V0H91V700H147V325L469 700H533L290 418L562 0H502Z" />
<glyph unicode="L" glyph-name="L" horiz-adv-x="526" d="M91 700H147V49H490V0H91V700Z" />
<glyph unicode="M" glyph-name="M" horiz-adv-x="789" d="M698 700V0H644V626L412 0H376L145 621V0H91V700H166L394 77L621 700H698Z" />
<glyph unicode="N" glyph-name="N" horiz-adv-x="671" d="M581 700V0H521L145 624V0H91V700H156L526 84V700H581Z" />
<glyph unicode="O" glyph-name="O" horiz-adv-x="650" d="M239 -10T175 34T76 160T41 350Q41 459 76 540T175 665T325 710Q411 710 475 666T574 540T609 350Q609 241 574 160T475 35T325 -10Q239 -10 175 34ZM394 37T445 75T525 184T553 350Q553 445 525 516T446
625T325 663Q256 663 205 625T125 516T97 350Q97 255 125 184T204 75T325 37Q394 37 445 75Z" />
<glyph unicode="P" glyph-name="P" horiz-adv-x="562" d="M91 700H278Q388 700 444 648T501 496Q501 391 442 334T273 276H147V0H91V700ZM285 324Q362 324 404 369T447 494Q447 572 404 611T277 651H147V324H285Z" />
<glyph unicode="Q" glyph-name="Q" horiz-adv-x="650" d="M609 208T551 115T390 -3Q467 -37 578 -56L569 -98Q433 -73 302 -9Q223 -3 164 42T73 167T41 350Q41 459 76 540T175 665T325 710Q411 710 475 666T574 540T609 350Q609 208 551 115ZM97 255T125 184T204
75T325 37Q394 37 445 75T525 184T553 350Q553 445 525 516T446 625T325 663Q256 663 205 625T125 516T97 350Q97 255 125 184Z" />
<glyph unicode="R" glyph-name="R" horiz-adv-x="573" d="M91 700H287Q396 700 449 656T502 520Q502 448 463 400T356 338V336Q378 324 393 306T419 260L526 0H464L371 235Q352 284 323 303T239 323H147V0H91V700ZM286 372Q368 372 407 408T447 521Q447 588 407
619T283 651H147V372H286Z" />
<glyph unicode="S" glyph-name="S" horiz-adv-x="520" d="M195 -10T139 17T51 88L86 125Q116 86 164 62T260 38Q329 38 371 74T414 168Q414 224 380 263T260 345Q186 382 146 411T88 471T71 541Q71 618 124 664T268 710Q329 710 382 681T459 606L421 578Q397 617
355 639T265 662Q203 662 165 630T127 545Q127 514 141 492T191 445T301 384Q391 338 430 289T470 174Q470 91 412 41T256 -10Q195 -10 139 17Z" />
<glyph unicode="T" glyph-name="T" horiz-adv-x="537" d="M240 653H20V700H517V653H296V0H240V653Z" />
<glyph unicode="U" glyph-name="U" horiz-adv-x="656" d="M90 -10T90 275V700H147V277Q147 38 328 38Q509 38 509 277V700H565V275Q565 -10 328 -10Q90 -10 90 275Z" />
<glyph unicode="V" glyph-name="V" horiz-adv-x="573" d="M553 700L317 0H256L20 700H81L287 66L492 700H553Z" />
<glyph unicode="W" glyph-name="W" horiz-adv-x="802" d="M772 700L629 0H569L401 633L233 0H173L30 700H91L205 70L370 700H433L597 73L711 700H772Z" />
<glyph unicode="X" glyph-name="X" horiz-adv-x="574" d="M251 359L51 700H118L287 398L455 700H522L323 359L533 0H467L287 315L107 0H41L251 359Z" />
<glyph unicode="Y" glyph-name="Y" horiz-adv-x="536" d="M240 277L20 700H84L267 328L452 700H515L296 277V0H240V277Z" />
<glyph unicode="Z" glyph-name="Z" horiz-adv-x="552" d="M41 38L432 651H70V700H498V660L108 49H511V0H41V38Z" />
<glyph unicode="[" glyph-name="bracketleft" horiz-adv-x="291" d="M71 700H271V657H125V-72H271V-115H71V700Z" />
<glyph unicode="\" glyph-name="backslash" horiz-adv-x="380" d="M-26 725H24L404 -43H354L-26 725Z" />
<glyph unicode="]" glyph-name="bracketright" horiz-adv-x="291" d="M20 -72H166V657H20V700H220V-115H20V-72Z" />
<glyph unicode="^" glyph-name="asciicircum" horiz-adv-x="576" d="M263 700H315L525 228H474L288 646L104 228H50L263 700Z" />
<glyph unicode="_" glyph-name="underscore" horiz-adv-x="298" d="M0 -223H298V-268H0V-223Z" />
<glyph unicode="`" glyph-name="grave" horiz-adv-x="401" d="M112 687H173L246 554H202L112 687Z" />
<glyph unicode="a" glyph-name="a" horiz-adv-x="506" d="M141 -10T95 31T49 140Q49 214 102 255T253 296H375V326Q375 393 341 428T241 464Q197 464 160 443T100 384L68 419Q96 463 141 486T245 510Q331 510 379 464T428 335V91Q428 56 440 0H394Q385 22 381
78H379Q350 36 308 13T215 -10Q141 -10 95 31ZM257 35T294 52T353 99T375 162V253H250Q180 253 141 223T101 140Q101 94 133 65T215 35Q257 35 294 52Z" />
<glyph unicode="b" glyph-name="b" horiz-adv-x="534" d="M233 -10T187 17T120 88H118Q119 44 116 0H68Q71 38 71 122V742H125V422H127Q152 465 192 487T283 510Q380 510 436 443T493 259Q493 178 468 117T395 23T284 -10Q233 -10 187 17ZM353 35T396 95T440 257Q440
353 397 409T281 466Q210 466 168 416T125 283V200Q125 124 167 80T281 35Q353 35 396 95Z" />
<glyph unicode="c" glyph-name="c" horiz-adv-x="462" d="M158 -10T100 58T41 250Q41 372 100 441T264 510Q322 510 367 487T441 419L409 388Q386 424 348 444T264 465Q185 465 140 408T94 250Q94 149 139 92T264 35Q309 35 347 55T409 112L441 81Q412 37 367
14T264 -10Q158 -10 100 58Z" />
<glyph unicode="d" glyph-name="d" horiz-adv-x="534" d="M151 -10T96 62T41 259Q41 375 97 442T251 510Q300 510 341 487T407 422H409V742H463V122Q463 38 466 0H418Q416 32 416 88H414Q391 43 346 17T247 -10Q151 -10 96 62ZM320 35T364 81T409 200V283Q409
367 367 416T253 466Q179 466 137 411T94 257Q94 154 136 95T250 35Q320 35 364 81Z" />
<glyph unicode="e" glyph-name="e" horiz-adv-x="503" d="M463 228H95Q100 137 143 87T263 37Q309 37 347 57T408 113L441 80Q411 36 366 13T263 -10Q159 -10 100 59T40 249Q40 371 98 440T257 510Q353 510 408 444T463 261V228ZM411 280Q411 364 369 414T257
464Q183 464 141 414T95 271H411V280Z" />
<glyph unicode="f" glyph-name="f" horiz-adv-x="302" d="M91 457H7V500H91V569Q91 637 129 677T232 717Q260 717 284 710T322 689L302 654Q275 672 235 672Q192 672 169 646T145 570V500H291V457H145V0H91V457Z" />
<glyph unicode="g" glyph-name="g" horiz-adv-x="534" d="M463 500V14Q463 -101 407 -161T244 -221Q150 -221 73 -181L92 -139Q131 -158 165 -166T242 -175Q329 -175 370 -127T412 21V78Q390 36 347 13T249 -10Q152 -10 97 62T41 259Q41 335 67 391T140 479T251
510Q301 510 342 487T407 421H409L419 500H463ZM409 284Q409 367 367 416T253 466Q180 466 137 410T94 257Q94 153 136 94T252 35Q324 35 366 79T409 200V284Z" />
<glyph unicode="h" glyph-name="h" horiz-adv-x="553" d="M71 742H125V404Q149 453 196 481T300 510Q389 510 435 453T482 284V0H428V285Q428 373 395 419T299 466Q250 466 211 441T148 371T125 274V0H71V742Z" />
<glyph unicode="i" glyph-name="i" horiz-adv-x="227" d="M93 608T81 620T68 654Q68 674 80 687T113 700Q134 700 146 687T159 654Q159 633 147 621T113 608Q93 608 81 620ZM87 500H140V0H87V500Z" />
<glyph unicode="j" glyph-name="j" horiz-adv-x="228" d="M99 608T87 620T74 654Q74 674 86 687T119 700Q139 700 152 687T165 654Q165 633 152 621T119 608Q99 608 87 620ZM-21 -183T-35 -180V-136Q-27 -137 -11 -137Q52 -137 73 -99T95 17V500H149V12Q149 -84
115 -133T5 -183Q-21 -183 -35 -180Z" />
<glyph unicode="k" glyph-name="k" horiz-adv-x="457" d="M384 0L210 267L124 180V0H70V742H124V246L374 500H438L245 304L447 0H384Z" />
<glyph unicode="l" glyph-name="l" horiz-adv-x="286" d="M81 -10T81 112V742H134V113Q134 68 146 51T188 34Q211 34 235 44L244 8Q213 -10 173 -10Q81 -10 81 112Z" />
<glyph unicode="m" glyph-name="m" horiz-adv-x="836" d="M71 378Q71 465 67 500H116Q119 461 119 410H121Q145 457 187 483T281 510Q336 510 375 480T426 397Q445 449 490 479T592 510Q674 510 719 457T765 309V0H712V308Q712 384 679 424T583 465Q545 465 513
445T463 388T445 307V0H391V299Q391 465 271 465Q231 465 198 442T144 382T124 304V0H71V378Z" />
<glyph unicode="n" glyph-name="n" horiz-adv-x="542" d="M71 378Q71 468 67 500H115Q120 446 118 399H122Q146 450 193 480T296 510Q472 510 472 284V0H418V285Q418 376 387 420T293 465Q245 465 207 440T146 371T124 273V0H71V378Z" />
<glyph unicode="o" glyph-name="o" horiz-adv-x="543" d="M202 -10T150 22T69 113T40 250Q40 328 68 387T149 478T271 510Q340 510 392 478T474 387T503 250Q503 172 474 113T393 22T271 -10Q202 -10 150 22ZM324 34T364 61T427 137T449 250Q449 314 427 363T365
439T271 466Q219 466 179 439T116 363T94 250Q94 186 116 137T178 61T271 34Q324 34 364 61Z" />
<glyph unicode="p" glyph-name="p" horiz-adv-x="534" d="M71 378Q71 455 68 500H116Q119 464 119 410H121Q140 453 186 481T285 510Q382 510 438 441T494 251Q494 173 468 114T394 23T284 -10Q232 -10 189 15T127 81H125V-242H71V378ZM328 36T364 63T420 139T440
253Q440 352 398 407T281 463Q213 463 169 417T125 300V217Q125 134 167 85T281 36Q328 36 364 63Z" />
<glyph unicode="q" glyph-name="q" horiz-adv-x="533" d="M408 79H406Q384 38 342 14T249 -10Q187 -10 140 22T66 114T40 251Q40 372 95 441T248 510Q301 510 347 482T413 411H415Q415 457 418 500H465Q462 458 462 378V-242H408V79ZM324 36T366 85T408 217V300Q408
371 365 417T253 463Q178 463 136 408T94 253Q94 155 137 96T252 36Q324 36 366 85Z" />
<glyph unicode="r" glyph-name="r" horiz-adv-x="317" d="M77 378Q77 463 74 500H122Q126 463 126 412V397H129Q149 452 187 481T277 510Q290 510 304 507V460Q294 463 274 463Q234 463 201 438T150 369T131 270V0H77V378Z" />
<glyph unicode="s" glyph-name="s" horiz-adv-x="402" d="M143 -10T101 11T41 66L78 92Q95 64 125 49T196 34Q245 34 276 63T307 137Q307 173 282 198T197 246Q115 277 83 309T50 389Q50 444 92 477T203 510Q248 510 286 489T342 433L306 408Q271 466 203 466Q159
466 131 445T103 391Q103 360 129 338T227 288Q299 260 330 225T361 137Q361 70 315 30T193 -10Q143 -10 101 11Z" />
<glyph unicode="t" glyph-name="t" horiz-adv-x="349" d="M163 -10T131 28T99 140V455H9V500H99V636L149 653H153V500H294V455H153V151Q153 91 172 64T232 37Q273 37 297 49L303 6Q271 -10 225 -10Q163 -10 131 28Z" />
<glyph unicode="u" glyph-name="u" horiz-adv-x="548" d="M161 -10T116 45T71 206V500H125V202Q125 35 253 35Q300 35 337 60T396 128T418 226V500H472V95Q472 45 481 0H433Q424 46 423 98H420Q395 47 350 19T247 -10Q161 -10 116 45Z" />
<glyph unicode="v" glyph-name="v" horiz-adv-x="446" d="M436 500L250 0H197L10 500H67L223 63L379 500H436Z" />
<glyph unicode="w" glyph-name="w" horiz-adv-x="643" d="M632 500L509 0H457L321 443L186 0H134L10 500H69L162 64L295 500H348L481 66L574 500H632Z" />
<glyph unicode="x" glyph-name="x" horiz-adv-x="420" d="M182 254L23 500H86L210 295L334 500H397L238 254L410 0H346L210 220L74 0H10L182 254Z" />
<glyph unicode="y" glyph-name="y" horiz-adv-x="434" d="M424 500L249 1Q211 -109 161 -159T41 -209Q18 -209 0 -206V-167Q10 -169 35 -169Q72 -169 100 -152T152 -94T204 17L18 500H79L229 76L362 500H424Z" />
<glyph unicode="z" glyph-name="z" horiz-adv-x="435" d="M30 34L332 454H45V500H395V461L99 46H405V0H30V34Z" />
<glyph unicode="{" glyph-name="braceleft" horiz-adv-x="299" d="M172 -114T141 -81T110 25V199Q110 237 94 256T40 277V319Q77 321 93 340T110 397V571Q110 644 140 677T242 710H258V667H238Q193 667 176 644T158 564V401Q158 361 146 338T103 298Q159 270 159
195V32Q159 -24 176 -47T238 -71H258V-114H242Q172 -114 141 -81Z" />
<glyph unicode="|" glyph-name="bar" horiz-adv-x="234" d="M91 700H143V-160H91V700Z" />
<glyph unicode="}" glyph-name="braceright" horiz-adv-x="299" d="M41 -71H62Q105 -71 122 -48T139 32V195Q139 270 197 298Q164 316 152 338T140 401V564Q140 621 123 644T62 667H41V710H56Q127 710 158 677T190 571V397Q190 358 206 340T258 319V277Q221 275
205 257T189 199V25Q189 -48 158 -81T56 -114H41V-71Z" />
<glyph unicode="~" glyph-name="asciitilde" horiz-adv-x="600" d="M66 208Q66 268 99 303T186 339Q218 339 245 327T311 289Q344 266 368 255T420 243Q457 243 474 269T493 339H537V331Q537 269 506 233T422 196Q388 196 360 209T294 248Q261 271 238 282T188
293Q151 293 132 268T110 196H66V208Z" />
<glyph unicode="&#xa0;" glyph-name="uni00A0" horiz-adv-x="250" />
<glyph unicode="&#xa1;" glyph-name="exclamdown" horiz-adv-x="224" d="M89 408T75 422T61 459Q61 482 75 496T111 510Q134 510 148 496T163 459Q163 436 149 422T111 408Q89 408 75 422ZM88 323H134L144 -202H78L88 323Z" />
<glyph unicode="&#xa2;" glyph-name="cent" horiz-adv-x="462" d="M309 105T347 125T409 182L441 151Q414 110 373 87T278 60V-28H233V62Q141 72 91 139T41 320Q41 433 91 500T233 578V668H278V580Q331 577 372 554T441 489L409 458Q386 494 348 514T264 535Q185
535 140 478T94 320Q94 219 139 162T264 105Q309 105 347 125Z" />
<glyph unicode="&#xa3;" glyph-name="sterling" horiz-adv-x="525" d="M454 44V0H60V38Q121 76 154 127T187 233Q187 261 177 319H81V363H170Q163 406 157 451T151 525Q151 613 196 661T325 710Q402 710 453 666L432 625Q412 644 384 654T326 664Q264 664 233
626T201 517Q201 473 221 363H391V319H228Q236 271 236 241Q236 184 211 133T136 44H454Z" />
<glyph unicode="&#xa4;" glyph-name="currency" horiz-adv-x="604" d="M257 65T211 82T134 128L75 72L38 108L95 163Q70 194 55 240T40 333Q40 379 55 425T95 503L38 558L75 594L134 538Q165 567 211 584T304 602Q351 602 398 585T476 538L536 594L572 557L515
503Q540 473 554 427T569 333Q569 286 555 240T515 163L572 108L536 72L476 128Q446 99 399 82T304 65Q257 65 211 82ZM366 116T414 143T489 220T516 331Q516 393 489 443T414 522T306 551Q245 551 197 523T121 445T94 331Q94 269 121 220T197 144T306 116Q366
116 414 143Z" />
<glyph unicode="&#xa5;" glyph-name="yen" horiz-adv-x="551" d="M328 324H479V283H307L304 277V198H478V158H304V0H248V158H73V198H248V277L245 283H72V324H224L28 700H91L275 328L459 700H523L328 324Z" />
<glyph unicode="&#xa6;" glyph-name="brokenbar" horiz-adv-x="234" d="M91 700H143V320H91V700ZM91 220H143V-160H91V220Z" />
<glyph unicode="&#xa7;" glyph-name="section" horiz-adv-x="520" d="M469 121T469 60Q469 -18 413 -59T263 -100Q192 -100 139 -73T51 0L85 38Q117 -4 164 -29T267 -54Q333 -54 373 -27T413 56Q413 89 397 110T352 146T259 191L227 205Q166 233 135 250T85 292T66
354Q66 416 118 456Q95 476 83 500T71 554Q71 627 123 668T261 710Q328 710 380 682T459 605L421 578Q395 618 353 640T260 663Q201 663 164 635T127 556Q127 525 147 503T202 461T302 414Q362 389 397 369T452 322T472 256Q472 230 461 205T427 158Q469 121 469
60ZM120 334T134 317T173 286T246 251L299 227Q317 219 326 214Q371 194 389 184Q420 218 420 250Q420 281 405 300T359 336T259 381Q185 413 156 430Q139 416 130 398T120 358Q120 334 134 317Z" />
<glyph unicode="&#xa8;" glyph-name="dieresis" horiz-adv-x="400" d="M85 554T74 565T62 594Q62 612 73 623T103 635Q121 635 133 624T145 594Q145 577 133 566T103 554Q85 554 74 565ZM279 554T267 565T255 594Q255 612 267 623T296 635Q315 635 326 624T337
594Q337 577 326 566T296 554Q279 554 267 565Z" />
<glyph unicode="&#xa9;" glyph-name="copyright" horiz-adv-x="800" d="M295 -10T213 36T86 164T40 350Q40 454 85 536T213 664T400 710Q505 710 587 664T714 536T760 350Q760 246 715 164T587 36T400 -10Q295 -10 213 36ZM491 31T563 71T675 185T716 350Q716
442 676 515T563 628T400 669Q309 669 237 629T125 515T84 350Q84 258 124 185T237 72T400 31Q491 31 563 71ZM328 137T282 195T235 353Q235 453 281 511T408 569Q449 569 481 553T531 510L506 485Q490 506 465 518T408 530Q349 530 315 483T280 353Q280 271 314
224T408 176Q439 176 465 188T506 222L531 196Q514 169 481 153T408 137Q328 137 282 195Z" />
<glyph unicode="&#xaa;" glyph-name="ordfeminine" horiz-adv-x="363" d="M108 361T78 388T48 462Q48 511 83 539T183 568H263V585Q263 628 244 650T180 673Q151 673 127 660T87 621L64 647Q84 675 114 691T182 707Q243 707 274 676T305 591V430Q305 399 312 368H273Q267
393 266 421Q227 361 158 361Q108 361 78 388ZM196 394T218 408T252 444T263 485V537H185Q138 537 113 517T88 462Q88 430 109 412T164 394Q196 394 218 408Z" />
<glyph unicode="&#xab;" glyph-name="guillemotleft" horiz-adv-x="465" d="M40 260L202 454H263L103 260L263 66H202L40 260ZM202 260L365 454H425L266 260L425 66H365L202 260Z" />
<glyph unicode="&#xac;" glyph-name="logicalnot" horiz-adv-x="600" d="M506 353H34V397H558V135H506V353Z" />
<glyph unicode="&#xad;" glyph-name="uni00AD" horiz-adv-x="340" d="M40 288H300V244H40V288Z" />
<glyph unicode="&#xae;" glyph-name="registered" horiz-adv-x="510" d="M312 710T356 686T425 617T450 516Q450 459 426 415T357 347T255 322Q198 322 154 346T85 415T60 516Q60 573 84 617T153 685T255 710Q312 710 356 686ZM328 352T373 397T418 516Q418 589
373 634T255 680Q182 680 137 635T92 516Q92 442 137 397T255 351Q328 352 373 397ZM340 537T326 519T284 494L331 405H291L246 492H210V405H173V633H263Q300 633 320 615T340 565Q340 537 326 519ZM304 521T304 565Q304 604 254 604H210V521H256Q304 521 304 565Z"
/>
<glyph unicode="&#xaf;" glyph-name="overscore" horiz-adv-x="401" d="M40 616H360V574H40V616Z" />
<glyph unicode="&#xb0;" glyph-name="degree" horiz-adv-x="310" d="M99 459T65 494T30 584Q30 640 64 675T154 710Q210 710 245 675T280 584Q280 528 245 494T154 459Q99 459 65 494ZM194 493T218 518T243 584Q243 625 219 650T154 676Q116 676 91 650T66 584Q66
544 91 519T154 493Q194 493 218 518Z" />
<glyph unicode="&#xb1;" glyph-name="plusminus" horiz-adv-x="600" d="M324 304V99H274V304H54V348H274V554H324V348H545V304H324ZM63 44H537V0H63V44Z" />
<glyph unicode="&#xb2;" glyph-name="uni00B2" horiz-adv-x="379" d="M46 255Q132 319 201 406T271 568Q271 610 246 636T178 662Q142 662 110 645T61 601L35 633Q56 667 96 685T180 704Q244 704 282 668T321 571Q321 433 110 249H345V208H46V255Z" />
<glyph unicode="&#xb3;" glyph-name="uni00B3" horiz-adv-x="379" d="M135 198T95 217T36 268L60 299Q79 271 113 255T184 239Q234 239 264 267T295 339Q295 387 257 414T152 442H134V485H152Q208 485 243 513T278 585Q278 621 254 641T189 662Q150 662 118 646T67
603L42 633Q63 666 104 685T191 704Q251 704 289 673T327 590Q327 547 300 513T226 466Q283 455 314 421T345 338Q345 276 301 237T185 198Q135 198 95 217Z" />
<glyph unicode="&#xb4;" glyph-name="acute" horiz-adv-x="400" d="M208 687H268L179 554H135L208 687Z" />
<glyph unicode="&#xb5;" glyph-name="uni00B5" horiz-adv-x="549" d="M71 500H124V205Q124 128 159 81T259 33Q306 33 342 58T398 126T418 226V500H472V103Q472 45 481 0H434Q426 34 423 91H419Q394 41 353 16T260 -10Q218 -10 180 7T125 57V-224H71V500Z" />
<glyph unicode="&#xb6;" glyph-name="paragraph" horiz-adv-x="529" d="M274 267H268Q204 267 152 293T70 367T40 474Q40 700 331 700H439V-93H397V659H316V-93H274V267Z" />
<glyph unicode="&#xb7;" glyph-name="middot" horiz-adv-x="222" d="M89 212T76 226T62 263Q62 286 75 300T111 315Q133 315 146 301T160 263Q160 240 147 226T111 212Q89 212 76 226Z" />
<glyph unicode="&#xb8;" glyph-name="cedilla" horiz-adv-x="400" d="M170 -206T151 -204T123 -199L127 -171Q139 -174 176 -174Q204 -174 222 -163T241 -127Q241 -109 219 -98T156 -87L142 -72L190 13H225L189 -59Q230 -59 254 -76T279 -126Q279 -163 255 -184T187
-206Q170 -206 151 -204Z" />
<glyph unicode="&#xb9;" glyph-name="uni00B9" horiz-adv-x="379" d="M87 249H173V638L74 581V626L191 698H222V249H306V208H87V249Z" />
<glyph unicode="&#xba;" glyph-name="ordmasculine" horiz-adv-x="391" d="M125 361T83 409T40 534Q40 611 82 659T195 707Q265 707 307 660T350 534Q350 456 308 409T195 361Q125 361 83 409ZM247 394T277 432T308 534Q308 597 278 635T195 674Q143 674 113 636T82
534Q82 471 112 433T195 394Q247 394 277 432Z" />
<glyph unicode="&#xbb;" glyph-name="guillemotright" horiz-adv-x="465" d="M199 260L40 454H100L263 260L100 66H40L199 260ZM362 260L202 454H263L425 260L263 66H202L362 260Z" />
<glyph unicode="&#xbc;" glyph-name="onequarter" horiz-adv-x="928" d="M84 304H161V650L73 600V640L177 704H204V304H279V268H84V304ZM658 686H705L286 -12H239L658 686ZM747 78H545V120L733 435H792V114H841V78H792V0H747V78ZM747 114V392L584 114H747Z" />
<glyph unicode="&#xbd;" glyph-name="onehalf" horiz-adv-x="928" d="M84 304H161V650L73 600V640L177 704H204V304H279V268H84V304ZM618 686H665L246 -12H199L618 686ZM599 42Q676 99 737 176T799 320Q799 358 777 381T716 404Q684 404 656 389T612 350L588 377Q608
408 643 424T717 441Q774 441 808 409T843 322Q843 200 655 36H865V0H599V42Z" />
<glyph unicode="&#xbe;" glyph-name="threequarters" horiz-adv-x="928" d="M120 260T84 277T31 323L53 350Q70 325 100 311T163 296Q208 296 235 321T262 385Q262 428 228 452T135 477H119V515H134Q185 515 216 540T247 604Q247 637 225 655T167 673Q133 673
104 658T60 620L37 647Q56 676 92 693T169 710Q222 710 256 682T290 609Q290 570 266 540T200 498Q251 488 278 458T306 384Q306 329 267 295T164 260Q120 260 84 277ZM655 686H702L284 -12H236L655 686ZM748 78H546V120L733 435H793V114H841V78H793V0H748V78ZM748
114V392L584 114H748Z" />
<glyph unicode="&#xbf;" glyph-name="questiondown" horiz-adv-x="442" d="M199 407T185 421T170 459Q170 482 184 496T222 510Q245 510 259 496T273 459Q273 436 259 422T222 407Q199 407 185 421ZM135 -210T88 -165T40 -35Q40 8 60 43T121 129Q163 180 184 217T205
300Q205 322 200 347H248Q255 326 255 296Q255 251 234 212T171 118Q133 68 115 35T96 -33Q96 -97 130 -130T228 -163Q271 -163 308 -142T368 -83L401 -119Q373 -161 326 -185T224 -210Q135 -210 88 -165Z" />
<glyph unicode="&#xc0;" glyph-name="Agrave" horiz-adv-x="566" d="M429 176H137L81 0H20L255 700H311L546 0H485L429 176ZM414 223L283 633L152 223H414ZM172 887H233L306 754H262L172 887Z" />
<glyph unicode="&#xc1;" glyph-name="Aacute" horiz-adv-x="566" d="M429 176H137L81 0H20L255 700H311L546 0H485L429 176ZM414 223L283 633L152 223H414ZM338 887H398L308 754H264L338 887Z" />
<glyph unicode="&#xc2;" glyph-name="Acircumflex" horiz-adv-x="566" d="M429 176H137L81 0H20L255 700H311L546 0H485L429 176ZM414 223L283 633L152 223H414ZM259 882H307L403 754H356L283 849L211 754H163L259 882Z" />
<glyph unicode="&#xc3;" glyph-name="Atilde" horiz-adv-x="566" d="M429 176H137L81 0H20L255 700H311L546 0H485L429 176ZM414 223L283 633L152 223H414ZM150 788T168 812T218 837Q235 837 251 830T290 810Q293 808 304 802T323 793T339 790Q353 790 361 801T372
841H409Q408 805 389 780T338 754Q323 754 308 760T281 772T266 781Q235 801 220 801Q206 801 197 789T186 754H150Q150 788 168 812Z" />
<glyph unicode="&#xc4;" glyph-name="Adieresis" horiz-adv-x="566" d="M429 176H137L81 0H20L255 700H311L546 0H485L429 176ZM414 223L283 633L152 223H414ZM168 754T157 765T145 794Q145 812 156 823T186 835Q204 835 216 824T228 794Q228 777 216 766T186
754Q168 754 157 765ZM362 754T350 765T338 794Q338 812 350 823T379 835Q398 835 409 824T420 794Q420 777 409 766T379 754Q362 754 350 765Z" />
<glyph unicode="&#xc5;" glyph-name="Aring" horiz-adv-x="566" d="M429 176H137L81 0H20L255 700H311L546 0H485L429 176ZM414 223L283 633L152 223H414ZM245 722T222 744T199 802Q199 838 222 860T283 882Q321 882 344 860T367 802Q367 766 344 744T283 722Q245
722 222 744ZM305 750T319 764T334 802Q334 825 320 839T283 854Q261 854 247 840T232 802Q232 779 246 765T283 750Q305 750 319 764Z" />
<glyph unicode="&#xc6;" glyph-name="AE" horiz-adv-x="782" d="M428 652V394H686V345H428V48H721V0H372V177H163L80 0H20L356 700H721V652H428ZM372 224V619L186 224H372Z" />
<glyph unicode="&#xc7;" glyph-name="Ccedilla" horiz-adv-x="566" d="M389 39T434 61T506 125L536 88Q510 47 462 21T353 -9L325 -63Q367 -63 392 -81T417 -130Q417 -167 392 -188T324 -210Q285 -210 260 -203L265 -174Q281 -178 313 -178Q378 -178 378 -133Q378
-111 357 -101T293 -90L280 -75L315 -10Q230 -7 169 37T74 161T41 350Q41 460 76 541T178 666T334 710Q399 710 453 684T536 612L506 575Q476 619 435 640T336 661Q223 661 161 580T98 350Q98 203 159 121T330 39Q389 39 434 61Z" />
<glyph unicode="&#xc8;" glyph-name="Egrave" horiz-adv-x="541" d="M91 700H480V651H147V393H445V345H147V49H480V0H91V700ZM180 887H241L314 754H270L180 887Z" />
<glyph unicode="&#xc9;" glyph-name="Eacute" horiz-adv-x="541" d="M91 700H480V651H147V393H445V345H147V49H480V0H91V700ZM346 887H406L316 754H272L346 887Z" />
<glyph unicode="&#xca;" glyph-name="Ecircumflex" horiz-adv-x="541" d="M91 700H480V651H147V393H445V345H147V49H480V0H91V700ZM267 882H315L411 754H364L291 849L219 754H171L267 882Z" />
<glyph unicode="&#xcb;" glyph-name="Edieresis" horiz-adv-x="541" d="M91 700H480V651H147V393H445V345H147V49H480V0H91V700ZM176 754T165 765T153 794Q153 812 164 823T194 835Q212 835 224 824T236 794Q236 777 224 766T194 754Q176 754 165 765ZM370 754T358
765T346 794Q346 812 358 823T387 835Q406 835 417 824T428 794Q428 777 417 766T387 754Q370 754 358 765Z" />
<glyph unicode="&#xcc;" glyph-name="Igrave" horiz-adv-x="276" d="M110 700H166V0H110V700ZM27 887H88L161 754H117L27 887Z" />
<glyph unicode="&#xcd;" glyph-name="Iacute" horiz-adv-x="276" d="M110 700H166V0H110V700ZM193 887H253L163 754H119L193 887Z" />
<glyph unicode="&#xce;" glyph-name="Icircumflex" horiz-adv-x="276" d="M110 700H166V0H110V700ZM114 882H162L258 754H211L138 849L66 754H18L114 882Z" />
<glyph unicode="&#xcf;" glyph-name="Idieresis" horiz-adv-x="276" d="M110 700H166V0H110V700ZM23 754T12 765T0 794Q0 812 11 823T41 835Q59 835 71 824T83 794Q83 777 71 766T41 754Q23 754 12 765ZM217 754T205 765T193 794Q193 812 205 823T234 835Q253
835 264 824T275 794Q275 777 264 766T234 754Q217 754 205 765Z" />
<glyph unicode="&#xd0;" glyph-name="Eth" horiz-adv-x="612" d="M436 700T499 620T562 365Q562 236 532 156T438 38T270 0H91V315H7V362H91V700H299Q436 700 499 620ZM400 49T453 125T506 365Q506 468 485 530T419 622T298 651H147V362H384V315H147V49H286Q400
49 453 125Z" />
<glyph unicode="&#xd1;" glyph-name="Ntilde" horiz-adv-x="671" d="M581 700V0H521L145 624V0H91V700H156L526 84V700H581ZM203 788T221 812T271 837Q288 837 304 830T343 810Q346 808 357 802T376 793T392 790Q406 790 414 801T425 841H462Q461 805 442 780T391
754Q376 754 361 760T334 772T319 781Q288 801 273 801Q259 801 250 789T239 754H203Q203 788 221 812Z" />
<glyph unicode="&#xd2;" glyph-name="Ograve" horiz-adv-x="650" d="M239 -10T175 34T76 160T41 350Q41 459 76 540T175 665T325 710Q411 710 475 666T574 540T609 350Q609 241 574 160T475 35T325 -10Q239 -10 175 34ZM394 37T445 75T525 184T553 350Q553 445
525 516T446 625T325 663Q256 663 205 625T125 516T97 350Q97 255 125 184T204 75T325 37Q394 37 445 75ZM214 887H275L348 754H304L214 887Z" />
<glyph unicode="&#xd3;" glyph-name="Oacute" horiz-adv-x="650" d="M239 -10T175 34T76 160T41 350Q41 459 76 540T175 665T325 710Q411 710 475 666T574 540T609 350Q609 241 574 160T475 35T325 -10Q239 -10 175 34ZM394 37T445 75T525 184T553 350Q553 445
525 516T446 625T325 663Q256 663 205 625T125 516T97 350Q97 255 125 184T204 75T325 37Q394 37 445 75ZM380 887H440L350 754H306L380 887Z" />
<glyph unicode="&#xd4;" glyph-name="Ocircumflex" horiz-adv-x="650" d="M239 -10T175 34T76 160T41 350Q41 459 76 540T175 665T325 710Q411 710 475 666T574 540T609 350Q609 241 574 160T475 35T325 -10Q239 -10 175 34ZM394 37T445 75T525 184T553 350Q553
445 525 516T446 625T325 663Q256 663 205 625T125 516T97 350Q97 255 125 184T204 75T325 37Q394 37 445 75ZM301 882H349L445 754H398L325 849L253 754H205L301 882Z" />
<glyph unicode="&#xd5;" glyph-name="Otilde" horiz-adv-x="650" d="M239 -10T175 34T76 160T41 350Q41 459 76 540T175 665T325 710Q411 710 475 666T574 540T609 350Q609 241 574 160T475 35T325 -10Q239 -10 175 34ZM394 37T445 75T525 184T553 350Q553 445
525 516T446 625T325 663Q256 663 205 625T125 516T97 350Q97 255 125 184T204 75T325 37Q394 37 445 75ZM192 788T210 812T260 837Q277 837 293 830T332 810Q335 808 346 802T365 793T381 790Q395 790 403 801T414 841H451Q450 805 431 780T380 754Q365 754 350
760T323 772T308 781Q277 801 262 801Q248 801 239 789T228 754H192Q192 788 210 812Z" />
<glyph unicode="&#xd6;" glyph-name="Odieresis" horiz-adv-x="650" d="M239 -10T175 34T76 160T41 350Q41 459 76 540T175 665T325 710Q411 710 475 666T574 540T609 350Q609 241 574 160T475 35T325 -10Q239 -10 175 34ZM394 37T445 75T525 184T553 350Q553
445 525 516T446 625T325 663Q256 663 205 625T125 516T97 350Q97 255 125 184T204 75T325 37Q394 37 445 75ZM210 754T199 765T187 794Q187 812 198 823T228 835Q246 835 258 824T270 794Q270 777 258 766T228 754Q210 754 199 765ZM404 754T392 765T380 794Q380
812 392 823T421 835Q440 835 451 824T462 794Q462 777 451 766T421 754Q404 754 392 765Z" />
<glyph unicode="&#xd7;" glyph-name="multiply" horiz-adv-x="600" d="M299 220L106 17L69 50L262 256L69 460L106 495L299 292L494 495L531 460L338 256L531 50L494 17L299 220Z" />
<glyph unicode="&#xd8;" glyph-name="Oslash" horiz-adv-x="650" d="M557 591T583 517T609 350Q609 241 574 160T475 35T325 -10Q247 -10 185 27L148 -43H100L151 53Q98 100 70 176T41 350Q41 459 76 540T175 665T325 710Q410 710 474 666L505 725H554L508 638Q557
591 583 517ZM97 269T117 206T176 101L450 621Q397 663 325 663Q256 663 205 625T125 516T97 350Q97 269 117 206ZM394 37T445 75T525 184T553 350Q553 427 535 488T483 590L209 72Q258 37 325 37Q394 37 445 75Z" />
<glyph unicode="&#xd9;" glyph-name="Ugrave" horiz-adv-x="656" d="M90 -10T90 275V700H147V277Q147 38 328 38Q509 38 509 277V700H565V275Q565 -10 328 -10Q90 -10 90 275ZM217 887H278L351 754H307L217 887Z" />
<glyph unicode="&#xda;" glyph-name="Uacute" horiz-adv-x="656" d="M90 -10T90 275V700H147V277Q147 38 328 38Q509 38 509 277V700H565V275Q565 -10 328 -10Q90 -10 90 275ZM383 887H443L353 754H309L383 887Z" />
<glyph unicode="&#xdb;" glyph-name="Ucircumflex" horiz-adv-x="656" d="M90 -10T90 275V700H147V277Q147 38 328 38Q509 38 509 277V700H565V275Q565 -10 328 -10Q90 -10 90 275ZM304 882H352L448 754H401L328 849L256 754H208L304 882Z" />
<glyph unicode="&#xdc;" glyph-name="Udieresis" horiz-adv-x="656" d="M90 -10T90 275V700H147V277Q147 38 328 38Q509 38 509 277V700H565V275Q565 -10 328 -10Q90 -10 90 275ZM213 754T202 765T190 794Q190 812 201 823T231 835Q249 835 261 824T273 794Q273
777 261 766T231 754Q213 754 202 765ZM407 754T395 765T383 794Q383 812 395 823T424 835Q443 835 454 824T465 794Q465 777 454 766T424 754Q407 754 395 765Z" />
<glyph unicode="&#xdd;" glyph-name="Yacute" horiz-adv-x="536" d="M240 277L20 700H84L267 328L452 700H515L296 277V0H240V277ZM322 887H382L292 754H248L322 887Z" />
<glyph unicode="&#xde;" glyph-name="Thorn" horiz-adv-x="564" d="M91 700H147V600H279Q388 600 445 548T503 395Q503 289 444 233T274 176H147V0H91V700ZM286 224Q364 224 406 266T448 390Q448 469 405 510T278 551H147V224H286Z" />
<glyph unicode="&#xdf;" glyph-name="germandbls" horiz-adv-x="560" d="M307 -10T264 9T198 67L235 92Q256 63 286 49T351 34Q401 34 433 62T466 137Q466 182 440 205T354 250Q301 268 278 291T255 353Q255 384 271 405T323 455Q357 483 374 504T391 557Q391
609 360 637T269 665Q196 665 161 620T125 482V0H71V487Q71 596 120 653T265 710Q351 710 397 671T443 558Q443 516 422 489T361 430Q332 406 319 391T306 356Q306 331 324 316T381 287Q445 265 482 233T519 138Q519 70 473 30T355 -10Q307 -10 264 9Z" />
<glyph unicode="&#xe0;" glyph-name="agrave" horiz-adv-x="506" d="M141 -10T95 31T49 140Q49 214 102 255T253 296H375V326Q375 393 341 428T241 464Q197 464 160 443T100 384L68 419Q96 463 141 486T245 510Q331 510 379 464T428 335V91Q428 56 440 0H394Q385
22 381 78H379Q350 36 308 13T215 -10Q141 -10 95 31ZM257 35T294 52T353 99T375 162V253H250Q180 253 141 223T101 140Q101 94 133 65T215 35Q257 35 294 52ZM140 687H201L274 554H230L140 687Z" />
<glyph unicode="&#xe1;" glyph-name="aacute" horiz-adv-x="506" d="M141 -10T95 31T49 140Q49 214 102 255T253 296H375V326Q375 393 341 428T241 464Q197 464 160 443T100 384L68 419Q96 463 141 486T245 510Q331 510 379 464T428 335V91Q428 56 440 0H394Q385
22 381 78H379Q350 36 308 13T215 -10Q141 -10 95 31ZM257 35T294 52T353 99T375 162V253H250Q180 253 141 223T101 140Q101 94 133 65T215 35Q257 35 294 52ZM306 687H366L276 554H232L306 687Z" />
<glyph unicode="&#xe2;" glyph-name="acircumflex" horiz-adv-x="506" d="M141 -10T95 31T49 140Q49 214 102 255T253 296H375V326Q375 393 341 428T241 464Q197 464 160 443T100 384L68 419Q96 463 141 486T245 510Q331 510 379 464T428 335V91Q428 56 440 0H394Q385
22 381 78H379Q350 36 308 13T215 -10Q141 -10 95 31ZM257 35T294 52T353 99T375 162V253H250Q180 253 141 223T101 140Q101 94 133 65T215 35Q257 35 294 52ZM227 682H275L371 554H324L251 649L179 554H131L227 682Z" />
<glyph unicode="&#xe3;" glyph-name="atilde" horiz-adv-x="506" d="M141 -10T95 31T49 140Q49 214 102 255T253 296H375V326Q375 393 341 428T241 464Q197 464 160 443T100 384L68 419Q96 463 141 486T245 510Q331 510 379 464T428 335V91Q428 56 440 0H394Q385
22 381 78H379Q350 36 308 13T215 -10Q141 -10 95 31ZM257 35T294 52T353 99T375 162V253H250Q180 253 141 223T101 140Q101 94 133 65T215 35Q257 35 294 52ZM118 588T136 612T186 637Q203 637 219 630T258 610Q261 608 272 602T291 593T307 590Q321 590 329 601T340
641H377Q376 605 357 580T306 554Q291 554 276 560T249 572T234 581Q203 601 188 601Q174 601 165 589T154 554H118Q118 588 136 612Z" />
<glyph unicode="&#xe4;" glyph-name="adieresis" horiz-adv-x="506" d="M141 -10T95 31T49 140Q49 214 102 255T253 296H375V326Q375 393 341 428T241 464Q197 464 160 443T100 384L68 419Q96 463 141 486T245 510Q331 510 379 464T428 335V91Q428 56 440 0H394Q385
22 381 78H379Q350 36 308 13T215 -10Q141 -10 95 31ZM257 35T294 52T353 99T375 162V253H250Q180 253 141 223T101 140Q101 94 133 65T215 35Q257 35 294 52ZM136 554T125 565T113 594Q113 612 124 623T154 635Q172 635 184 624T196 594Q196 577 184 566T154 554Q136
554 125 565ZM330 554T318 565T306 594Q306 612 318 623T347 635Q366 635 377 624T388 594Q388 577 377 566T347 554Q330 554 318 565Z" />
<glyph unicode="&#xe5;" glyph-name="aring" horiz-adv-x="506" d="M141 -10T95 31T49 140Q49 214 102 255T253 296H375V326Q375 393 341 428T241 464Q197 464 160 443T100 384L68 419Q96 463 141 486T245 510Q331 510 379 464T428 335V91Q428 56 440 0H394Q385
22 381 78H379Q350 36 308 13T215 -10Q141 -10 95 31ZM257 35T294 52T353 99T375 162V253H250Q180 253 141 223T101 140Q101 94 133 65T215 35Q257 35 294 52ZM213 549T190 571T167 629Q167 665 190 687T251 709Q289 709 312 687T335 629Q335 593 312 571T251 549Q213
549 190 571ZM273 577T287 591T302 629Q302 652 288 666T251 681Q229 681 215 667T200 629Q200 606 214 592T251 577Q273 577 287 591Z" />
<glyph unicode="&#xe6;" glyph-name="ae" horiz-adv-x="838" d="M798 246H428Q429 148 474 93T598 37Q644 37 681 57T742 113L775 80Q747 38 701 14T599 -10Q533 -10 485 18T409 98Q383 49 331 20T211 -10Q139 -10 94 30T49 134Q49 205 101 247T243 290H374V326Q374
393 341 429T244 465Q198 465 161 444T100 385L68 419Q96 463 142 486T248 510Q310 510 352 485T414 411Q442 459 488 484T595 510Q692 510 745 449T798 276V246ZM745 304Q745 380 705 422T592 464Q524 464 481 418T430 289H745V304ZM374 247H250Q183 247 142 216T101
134Q101 90 132 63T215 35Q284 35 329 71T374 162V247Z" />
<glyph unicode="&#xe7;" glyph-name="ccedilla" horiz-adv-x="462" d="M309 35T347 55T409 112L441 81Q414 40 373 17T278 -10L250 -63Q292 -63 317 -81T342 -130Q342 -167 317 -188T249 -210Q210 -210 185 -203L190 -174Q206 -178 238 -178Q303 -178 303 -133Q303
-111 282 -101T218 -90L205 -75L241 -9Q146 -1 94 66T41 250Q41 372 100 441T264 510Q322 510 367 487T441 419L409 388Q386 424 348 444T264 465Q185 465 140 408T94 250Q94 149 139 92T264 35Q309 35 347 55Z" />
<glyph unicode="&#xe8;" glyph-name="egrave" horiz-adv-x="503" d="M463 228H95Q100 137 143 87T263 37Q309 37 347 57T408 113L441 80Q411 36 366 13T263 -10Q159 -10 100 59T40 249Q40 371 98 440T257 510Q353 510 408 444T463 261V228ZM411 280Q411 364 369
414T257 464Q183 464 141 414T95 271H411V280ZM150 687H211L284 554H240L150 687Z" />
<glyph unicode="&#xe9;" glyph-name="eacute" horiz-adv-x="503" d="M463 228H95Q100 137 143 87T263 37Q309 37 347 57T408 113L441 80Q411 36 366 13T263 -10Q159 -10 100 59T40 249Q40 371 98 440T257 510Q353 510 408 444T463 261V228ZM411 280Q411 364 369
414T257 464Q183 464 141 414T95 271H411V280ZM316 687H376L286 554H242L316 687Z" />
<glyph unicode="&#xea;" glyph-name="ecircumflex" horiz-adv-x="503" d="M463 228H95Q100 137 143 87T263 37Q309 37 347 57T408 113L441 80Q411 36 366 13T263 -10Q159 -10 100 59T40 249Q40 371 98 440T257 510Q353 510 408 444T463 261V228ZM411 280Q411 364
369 414T257 464Q183 464 141 414T95 271H411V280ZM237 682H285L381 554H334L261 649L189 554H141L237 682Z" />
<glyph unicode="&#xeb;" glyph-name="edieresis" horiz-adv-x="503" d="M463 228H95Q100 137 143 87T263 37Q309 37 347 57T408 113L441 80Q411 36 366 13T263 -10Q159 -10 100 59T40 249Q40 371 98 440T257 510Q353 510 408 444T463 261V228ZM411 280Q411 364
369 414T257 464Q183 464 141 414T95 271H411V280ZM146 554T135 565T123 594Q123 612 134 623T164 635Q182 635 194 624T206 594Q206 577 194 566T164 554Q146 554 135 565ZM340 554T328 565T316 594Q316 612 328 623T357 635Q376 635 387 624T398 594Q398 577
387 566T357 554Q340 554 328 565Z" />
<glyph unicode="&#xec;" glyph-name="igrave" horiz-adv-x="235" d="M91 500H144V0H91V500ZM6 687H67L140 554H96L6 687Z" />
<glyph unicode="&#xed;" glyph-name="iacute" horiz-adv-x="235" d="M91 500H144V0H91V500ZM172 687H232L142 554H98L172 687Z" />
<glyph unicode="&#xee;" glyph-name="icircumflex" horiz-adv-x="235" d="M91 500H144V0H91V500ZM93 682H141L237 554H190L117 649L45 554H-3L93 682Z" />
<glyph unicode="&#xef;" glyph-name="idieresis" horiz-adv-x="235" d="M91 500H144V0H91V500ZM2 554T-9 565T-21 594Q-21 612 -10 623T20 635Q38 635 50 624T62 594Q62 577 50 566T20 554Q2 554 -9 565ZM196 554T184 565T172 594Q172 612 184 623T213 635Q232
635 243 624T254 594Q254 577 243 566T213 554Q196 554 184 565Z" />
<glyph unicode="&#xf0;" glyph-name="eth" horiz-adv-x="489" d="M371 532T410 443T449 253Q449 129 393 60T238 -10Q180 -10 135 18T65 96T40 211Q40 277 65 329T136 410T238 440Q284 440 324 420T385 366Q372 426 341 478T263 572L131 487L107 523L227 601Q161
649 79 671L84 707Q183 688 267 626L380 699L403 663L301 597Q371 532 410 443ZM312 36T354 85T397 215Q397 295 355 345T243 395Q176 395 135 345T93 215Q93 135 134 86T243 36Q312 36 354 85Z" />
<glyph unicode="&#xf1;" glyph-name="ntilde" horiz-adv-x="542" d="M71 378Q71 468 67 500H115Q120 446 118 399H122Q146 450 193 480T296 510Q472 510 472 284V0H418V285Q418 376 387 420T293 465Q245 465 207 440T146 371T124 273V0H71V378ZM138 588T156 612T206
637Q223 637 239 630T278 610Q281 608 292 602T311 593T327 590Q341 590 349 601T360 641H397Q396 605 377 580T326 554Q311 554 296 560T269 572T254 581Q223 601 208 601Q194 601 185 589T174 554H138Q138 588 156 612Z" />
<glyph unicode="&#xf2;" glyph-name="ograve" horiz-adv-x="543" d="M202 -10T150 22T69 113T40 250Q40 328 68 387T149 478T271 510Q340 510 392 478T474 387T503 250Q503 172 474 113T393 22T271 -10Q202 -10 150 22ZM324 34T364 61T427 137T449 250Q449 314
427 363T365 439T271 466Q219 466 179 439T116 363T94 250Q94 186 116 137T178 61T271 34Q324 34 364 61ZM160 687H221L294 554H250L160 687Z" />
<glyph unicode="&#xf3;" glyph-name="oacute" horiz-adv-x="543" d="M202 -10T150 22T69 113T40 250Q40 328 68 387T149 478T271 510Q340 510 392 478T474 387T503 250Q503 172 474 113T393 22T271 -10Q202 -10 150 22ZM324 34T364 61T427 137T449 250Q449 314
427 363T365 439T271 466Q219 466 179 439T116 363T94 250Q94 186 116 137T178 61T271 34Q324 34 364 61ZM326 687H386L296 554H252L326 687Z" />
<glyph unicode="&#xf4;" glyph-name="ocircumflex" horiz-adv-x="543" d="M202 -10T150 22T69 113T40 250Q40 328 68 387T149 478T271 510Q340 510 392 478T474 387T503 250Q503 172 474 113T393 22T271 -10Q202 -10 150 22ZM324 34T364 61T427 137T449 250Q449
314 427 363T365 439T271 466Q219 466 179 439T116 363T94 250Q94 186 116 137T178 61T271 34Q324 34 364 61ZM247 682H295L391 554H344L271 649L199 554H151L247 682Z" />
<glyph unicode="&#xf5;" glyph-name="otilde" horiz-adv-x="543" d="M202 -10T150 22T69 113T40 250Q40 328 68 387T149 478T271 510Q340 510 392 478T474 387T503 250Q503 172 474 113T393 22T271 -10Q202 -10 150 22ZM324 34T364 61T427 137T449 250Q449 314
427 363T365 439T271 466Q219 466 179 439T116 363T94 250Q94 186 116 137T178 61T271 34Q324 34 364 61ZM138 588T156 612T206 637Q223 637 239 630T278 610Q281 608 292 602T311 593T327 590Q341 590 349 601T360 641H397Q396 605 377 580T326 554Q311 554 296
560T269 572T254 581Q223 601 208 601Q194 601 185 589T174 554H138Q138 588 156 612Z" />
<glyph unicode="&#xf6;" glyph-name="odieresis" horiz-adv-x="543" d="M202 -10T150 22T69 113T40 250Q40 328 68 387T149 478T271 510Q340 510 392 478T474 387T503 250Q503 172 474 113T393 22T271 -10Q202 -10 150 22ZM324 34T364 61T427 137T449 250Q449
314 427 363T365 439T271 466Q219 466 179 439T116 363T94 250Q94 186 116 137T178 61T271 34Q324 34 364 61ZM156 554T145 565T133 594Q133 612 144 623T174 635Q192 635 204 624T216 594Q216 577 204 566T174 554Q156 554 145 565ZM350 554T338 565T326 594Q326
612 338 623T367 635Q386 635 397 624T408 594Q408 577 397 566T367 554Q350 554 338 565Z" />
<glyph unicode="&#xf7;" glyph-name="divide" horiz-adv-x="600" d="M280 397T266 410T252 445Q252 466 266 479T300 493Q321 493 334 480T348 445Q348 424 335 411T300 397Q280 397 266 410ZM54 285H545V239H54V285ZM280 31T266 45T252 80Q252 100 266 113T300
127Q321 127 334 114T348 80Q348 59 335 45T300 31Q280 31 266 45Z" />
<glyph unicode="&#xf8;" glyph-name="oslash" horiz-adv-x="543" d="M456 429T479 374T503 250Q503 172 474 113T393 22T271 -10Q218 -10 173 10L145 -43H102L140 29Q92 62 66 119T40 250Q40 328 68 387T149 478T271 510Q330 510 380 485L406 535H453L414 463Q456
429 479 374ZM94 193T112 147T163 73L358 443Q320 466 271 466Q219 466 179 439T116 363T94 250Q94 193 112 147ZM324 34T364 61T427 137T449 250Q449 302 434 345T390 417L195 51Q231 34 271 34Q324 34 364 61Z" />
<glyph unicode="&#xf9;" glyph-name="ugrave" horiz-adv-x="548" d="M161 -10T116 45T71 206V500H125V202Q125 35 253 35Q300 35 337 60T396 128T418 226V500H472V95Q472 45 481 0H433Q424 46 423 98H420Q395 47 350 19T247 -10Q161 -10 116 45ZM163 687H224L297
554H253L163 687Z" />
<glyph unicode="&#xfa;" glyph-name="uacute" horiz-adv-x="548" d="M161 -10T116 45T71 206V500H125V202Q125 35 253 35Q300 35 337 60T396 128T418 226V500H472V95Q472 45 481 0H433Q424 46 423 98H420Q395 47 350 19T247 -10Q161 -10 116 45ZM329 687H389L299
554H255L329 687Z" />
<glyph unicode="&#xfb;" glyph-name="ucircumflex" horiz-adv-x="548" d="M161 -10T116 45T71 206V500H125V202Q125 35 253 35Q300 35 337 60T396 128T418 226V500H472V95Q472 45 481 0H433Q424 46 423 98H420Q395 47 350 19T247 -10Q161 -10 116 45ZM250 682H298L394
554H347L274 649L202 554H154L250 682Z" />
<glyph unicode="&#xfc;" glyph-name="udieresis" horiz-adv-x="548" d="M161 -10T116 45T71 206V500H125V202Q125 35 253 35Q300 35 337 60T396 128T418 226V500H472V95Q472 45 481 0H433Q424 46 423 98H420Q395 47 350 19T247 -10Q161 -10 116 45ZM159 554T148
565T136 594Q136 612 147 623T177 635Q195 635 207 624T219 594Q219 577 207 566T177 554Q159 554 148 565ZM353 554T341 565T329 594Q329 612 341 623T370 635Q389 635 400 624T411 594Q411 577 400 566T370 554Q353 554 341 565Z" />
<glyph unicode="&#xfd;" glyph-name="yacute" horiz-adv-x="434" d="M424 500L249 1Q211 -109 161 -159T41 -209Q18 -209 0 -206V-167Q10 -169 35 -169Q72 -169 100 -152T152 -94T204 17L18 500H79L229 76L362 500H424ZM278 687H338L248 554H204L278 687Z" />
<glyph unicode="&#xfe;" glyph-name="thorn" horiz-adv-x="528" d="M68 742H118V415Q138 456 183 483T280 510Q377 510 432 442T488 252Q488 174 462 115T387 23T277 -10Q227 -10 184 14T121 79V-239H68V742ZM323 36T359 63T415 139T435 253Q435 351 393 407T276
464Q208 464 165 418T121 299V220Q121 135 162 86T275 36Q323 36 359 63Z" />
<glyph unicode="&#xff;" glyph-name="ydieresis" horiz-adv-x="434" d="M424 500L249 1Q211 -109 161 -159T41 -209Q18 -209 0 -206V-167Q10 -169 35 -169Q72 -169 100 -152T152 -94T204 17L18 500H79L229 76L362 500H424ZM108 554T97 565T85 594Q85 612 96 623T126
635Q144 635 156 624T168 594Q168 577 156 566T126 554Q108 554 97 565ZM302 554T290 565T278 594Q278 612 290 623T319 635Q338 635 349 624T360 594Q360 577 349 566T319 554Q302 554 290 565Z" />
<glyph unicode="&#x2013;" glyph-name="endash" horiz-adv-x="541" d="M40 288H501V244H40V288Z" />
<glyph unicode="&#x2014;" glyph-name="emdash" horiz-adv-x="836" d="M40 288H796V244H40V288Z" />
<glyph unicode="&#x2018;" glyph-name="quoteleft" horiz-adv-x="343" d="M199 586T212 572T225 534Q225 509 211 494T172 478Q148 478 133 498T117 552Q117 598 140 651T204 742L225 718Q200 690 184 656T163 585Q168 586 179 586Q199 586 212 572Z" />
<glyph unicode="&#x2019;" glyph-name="quoteright" horiz-adv-x="343" d="M195 718T210 698T226 644Q226 598 203 545T139 454L118 477Q170 539 179 610L164 609Q144 609 131 624T117 662Q117 687 132 702T170 718Q195 718 210 698Z" />
<glyph unicode="&#x201a;" glyph-name="quotesinglbase" horiz-adv-x="343" d="M195 101T210 81T226 26Q226 -20 203 -72T139 -163L118 -140Q170 -78 179 -6Q169 -8 164 -8Q144 -8 131 6T117 44Q117 69 132 85T170 101Q195 101 210 81Z" />
<glyph unicode="&#x201c;" glyph-name="quotedblleft" horiz-adv-x="510" d="M225 718Q200 690 184 656T163 585Q168 586 179 586Q199 586 212 572T225 534Q225 509 211 494T172 478Q148 478 133 498T117 552Q117 600 141 653T204 742L225 718ZM366 586T379 572T393
534Q393 509 378 494T340 478Q315 478 300 498T284 552Q284 599 308 652T372 742L392 718Q340 656 331 585Q336 586 346 586Q366 586 379 572Z" />
<glyph unicode="&#x201d;" glyph-name="quotedblright" horiz-adv-x="510" d="M195 730T210 710T226 656Q226 610 203 557T139 466L118 490Q170 552 179 623Q169 621 164 621Q144 621 131 636T117 674Q117 699 132 714T170 730Q195 730 210 710ZM363 730T378 710T393
656Q393 609 370 557T306 466L285 490Q339 550 348 623Q338 621 332 621Q312 621 299 636T286 674Q286 699 301 714T339 730Q363 730 378 710Z" />
<glyph unicode="&#x201e;" glyph-name="quotedblbase" horiz-adv-x="510" d="M195 101T210 81T226 26Q226 -20 203 -72T139 -163L118 -140Q170 -78 179 -6Q169 -8 164 -8Q144 -8 131 6T117 44Q117 69 132 85T170 101Q195 101 210 81ZM363 101T378 81T393 26Q393
-21 370 -73T306 -163L285 -140Q339 -80 348 -6Q338 -8 332 -8Q312 -8 299 6T286 44Q286 69 301 85T339 101Q363 101 378 81Z" />
<glyph unicode="&#x2022;" glyph-name="bullet" horiz-adv-x="368" d="M128 167T93 202T57 294Q57 350 92 385T184 421Q240 421 275 386T311 294Q311 238 276 203T184 167Q128 167 93 202Z" />
<glyph unicode="&#x2039;" glyph-name="guilsinglleft" horiz-adv-x="303" d="M40 260L202 454H263L103 260L263 66H202L40 260Z" />
<glyph unicode="&#x203a;" glyph-name="guilsinglright" horiz-adv-x="303" d="M199 260L40 454H100L263 260L100 66H40L199 260Z" />
</font>
</defs>
</svg>
