<?xml version="1.0" standalone="no"?>
<!DOCTYPE svg PUBLIC "-//W3C//DTD SVG 1.1//EN" "http://www.w3.org/Graphics/SVG/1.1/DTD/svg11.dtd">
<svg xmlns="http://www.w3.org/2000/svg">
<defs >
<font id="Sarabun" horiz-adv-x="526" ><font-face
    font-family="Sarabun Light"
    units-per-em="1000"
    panose-1="0 0 4 0 0 0 0 0 0 0"
    ascent="1068"
    descent="-232"
    alphabetic="0" />
<glyph unicode=" " glyph-name="space" horiz-adv-x="247" />
<glyph unicode="!" glyph-name="exclam" horiz-adv-x="230" d="M152 700H236L134 184H72L152 700ZM47 -10T33 3T19 36Q19 67 38 86T90 106Q112 106 126 93T141 60Q141 29 121 10T69 -10Q47 -10 33 3Z" />
<glyph unicode="&quot;" glyph-name="quotedbl" horiz-adv-x="336" d="M136 710H213L160 468H103L136 710ZM285 710H362L309 468H252L285 710Z" />
<glyph unicode="#" glyph-name="numbersign" horiz-adv-x="679" d="M565 437L513 262H604L594 205H496L434 0H368L430 205H206L144 0H78L140 205H49L59 262H157L209 437H110L120 495H227L288 700H354L293 495H517L578 700H644L583 495H665L655 437H565ZM499 437H275L223
262H447L499 437Z" />
<glyph unicode="$" glyph-name="dollar" d="M274 648T232 615T189 529Q189 492 220 463T331 389Q470 313 470 199Q470 111 412 55T257 -9L245 -77H180L192 -8Q133 -1 87 26T17 94L70 139Q95 100 138 76T228 52Q300 52 347 91T394 192Q394 237 364 270T272 336Q193
379 154 423T114 524Q114 603 170 653T319 709L329 769H394L383 707Q437 698 476 671T530 604L474 569Q457 605 421 626T339 648Q274 648 232 615Z" />
<glyph unicode="%" glyph-name="percent" horiz-adv-x="880" d="M160 319T125 359T90 464Q90 534 113 590T179 678T275 710Q332 710 367 670T403 565Q403 494 379 438T313 351T217 319Q160 319 125 359ZM694 700H768L213 -13H140L694 700ZM255 372T281 396T323
464T339 562Q339 605 321 630T271 656Q237 656 210 632T168 564T152 467Q152 424 170 398T221 372Q255 372 281 396ZM583 -10T548 30T513 135Q513 206 536 262T602 349T698 381Q755 381 790 341T825 236Q825 165 801 109T735 22T639 -10Q583 -10 548 30ZM678 44T704
68T746 136T762 233Q762 277 744 302T694 328Q660 328 633 304T591 236T575 138Q575 95 594 70T644 44Q678 44 704 68Z" />
<glyph unicode="&amp;" glyph-name="ampersand" horiz-adv-x="657" d="M590 39L540 -10Q501 29 465 68Q362 -10 236 -10Q142 -10 84 34T26 156Q26 232 76 297T212 397Q177 472 177 526Q177 580 200 621T265 686T364 710Q427 710 466 677T505 592Q505 531 452 472T306
370L316 354Q371 271 473 160Q530 223 560 312H627Q593 198 516 114L590 39ZM311 652T279 620T247 535Q247 482 283 412Q352 446 393 491T435 583Q435 614 415 633T361 652Q311 652 279 620ZM342 51T423 113Q312 237 256 319Q250 328 245 336T236 351Q175 321 139
273T102 170Q102 114 142 83T250 51Q342 51 423 113Z" />
<glyph unicode="&apos;" glyph-name="quotesingle" horiz-adv-x="188" d="M136 710H213L160 468H103L136 710Z" />
<glyph unicode="(" glyph-name="parenleft" horiz-adv-x="305" d="M93 -15T69 58T45 218Q45 321 74 423T157 611T279 750H355Q286 702 232 617T148 428T117 216Q117 127 142 54T212 -62H137Q93 -15 69 58Z" />
<glyph unicode=")" glyph-name="parenright" horiz-adv-x="305" d="M53 -13T107 72T191 261T222 472Q222 561 197 634T127 750H201Q245 704 269 630T294 470Q294 367 265 265T182 78T59 -62H-16Q53 -13 107 72Z" />
<glyph unicode="*" glyph-name="asterisk" horiz-adv-x="448" d="M119 394L234 516L82 506L93 569L242 559L170 681L238 717L283 583L375 717L431 681L317 559L468 569L457 506L309 516L380 394L312 357L267 491L175 357L119 394Z" />
<glyph unicode="+" glyph-name="plus" horiz-adv-x="603" d="M266 234H50L60 290H276L317 524H382L341 290H558L548 234H331L290 0H225L266 234Z" />
<glyph unicode="," glyph-name="comma" horiz-adv-x="237" d="M119 113T133 97T147 54Q147 5 109 -60T14 -168L-9 -135Q19 -110 42 -76T78 -7L64 -8Q45 -8 34 4T22 37Q22 70 43 91T96 113Q119 113 133 97Z" />
<glyph unicode="-" glyph-name="hyphen" horiz-adv-x="340" d="M44 293H311L301 239H35L44 293Z" />
<glyph unicode="." glyph-name="period" horiz-adv-x="237" d="M52 -10T39 3T26 36Q26 67 45 87T93 107Q114 107 127 94T140 61Q140 30 121 10T73 -10Q52 -10 39 3Z" />
<glyph unicode="/" glyph-name="slash" horiz-adv-x="396" d="M438 725H504L-11 -43H-77L438 725Z" />
<glyph unicode="0" glyph-name="zero" horiz-adv-x="545" d="M179 -10T137 18T71 98T47 223Q47 363 85 474T191 647T346 710Q401 710 443 682T509 602T533 479Q533 338 495 227T389 53T234 -10Q179 -10 137 18ZM300 48T350 104T430 258T459 478Q459 558 428 605T344
652Q281 652 230 597T150 444T121 224Q121 142 152 95T237 48Q300 48 350 104Z" />
<glyph unicode="1" glyph-name="one" horiz-adv-x="545" d="M100 61H222L319 611L164 528L176 597L362 700H408L296 61H418L407 0H89L100 61Z" />
<glyph unicode="2" glyph-name="two" horiz-adv-x="545" d="M35 69Q140 137 232 223T380 394T436 546Q436 594 407 621T327 648Q277 648 227 624T143 561L112 606Q147 654 206 682T333 710Q416 710 464 668T513 556Q513 454 414 327T130 61H463L452 0H23L35 69Z" />
<glyph unicode="3" glyph-name="three" horiz-adv-x="545" d="M152 -10T97 17T22 91L69 136Q87 98 130 75T227 52Q279 52 321 73T387 132T412 214Q412 271 365 303T234 335H206L217 398H244Q300 398 347 420T421 479T448 561Q448 603 420 625T338 648Q285 648
236 626T153 564L123 609Q159 656 219 683T347 710Q427 710 475 673T523 572Q523 505 475 449T348 369Q415 356 451 316T487 217Q487 153 454 101T361 20T225 -10Q152 -10 97 17Z" />
<glyph unicode="4" glyph-name="four" horiz-adv-x="545" d="M335 124H7L19 190L416 700H511L420 186H501L490 124H409L388 0H314L335 124ZM346 186L422 617L87 186H346Z" />
<glyph unicode="5" glyph-name="five" horiz-adv-x="545" d="M149 -10T95 17T20 91L66 139Q86 98 127 75T222 52Q278 52 323 80T393 158T419 270Q419 329 387 362T297 396Q255 396 215 378T148 327H86L184 700H551L541 638H241L182 413Q207 433 245 445T324 457Q404
457 451 409T498 279Q498 195 463 130T364 27T220 -10Q149 -10 95 17Z" />
<glyph unicode="6" glyph-name="six" horiz-adv-x="545" d="M149 -10T96 44T42 192Q42 307 108 419T284 611T518 711L516 653Q406 628 311 553T170 382Q194 411 233 427T318 444Q401 444 449 394T497 262Q497 185 464 123T371 26T239 -10Q149 -10 96 44ZM292 52T333
79T399 153T423 257Q423 315 391 348T300 382Q250 382 208 355T142 281T118 178Q118 120 151 86T242 52Q292 52 333 79Z" />
<glyph unicode="7" glyph-name="seven" horiz-adv-x="545" d="M172 121T206 221T306 427T476 638H125L135 700H569L557 633Q291 384 223 0H147Q172 121 206 221Z" />
<glyph unicode="8" glyph-name="eight" horiz-adv-x="545" d="M139 -10T84 34T28 154Q28 228 70 287T185 374Q152 388 133 423T114 504Q114 564 143 611T226 684T348 710Q431 710 481 669T532 562Q532 501 496 449T404 374Q449 355 472 316T496 226Q496 156 463
103T371 20T233 -10Q139 -10 84 34ZM369 402T412 444T456 552Q456 595 425 621T343 648Q274 648 231 607T187 499Q187 456 218 429T300 402Q369 402 412 444ZM292 52T334 75T399 139T423 232Q423 282 386 313T289 344Q235 344 193 322T128 259T104 167Q104 116
141 84T238 52Q292 52 334 75Z" />
<glyph unicode="9" glyph-name="nine" horiz-adv-x="545" d="M66 47Q143 64 213 104T335 199T412 316Q388 289 348 273T265 256Q184 256 134 307T84 440Q84 516 118 577T211 674T342 710Q433 710 485 655T538 506Q538 386 475 275T302 87T65 -11L66 47ZM330 316T372
343T438 418T463 522Q463 580 430 614T338 648Q288 648 247 621T182 546T158 442Q158 384 190 350T279 316Q330 316 372 343Z" />
<glyph unicode=":" glyph-name="colon" horiz-adv-x="237" d="M116 355T103 368T90 401Q90 432 109 451T158 471Q178 471 191 458T204 425Q204 394 186 375T137 355Q116 355 103 368ZM52 -12T39 1T26 34Q26 65 45 85T93 105Q113 105 126 92T139 59Q139 28 121
8T73 -12Q52 -12 39 1Z" />
<glyph unicode=";" glyph-name="semicolon" horiz-adv-x="237" d="M178 471T191 458T204 425Q204 394 186 375T137 355Q116 355 103 368T90 401Q90 432 109 451T158 471Q178 471 191 458ZM117 113T131 97T145 54Q145 5 107 -60T12 -168L-11 -135Q17 -110 40 -76T77
-7L62 -8Q43 -8 32 4T21 37Q21 70 41 91T94 113Q117 113 131 97Z" />
<glyph unicode="&lt;" glyph-name="less" horiz-adv-x="603" d="M64 259L71 299L595 559L583 492L151 275L506 60L497 0L64 259Z" />
<glyph unicode="=" glyph-name="equal" horiz-adv-x="603" d="M96 392H557L547 334H86L96 392ZM61 191H521L511 133H51L61 191Z" />
<glyph unicode="&gt;" glyph-name="greater" horiz-adv-x="603" d="M29 67L461 282L105 499L117 559L550 299L542 259L18 0L29 67Z" />
<glyph unicode="?" glyph-name="question" horiz-adv-x="448" d="M172 173Q172 216 187 251T225 314T285 377Q320 412 341 436T376 492T390 561Q390 651 286 651Q244 651 204 629T134 569L101 614Q133 659 185 684T299 709Q378 709 421 674T465 574Q465 529 450
494T412 432T350 368Q311 331 289 305T252 244T236 165V158H173L172 173ZM157 -10T143 2T129 35Q129 65 148 84T199 103Q220 103 233 91T247 59Q247 28 228 9T178 -10Q157 -10 143 2Z" />
<glyph unicode="@" glyph-name="at" horiz-adv-x="791" d="M220 -145T156 -109T55 -9T19 136Q19 270 76 374T236 535T471 593Q555 593 621 559T725 465T762 327Q762 239 732 170T649 60T526 15L485 13L480 80Q447 46 402 25T316 4Q261 4 227 35T192 115Q192 165
218 204T290 265T397 287H506L511 313Q513 327 513 332Q513 369 489 391T424 413Q386 413 347 394T282 345L255 380Q286 415 336 437T433 460Q495 460 530 426T566 334Q566 317 563 299L533 129Q531 119 531 94Q531 74 532 65Q582 69 621 102T681 192T703 319Q703
383 674 433T590 511T465 539Q353 539 266 489T130 348T81 142Q81 74 111 22T196 -60T320 -90Q365 -90 413 -79T492 -50L507 -95Q471 -117 414 -131T302 -145Q220 -145 156 -109ZM367 51T400 65T455 104T482 155L498 242H394Q331 242 291 209T250 124Q250 90 273
71T331 51Q367 51 400 65Z" />
<glyph unicode="A" glyph-name="A" horiz-adv-x="581" d="M421 164H139L59 0H-26L334 700H405L519 0H444L421 164ZM412 225L357 611L169 225H412Z" />
<glyph unicode="B" glyph-name="B" horiz-adv-x="584" d="M165 700H341Q445 700 499 666T554 566Q554 497 516 447T411 375V373Q525 343 525 237Q525 120 458 60T260 0H42L165 700ZM309 399Q386 399 432 441T479 555Q479 598 445 618T341 639H228L186 399H309ZM268
61Q356 61 403 105T451 231Q451 288 408 314T273 341H176L127 61H268Z" />
<glyph unicode="C" glyph-name="C" horiz-adv-x="576" d="M179 -10T113 61T46 255Q46 383 93 487T223 650T411 710Q481 710 535 682T610 606L561 562Q519 648 409 648Q328 648 262 598T159 458T121 259Q121 160 167 106T299 52Q418 52 487 138L520 94Q482 44 424
17T294 -10Q179 -10 113 61Z" />
<glyph unicode="D" glyph-name="D" horiz-adv-x="618" d="M165 700H381Q602 700 602 475Q602 326 559 220T434 57T236 0H42L165 700ZM255 62Q336 62 398 113T494 257T528 470Q528 558 488 598T367 638H228L127 62H255Z" />
<glyph unicode="E" glyph-name="E" horiz-adv-x="546" d="M165 700H569L559 638H228L187 400H482L471 337H175L127 62H457L446 0H42L165 700Z" />
<glyph unicode="F" glyph-name="F" horiz-adv-x="543" d="M165 700H574L564 638H228L182 371H495L484 309H170L116 0H42L165 700Z" />
<glyph unicode="G" glyph-name="G" horiz-adv-x="633" d="M340 356H585L523 0H477L469 47Q433 19 388 5T291 -10Q178 -10 112 61T46 255Q46 383 93 487T223 650T411 710Q486 710 542 682T618 606L571 563Q551 604 509 626T407 648Q327 648 262 597T159 457T121
258Q121 158 167 104T300 50Q348 50 392 65T469 109L503 299H330L340 356Z" />
<glyph unicode="H" glyph-name="H" horiz-adv-x="674" d="M164 700H238L183 384H539L594 700H668L545 0H471L528 322H172L115 0H41L164 700Z" />
<glyph unicode="I" glyph-name="I" horiz-adv-x="284" d="M184 700H258L135 0H61L184 700Z" />
<glyph unicode="J" glyph-name="J" horiz-adv-x="423" d="M65 -10T28 2T-30 35L8 90Q25 73 52 63T109 52Q173 52 209 97T261 234L343 700H417L333 223Q312 102 258 46T105 -10Q65 -10 28 2Z" />
<glyph unicode="K" glyph-name="K" horiz-adv-x="588" d="M336 415L528 0H455L283 363L157 240L115 0H41L164 700H238L176 342L539 700H627L336 415Z" />
<glyph unicode="L" glyph-name="L" horiz-adv-x="537" d="M164 700H238L126 62H467L456 0H41L164 700Z" />
<glyph unicode="M" glyph-name="M" horiz-adv-x="793" d="M786 700L663 0H591L694 578L377 0H327L215 575L114 0H42L165 700H254L367 95L694 700H786Z" />
<glyph unicode="N" glyph-name="N" horiz-adv-x="677" d="M670 700L547 0H472L219 591L115 0H41L164 700H246L494 117L597 700H670Z" />
<glyph unicode="O" glyph-name="O" horiz-adv-x="655" d="M177 -10T112 61T46 256Q46 383 92 487T221 650T404 710Q477 710 531 678T615 585T645 444Q645 317 599 213T471 50T289 -10Q177 -10 112 61ZM370 51T433 103T533 244T570 440Q570 538 525 593T399 649Q323
649 259 597T158 456T121 261Q121 162 166 107T294 51Q370 51 433 103Z" />
<glyph unicode="P" glyph-name="P" horiz-adv-x="568" d="M165 700H354Q452 700 505 659T559 539Q559 457 526 396T432 302T288 268H163L116 0H42L165 700ZM304 331Q356 331 397 355T462 424T486 525Q486 581 452 609T350 638H228L174 331H304Z" />
<glyph unicode="Q" glyph-name="Q" horiz-adv-x="655" d="M645 331T608 236T506 79T356 -3Q421 -33 541 -51L519 -104Q444 -93 374 -67T248 -7Q153 6 100 75T46 256Q46 383 92 487T221 650T404 710Q477 710 531 678T615 585T645 444Q645 331 608 236ZM121 162T166
107T294 51Q370 51 433 103T533 244T570 440Q570 538 525 593T399 649Q323 649 259 597T158 456T121 261Q121 162 166 107Z" />
<glyph unicode="R" glyph-name="R" horiz-adv-x="577" d="M165 700H363Q460 700 512 664T564 557Q564 470 518 411T388 333V331Q407 318 418 302T435 260L494 0H414L364 230Q354 277 331 294T255 312H171L116 0H42L165 700ZM310 373Q394 373 442 419T490 544Q490
638 354 638H228L182 373H310Z" />
<glyph unicode="S" glyph-name="S" horiz-adv-x="525" d="M157 -10T101 18T17 94L70 139Q95 100 138 76T228 52Q300 52 347 91T394 192Q394 237 364 270T272 336Q193 379 154 423T114 524Q114 580 143 622T223 687T339 710Q407 710 460 681T530 604L474 569Q457
605 421 626T339 648Q274 648 232 615T189 529Q189 492 220 463T331 389Q470 313 470 199Q470 136 439 89T353 16T226 -10Q157 -10 101 18Z" />
<glyph unicode="T" glyph-name="T" horiz-adv-x="547" d="M306 640H87L98 700H608L597 640H380L267 0H193L306 640Z" />
<glyph unicode="U" glyph-name="U" horiz-adv-x="656" d="M187 -10T134 42T80 193Q80 229 88 275L163 700H238L163 277Q155 229 155 197Q155 124 189 88T294 52Q463 52 503 277L578 700H652L577 275Q552 130 482 60T290 -10Q187 -10 134 42Z" />
<glyph unicode="V" glyph-name="V" horiz-adv-x="587" d="M648 700L287 0H212L97 700H175L264 93L566 700H648Z" />
<glyph unicode="W" glyph-name="W" horiz-adv-x="817" d="M867 700L600 0H525L472 604L206 0H129L107 700H187L188 106L448 700H526L575 106L786 700H867Z" />
<glyph unicode="X" glyph-name="X" horiz-adv-x="589" d="M272 361L127 700H211L323 418L529 700H621L358 359L508 0H427L307 300L85 0H-7L272 361Z" />
<glyph unicode="Y" glyph-name="Y" horiz-adv-x="554" d="M245 278L98 700H179L292 347L530 700H614L319 278L271 0H196L245 278Z" />
<glyph unicode="Z" glyph-name="Z" horiz-adv-x="559" d="M1 44L485 638H135L146 700H588L580 654L98 62H489L478 0H-7L1 44Z" />
<glyph unicode="[" glyph-name="bracketleft" horiz-adv-x="299" d="M144 700H355L345 646H207L83 -59H221L212 -113H1L144 700Z" />
<glyph unicode="\" glyph-name="backslash" horiz-adv-x="381" d="M59 725H125L370 -43H304L59 725Z" />
<glyph unicode="]" glyph-name="bracketright" horiz-adv-x="299" d="M-31 -59H107L231 646H93L102 700H313L170 -113H-41L-31 -59Z" />
<glyph unicode="^" glyph-name="asciicircum" horiz-adv-x="580" d="M339 700H402L530 227H465L361 628L114 227H43L339 700Z" />
<glyph unicode="_" glyph-name="underscore" horiz-adv-x="311" d="M-83 -223H228L218 -278H-93L-83 -223Z" />
<glyph unicode="`" glyph-name="grave" horiz-adv-x="400" d="M182 696H256L308 554H252L182 696Z" />
<glyph unicode="a" glyph-name="a" horiz-adv-x="538" d="M125 -10T79 42T32 186Q32 279 64 353T155 468T288 510Q340 510 379 488T434 425H436L459 500H516L450 124Q436 51 430 0H368Q376 61 380 84H378Q347 40 302 15T206 -10Q125 -10 79 42ZM285 47T333 89T394
200L409 287Q413 307 413 329Q413 388 381 421T291 455Q238 455 195 421T127 326T102 191Q102 123 132 85T218 47Q285 47 333 89Z" />
<glyph unicode="b" glyph-name="b" horiz-adv-x="538" d="M198 -10T157 16T101 84H99Q92 38 82 0H20Q37 80 44 124L154 742H223L167 427H169Q225 510 334 510Q414 510 461 459T509 318Q509 228 476 153T383 34T249 -10Q198 -10 157 16ZM300 47T344 83T413 181T438
314Q438 382 407 418T319 455Q253 455 204 409T142 287L127 200Q124 182 124 166Q124 111 157 79T245 47Q300 47 344 83Z" />
<glyph unicode="c" glyph-name="c" horiz-adv-x="467" d="M135 -10T83 41T31 184Q31 279 65 353T162 468T306 510Q367 510 412 486T479 417L430 378Q414 413 381 433T304 453Q247 453 201 419T128 325T101 192Q101 123 135 85T232 47Q276 47 316 66T384 122L419
83Q344 -10 227 -10Q135 -10 83 41Z" />
<glyph unicode="d" glyph-name="d" horiz-adv-x="538" d="M125 -10T79 42T32 186Q32 279 64 353T155 468T288 510Q337 510 375 488T432 427H434L490 742H558L450 124Q434 32 430 0H368Q371 33 380 84H378Q347 40 302 15T206 -10Q125 -10 79 42ZM285 47T333 89T394
200L409 287Q413 307 413 329Q413 388 381 421T291 455Q238 455 195 421T127 326T102 191Q102 123 132 85T218 47Q285 47 333 89Z" />
<glyph unicode="e" glyph-name="e" horiz-adv-x="510" d="M385 510T432 460T480 322Q480 291 474 256L468 222H102Q101 212 101 190Q101 122 135 86T233 49Q278 49 318 68T389 123L423 84Q344 -10 228 -10Q137 -10 84 42T31 186Q31 279 65 353T161 468T301 510Q385
510 432 460ZM418 314T418 326Q418 386 386 419T295 453Q230 453 180 405T111 276H412L414 284Q418 314 418 326Z" />
<glyph unicode="f" glyph-name="f" horiz-adv-x="316" d="M126 447H42L52 500H135L147 566Q159 637 202 677T312 717Q343 717 371 709T412 685L378 641Q357 662 317 662Q277 662 251 637T216 565L204 500H349L340 447H195L116 0H47L126 447Z" />
<glyph unicode="g" glyph-name="g" horiz-adv-x="538" d="M515 500L430 15Q410 -103 344 -164T168 -225Q119 -225 74 -214T-7 -182L26 -129Q61 -148 96 -156T171 -165Q253 -165 301 -118T367 25L376 76Q349 36 305 14T209 -9Q126 -9 79 42T32 183Q32 276 64 351T155
468T287 510Q339 510 378 488T434 425H436L458 500H515ZM412 305T412 328Q412 388 381 421T293 455Q239 455 195 421T126 326T101 191Q101 123 132 86T220 48Q288 48 334 89T394 203L408 284Q412 305 412 328Z" />
<glyph unicode="h" glyph-name="h" horiz-adv-x="555" d="M153 742H222L164 413Q191 457 241 483T347 510Q421 510 461 469T501 350Q501 320 495 285L445 0H376L427 286Q432 311 432 342Q432 397 407 426T334 455Q288 455 247 432T177 367T139 273L91 0H22L153 742Z" />
<glyph unicode="i" glyph-name="i" horiz-adv-x="236" d="M159 597T147 608T134 637Q134 664 151 682T197 700Q217 700 230 689T243 659Q243 633 225 615T179 597Q159 597 147 608ZM127 500H197L109 0H39L127 500Z" />
<glyph unicode="j" glyph-name="j" horiz-adv-x="237" d="M167 597T155 608T142 638Q142 665 160 682T205 700Q225 700 237 689T250 659Q250 633 233 615T187 597Q167 597 155 608ZM-93 -187T-118 -182L-107 -128Q-98 -129 -75 -129Q-18 -129 10 -96T52 10L138
500H207L120 5Q103 -93 60 -140T-60 -187Q-93 -187 -118 -182Z" />
<glyph unicode="k" glyph-name="k" horiz-adv-x="472" d="M271 307L420 0H342L217 261L122 179L91 0H22L153 742H222L138 268L411 500H496L271 307Z" />
<glyph unicode="l" glyph-name="l" horiz-adv-x="289" d="M47 -10T47 74Q47 84 51 112L162 742H231L121 116Q118 98 118 86Q118 63 128 54T161 44Q181 44 211 55L215 12Q198 2 176 -4T131 -10Q47 -10 47 74Z" />
<glyph unicode="m" glyph-name="m" horiz-adv-x="838" d="M88 376Q104 475 106 500H168Q165 453 155 411H158Q187 457 232 483T329 510Q384 510 420 481T460 403Q491 455 536 482T637 510Q707 510 746 471T786 360Q786 339 781 309L727 0H658L712 305Q716 326
716 349Q716 400 691 426T618 453Q563 453 518 411T462 304L408 0H340L393 299Q398 332 398 353Q398 453 307 453Q271 453 236 432T176 376T144 301L91 0H22L88 376Z" />
<glyph unicode="n" glyph-name="n" horiz-adv-x="545" d="M88 376Q104 474 106 500H169Q167 463 156 405H159Q188 454 237 482T344 510Q417 510 454 471T492 355Q492 320 485 284L435 0H366L416 285Q422 320 422 348Q422 453 329 453Q284 453 244 430T176 366T139
273L91 0H21L88 376Z" />
<glyph unicode="o" glyph-name="o" horiz-adv-x="550" d="M143 -10T88 45T32 193Q32 283 68 355T168 469T313 510Q406 510 462 455T518 307Q518 217 482 145T381 31T236 -10Q143 -10 88 45ZM296 45T344 79T420 173T448 304Q448 375 412 415T311 455Q253 455 206
421T130 327T102 195Q102 125 138 85T238 45Q296 45 344 79Z" />
<glyph unicode="p" glyph-name="p" horiz-adv-x="539" d="M89 376Q97 420 107 500H170Q164 446 158 416H160Q186 458 233 484T334 510Q414 510 461 459T508 320Q508 227 476 152T385 34T255 -10Q203 -10 163 12T107 73H105L49 -242H-20L89 376ZM299 45T342 81T412
180T438 315Q438 381 408 417T320 453Q255 453 206 410T145 300L130 213Q126 193 126 172Q126 113 158 79T247 45Q299 45 342 81Z" />
<glyph unicode="q" glyph-name="q" horiz-adv-x="539" d="M372 74H369Q344 34 303 12T212 -10Q132 -10 82 43T32 185Q32 277 65 351T156 468T286 510Q339 510 382 484T438 417H440L444 438Q447 455 457 500H520Q506 440 494 376L386 -242H316L372 74ZM286 45T334
91T396 213L412 300Q415 317 415 332Q415 386 381 419T291 453Q238 453 195 419T127 325T102 192Q102 124 133 85T220 45Q286 45 334 91Z" />
<glyph unicode="r" glyph-name="r" horiz-adv-x="334" d="M95 378Q110 465 113 500H177Q174 456 166 412L163 400H166Q222 510 339 510Q357 510 367 507L357 449Q341 451 325 451Q284 451 246 426T180 357T143 260L97 0H28L95 378Z" />
<glyph unicode="s" glyph-name="s" horiz-adv-x="409" d="M106 -10T62 13T6 70L58 102Q70 75 98 60T164 45Q216 45 250 75T284 151Q284 180 265 200T196 240Q129 267 99 297T69 369Q69 434 116 472T243 510Q291 510 331 488T385 432L335 400Q323 427 299 441T242
455Q196 455 168 434T139 378Q139 354 162 335T241 292Q299 267 327 235T355 161Q355 111 331 72T263 12T161 -10Q106 -10 62 13Z" />
<glyph unicode="t" glyph-name="t" horiz-adv-x="363" d="M137 -10T107 19T76 103Q76 114 80 142L134 445H44L54 500H144L168 635L237 656H241L214 500H355L345 445H204L152 154Q148 134 148 114Q148 81 163 64T212 47Q251 47 282 59L279 6Q243 -10 192 -10Q137
-10 107 19Z" />
<glyph unicode="u" glyph-name="u" horiz-adv-x="550" d="M126 -10T89 27T51 138Q51 161 58 205L110 500H179L128 206Q122 175 122 150Q122 47 217 47Q262 47 302 70T369 134T406 226L454 500H523L453 100Q444 52 444 0H382L381 20Q381 40 388 94H384Q353 45 303
18T197 -10Q126 -10 89 27Z" />
<glyph unicode="v" glyph-name="v" horiz-adv-x="463" d="M496 500L220 0H155L55 500H124L198 81L421 500H496Z" />
<glyph unicode="w" glyph-name="w" horiz-adv-x="655" d="M689 500L476 0H413L359 430L155 0H91L55 500H126L142 90L338 500H403L454 90L614 500H689Z" />
<glyph unicode="x" glyph-name="x" horiz-adv-x="440" d="M185 254L68 500H144L227 304L379 500H461L257 254L385 0H307L215 210L48 0H-33L185 254Z" />
<glyph unicode="y" glyph-name="y" horiz-adv-x="448" d="M482 500L215 -4Q162 -105 101 -155T-31 -206Q-59 -206 -78 -200L-69 -148Q-52 -153 -31 -153Q22 -153 65 -114T163 22L61 500H135L206 97L404 500H482Z" />
<glyph unicode="z" glyph-name="z" horiz-adv-x="443" d="M-9 41L356 444H77L86 500H449L442 456L83 56H381L371 0H-16L-9 41Z" />
<glyph unicode="{" glyph-name="braceleft" horiz-adv-x="309" d="M122 -114T93 -90T64 -16Q64 8 68 29L99 200Q101 214 101 219Q101 270 43 274L52 323Q121 326 133 396L163 567Q176 642 215 676T328 710H352L343 655H315Q277 655 258 635T229 566L200 399Q192
359 175 337T124 298Q168 275 168 225Q168 212 165 197L136 30Q132 2 132 -6Q132 -33 145 -46T189 -59H217L207 -114H183Q122 -114 93 -90Z" />
<glyph unicode="|" glyph-name="bar" horiz-adv-x="238" d="M165 700H233L81 -160H13L165 700Z" />
<glyph unicode="}" glyph-name="braceright" horiz-adv-x="309" d="M-16 -59H12Q50 -59 69 -39T96 30L125 197Q138 272 204 298Q180 312 170 327T159 368Q159 381 162 399L191 566Q195 585 195 602Q195 630 182 642T138 655H109L119 710H144Q205 710 234 686T263
610Q263 588 259 567L230 396Q228 380 228 374Q228 349 241 337T284 323L275 274Q240 272 221 254T194 200L164 29Q150 -45 111 -79T-1 -114H-26L-16 -59Z" />
<glyph unicode="~" glyph-name="asciitilde" horiz-adv-x="603" d="M57 209Q67 270 108 306T206 343Q237 343 262 331T322 294Q351 273 372 262T417 251Q450 251 471 276T501 343H556L554 330Q547 268 507 231T411 193Q379 193 353 205T292 243Q264 264 243 274T199
285Q166 285 144 261T111 193H54L57 209Z" />
<glyph unicode="&#xa0;" glyph-name="uni00A0" horiz-adv-x="247" />
<glyph unicode="&#xa1;" glyph-name="exclamdown" horiz-adv-x="230" d="M118 394T104 407T90 440Q90 471 110 490T161 510Q183 510 197 497T212 464Q212 433 192 414T140 394Q118 394 104 407ZM95 315H157L77 -201H-7L95 315Z" />
<glyph unicode="&#xa2;" glyph-name="cent" horiz-adv-x="467" d="M259 523T213 489T140 395T113 262Q113 193 147 155T244 117Q288 117 328 136T396 192L431 153Q362 66 252 60L236 -28H184L200 63Q126 74 85 124T43 254Q43 343 74 414T161 529T291 579L307 668H359L343
579Q396 574 434 551T491 487L442 448Q426 483 393 503T316 523Q259 523 213 489Z" />
<glyph unicode="&#xa3;" glyph-name="sterling" horiz-adv-x="531" d="M443 710T479 698T536 662L501 610Q484 628 457 638T402 649Q347 649 310 614T262 515Q257 488 256 447T255 366H422L412 314H254Q252 272 248 242Q239 189 209 140T130 57H429L419 0H13L22
47Q88 81 130 132T181 236Q184 256 186 314H90L99 366H186Q188 480 195 521Q211 610 265 660T404 710Q443 710 479 698Z" />
<glyph unicode="&#xa4;" glyph-name="currency" horiz-adv-x="609" d="M231 63T189 79T119 121L50 64L10 110L77 167Q48 214 48 284Q48 340 72 398T136 497L88 554L144 600L193 543Q225 570 272 585T367 601Q412 601 453 586T521 543L592 600L631 552L564 497Q592
453 592 384Q592 326 568 266T506 167L553 110L498 64L447 121Q415 94 369 79T275 63Q231 63 189 79ZM348 127T403 160T491 250T524 373Q524 447 478 493T357 539Q293 539 238 505T150 414T117 290Q117 217 163 172T284 127Q348 127 403 160Z" />
<glyph unicode="&#xa5;" glyph-name="yen" horiz-adv-x="564" d="M367 339H511L502 286H331L325 278L312 205H487L478 153H303L276 0H201L228 153H54L63 205H237L250 278L247 286H78L87 338H229L103 700H184L297 347L535 700H619L367 339Z" />
<glyph unicode="&#xa6;" glyph-name="brokenbar" horiz-adv-x="238" d="M165 700H233L165 317H98L165 700ZM81 223H148L81 -160H13L81 223Z" />
<glyph unicode="&#xa7;" glyph-name="section" horiz-adv-x="525" d="M481 211T415 157Q445 127 445 82Q445 -3 382 -52T211 -102Q140 -102 85 -75T4 -1L56 44Q80 3 121 -19T216 -42Q285 -42 327 -10T370 74Q370 96 359 112T322 143T245 184Q178 217 144 238T95
281T79 334Q79 405 151 454Q117 489 117 534Q117 585 145 625T224 687T339 710Q407 710 458 682T526 606L476 572Q457 609 420 630T335 651Q274 651 233 619T192 539Q192 517 204 501T246 467T336 421Q414 384 447 352T481 276Q481 211 415 157ZM350 206T374 190Q392
207 403 228T414 268Q414 288 403 302T366 330T278 375Q232 395 194 420Q174 404 162 384T150 344Q150 327 158 316T185 293T254 256Q275 244 301 231Q350 206 374 190Z" />
<glyph unicode="&#xa8;" glyph-name="dieresis" horiz-adv-x="400" d="M138 554T127 564T116 591Q116 615 131 630T172 645Q189 645 200 635T211 609Q211 584 196 569T155 554Q138 554 127 564ZM334 554T323 564T312 592Q312 615 327 630T368 645Q385 645 396
635T407 609Q407 584 392 569T352 554Q334 554 323 564Z" />
<glyph unicode="&#xa9;" glyph-name="copyright" horiz-adv-x="802" d="M269 -10T199 26T90 128T51 277Q51 404 105 502T256 655T479 710Q568 710 638 674T747 572T786 423Q786 296 732 198T581 45T358 -10Q269 -10 199 26ZM472 36T556 84T688 218T735 414Q735
487 702 544T610 632T474 664Q365 664 281 616T149 483T102 287Q102 214 135 157T227 68T363 36Q472 36 556 84ZM327 138T287 182T246 299Q246 376 273 437T350 533T461 568Q503 568 536 551T582 505L546 473Q535 495 511 507T457 520Q413 520 377 492T321 415T301
304Q301 250 327 218T397 186Q425 186 454 199T504 233L528 201Q505 173 469 156T393 138Q327 138 287 182Z" />
<glyph unicode="&#xaa;" glyph-name="ordfeminine" horiz-adv-x="362" d="M135 361T108 385T80 448Q80 504 122 536T235 568H311L314 584Q316 593 316 608Q316 637 300 651T251 665Q193 665 152 615L127 648Q180 707 258 707Q312 707 341 683T370 615Q370 599
368 590L341 432Q335 398 336 368H288Q287 382 289 417Q245 361 177 361Q135 361 108 385ZM231 401T260 426T296 484L304 530H234Q187 530 160 509T132 450Q132 427 148 414T191 401Q231 401 260 426Z" />
<glyph unicode="&#xab;" glyph-name="guillemotleft" horiz-adv-x="490" d="M41 260L235 455H311L120 260L242 65H165L41 260ZM217 260L412 455H488L297 260L419 65H343L217 260Z" />
<glyph unicode="&#xac;" glyph-name="logicalnot" horiz-adv-x="603" d="M512 346H53L62 400H589L542 132H474L512 346Z" />
<glyph unicode="&#xad;" glyph-name="uni00AD" horiz-adv-x="340" d="M44 293H311L301 239H35L44 293Z" />
<glyph unicode="&#xae;" glyph-name="registered" horiz-adv-x="514" d="M411 710T459 666T507 550Q507 480 477 426T393 342T270 311Q194 311 147 355T99 471Q99 541 129 595T212 679T335 710Q411 710 459 666ZM329 346T374 371T445 441T470 546Q470 603 432
639T334 675Q276 675 231 650T161 580T136 478Q136 419 173 383T272 346Q329 346 374 371ZM360 629T379 614T399 573Q399 538 382 515T331 486L363 397H320L290 484H255L239 397H200L240 629H327Q360 629 379 614ZM330 517T345 531T360 569Q360 583 350 589T315
596H274L260 517H303Q330 517 345 531Z" />
<glyph unicode="&#xaf;" glyph-name="overscore" horiz-adv-x="400" d="M102 622H429L421 574H94L102 622Z" />
<glyph unicode="&#xb0;" glyph-name="degree" horiz-adv-x="312" d="M145 455T115 483T85 556Q85 624 127 667T237 710Q284 710 314 682T345 609Q345 541 303 498T192 455Q145 455 115 483ZM244 498T271 526T299 600Q299 630 280 648T229 667Q186 667 159 639T131
565Q131 535 150 517T200 498Q244 498 271 526Z" />
<glyph unicode="&#xb1;" glyph-name="plusminus" horiz-adv-x="603" d="M344 304L308 107H243L279 304H63L72 359H288L323 556H388L353 359H570L561 304H344ZM27 54H508L499 0H18L27 54Z" />
<glyph unicode="&#xb2;" glyph-name="uni00B2" horiz-adv-x="390" d="M47 262Q160 335 242 427T324 585Q324 615 305 633T252 651Q218 651 185 634T127 590L100 628Q125 663 168 683T260 704Q320 704 356 675T392 597Q392 459 133 260H357L348 208H38L47 262Z" />
<glyph unicode="&#xb3;" glyph-name="uni00B3" horiz-adv-x="390" d="M134 199T93 219T38 271L78 310Q92 283 122 268T188 252Q236 252 270 283T305 360Q305 397 275 417T192 438H167L176 489H201Q255 489 293 519T331 594Q331 621 311 636T259 651Q224 651 190
636T132 594L107 632Q134 666 177 685T269 704Q325 704 361 676T397 603Q397 557 365 520T280 466Q323 456 347 427T371 358Q371 313 347 277T281 220T186 199Q134 199 93 219Z" />
<glyph unicode="&#xb4;" glyph-name="acute" horiz-adv-x="400" d="M286 696H359L239 554H183L286 696Z" />
<glyph unicode="&#xb5;" glyph-name="uni00B5" horiz-adv-x="550" d="M110 500H179L127 208Q123 185 123 160Q123 106 148 76T223 46Q290 46 341 97T406 228L454 500H523L454 105Q445 49 445 0H382Q381 37 386 86H383Q319 -10 217 -10Q178 -10 146 4T100 47L52
-219H-17L110 500Z" />
<glyph unicode="&#xb6;" glyph-name="paragraph" horiz-adv-x="533" d="M277 267H271Q215 267 171 288T101 348T76 437Q76 561 158 630T395 700H522L382 -93H336L468 657H391L259 -93H213L277 267Z" />
<glyph unicode="&#xb7;" glyph-name="middot" horiz-adv-x="237" d="M90 204T77 217T64 250Q64 282 82 301T131 321Q151 321 164 309T177 275Q177 243 159 224T110 204Q90 204 77 217Z" />
<glyph unicode="&#xb8;" glyph-name="cedilla" horiz-adv-x="400" d="M86 -216T66 -214T36 -207L50 -171Q57 -173 72 -175T101 -177Q130 -177 149 -164T168 -129Q168 -113 149 -104T94 -94L79 -75L144 13H190L140 -61Q177 -61 198 -76T219 -118Q219 -159 186 -187T105
-216Q86 -216 66 -214Z" />
<glyph unicode="&#xb9;" glyph-name="uni00B9" horiz-adv-x="390" d="M86 260H170L234 621L128 565L138 625L271 698H313L236 260H319L310 208H77L86 260Z" />
<glyph unicode="&#xba;" glyph-name="ordmasculine" horiz-adv-x="390" d="M157 361T120 398T83 495Q83 557 107 605T174 680T271 707Q333 707 370 670T407 573Q407 511 383 463T316 388T218 361Q157 361 120 398ZM280 401T316 449T353 572Q353 616 331 641T268
667Q210 667 174 619T137 496Q137 452 159 427T222 401Q280 401 316 449Z" />
<glyph unicode="&#xbb;" glyph-name="guillemotright" horiz-adv-x="490" d="M197 260L75 455H151L276 260L82 65H6L197 260ZM374 260L251 455H328L453 260L259 65H182L374 260Z" />
<glyph unicode="&#xbc;" glyph-name="onequarter" horiz-adv-x="948" d="M99 314H173L230 635L136 585L145 638L263 704H301L232 314H305L297 268H91L99 314ZM734 692H793L257 -18H197L734 692ZM732 74H533L542 124L782 435H855L799 120H847L839 74H791L778 0H719L732
74ZM740 120L785 373L591 120H740Z" />
<glyph unicode="&#xbd;" glyph-name="onehalf" horiz-adv-x="948" d="M99 314H173L230 635L136 585L145 638L263 704H301L232 314H305L297 268H91L99 314ZM694 692H753L217 -18H157L694 692ZM577 48Q677 112 750 194T823 335Q823 362 806 377T759 393Q729 393
699 378T649 339L625 374Q647 405 685 423T766 441Q820 441 852 415T884 346Q884 223 654 46H852L844 0H569L577 48Z" />
<glyph unicode="&#xbe;" glyph-name="threequarters" horiz-adv-x="948" d="M137 261T101 278T52 325L87 359Q100 335 126 322T185 308Q228 308 259 336T290 404Q290 436 263 454T189 473H166L175 519H197Q245 519 278 546T312 612Q312 636 295 649T249 662Q218
662 187 649T136 612L113 646Q137 676 175 693T257 710Q307 710 339 685T372 620Q372 580 344 547T268 499Q306 489 327 463T348 402Q348 341 302 301T184 261Q137 261 101 278ZM730 692H789L252 -18H193L730 692ZM729 74H530L539 124L779 435H852L796 120H844L836
74H788L775 0H716L729 74ZM737 120L782 373L587 120H737Z" />
<glyph unicode="&#xbf;" glyph-name="questiondown" horiz-adv-x="448" d="M229 397T215 410T201 442Q201 472 220 491T270 510Q291 510 305 497T319 465Q319 434 300 416T250 397Q229 397 215 410ZM70 -210T27 -175T-17 -75Q-17 -31 -2 5T36 67T98 132Q149 182
176 221T209 311Q212 328 212 341H275V325Q275 282 260 247T222 186T162 121Q126 85 106 61T71 6T57 -63Q57 -106 83 -128T162 -151Q204 -151 244 -130T314 -70L346 -115Q314 -160 262 -185T149 -210Q70 -210 27 -175Z" />
<glyph unicode="&#xc0;" glyph-name="Agrave" horiz-adv-x="581" d="M421 164H139L59 0H-26L334 700H405L519 0H444L421 164ZM412 225L357 611L169 225H412ZM282 894H356L407 754H351L282 894Z" />
<glyph unicode="&#xc1;" glyph-name="Aacute" horiz-adv-x="581" d="M421 164H139L59 0H-26L334 700H405L519 0H444L421 164ZM412 225L357 611L169 225H412ZM455 894H529L411 754H354L455 894Z" />
<glyph unicode="&#xc2;" glyph-name="Acircumflex" horiz-adv-x="581" d="M421 164H139L59 0H-26L334 700H405L519 0H444L421 164ZM412 225L357 611L169 225H412ZM376 890H429L509 754H451L398 845L312 754H249L376 890Z" />
<glyph unicode="&#xc3;" glyph-name="Atilde" horiz-adv-x="581" d="M421 164H139L59 0H-26L334 700H405L519 0H444L421 164ZM412 225L357 611L169 225H412ZM245 793T269 819T329 846Q347 846 362 839T398 819Q427 799 443 799Q457 799 467 811T484 850H529Q521
808 496 781T435 754Q417 754 401 761T366 782Q355 789 344 795T324 801Q311 801 300 788T284 754H239Q245 793 269 819Z" />
<glyph unicode="&#xc4;" glyph-name="Adieresis" horiz-adv-x="581" d="M421 164H139L59 0H-26L334 700H405L519 0H444L421 164ZM412 225L357 611L169 225H412ZM263 754T252 764T241 791Q241 815 256 830T297 845Q314 845 325 835T336 809Q336 784 321 769T280
754Q263 754 252 764ZM459 754T448 764T437 792Q437 815 452 830T493 845Q510 845 521 835T532 809Q532 784 517 769T477 754Q459 754 448 764Z" />
<glyph unicode="&#xc5;" glyph-name="Aring" horiz-adv-x="581" d="M421 164H139L59 0H-26L334 700H405L519 0H444L421 164ZM412 225L357 611L169 225H412ZM342 720T321 739T300 789Q300 834 329 862T405 890Q439 890 460 871T481 821Q481 776 452 748T376 720Q342
720 321 739ZM408 753T425 770T442 815Q442 833 430 844T399 856Q373 856 356 839T339 795Q339 777 350 765T381 753Q408 753 425 770Z" />
<glyph unicode="&#xc6;" glyph-name="AE" horiz-adv-x="791" d="M515 638L473 399H727L716 338H462L414 62H702L691 0H329L357 161H160L56 0H-26L428 700H814L803 638H515ZM432 584L197 220H368L432 584Z" />
<glyph unicode="&#xc7;" glyph-name="Ccedilla" horiz-adv-x="576" d="M481 710T535 682T610 606L561 562Q519 648 409 648Q328 648 262 598T159 458T121 259Q121 160 167 106T299 52Q418 52 487 138L520 94Q485 48 432 22T315 -9L278 -63Q314 -63 336 -81T358
-127Q358 -168 327 -191T245 -215Q199 -215 176 -205L189 -172Q206 -177 240 -177Q270 -177 289 -164T308 -128Q308 -111 289 -102T233 -94L220 -76L269 -9Q165 -1 106 69T46 255Q46 383 93 487T223 650T411 710Q481 710 535 682Z" />
<glyph unicode="&#xc8;" glyph-name="Egrave" horiz-adv-x="546" d="M165 700H569L559 638H228L187 400H482L471 337H175L127 62H457L446 0H42L165 700ZM285 894H359L410 754H354L285 894Z" />
<glyph unicode="&#xc9;" glyph-name="Eacute" horiz-adv-x="546" d="M165 700H569L559 638H228L187 400H482L471 337H175L127 62H457L446 0H42L165 700ZM458 894H532L414 754H357L458 894Z" />
<glyph unicode="&#xca;" glyph-name="Ecircumflex" horiz-adv-x="546" d="M165 700H569L559 638H228L187 400H482L471 337H175L127 62H457L446 0H42L165 700ZM379 890H432L512 754H454L401 845L315 754H252L379 890Z" />
<glyph unicode="&#xcb;" glyph-name="Edieresis" horiz-adv-x="546" d="M165 700H569L559 638H228L187 400H482L471 337H175L127 62H457L446 0H42L165 700ZM266 754T255 764T244 791Q244 815 259 830T300 845Q317 845 328 835T339 809Q339 784 324 769T283 754Q266
754 255 764ZM462 754T451 764T440 792Q440 815 455 830T496 845Q513 845 524 835T535 809Q535 784 520 769T480 754Q462 754 451 764Z" />
<glyph unicode="&#xcc;" glyph-name="Igrave" horiz-adv-x="284" d="M184 700H258L135 0H61L184 700ZM135 894H209L260 754H204L135 894Z" />
<glyph unicode="&#xcd;" glyph-name="Iacute" horiz-adv-x="284" d="M184 700H258L135 0H61L184 700ZM308 894H382L264 754H207L308 894Z" />
<glyph unicode="&#xce;" glyph-name="Icircumflex" horiz-adv-x="284" d="M184 700H258L135 0H61L184 700ZM229 890H282L362 754H304L251 845L165 754H102L229 890Z" />
<glyph unicode="&#xcf;" glyph-name="Idieresis" horiz-adv-x="284" d="M184 700H258L135 0H61L184 700ZM116 754T105 764T94 791Q94 815 109 830T150 845Q167 845 178 835T189 809Q189 784 174 769T133 754Q116 754 105 764ZM312 754T301 764T290 792Q290 815
305 830T346 845Q363 845 374 835T385 809Q385 784 370 769T330 754Q312 754 301 764Z" />
<glyph unicode="&#xd0;" glyph-name="Eth" horiz-adv-x="619" d="M603 700T603 475Q603 326 560 220T435 57T237 0H43L97 308H18L29 367H107L166 700H382Q603 700 603 475ZM337 62T399 113T495 257T529 470Q529 558 489 598T368 638H229L181 367H403L393 308H171L128
62H256Q337 62 399 113Z" />
<glyph unicode="&#xd1;" glyph-name="Ntilde" horiz-adv-x="677" d="M670 700L547 0H472L219 591L115 0H41L164 700H246L494 117L597 700H670ZM293 793T317 819T377 846Q395 846 410 839T446 819Q475 799 491 799Q505 799 515 811T532 850H577Q569 808 544 781T483
754Q465 754 449 761T414 782Q403 789 392 795T372 801Q359 801 348 788T332 754H287Q293 793 317 819Z" />
<glyph unicode="&#xd2;" glyph-name="Ograve" horiz-adv-x="655" d="M177 -10T112 61T46 256Q46 383 92 487T221 650T404 710Q477 710 531 678T615 585T645 444Q645 317 599 213T471 50T289 -10Q177 -10 112 61ZM370 51T433 103T533 244T570 440Q570 538 525 593T399
649Q323 649 259 597T158 456T121 261Q121 162 166 107T294 51Q370 51 433 103ZM321 894H395L446 754H390L321 894Z" />
<glyph unicode="&#xd3;" glyph-name="Oacute" horiz-adv-x="655" d="M177 -10T112 61T46 256Q46 383 92 487T221 650T404 710Q477 710 531 678T615 585T645 444Q645 317 599 213T471 50T289 -10Q177 -10 112 61ZM370 51T433 103T533 244T570 440Q570 538 525 593T399
649Q323 649 259 597T158 456T121 261Q121 162 166 107T294 51Q370 51 433 103ZM494 894H568L450 754H393L494 894Z" />
<glyph unicode="&#xd4;" glyph-name="Ocircumflex" horiz-adv-x="655" d="M177 -10T112 61T46 256Q46 383 92 487T221 650T404 710Q477 710 531 678T615 585T645 444Q645 317 599 213T471 50T289 -10Q177 -10 112 61ZM370 51T433 103T533 244T570 440Q570 538
525 593T399 649Q323 649 259 597T158 456T121 261Q121 162 166 107T294 51Q370 51 433 103ZM415 890H468L548 754H490L437 845L351 754H288L415 890Z" />
<glyph unicode="&#xd5;" glyph-name="Otilde" horiz-adv-x="655" d="M177 -10T112 61T46 256Q46 383 92 487T221 650T404 710Q477 710 531 678T615 585T645 444Q645 317 599 213T471 50T289 -10Q177 -10 112 61ZM370 51T433 103T533 244T570 440Q570 538 525 593T399
649Q323 649 259 597T158 456T121 261Q121 162 166 107T294 51Q370 51 433 103ZM284 793T308 819T368 846Q386 846 401 839T437 819Q466 799 482 799Q496 799 506 811T523 850H568Q560 808 535 781T474 754Q456 754 440 761T405 782Q394 789 383 795T363 801Q350
801 339 788T323 754H278Q284 793 308 819Z" />
<glyph unicode="&#xd6;" glyph-name="Odieresis" horiz-adv-x="655" d="M177 -10T112 61T46 256Q46 383 92 487T221 650T404 710Q477 710 531 678T615 585T645 444Q645 317 599 213T471 50T289 -10Q177 -10 112 61ZM370 51T433 103T533 244T570 440Q570 538 525
593T399 649Q323 649 259 597T158 456T121 261Q121 162 166 107T294 51Q370 51 433 103ZM302 754T291 764T280 791Q280 815 295 830T336 845Q353 845 364 835T375 809Q375 784 360 769T319 754Q302 754 291 764ZM498 754T487 764T476 792Q476 815 491 830T532 845Q549
845 560 835T571 809Q571 784 556 769T516 754Q498 754 487 764Z" />
<glyph unicode="&#xd7;" glyph-name="multiply" horiz-adv-x="603" d="M294 212L70 13L31 55L257 258L103 458L156 500L310 302L536 500L575 458L349 258L504 55L450 13L294 212Z" />
<glyph unicode="&#xd8;" glyph-name="Oslash" horiz-adv-x="655" d="M612 602T628 553T645 444Q645 317 599 213T471 50T289 -10Q209 -10 151 28L101 -43H40L113 60Q46 132 46 256Q46 383 92 487T221 650T404 710Q484 710 542 671L580 725H644L582 637Q612 602
628 553ZM121 174T156 121L503 615Q461 649 399 649Q323 649 259 597T158 456T121 261Q121 174 156 121ZM370 51T433 103T533 244T570 440Q570 523 538 575L190 83Q233 51 294 51Q370 51 433 103Z" />
<glyph unicode="&#xd9;" glyph-name="Ugrave" horiz-adv-x="656" d="M187 -10T134 42T80 193Q80 229 88 275L163 700H238L163 277Q155 229 155 197Q155 124 189 88T294 52Q463 52 503 277L578 700H652L577 275Q552 130 482 60T290 -10Q187 -10 134 42ZM321 894H395L446
754H390L321 894Z" />
<glyph unicode="&#xda;" glyph-name="Uacute" horiz-adv-x="656" d="M187 -10T134 42T80 193Q80 229 88 275L163 700H238L163 277Q155 229 155 197Q155 124 189 88T294 52Q463 52 503 277L578 700H652L577 275Q552 130 482 60T290 -10Q187 -10 134 42ZM494 894H568L450
754H393L494 894Z" />
<glyph unicode="&#xdb;" glyph-name="Ucircumflex" horiz-adv-x="656" d="M187 -10T134 42T80 193Q80 229 88 275L163 700H238L163 277Q155 229 155 197Q155 124 189 88T294 52Q463 52 503 277L578 700H652L577 275Q552 130 482 60T290 -10Q187 -10 134 42ZM415
890H468L548 754H490L437 845L351 754H288L415 890Z" />
<glyph unicode="&#xdc;" glyph-name="Udieresis" horiz-adv-x="656" d="M187 -10T134 42T80 193Q80 229 88 275L163 700H238L163 277Q155 229 155 197Q155 124 189 88T294 52Q463 52 503 277L578 700H652L577 275Q552 130 482 60T290 -10Q187 -10 134 42ZM302
754T291 764T280 791Q280 815 295 830T336 845Q353 845 364 835T375 809Q375 784 360 769T319 754Q302 754 291 764ZM498 754T487 764T476 792Q476 815 491 830T532 845Q549 845 560 835T571 809Q571 784 556 769T516 754Q498 754 487 764Z" />
<glyph unicode="&#xdd;" glyph-name="Yacute" horiz-adv-x="554" d="M245 278L98 700H179L292 347L530 700H614L319 278L271 0H196L245 278ZM442 894H516L398 754H341L442 894Z" />
<glyph unicode="&#xde;" glyph-name="Thorn" horiz-adv-x="565" d="M165 700H239L222 601H335Q431 601 485 558T539 437Q539 356 507 296T413 204T268 172H147L116 0H42L165 700ZM284 234Q338 234 379 258T443 327T466 427Q466 482 432 511T330 540H211L157 234H284Z" />
<glyph unicode="&#xdf;" glyph-name="germandbls" horiz-adv-x="562" d="M266 -10T224 10T167 71L218 102Q232 74 258 60T316 45Q368 45 403 77T438 159Q438 191 418 208T352 243Q310 260 290 282T269 337Q269 368 281 390T310 427T356 462Q398 490 418 513T439
578Q439 615 414 634T341 654Q270 654 230 611T175 482L90 0H22L108 487Q127 597 184 653T338 710Q417 710 462 677T508 586Q508 546 493 517T456 468T402 426Q368 403 352 387T336 347Q336 329 351 316T405 288Q508 246 508 164Q508 114 484 75T416 13T317 -10Q266
-10 224 10Z" />
<glyph unicode="&#xe0;" glyph-name="agrave" horiz-adv-x="538" d="M125 -10T79 42T32 186Q32 279 64 353T155 468T288 510Q340 510 379 488T434 425H436L459 500H516L450 124Q436 51 430 0H368Q376 61 380 84H378Q347 40 302 15T206 -10Q125 -10 79 42ZM285
47T333 89T394 200L409 287Q413 307 413 329Q413 388 381 421T291 455Q238 455 195 421T127 326T102 191Q102 123 132 85T218 47Q285 47 333 89ZM209 694H283L334 554H278L209 694Z" />
<glyph unicode="&#xe1;" glyph-name="aacute" horiz-adv-x="538" d="M125 -10T79 42T32 186Q32 279 64 353T155 468T288 510Q340 510 379 488T434 425H436L459 500H516L450 124Q436 51 430 0H368Q376 61 380 84H378Q347 40 302 15T206 -10Q125 -10 79 42ZM285
47T333 89T394 200L409 287Q413 307 413 329Q413 388 381 421T291 455Q238 455 195 421T127 326T102 191Q102 123 132 85T218 47Q285 47 333 89ZM382 694H456L338 554H281L382 694Z" />
<glyph unicode="&#xe2;" glyph-name="acircumflex" horiz-adv-x="538" d="M125 -10T79 42T32 186Q32 279 64 353T155 468T288 510Q340 510 379 488T434 425H436L459 500H516L450 124Q436 51 430 0H368Q376 61 380 84H378Q347 40 302 15T206 -10Q125 -10 79 42ZM285
47T333 89T394 200L409 287Q413 307 413 329Q413 388 381 421T291 455Q238 455 195 421T127 326T102 191Q102 123 132 85T218 47Q285 47 333 89ZM303 690H356L436 554H378L325 645L239 554H176L303 690Z" />
<glyph unicode="&#xe3;" glyph-name="atilde" horiz-adv-x="538" d="M125 -10T79 42T32 186Q32 279 64 353T155 468T288 510Q340 510 379 488T434 425H436L459 500H516L450 124Q436 51 430 0H368Q376 61 380 84H378Q347 40 302 15T206 -10Q125 -10 79 42ZM285
47T333 89T394 200L409 287Q413 307 413 329Q413 388 381 421T291 455Q238 455 195 421T127 326T102 191Q102 123 132 85T218 47Q285 47 333 89ZM172 593T196 619T256 646Q274 646 289 639T325 619Q354 599 370 599Q384 599 394 611T411 650H456Q448 608 423 581T362
554Q344 554 328 561T293 582Q282 589 271 595T251 601Q238 601 227 588T211 554H166Q172 593 196 619Z" />
<glyph unicode="&#xe4;" glyph-name="adieresis" horiz-adv-x="538" d="M125 -10T79 42T32 186Q32 279 64 353T155 468T288 510Q340 510 379 488T434 425H436L459 500H516L450 124Q436 51 430 0H368Q376 61 380 84H378Q347 40 302 15T206 -10Q125 -10 79 42ZM285
47T333 89T394 200L409 287Q413 307 413 329Q413 388 381 421T291 455Q238 455 195 421T127 326T102 191Q102 123 132 85T218 47Q285 47 333 89ZM190 554T179 564T168 591Q168 615 183 630T224 645Q241 645 252 635T263 609Q263 584 248 569T207 554Q190 554 179
564ZM386 554T375 564T364 592Q364 615 379 630T420 645Q437 645 448 635T459 609Q459 584 444 569T404 554Q386 554 375 564Z" />
<glyph unicode="&#xe5;" glyph-name="aring" horiz-adv-x="538" d="M125 -10T79 42T32 186Q32 279 64 353T155 468T288 510Q340 510 379 488T434 425H436L459 500H516L450 124Q436 51 430 0H368Q376 61 380 84H378Q347 40 302 15T206 -10Q125 -10 79 42ZM285 47T333
89T394 200L409 287Q413 307 413 329Q413 388 381 421T291 455Q238 455 195 421T127 326T102 191Q102 123 132 85T218 47Q285 47 333 89ZM270 543T249 562T228 612Q228 657 257 685T333 713Q367 713 388 694T409 644Q409 599 380 571T304 543Q270 543 249 562ZM336
576T353 593T370 638Q370 656 358 667T327 679Q301 679 284 662T267 618Q267 600 278 588T309 576Q336 576 353 593Z" />
<glyph unicode="&#xe6;" glyph-name="ae" horiz-adv-x="827" d="M702 510T750 464T799 334Q799 304 793 271L788 240H424L422 225Q420 201 420 190Q420 122 454 86T551 49Q595 49 635 68T705 123L739 84Q703 39 652 15T541 -10Q479 -10 436 14T371 85Q336 42 283
16T169 -10Q97 -10 56 27T15 121Q15 200 78 246T245 292H365L371 326Q374 344 374 360Q374 405 348 429T272 453Q227 453 186 433T115 377L86 421Q161 510 279 510Q337 510 376 488T433 425Q468 466 515 488T617 510Q702 510 750 464ZM739 316T739 335Q739 388
707 420T614 453Q553 453 505 409T434 292H734L737 306Q739 316 739 335ZM237 46T285 80T342 164L355 236L356 240H242Q172 240 128 208T83 123Q83 89 108 68T175 46Q237 46 285 80Z" />
<glyph unicode="&#xe7;" glyph-name="ccedilla" horiz-adv-x="467" d="M247 453T201 419T128 325T101 192Q101 123 135 85T232 47Q276 47 316 66T384 122L419 83Q349 -4 241 -10L204 -63Q240 -63 262 -81T284 -127Q284 -168 253 -191T171 -215Q125 -215 102 -205L115
-172Q132 -177 166 -177Q196 -177 215 -164T234 -128Q234 -111 215 -102T159 -94L146 -76L196 -8Q118 0 75 50T31 184Q31 279 65 353T162 468T306 510Q367 510 412 486T479 417L430 378Q414 413 381 433T304 453Q247 453 201 419Z" />
<glyph unicode="&#xe8;" glyph-name="egrave" horiz-adv-x="510" d="M385 510T432 460T480 322Q480 291 474 256L468 222H102Q101 212 101 190Q101 122 135 86T233 49Q278 49 318 68T389 123L423 84Q344 -10 228 -10Q137 -10 84 42T31 186Q31 279 65 353T161 468T301
510Q385 510 432 460ZM418 314T418 326Q418 386 386 419T295 453Q230 453 180 405T111 276H412L414 284Q418 314 418 326ZM221 694H295L346 554H290L221 694Z" />
<glyph unicode="&#xe9;" glyph-name="eacute" horiz-adv-x="510" d="M385 510T432 460T480 322Q480 291 474 256L468 222H102Q101 212 101 190Q101 122 135 86T233 49Q278 49 318 68T389 123L423 84Q344 -10 228 -10Q137 -10 84 42T31 186Q31 279 65 353T161 468T301
510Q385 510 432 460ZM418 314T418 326Q418 386 386 419T295 453Q230 453 180 405T111 276H412L414 284Q418 314 418 326ZM394 694H468L350 554H293L394 694Z" />
<glyph unicode="&#xea;" glyph-name="ecircumflex" horiz-adv-x="510" d="M385 510T432 460T480 322Q480 291 474 256L468 222H102Q101 212 101 190Q101 122 135 86T233 49Q278 49 318 68T389 123L423 84Q344 -10 228 -10Q137 -10 84 42T31 186Q31 279 65 353T161
468T301 510Q385 510 432 460ZM418 314T418 326Q418 386 386 419T295 453Q230 453 180 405T111 276H412L414 284Q418 314 418 326ZM315 690H368L448 554H390L337 645L251 554H188L315 690Z" />
<glyph unicode="&#xeb;" glyph-name="edieresis" horiz-adv-x="510" d="M385 510T432 460T480 322Q480 291 474 256L468 222H102Q101 212 101 190Q101 122 135 86T233 49Q278 49 318 68T389 123L423 84Q344 -10 228 -10Q137 -10 84 42T31 186Q31 279 65 353T161
468T301 510Q385 510 432 460ZM418 314T418 326Q418 386 386 419T295 453Q230 453 180 405T111 276H412L414 284Q418 314 418 326ZM202 554T191 564T180 591Q180 615 195 630T236 645Q253 645 264 635T275 609Q275 584 260 569T219 554Q202 554 191 564ZM398 554T387
564T376 592Q376 615 391 630T432 645Q449 645 460 635T471 609Q471 584 456 569T416 554Q398 554 387 564Z" />
<glyph unicode="&#xec;" glyph-name="igrave" horiz-adv-x="244" d="M131 500H201L113 0H43L131 500ZM79 694H153L204 554H148L79 694Z" />
<glyph unicode="&#xed;" glyph-name="iacute" horiz-adv-x="244" d="M131 500H201L113 0H43L131 500ZM252 694H326L208 554H151L252 694Z" />
<glyph unicode="&#xee;" glyph-name="icircumflex" horiz-adv-x="244" d="M131 500H201L113 0H43L131 500ZM173 690H226L306 554H248L195 645L109 554H46L173 690Z" />
<glyph unicode="&#xef;" glyph-name="idieresis" horiz-adv-x="244" d="M131 500H201L113 0H43L131 500ZM60 554T49 564T38 591Q38 615 53 630T94 645Q111 645 122 635T133 609Q133 584 118 569T77 554Q60 554 49 564ZM256 554T245 564T234 592Q234 615 249 630T290
645Q307 645 318 635T329 609Q329 584 314 569T274 554Q256 554 245 564Z" />
<glyph unicode="&#xf0;" glyph-name="eth" horiz-adv-x="493" d="M367 595Q414 544 438 476T463 330Q463 231 430 154T338 34T201 -10Q123 -10 75 39T26 167Q26 241 58 304T145 405T266 442Q307 442 342 425T393 379Q389 432 368 479T313 564L167 479L146 522L276
598Q221 641 148 660L161 704Q259 686 330 629L457 703L477 659L367 595ZM257 48T297 76T361 152T385 258Q385 317 354 351T268 385Q221 385 182 357T119 279T95 173Q95 116 125 82T209 48Q257 48 297 76Z" />
<glyph unicode="&#xf1;" glyph-name="ntilde" horiz-adv-x="545" d="M88 376Q104 474 106 500H169Q167 463 156 405H159Q188 454 237 482T344 510Q417 510 454 471T492 355Q492 320 485 284L435 0H366L416 285Q422 320 422 348Q422 453 329 453Q284 453 244 430T176
366T139 273L91 0H21L88 376ZM193 593T217 619T277 646Q295 646 310 639T346 619Q375 599 391 599Q405 599 415 611T432 650H477Q469 608 444 581T383 554Q365 554 349 561T314 582Q303 589 292 595T272 601Q259 601 248 588T232 554H187Q193 593 217 619Z" />
<glyph unicode="&#xf2;" glyph-name="ograve" horiz-adv-x="550" d="M143 -10T88 45T32 193Q32 283 68 355T168 469T313 510Q406 510 462 455T518 307Q518 217 482 145T381 31T236 -10Q143 -10 88 45ZM296 45T344 79T420 173T448 304Q448 375 412 415T311 455Q253
455 206 421T130 327T102 195Q102 125 138 85T238 45Q296 45 344 79ZM232 694H306L357 554H301L232 694Z" />
<glyph unicode="&#xf3;" glyph-name="oacute" horiz-adv-x="550" d="M143 -10T88 45T32 193Q32 283 68 355T168 469T313 510Q406 510 462 455T518 307Q518 217 482 145T381 31T236 -10Q143 -10 88 45ZM296 45T344 79T420 173T448 304Q448 375 412 415T311 455Q253
455 206 421T130 327T102 195Q102 125 138 85T238 45Q296 45 344 79ZM405 694H479L361 554H304L405 694Z" />
<glyph unicode="&#xf4;" glyph-name="ocircumflex" horiz-adv-x="550" d="M143 -10T88 45T32 193Q32 283 68 355T168 469T313 510Q406 510 462 455T518 307Q518 217 482 145T381 31T236 -10Q143 -10 88 45ZM296 45T344 79T420 173T448 304Q448 375 412 415T311
455Q253 455 206 421T130 327T102 195Q102 125 138 85T238 45Q296 45 344 79ZM326 690H379L459 554H401L348 645L262 554H199L326 690Z" />
<glyph unicode="&#xf5;" glyph-name="otilde" horiz-adv-x="550" d="M143 -10T88 45T32 193Q32 283 68 355T168 469T313 510Q406 510 462 455T518 307Q518 217 482 145T381 31T236 -10Q143 -10 88 45ZM296 45T344 79T420 173T448 304Q448 375 412 415T311 455Q253
455 206 421T130 327T102 195Q102 125 138 85T238 45Q296 45 344 79ZM195 593T219 619T279 646Q297 646 312 639T348 619Q377 599 393 599Q407 599 417 611T434 650H479Q471 608 446 581T385 554Q367 554 351 561T316 582Q305 589 294 595T274 601Q261 601 250
588T234 554H189Q195 593 219 619Z" />
<glyph unicode="&#xf6;" glyph-name="odieresis" horiz-adv-x="550" d="M143 -10T88 45T32 193Q32 283 68 355T168 469T313 510Q406 510 462 455T518 307Q518 217 482 145T381 31T236 -10Q143 -10 88 45ZM296 45T344 79T420 173T448 304Q448 375 412 415T311 455Q253
455 206 421T130 327T102 195Q102 125 138 85T238 45Q296 45 344 79ZM213 554T202 564T191 591Q191 615 206 630T247 645Q264 645 275 635T286 609Q286 584 271 569T230 554Q213 554 202 564ZM409 554T398 564T387 592Q387 615 402 630T443 645Q460 645 471 635T482
609Q482 584 467 569T427 554Q409 554 398 564Z" />
<glyph unicode="&#xf7;" glyph-name="divide" horiz-adv-x="603" d="M307 391T294 403T281 434Q281 462 298 479T345 497Q365 497 378 486T391 455Q391 427 374 409T327 391Q307 391 294 403ZM60 290H558L548 234H50L60 290ZM243 27T230 39T217 71Q217 98 235
115T281 133Q301 133 314 121T327 91Q327 63 310 45T263 27Q243 27 230 39Z" />
<glyph unicode="&#xf8;" glyph-name="oslash" horiz-adv-x="550" d="M518 404T518 307Q518 217 482 145T381 31T236 -10Q181 -10 138 10L100 -43H46L100 34Q67 60 50 101T32 193Q32 283 68 355T168 469T313 510Q373 510 418 486L452 535H510L457 460Q518 404 518
307ZM102 126T137 86L383 437Q353 455 311 455Q253 455 206 421T130 327T102 195Q102 126 137 86ZM296 45T344 79T420 173T448 304Q448 368 419 406L172 59Q202 45 238 45Q296 45 344 79Z" />
<glyph unicode="&#xf9;" glyph-name="ugrave" horiz-adv-x="550" d="M126 -10T89 27T51 138Q51 161 58 205L110 500H179L128 206Q122 175 122 150Q122 47 217 47Q262 47 302 70T369 134T406 226L454 500H523L453 100Q444 52 444 0H382L381 20Q381 40 388 94H384Q353
45 303 18T197 -10Q126 -10 89 27ZM234 694H308L359 554H303L234 694Z" />
<glyph unicode="&#xfa;" glyph-name="uacute" horiz-adv-x="550" d="M126 -10T89 27T51 138Q51 161 58 205L110 500H179L128 206Q122 175 122 150Q122 47 217 47Q262 47 302 70T369 134T406 226L454 500H523L453 100Q444 52 444 0H382L381 20Q381 40 388 94H384Q353
45 303 18T197 -10Q126 -10 89 27ZM407 694H481L363 554H306L407 694Z" />
<glyph unicode="&#xfb;" glyph-name="ucircumflex" horiz-adv-x="550" d="M126 -10T89 27T51 138Q51 161 58 205L110 500H179L128 206Q122 175 122 150Q122 47 217 47Q262 47 302 70T369 134T406 226L454 500H523L453 100Q444 52 444 0H382L381 20Q381 40 388
94H384Q353 45 303 18T197 -10Q126 -10 89 27ZM328 690H381L461 554H403L350 645L264 554H201L328 690Z" />
<glyph unicode="&#xfc;" glyph-name="udieresis" horiz-adv-x="550" d="M126 -10T89 27T51 138Q51 161 58 205L110 500H179L128 206Q122 175 122 150Q122 47 217 47Q262 47 302 70T369 134T406 226L454 500H523L453 100Q444 52 444 0H382L381 20Q381 40 388 94H384Q353
45 303 18T197 -10Q126 -10 89 27ZM215 554T204 564T193 591Q193 615 208 630T249 645Q266 645 277 635T288 609Q288 584 273 569T232 554Q215 554 204 564ZM411 554T400 564T389 592Q389 615 404 630T445 645Q462 645 473 635T484 609Q484 584 469 569T429 554Q411
554 400 564Z" />
<glyph unicode="&#xfd;" glyph-name="yacute" horiz-adv-x="448" d="M482 500L215 -4Q162 -105 101 -155T-31 -206Q-59 -206 -78 -200L-69 -148Q-52 -153 -31 -153Q22 -153 65 -114T163 22L61 500H135L206 97L404 500H482ZM360 694H434L316 554H259L360 694Z" />
<glyph unicode="&#xfe;" glyph-name="thorn" horiz-adv-x="531" d="M150 742H217L162 427Q186 467 229 488T325 510Q406 510 453 460T501 321Q501 229 467 154T374 34T241 -10Q191 -10 154 10T100 69L46 -237H-22L150 742ZM291 45T335 82T405 181T431 315Q431
381 401 417T313 453Q249 453 201 410T141 299L127 218Q123 197 123 172Q123 112 153 79T240 45Q291 45 335 82Z" />
<glyph unicode="&#xff;" glyph-name="ydieresis" horiz-adv-x="448" d="M482 500L215 -4Q162 -105 101 -155T-31 -206Q-59 -206 -78 -200L-69 -148Q-52 -153 -31 -153Q22 -153 65 -114T163 22L61 500H135L206 97L404 500H482ZM168 554T157 564T146 591Q146 615
161 630T202 645Q219 645 230 635T241 609Q241 584 226 569T185 554Q168 554 157 564ZM364 554T353 564T342 592Q342 615 357 630T398 645Q415 645 426 635T437 609Q437 584 422 569T382 554Q364 554 353 564Z" />
<glyph unicode="&#x2013;" glyph-name="endash" horiz-adv-x="541" d="M44 293H511L502 239H35L44 293Z" />
<glyph unicode="&#x2014;" glyph-name="emdash" horiz-adv-x="836" d="M44 293H807L797 239H35L44 293Z" />
<glyph unicode="&#x2018;" glyph-name="quoteleft" horiz-adv-x="339" d="M284 684T261 649T225 580Q235 582 240 582Q258 582 269 570T280 537Q280 504 260 483T208 462Q185 462 172 478T158 520Q158 573 195 636T291 743L313 710Q284 684 261 649Z" />
<glyph unicode="&#x2019;" glyph-name="quoteright" horiz-adv-x="340" d="M275 720T289 704T303 662Q303 610 266 546T171 438L148 471Q176 498 199 532T235 601Q230 600 221 600Q202 600 191 612T180 644Q180 677 200 698T253 720Q275 720 289 704Z" />
<glyph unicode="&#x201a;" glyph-name="quotesinglbase" horiz-adv-x="339" d="M169 113T182 98T196 55Q196 5 158 -60T63 -169L40 -136Q70 -109 92 -76T127 -7Q122 -8 113 -8Q95 -8 84 4T72 37Q72 68 93 90T145 113Q169 113 182 98Z" />
<glyph unicode="&#x201c;" glyph-name="quotedblleft" horiz-adv-x="522" d="M158 573T195 636T291 743L313 710Q284 683 261 649T225 581L240 582Q258 582 269 570T280 537Q280 504 260 483T208 462Q185 462 172 478T158 520Q158 573 195 636ZM467 684T444 650T407
581L422 582Q440 582 451 570T463 537Q463 504 443 483T390 462Q367 462 353 478T339 520Q339 572 377 635T473 743L495 710Q467 684 444 650Z" />
<glyph unicode="&#x201d;" glyph-name="quotedblright" horiz-adv-x="522" d="M276 730T290 714T305 672Q305 620 267 556T172 448L149 481Q177 508 200 542T236 611Q231 610 222 610Q204 610 193 622T181 654Q181 687 201 708T254 730Q276 730 290 714ZM459 730T472
714T486 672Q486 619 449 556T354 448L331 481Q359 507 382 541T419 611Q414 610 404 610Q386 610 375 622T364 654Q364 687 384 708T437 730Q459 730 472 714Z" />
<glyph unicode="&#x201e;" glyph-name="quotedblbase" horiz-adv-x="522" d="M167 113T181 97T196 55Q196 2 159 -61T63 -169L40 -136Q68 -111 91 -77T127 -7Q122 -8 113 -8Q95 -8 84 4T72 37Q72 70 92 91T145 113Q167 113 181 97ZM350 113T363 97T377 55Q377
2 340 -61T245 -169L222 -136Q252 -109 275 -75T310 -6Q300 -8 295 -8Q278 -8 267 4T255 37Q255 70 275 91T328 113Q350 113 363 97Z" />
<glyph unicode="&#x2022;" glyph-name="bullet" horiz-adv-x="368" d="M120 163T90 192T59 268Q59 337 102 381T215 425Q264 425 294 396T325 320Q325 251 282 207T169 163Q120 163 90 192Z" />
<glyph unicode="&#x2039;" glyph-name="guilsinglleft" horiz-adv-x="313" d="M41 260L235 455H311L120 260L242 65H165L41 260Z" />
<glyph unicode="&#x203a;" glyph-name="guilsinglright" horiz-adv-x="313" d="M197 260L75 455H151L276 260L82 65H6L197 260Z" />
</font>
</defs>
</svg>
