<?xml version="1.0" standalone="no"?>
<!DOCTYPE svg PUBLIC "-//W3C//DTD SVG 1.1//EN" "http://www.w3.org/Graphics/SVG/1.1/DTD/svg11.dtd">
<svg xmlns="http://www.w3.org/2000/svg">
<defs >
<font id="Sarabun" horiz-adv-x="549" ><font-face
    font-family="Sarabun SemiBold"
    units-per-em="1000"
    panose-1="0 0 7 0 0 0 0 0 0 0"
    ascent="1068"
    descent="-232"
    alphabetic="0" />
<glyph unicode=" " glyph-name="space" horiz-adv-x="237" />
<glyph unicode="!" glyph-name="exclam" horiz-adv-x="250" d="M136 700H272L172 210H64L136 700ZM47 -10T27 8T7 54Q7 97 35 124T108 151Q139 151 159 133T179 86Q179 44 151 17T79 -10Q47 -10 27 8Z" />
<glyph unicode="&quot;" glyph-name="quotedbl" horiz-adv-x="388" d="M121 710H242L186 453H86L121 710ZM309 710H429L374 453H274L309 710Z" />
<glyph unicode="#" glyph-name="numbersign" horiz-adv-x="700" d="M597 420L555 280H640L624 189H528L471 0H353L410 189H238L181 0H63L120 189H36L52 280H147L189 420H96L112 512H217L273 700H391L335 512H507L563 700H681L625 512H700L684 420H597ZM479 420H307L265
280H437L479 420Z" />
<glyph unicode="$" glyph-name="dollar" horiz-adv-x="537" d="M436 365T470 320T504 215Q504 121 445 62T280 -8L268 -80H168L181 -6Q122 4 76 34T6 109L93 181Q118 141 159 117T244 92Q304 92 339 120T375 196Q375 226 351 251T265 309Q181 355 141 403T101
506Q101 588 157 642T307 707L318 769H418L406 706Q460 696 500 669T558 602L467 542Q448 574 418 591T349 608Q295 608 263 584T230 519Q230 492 258 468T364 402Q436 365 470 320Z" />
<glyph unicode="%" glyph-name="percent" horiz-adv-x="947" d="M163 303T124 346T84 459Q84 529 111 586T187 677T293 710Q357 710 396 667T436 554Q436 484 409 427T333 336T227 303Q163 303 124 346ZM700 700H829L275 -13H146L700 700ZM264 390T285 411T318
468T330 547Q330 581 317 601T280 622Q255 622 235 601T202 545T189 466Q189 432 203 411T239 390Q264 390 285 411ZM625 -10T586 33T547 147Q547 217 574 274T649 365T755 398Q820 398 859 355T898 242Q898 171 871 114T796 23T689 -10Q625 -10 586 33ZM727 79T748
100T781 156T793 235Q793 269 779 290T743 311Q718 311 697 290T664 233T652 154Q652 120 666 100T702 79Q727 79 748 100Z" />
<glyph unicode="&amp;" glyph-name="ampersand" horiz-adv-x="688" d="M633 220T560 136L627 73L542 -10L470 57Q369 -10 249 -10Q147 -10 86 36T24 164Q24 235 71 297T199 399Q170 467 170 514Q170 570 197 615T272 685T381 710Q452 710 495 675T538 582Q538
520 491 462T357 359Q399 298 487 207Q530 262 550 332H660Q633 220 560 136ZM333 618T310 593T286 529Q286 486 319 423Q368 456 395 494T422 568Q422 590 408 604T370 618Q333 618 310 593ZM155 142T187 117T275 92Q340 92 400 127Q303 230 253 304L240 324Q200
296 178 260T155 186Q155 142 187 117Z" />
<glyph unicode="&apos;" glyph-name="quotesingle" horiz-adv-x="201" d="M121 710H242L186 453H86L121 710Z" />
<glyph unicode="(" glyph-name="parenleft" horiz-adv-x="342" d="M95 -12T70 59T45 217Q45 322 75 424T159 610T286 750H404Q337 701 284 615T200 424T169 215Q169 126 193 54T261 -62H143Q95 -12 70 59Z" />
<glyph unicode=")" glyph-name="parenright" horiz-adv-x="342" d="M38 -13T92 73T176 265T207 474Q207 563 183 635T115 750H233Q331 649 331 472Q331 367 301 265T217 78T90 -62H-29Q38 -13 92 73Z" />
<glyph unicode="*" glyph-name="asterisk" horiz-adv-x="448" d="M104 398L214 511L71 503L86 587L226 578L156 692L246 738L287 609L375 738L448 692L338 578L481 587L466 503L326 511L396 398L307 351L265 480L178 351L104 398Z" />
<glyph unicode="+" glyph-name="plus" horiz-adv-x="614" d="M247 219H43L58 306H263L301 524H409L371 306H576L560 219H355L317 0H209L247 219Z" />
<glyph unicode="," glyph-name="comma" horiz-adv-x="278" d="M153 146T172 125T192 71Q192 8 146 -65T27 -186L-13 -129Q15 -107 41 -75T83 -8Q79 -9 71 -9Q49 -9 35 6T21 47Q21 91 49 118T122 146Q153 146 172 125Z" />
<glyph unicode="-" glyph-name="hyphen" horiz-adv-x="340" d="M36 306H323L309 227H22L36 306Z" />
<glyph unicode="." glyph-name="period" horiz-adv-x="278" d="M65 -10T47 7T29 53Q29 95 54 121T121 148Q150 148 168 131T186 86Q186 44 160 17T93 -10Q65 -10 47 7Z" />
<glyph unicode="/" glyph-name="slash" horiz-adv-x="451" d="M441 725H556L41 -43H-74L441 725Z" />
<glyph unicode="0" glyph-name="zero" horiz-adv-x="560" d="M182 -10T135 20T62 106T36 233Q36 373 76 481T188 650T353 710Q413 710 460 680T533 594T560 469Q560 329 520 220T408 51T242 -10Q182 -10 135 20ZM304 83T346 133T411 273T435 479Q435 540 410 579T345
618Q292 618 250 568T185 429T161 223Q161 160 186 122T251 83Q304 83 346 133Z" />
<glyph unicode="1" glyph-name="one" horiz-adv-x="560" d="M94 96H210L291 557L144 479L164 592L360 700H442L336 96H451L434 0H77L94 96Z" />
<glyph unicode="2" glyph-name="two" horiz-adv-x="560" d="M32 96Q142 166 228 246T364 401T413 531Q413 568 391 588T330 609Q284 609 237 585T155 519L100 593Q140 648 204 679T343 710Q436 710 490 667T544 550Q544 457 459 345T200 96H493L476 0H15L32 96Z" />
<glyph unicode="3" glyph-name="three" horiz-adv-x="560" d="M155 -10T98 19T19 98L93 168Q115 134 155 113T240 92Q303 92 344 129T385 224Q385 269 349 294T249 320H197L213 413H264Q306 413 341 430T396 476T417 541Q417 573 394 590T327 608Q281 608 237
589T157 533L110 603Q151 653 216 681T354 710Q439 710 492 669T546 563Q546 501 506 451T396 372Q452 353 481 317T511 228Q511 160 476 106T377 21T233 -10Q155 -10 98 19Z" />
<glyph unicode="4" glyph-name="four" horiz-adv-x="560" d="M312 113H-2L15 206L402 700H542L456 214H531L514 113H438L418 0H292L312 113ZM329 214L386 535L134 214H329Z" />
<glyph unicode="5" glyph-name="five" horiz-adv-x="560" d="M153 -10T95 19T13 97L83 177Q109 136 148 114T234 92Q279 92 315 115T373 180T394 274Q394 322 369 348T298 375Q265 375 232 357T178 310H73L176 700H577L559 599H270L225 429Q244 447 279 458T347
470Q428 470 476 421T524 288Q524 203 486 135T379 29T226 -10Q153 -10 95 19Z" />
<glyph unicode="6" glyph-name="six" horiz-adv-x="560" d="M151 -10T94 48T36 201Q36 320 107 433T295 624T543 714L538 618Q447 601 370 552T246 433Q261 444 284 451T330 458Q419 458 470 409T522 272Q522 192 487 128T388 27T246 -10Q151 -10 94 48ZM295 92T327
114T377 174T396 258Q396 304 372 330T303 357Q265 357 233 335T182 275T163 191Q163 145 188 119T257 92Q295 92 327 114Z" />
<glyph unicode="7" glyph-name="seven" horiz-adv-x="560" d="M170 184T235 327T424 599H109L127 700H593L578 613Q456 503 374 344T259 0H132Q170 184 235 327Z" />
<glyph unicode="8" glyph-name="eight" horiz-adv-x="560" d="M175 -10T126 11T49 72T22 163Q22 232 63 289T171 372Q141 385 123 420T104 499Q104 561 136 609T225 683T355 710Q413 710 458 690T529 634T554 552Q554 494 520 444T433 372Q473 355 496 316T519
226Q519 156 484 103T386 20T240 -10Q175 -10 126 11ZM361 416T393 449T425 534Q425 567 403 588T344 609Q293 609 261 577T228 492Q228 458 250 437T310 416Q361 416 393 449ZM315 92T355 132T395 237Q395 277 367 302T294 328Q231 328 191 288T151 184Q151 143
179 118T252 92Q315 92 355 132Z" />
<glyph unicode="9" glyph-name="nine" horiz-adv-x="560" d="M59 82Q156 101 237 151T358 268Q340 257 315 250T268 242Q180 242 128 294T75 432Q75 511 111 574T210 674T351 710Q446 710 503 652T561 497Q561 373 494 262T313 76T61 -14L59 82ZM330 337T363 360T415
422T434 509Q434 555 409 581T339 608Q301 608 269 586T219 525T200 439Q200 392 224 365T291 337Q330 337 363 360Z" />
<glyph unicode=":" glyph-name="colon" horiz-adv-x="278" d="M125 335T107 352T89 397Q89 439 115 465T182 492Q210 492 228 475T247 430Q247 388 221 362T154 335Q125 335 107 352ZM65 -10T47 7T29 52Q29 94 55 121T121 148Q149 148 167 131T185 85Q185 43 160
17T93 -10Q65 -10 47 7Z" />
<glyph unicode=";" glyph-name="semicolon" horiz-adv-x="278" d="M210 492T228 475T247 430Q247 388 221 362T154 335Q125 335 107 352T89 397Q89 439 115 465T182 492Q210 492 228 475ZM150 146T170 125T190 71Q190 8 143 -65T25 -186L-16 -129Q12 -107 38 -75T80
-8Q76 -9 69 -9Q46 -9 32 6T18 47Q18 90 46 118T119 146Q150 146 170 125Z" />
<glyph unicode="&lt;" glyph-name="less" horiz-adv-x="614" d="M59 263L68 313L615 577L597 478L200 286L529 95L513 0L59 263Z" />
<glyph unicode="=" glyph-name="equal" horiz-adv-x="614" d="M88 410H582L566 317H72L88 410ZM51 199H544L528 106H35L51 199Z" />
<glyph unicode="&gt;" glyph-name="greater" horiz-adv-x="614" d="M30 99L427 290L97 481L115 577L568 313L559 263L13 0L30 99Z" />
<glyph unicode="?" glyph-name="question" horiz-adv-x="466" d="M163 183Q163 225 177 258T213 318T270 379Q318 427 341 462T365 545Q365 581 344 599T283 617Q246 617 207 594T138 531L88 604Q123 654 181 682T308 710Q394 710 443 672T492 567Q492 522 475
485T435 421T371 354Q320 305 295 270T270 191V175H164L163 183ZM161 -10T143 6T125 48Q125 86 150 110T216 134Q245 134 262 118T280 77Q280 39 255 15T190 -10Q161 -10 143 6Z" />
<glyph unicode="@" glyph-name="at" horiz-adv-x="802" d="M222 -149T157 -114T55 -15T19 133Q19 263 79 369T243 536T477 597Q565 597 632 564T736 470T773 331Q773 246 741 176T653 64T528 21L495 20L482 82Q451 52 408 34T327 15Q271 15 237 45T203 125Q203
173 229 211T301 270T406 291H491L494 308Q495 313 495 323Q495 351 477 368T427 385Q391 385 353 368T289 325L256 372Q290 407 341 429T439 451Q500 451 535 417T571 326Q571 311 568 294L545 161Q543 151 543 131Q543 104 549 89Q588 97 619 129T669 211T687
317Q687 376 660 422T582 493T466 518Q366 518 285 470T157 336T110 146Q110 83 137 34T214 -43T329 -70Q375 -70 423 -58T502 -27L522 -92Q485 -117 426 -133T308 -149Q222 -149 157 -114ZM391 79T426 103T467 158L480 232H400Q350 232 318 206T286 137Q286 111
303 95T348 79Q391 79 426 103Z" />
<glyph unicode="A" glyph-name="A" horiz-adv-x="626" d="M423 128H172L111 0H-29L336 700H449L567 0H440L423 128ZM409 229L368 535L221 229H409Z" />
<glyph unicode="B" glyph-name="B" horiz-adv-x="601" d="M152 700H360Q467 700 525 663T584 556Q584 434 455 377V375Q555 337 555 241Q555 126 488 63T299 0H29L152 700ZM331 416Q385 416 419 448T454 531Q454 565 427 583T344 602H261L228 416H331ZM295 99Q356
99 393 136T430 235Q430 323 299 323H212L173 99H295Z" />
<glyph unicode="C" glyph-name="C" horiz-adv-x="608" d="M234 -10T172 24T76 120T42 267Q42 394 90 495T224 653T418 710Q501 710 562 678T643 592L560 527Q519 608 416 608Q345 608 289 565T201 444T169 268Q169 184 209 138T322 92Q431 92 498 174L560 108Q520
50 459 20T318 -10Q234 -10 172 24Z" />
<glyph unicode="D" glyph-name="D" horiz-adv-x="636" d="M152 700H388Q504 700 565 639T626 461Q626 239 530 120T255 0H29L152 700ZM275 102Q342 102 393 145T472 268T500 451Q500 526 469 562T371 598H261L173 102H275Z" />
<glyph unicode="E" glyph-name="E" horiz-adv-x="565" d="M152 700H601L584 598H261L229 419H518L499 317H211L173 102H496L478 0H29L152 700Z" />
<glyph unicode="F" glyph-name="F" horiz-adv-x="566" d="M152 700H606L589 598H261L224 392H531L513 290H206L155 0H29L152 700Z" />
<glyph unicode="G" glyph-name="G" horiz-adv-x="648" d="M334 374H616L550 0H457L450 38Q383 -10 292 -10Q215 -10 158 22T71 114T40 254Q40 386 88 490T222 652T417 710Q502 710 564 678T646 592L563 527Q544 567 506 587T414 608Q343 608 287 563T200 439T168
258Q168 173 204 129T311 85Q385 85 446 122L475 284H318L334 374Z" />
<glyph unicode="H" glyph-name="H" horiz-adv-x="688" d="M151 700H278L226 407H517L568 700H695L572 0H445L499 305H209L155 0H28L151 700Z" />
<glyph unicode="I" glyph-name="I" horiz-adv-x="313" d="M172 700H299L176 0H49L172 700Z" />
<glyph unicode="J" glyph-name="J" horiz-adv-x="475" d="M94 -10T47 8T-28 59L37 142Q57 119 87 106T151 92Q203 92 232 127T275 241L356 700H482L399 224Q377 102 317 46T146 -10Q94 -10 47 8Z" />
<glyph unicode="K" glyph-name="K" horiz-adv-x="639" d="M398 420L577 0H445L304 326L192 213L155 0H28L152 700H278L222 383L527 700H676L398 420Z" />
<glyph unicode="L" glyph-name="L" horiz-adv-x="559" d="M151 700H278L173 102H505L487 0H28L151 700Z" />
<glyph unicode="M" glyph-name="M" horiz-adv-x="810" d="M817 700L693 0H569L649 455L405 0H316L232 450L153 0H29L152 700H284L382 145L676 700H817Z" />
<glyph unicode="N" glyph-name="N" horiz-adv-x="693" d="M700 700L577 0H459L242 497L154 0H28L151 700H276L488 212L574 700H700Z" />
<glyph unicode="O" glyph-name="O" horiz-adv-x="681" d="M227 -10T167 24T74 119T41 263Q41 392 88 494T220 653T411 710Q490 710 550 676T643 581T676 438Q676 309 629 207T497 48T306 -10Q227 -10 167 24ZM381 91T434 135T517 256T548 430Q548 512 508 561T402
610Q336 610 283 566T200 445T169 272Q169 190 209 141T315 91Q381 91 434 135Z" />
<glyph unicode="P" glyph-name="P" horiz-adv-x="585" d="M152 700H368Q473 700 531 655T589 528Q589 397 512 322T299 247H199L155 0H29L152 700ZM320 349Q384 349 423 393T463 508Q463 552 436 575T357 598H261L216 349H320Z" />
<glyph unicode="Q" glyph-name="Q" horiz-adv-x="681" d="M676 326T640 234T538 80T386 -1Q461 -30 587 -37L551 -124Q458 -117 365 -81T220 1H222Q138 25 90 94T41 263Q41 392 88 494T220 653T411 710Q490 710 550 676T643 581T676 438Q676 326 640 234ZM169
190T209 141T315 91Q381 91 434 135T517 256T548 430Q548 512 508 561T402 610Q336 610 283 566T200 445T169 272Q169 190 209 141Z" />
<glyph unicode="R" glyph-name="R" horiz-adv-x="591" d="M152 700H380Q483 700 537 659T592 540Q592 457 552 401T435 321V319Q452 305 461 292T474 260L532 0H398L353 218Q346 253 327 265T260 278H204L155 0H29L152 700ZM320 379Q386 379 425 417T465 520Q465
598 356 598H261L222 379H320Z" />
<glyph unicode="S" glyph-name="S" horiz-adv-x="542" d="M157 -10T96 22T6 109L93 181Q118 141 159 117T244 92Q304 92 339 120T375 196Q375 226 351 251T265 309Q181 355 141 403T101 506Q101 567 132 613T221 684T354 710Q426 710 481 681T558 602L467 542Q448
574 418 591T349 608Q295 608 263 584T230 519Q230 492 258 468T364 402Q436 365 470 320T504 215Q504 146 472 96T378 18T234 -10Q157 -10 96 22Z" />
<glyph unicode="T" glyph-name="T" horiz-adv-x="580" d="M290 606H79L96 700H644L627 606H416L309 0H183L290 606Z" />
<glyph unicode="U" glyph-name="U" horiz-adv-x="661" d="M180 -10T122 43T63 198Q63 235 70 273L145 700H272L197 275Q190 233 190 210Q190 92 303 92Q440 92 473 275L548 700H674L599 273Q550 -10 292 -10Q180 -10 122 43Z" />
<glyph unicode="V" glyph-name="V" horiz-adv-x="632" d="M696 700L330 0H213L95 700H225L297 163L560 700H696Z" />
<glyph unicode="W" glyph-name="W" horiz-adv-x="860" d="M913 700L643 0H524L483 541L252 0H128L105 700H238L234 204L447 700H568L606 204L776 700H913Z" />
<glyph unicode="X" glyph-name="X" horiz-adv-x="639" d="M265 359L118 700H256L350 460L529 700H680L412 359L566 0H432L327 254L136 0H-15L265 359Z" />
<glyph unicode="Y" glyph-name="Y" horiz-adv-x="610" d="M247 279L95 700H230L329 405L532 700H673L374 279L325 0H198L247 279Z" />
<glyph unicode="Z" glyph-name="Z" horiz-adv-x="584" d="M-4 64L443 598H119L137 700H621L610 635L166 102H529L511 0H-15L-4 64Z" />
<glyph unicode="[" glyph-name="bracketleft" horiz-adv-x="324" d="M130 700H370L354 612H238L127 -19H244L228 -107H-13L130 700Z" />
<glyph unicode="\" glyph-name="backslash" horiz-adv-x="384" d="M62 725H177L422 -43H307L62 725Z" />
<glyph unicode="]" glyph-name="bracketright" horiz-adv-x="324" d="M-14 -19H103L214 612H97L113 700H354L211 -107H-30L-14 -19Z" />
<glyph unicode="^" glyph-name="asciicircum" horiz-adv-x="595" d="M330 700H425L554 224H444L357 574L147 224H32L330 700Z" />
<glyph unicode="_" glyph-name="underscore" horiz-adv-x="347" d="M-83 -223H264L248 -309H-99L-83 -223Z" />
<glyph unicode="`" glyph-name="grave" horiz-adv-x="400" d="M162 722H273L333 555H242L162 722Z" />
<glyph unicode="a" glyph-name="a" horiz-adv-x="553" d="M119 -10T72 43T24 188Q24 281 56 354T147 469T280 510Q333 510 371 490T425 434H427L448 500H542L477 131Q458 27 457 0H351Q352 21 362 71H360Q330 34 288 12T201 -10Q119 -10 72 43ZM287 78T326 111T376
200L393 299Q395 308 395 325Q395 370 367 397T292 425Q249 425 214 395T158 313T138 195Q138 139 162 109T231 78Q287 78 326 111Z" />
<glyph unicode="b" glyph-name="b" horiz-adv-x="553" d="M227 -10T187 12T130 71H128Q127 67 124 49Q115 3 114 0H8Q21 49 34 131L142 742H256L203 444H205Q260 510 357 510Q438 510 484 461T531 325Q531 231 498 155T405 34T273 -10Q227 -10 187 12ZM304 78T339
109T396 195T417 313Q417 367 393 396T323 425Q270 425 229 390T177 299L160 200Q158 191 158 173Q158 129 185 104T262 78Q304 78 339 109Z" />
<glyph unicode="c" glyph-name="c" horiz-adv-x="486" d="M137 -10T81 44T24 191Q24 285 60 357T163 469T314 510Q382 510 431 484T500 412L421 352Q407 384 377 403T309 422Q261 422 222 393T161 314T138 201Q138 142 167 110T249 78Q287 78 323 96T385 149L442
89Q367 -10 234 -10Q137 -10 81 44Z" />
<glyph unicode="d" glyph-name="d" horiz-adv-x="553" d="M119 -10T72 43T24 188Q24 281 57 354T149 469T283 510Q329 510 363 493T417 444H419L472 742H585L477 131Q475 118 473 108T470 90Q458 14 457 0H351Q356 37 362 71H360Q330 34 288 12T201 -10Q119 -10
72 43ZM287 78T326 111T376 200L393 299Q395 308 395 325Q395 370 367 397T292 425Q249 425 214 395T158 313T138 195Q138 139 162 109T231 78Q287 78 326 111Z" />
<glyph unicode="e" glyph-name="e" horiz-adv-x="534" d="M405 510T456 458T508 315Q508 281 501 247L494 208H141V201Q141 145 169 116T253 86Q296 86 333 102T405 152L457 93Q419 44 361 17T237 -10Q140 -10 84 44T27 191Q27 284 63 356T164 469T313 510Q405
510 456 458ZM403 300T403 313Q403 364 377 391T301 418Q249 418 210 383T152 287H402V293Q403 300 403 313Z" />
<glyph unicode="f" glyph-name="f" horiz-adv-x="362" d="M122 422H40L54 500H136L147 561Q160 635 208 676T333 717Q369 717 401 706T449 677L397 609Q386 619 371 625T340 631Q309 631 288 611T259 554L250 500H391L377 422H236L162 0H48L122 422Z" />
<glyph unicode="g" glyph-name="g" horiz-adv-x="550" d="M542 500L457 19Q414 -233 174 -233Q118 -233 68 -220T-18 -182L34 -104Q105 -142 180 -142Q321 -142 352 35L356 59Q332 28 294 12T208 -4Q122 -4 73 47T24 186Q24 280 56 354T147 469T280 510Q332 510
370 490T425 434H427L447 500H542ZM393 303T393 321Q393 371 368 398T295 425Q250 425 214 396T158 315T138 198Q138 143 163 114T237 84Q294 84 330 118T378 214L390 282Q393 303 393 321Z" />
<glyph unicode="h" glyph-name="h" horiz-adv-x="564" d="M140 742H253L199 435Q224 469 269 489T365 510Q440 510 482 467T525 348Q525 326 520 296L468 0H354L405 290Q409 310 409 332Q409 377 389 401T328 425Q270 425 227 383T170 273L122 0H9L140 742Z" />
<glyph unicode="i" glyph-name="i" horiz-adv-x="264" d="M160 568T142 583T124 622Q124 659 148 682T212 705Q241 705 258 690T276 650Q276 614 252 591T188 568Q160 568 142 583ZM119 500H233L145 0H31L119 500Z" />
<glyph unicode="j" glyph-name="j" horiz-adv-x="268" d="M172 568T154 583T136 623Q136 660 161 682T225 705Q254 705 271 690T289 650Q289 613 265 591T201 568Q172 568 154 583ZM-99 -200T-137 -190L-117 -109Q-92 -112 -62 -112Q-16 -112 9 -89T44 -17L135
500H248L157 -17Q141 -111 91 -155T-47 -200Q-99 -200 -137 -190Z" />
<glyph unicode="k" glyph-name="k" horiz-adv-x="518" d="M321 316L470 0H345L234 243L154 176L123 0H10L141 742H254L178 316L399 500H541L321 316Z" />
<glyph unicode="l" glyph-name="l" horiz-adv-x="298" d="M88 -10T62 14T35 85Q35 102 38 120L148 742H262L152 121Q151 115 151 105Q151 87 160 79T191 71Q215 71 248 84L254 21Q232 6 202 -2T140 -10Q88 -10 62 14Z" />
<glyph unicode="m" glyph-name="m" horiz-adv-x="844" d="M74 370Q82 417 86 448T92 500H192Q191 469 181 412H184Q207 458 252 484T352 510Q406 510 441 485T481 418Q511 463 554 486T650 510Q722 510 762 470T802 359Q802 339 797 309L743 0H631L683 297Q686
317 686 332Q686 374 666 396T607 419Q561 419 527 385T484 296L432 0H320L372 293Q376 313 376 334Q376 375 357 397T300 419Q255 419 219 384T173 293L121 0H9L74 370Z" />
<glyph unicode="n" glyph-name="n" horiz-adv-x="559" d="M73 370Q89 463 92 500H198Q195 453 187 412H190Q216 458 263 484T368 510Q441 510 478 470T515 353Q515 318 508 282L459 0H345L395 283Q400 315 400 333Q400 377 381 398T322 419Q265 419 223 379T169
274L121 0H8L73 370Z" />
<glyph unicode="o" glyph-name="o" horiz-adv-x="572" d="M146 -10T87 45T27 195Q27 288 64 359T169 470T325 510Q426 510 485 455T544 306Q544 213 507 141T402 30T247 -10Q146 -10 87 45ZM305 75T345 104T407 184T430 298Q430 358 400 391T315 425Q266 425 227
396T165 316T142 202Q142 142 172 109T256 75Q305 75 345 104Z" />
<glyph unicode="p" glyph-name="p" horiz-adv-x="558" d="M78 370Q91 453 96 500H203L193 430H195Q220 468 261 489T357 510Q437 510 484 458T532 318Q532 224 501 149T412 32T282 -10Q233 -10 195 7T139 56H136L83 -242H-31L78 370ZM307 75T342 105T397 190T418
309Q418 364 394 393T325 422Q270 422 230 389T179 301L162 202Q160 194 160 177Q160 132 189 104T264 75Q307 75 342 105Z" />
<glyph unicode="q" glyph-name="q" horiz-adv-x="558" d="M355 60H352Q328 26 290 8T204 -10Q125 -10 76 45T27 189Q27 283 59 356T149 469T281 510Q332 510 372 489T427 433H429L444 500H550Q538 453 523 370L415 -242H302L355 60ZM288 75T329 111T380 202L397
301Q399 309 399 326Q399 369 371 395T295 422Q251 422 216 393T162 311T142 193Q142 137 166 106T235 75Q288 75 329 111Z" />
<glyph unicode="r" glyph-name="r" horiz-adv-x="382" d="M82 378Q97 465 100 500H207Q204 451 196 412L194 402H197Q224 454 274 482T387 510Q405 510 416 507L401 417Q389 419 374 419Q327 419 283 394T209 324T169 229L128 0H15L82 378Z" />
<glyph unicode="s" glyph-name="s" horiz-adv-x="433" d="M108 -10T60 15T-1 82L80 131Q93 105 119 90T176 75Q220 75 246 95T273 147Q273 169 256 185T196 219Q126 248 93 282T60 359Q60 429 112 469T255 510Q311 510 355 488T418 429L342 379Q329 401 307 413T254
425Q218 425 197 410T175 370Q175 352 194 338T265 302Q329 275 359 243T389 169Q389 116 362 76T285 13T172 -10Q108 -10 60 15Z" />
<glyph unicode="t" glyph-name="t" horiz-adv-x="406" d="M154 -10T118 21T81 112Q81 129 84 148L132 415H41L57 500H147L170 630L285 663H289L261 500H405L389 415H245L201 165Q198 150 198 137Q198 107 214 92T266 77Q309 77 340 89L332 9Q288 -10 218 -10Q154
-10 118 21Z" />
<glyph unicode="u" glyph-name="u" horiz-adv-x="558" d="M113 -10T76 28T39 143Q39 177 46 213L97 500H210L160 215Q155 183 155 165Q155 82 230 82Q286 82 330 124T387 232L434 500H547L480 120Q470 54 468 0H361Q361 50 367 88H365Q337 43 289 17T185 -10Q113
-10 76 28Z" />
<glyph unicode="v" glyph-name="v" horiz-adv-x="512" d="M543 500L262 0H162L57 500H170L232 138L422 500H543Z" />
<glyph unicode="w" glyph-name="w" horiz-adv-x="694" d="M726 500L511 0H410L371 379L196 0H96L57 500H173L182 164L339 500H440L478 166L606 500H726Z" />
<glyph unicode="x" glyph-name="x" horiz-adv-x="500" d="M192 254L70 500H192L262 340L389 500H518L310 254L444 0H320L240 175L99 0H-32L192 254Z" />
<glyph unicode="y" glyph-name="y" horiz-adv-x="491" d="M523 500L244 -19Q197 -107 135 -151T-3 -196Q-37 -196 -74 -186L-59 -97Q-37 -105 -4 -105Q43 -105 81 -73T161 34L57 500H175L233 160L399 500H523Z" />
<glyph unicode="z" glyph-name="z" horiz-adv-x="468" d="M-11 62L325 414H66L81 500H479L469 442L138 86H417L401 0H-22L-11 62Z" />
<glyph unicode="{" glyph-name="braceleft" horiz-adv-x="340" d="M58 -114T58 -1Q58 21 62 41L91 203Q92 207 92 215Q92 237 78 250T37 266L49 332Q79 334 99 350T124 394L153 556Q180 710 340 710H392L377 621H326Q284 621 275 570L244 394Q237 358 217 335T159
298Q212 274 212 225Q212 211 210 203L179 27L177 11Q177 -25 212 -25H263L247 -114H195Q58 -114 58 -1Z" />
<glyph unicode="|" glyph-name="bar" horiz-adv-x="252" d="M150 700H262L110 -160H-2L150 700Z" />
<glyph unicode="}" glyph-name="braceright" horiz-adv-x="340" d="M-19 -25H33Q73 -25 82 27L113 203Q126 273 199 298Q172 310 159 327T146 370Q146 385 148 394L179 570Q181 582 181 586Q181 621 146 621H95L111 710H163Q300 710 300 598Q300 576 296 556L268
394Q267 389 267 380Q267 358 281 346T322 332L310 266Q279 263 259 247T234 203L205 41Q178 -114 18 -114H-35L-19 -25Z" />
<glyph unicode="~" glyph-name="asciitilde" horiz-adv-x="614" d="M51 212Q63 275 109 314T218 353Q246 353 272 342T335 309Q365 291 381 284T413 276Q438 276 455 297T478 353H576L571 327Q560 263 515 223T408 183Q379 183 352 194T286 228Q260 244 243 252T211
260Q188 260 169 239T143 183H46L51 212Z" />
<glyph unicode="&#xa0;" glyph-name="uni00A0" horiz-adv-x="237" />
<glyph unicode="&#xa1;" glyph-name="exclamdown" horiz-adv-x="250" d="M111 349T91 367T71 414Q71 457 99 483T171 510Q203 510 223 493T243 446Q243 403 215 376T143 349Q111 349 91 367ZM78 290H186L114 -201H-23L78 290Z" />
<glyph unicode="&#xa2;" glyph-name="cent" horiz-adv-x="484" d="M299 148T335 166T397 219L454 159Q388 70 271 61L255 -28H182L198 64Q122 77 79 128T36 261Q36 348 67 416T156 527T289 578L305 668H378L362 578Q417 572 456 547T512 482L433 422Q419 454 389
473T321 492Q273 492 234 463T173 384T150 271Q150 212 179 180T261 148Q299 148 335 166Z" />
<glyph unicode="&#xa3;" glyph-name="sterling" horiz-adv-x="546" d="M459 710T500 694T563 649L508 565Q491 585 464 597T411 610Q369 610 339 581T301 505Q295 473 295 377H455L441 300H294Q293 276 289 250Q281 204 257 163T192 92H463L447 0H7L20 73Q77 99
119 146T169 241Q173 271 173 300H79L93 377H174Q176 477 182 511Q198 602 260 656T414 710Q459 710 500 694Z" />
<glyph unicode="&#xa4;" glyph-name="currency" horiz-adv-x="626" d="M243 62T206 74T139 107L70 49L8 121L74 177Q48 222 48 288Q48 342 72 396T128 486L83 542L170 614L219 556Q251 577 292 589T373 601Q410 601 448 589T514 556L586 613L645 535L581 486Q593
466 599 438T606 380Q606 325 583 269T526 177L572 121L486 49L435 107Q403 86 362 74T280 62Q243 62 206 74ZM351 161T396 189T468 264T495 367Q495 428 458 465T357 503Q304 503 259 475T186 400T159 296Q159 235 196 198T297 161Q351 161 396 189Z" />
<glyph unicode="&#xa5;" glyph-name="yen" horiz-adv-x="618" d="M451 381H572L557 297H392L379 279L369 223H544L529 141H355L330 0H203L228 141H52L67 223H242L252 279L246 297H80L94 380H215L100 700H235L334 405L537 700H678L451 381Z" />
<glyph unicode="&#xa6;" glyph-name="brokenbar" horiz-adv-x="252" d="M150 700H262L193 311H81L150 700ZM67 230H179L110 -160H-2L67 230Z" />
<glyph unicode="&#xa7;" glyph-name="section" horiz-adv-x="541" d="M502 220T440 165Q468 137 468 93Q468 34 436 -11T345 -81T211 -106Q138 -106 82 -80T-2 -7L81 64Q108 27 144 8T223 -12Q273 -12 306 12T339 74Q339 99 317 117T235 165Q163 201 132 219T83
261T65 318Q65 393 135 445Q102 481 102 525Q102 577 134 619T222 686T348 710Q422 710 472 683T541 607L467 558Q449 585 416 600T341 616Q294 616 262 594T230 538Q230 521 239 509T274 481T352 439Q426 402 464 368T502 284Q502 220 440 165ZM369 214Q395 247
395 267Q395 280 386 291T351 317T269 360Q220 385 207 392Q179 366 179 339Q179 322 196 309T273 265L318 241L369 214Z" />
<glyph unicode="&#xa8;" glyph-name="dieresis" horiz-adv-x="400" d="M127 555T113 568T98 604Q98 636 118 656T172 677Q195 677 209 663T224 627Q224 595 204 575T150 555Q127 555 113 568ZM335 555T320 569T305 605Q305 637 325 657T379 677Q402 677 416 663T431
627Q431 595 411 575T358 555Q335 555 320 569Z" />
<glyph unicode="&#xa9;" glyph-name="copyright" horiz-adv-x="808" d="M269 -10T199 26T90 127T51 278Q51 400 107 498T262 653T483 710Q575 710 645 674T753 573T792 423Q792 301 736 202T582 47T361 -10Q269 -10 199 26ZM467 60T545 105T667 231T712 410Q712
478 683 530T599 612T473 641Q376 641 298 596T176 470T131 291Q131 223 161 171T245 89T371 60Q467 60 545 105ZM325 142T284 186T242 304Q242 379 271 438T351 531T467 565Q514 565 549 544T594 489L539 441Q528 465 507 478T457 491Q421 491 392 468T345 404T328
313Q328 269 349 242T404 215Q460 215 509 267L546 218Q523 186 481 164T394 142Q325 142 284 186Z" />
<glyph unicode="&#xaa;" glyph-name="ordfeminine" horiz-adv-x="362" d="M124 361T97 385T69 448Q69 504 110 536T222 568H289L292 582Q294 594 294 599Q294 643 241 643Q188 643 148 601L112 649Q169 707 257 707Q317 707 349 683T382 612Q382 605 380 587L353
438Q352 433 350 412T348 368H269Q268 379 268 409Q252 387 225 374T165 361Q124 361 97 385ZM227 420T248 439T274 485L280 515H232Q196 515 176 499T156 455Q156 438 167 429T197 420Q227 420 248 439Z" />
<glyph unicode="&#xab;" glyph-name="guillemotleft" horiz-adv-x="562" d="M36 260L223 459H346L161 260L276 62H153L36 260ZM255 260L443 459H565L381 260L495 62H373L255 260Z" />
<glyph unicode="&#xac;" glyph-name="logicalnot" horiz-adv-x="613" d="M474 326H56L70 407H600L551 124H439L474 326Z" />
<glyph unicode="&#xad;" glyph-name="uni00AD" horiz-adv-x="340" d="M36 306H323L309 227H22L36 306Z" />
<glyph unicode="&#xae;" glyph-name="registered" horiz-adv-x="526" d="M426 710T476 663T527 538Q527 466 494 408T402 316T271 282Q188 282 137 329T86 453Q86 525 119 584T212 676T343 710Q426 710 476 663ZM332 329T378 355T450 427T476 531Q476 590 439
626T338 663Q281 663 235 637T163 565T137 462Q137 403 175 366T275 329Q332 329 378 355ZM370 618T389 603T408 560Q408 523 391 500T341 468L374 377H321L290 464H263L247 377H197L240 618H334Q370 618 389 603ZM331 506T345 518T359 553Q359 566 349 571T316
576H283L270 506H305Q331 506 345 518Z" />
<glyph unicode="&#xaf;" glyph-name="overscore" horiz-adv-x="400" d="M95 636H442L431 574H84L95 636Z" />
<glyph unicode="&#xb0;" glyph-name="degree" horiz-adv-x="320" d="M142 444T111 473T79 550Q79 595 100 631T158 689T241 710Q293 710 325 681T357 604Q357 559 336 523T277 465T194 444Q142 444 111 473ZM242 503T267 528T292 592Q292 618 276 634T231 651Q194
651 169 626T144 562Q144 536 160 520T205 503Q242 503 267 528Z" />
<glyph unicode="&#xb1;" glyph-name="plusminus" horiz-adv-x="614" d="M371 306L340 133H232L263 306H58L72 387H277L307 560H415L385 387H590L576 306H371ZM27 81H528L514 0H13L27 81Z" />
<glyph unicode="&#xb2;" glyph-name="uni00B2" horiz-adv-x="420" d="M52 282Q123 326 182 380T276 484T311 570Q311 592 297 604T256 616Q198 616 145 555L96 616Q127 658 175 681T278 705Q349 705 388 675T428 592Q428 530 374 457T206 291H393L378 208H39L52 282Z" />
<glyph unicode="&#xb3;" glyph-name="uni00B3" horiz-adv-x="420" d="M146 198T104 219T44 276L110 337Q127 314 153 301T207 288Q242 288 266 310T290 366Q290 392 270 407T215 423H167L181 502H228Q262 502 286 523T310 576Q310 594 296 605T258 616Q231 616
201 603T145 567L104 629Q138 666 185 685T285 705Q348 705 387 675T427 596Q427 556 403 522T334 467Q365 454 383 426T402 363Q402 316 376 278T305 219T202 198Q146 198 104 219Z" />
<glyph unicode="&#xb4;" glyph-name="acute" horiz-adv-x="400" d="M285 722H396L257 555H166L285 722Z" />
<glyph unicode="&#xb5;" glyph-name="uni00B5" horiz-adv-x="558" d="M97 500H210L160 215Q155 187 155 168Q155 82 233 82Q289 82 332 125T387 234L434 500H547L481 120Q472 71 468 0H362Q361 8 361 25Q361 48 365 75H362Q334 32 300 11T218 -10Q190 -10 166
-1T125 25L84 -208H-28L97 500Z" />
<glyph unicode="&#xb6;" glyph-name="paragraph" horiz-adv-x="541" d="M272 267H266Q178 267 127 310T76 430Q76 513 114 574T224 667T397 700H531L391 -93H331L463 654H396L264 -93H209L272 267Z" />
<glyph unicode="&#xb7;" glyph-name="middot" horiz-adv-x="278" d="M99 183T81 200T62 245Q62 287 88 314T155 341Q183 341 201 324T219 278Q219 236 194 210T127 183Q99 183 81 200Z" />
<glyph unicode="&#xb8;" glyph-name="cedilla" horiz-adv-x="400" d="M76 -247T52 -242T15 -229L41 -172Q52 -178 68 -182T100 -186Q121 -186 136 -175T151 -147Q151 -133 133 -125T86 -117L62 -86L133 13H211L154 -65Q190 -65 211 -84T232 -133Q232 -181 195
-214T100 -247Q76 -247 52 -242Z" />
<glyph unicode="&#xb9;" glyph-name="uni00B9" horiz-adv-x="420" d="M95 291H173L222 572L124 519L141 620L283 698H358L287 291H363L349 208H80L95 291Z" />
<glyph unicode="&#xba;" glyph-name="ordmasculine" horiz-adv-x="390" d="M151 361T112 398T73 497Q73 559 98 606T168 680T271 707Q339 707 378 671T418 572Q418 510 393 462T323 388T218 361Q151 361 112 398ZM270 423T299 465T329 570Q329 606 313 625T265
645Q220 645 191 604T161 501Q161 464 178 444T226 423Q270 423 299 465Z" />
<glyph unicode="&#xbb;" glyph-name="guillemotright" horiz-adv-x="562" d="M185 260L70 459H193L310 260L123 62H0L185 260ZM404 260L289 459H412L530 260L342 62H219L404 260Z" />
<glyph unicode="&#xbc;" glyph-name="onequarter" horiz-adv-x="1004" d="M743 712H836L313 -33H219L743 712ZM106 342H175L219 591L132 544L147 634L273 704H340L277 342H345L332 268H93L106 342ZM761 65H571L584 135L820 435H928L876 137H920L907 65H863L851
0H749L761 65ZM774 137L805 318L666 137H774Z" />
<glyph unicode="&#xbd;" glyph-name="onehalf" horiz-adv-x="1004" d="M710 712H803L280 -33H186L710 712ZM106 342H175L219 591L132 544L147 634L273 704H340L277 342H345L332 268H93L106 342ZM609 66Q672 105 725 152T808 245T839 322Q839 341 826 351T790 362Q739
362 691 308L647 362Q675 400 718 421T810 442Q872 442 907 415T943 341Q943 286 895 222T745 74H911L899 0H597L609 66Z" />
<glyph unicode="&#xbe;" glyph-name="threequarters" horiz-adv-x="1004" d="M728 712H822L298 -33H205L728 712ZM158 260T121 279T68 330L126 384Q142 363 165 352T213 340Q243 340 264 360T286 409Q286 432 268 446T219 460H177L189 530H231Q261 530 282 549T304
596Q304 612 292 621T257 631Q233 631 206 620T157 588L121 643Q151 675 193 693T281 711Q337 711 372 684T408 614Q408 579 386 549T325 499Q353 487 369 462T386 407Q386 365 363 332T300 279T208 260Q158 260 121 279ZM747 65H558L570 135L806 435H914L862 137H906L893
65H849L838 0H736L747 65ZM760 137L792 318L653 137H760Z" />
<glyph unicode="&#xbf;" glyph-name="questiondown" horiz-adv-x="466" d="M224 366T206 382T188 424Q188 461 213 485T278 510Q307 510 325 494T343 452Q343 415 317 391T253 366Q224 366 206 382ZM70 -211T22 -173T-27 -68Q-27 -24 -11 12T28 75T90 139Q135
181 160 214T193 288Q196 305 196 325H302V316Q302 275 288 241T252 182T196 121Q148 72 125 37T101 -46Q101 -81 122 -99T183 -118Q221 -118 259 -95T328 -32L377 -102Q342 -153 283 -182T156 -211Q70 -211 22 -173Z" />
<glyph unicode="&#xc0;" glyph-name="Agrave" horiz-adv-x="626" d="M423 128H172L111 0H-29L336 700H449L567 0H440L423 128ZM409 229L368 535L221 229H409ZM279 912H391L446 755H355L279 912Z" />
<glyph unicode="&#xc1;" glyph-name="Aacute" horiz-adv-x="626" d="M423 128H172L111 0H-29L336 700H449L567 0H440L423 128ZM409 229L368 535L221 229H409ZM469 912H580L449 755H358L469 912Z" />
<glyph unicode="&#xc2;" glyph-name="Acircumflex" horiz-adv-x="626" d="M423 128H172L111 0H-29L336 700H449L567 0H440L423 128ZM409 229L368 535L221 229H409ZM396 911H464L563 755H469L421 836L344 755H241L396 911Z" />
<glyph unicode="&#xc3;" glyph-name="Atilde" horiz-adv-x="626" d="M423 128H172L111 0H-29L336 700H449L567 0H440L423 128ZM409 229L368 535L221 229H409ZM248 810T281 841T357 872Q376 872 392 865T429 844Q444 834 453 830T471 825Q497 825 508 876H579Q569
817 538 786T461 755Q441 755 425 762T386 784Q359 802 347 802Q336 802 325 789T310 755H240Q248 810 281 841Z" />
<glyph unicode="&#xc4;" glyph-name="Adieresis" horiz-adv-x="626" d="M423 128H172L111 0H-29L336 700H449L567 0H440L423 128ZM409 229L368 535L221 229H409ZM275 755T261 768T246 804Q246 836 266 856T320 877Q343 877 357 863T372 827Q372 795 352 775T298
755Q275 755 261 768ZM483 755T468 769T453 805Q453 837 473 857T527 877Q550 877 564 863T579 827Q579 795 559 775T506 755Q483 755 468 769Z" />
<glyph unicode="&#xc5;" glyph-name="Aring" horiz-adv-x="626" d="M423 128H172L111 0H-29L336 700H449L567 0H440L423 128ZM409 229L368 535L221 229H409ZM363 720T339 742T314 798Q314 849 348 881T435 913Q473 913 497 892T521 835Q521 784 488 752T401 720Q363
720 339 742ZM435 765T451 782T468 827Q468 845 457 856T427 867Q401 867 384 850T367 806Q367 788 378 777T409 765Q435 765 451 782Z" />
<glyph unicode="&#xc6;" glyph-name="AE" horiz-adv-x="818" d="M564 599L532 416H772L754 315H514L477 102H750L732 0H333L353 113H180L112 0H-29L412 700H855L837 599H564ZM370 209L424 516L238 209H370Z" />
<glyph unicode="&#xc7;" glyph-name="Ccedilla" horiz-adv-x="608" d="M345 608T289 565T201 444T169 268Q169 184 209 138T322 92Q431 92 498 174L560 108Q485 0 343 -9L302 -65Q338 -65 360 -83T383 -130Q383 -175 346 -205T252 -235Q228 -235 204 -230T167
-217L188 -167Q216 -178 249 -178Q272 -178 287 -167T302 -138Q302 -124 285 -116T237 -109L216 -80L270 -7Q163 7 103 79T42 267Q42 394 90 495T224 653T418 710Q501 710 562 678T643 592L560 527Q519 608 416 608Q345 608 289 565Z" />
<glyph unicode="&#xc8;" glyph-name="Egrave" horiz-adv-x="565" d="M152 700H601L584 598H261L229 419H518L499 317H211L173 102H496L478 0H29L152 700ZM267 912H379L434 755H343L267 912Z" />
<glyph unicode="&#xc9;" glyph-name="Eacute" horiz-adv-x="565" d="M152 700H601L584 598H261L229 419H518L499 317H211L173 102H496L478 0H29L152 700ZM457 912H568L437 755H346L457 912Z" />
<glyph unicode="&#xca;" glyph-name="Ecircumflex" horiz-adv-x="565" d="M152 700H601L584 598H261L229 419H518L499 317H211L173 102H496L478 0H29L152 700ZM384 911H452L551 755H457L409 836L332 755H229L384 911Z" />
<glyph unicode="&#xcb;" glyph-name="Edieresis" horiz-adv-x="565" d="M152 700H601L584 598H261L229 419H518L499 317H211L173 102H496L478 0H29L152 700ZM263 755T249 768T234 804Q234 836 254 856T308 877Q331 877 345 863T360 827Q360 795 340 775T286 755Q263
755 249 768ZM471 755T456 769T441 805Q441 837 461 857T515 877Q538 877 552 863T567 827Q567 795 547 775T494 755Q471 755 456 769Z" />
<glyph unicode="&#xcc;" glyph-name="Igrave" horiz-adv-x="313" d="M172 700H299L176 0H49L172 700ZM123 912H235L290 755H199L123 912Z" />
<glyph unicode="&#xcd;" glyph-name="Iacute" horiz-adv-x="313" d="M172 700H299L176 0H49L172 700ZM313 912H424L293 755H202L313 912Z" />
<glyph unicode="&#xce;" glyph-name="Icircumflex" horiz-adv-x="313" d="M172 700H299L176 0H49L172 700ZM240 911H308L407 755H313L265 836L188 755H85L240 911Z" />
<glyph unicode="&#xcf;" glyph-name="Idieresis" horiz-adv-x="313" d="M172 700H299L176 0H49L172 700ZM119 755T105 768T90 804Q90 836 110 856T164 877Q187 877 201 863T216 827Q216 795 196 775T142 755Q119 755 105 768ZM327 755T312 769T297 805Q297 837
317 857T371 877Q394 877 408 863T423 827Q423 795 403 775T350 755Q327 755 312 769Z" />
<glyph unicode="&#xd0;" glyph-name="Eth" horiz-adv-x="640" d="M509 700T570 639T631 461Q631 239 535 120T259 0H33L84 291H16L33 384H100L156 700H392Q509 700 570 639ZM347 102T397 145T476 268T504 451Q504 526 473 562T376 598H265L227 384H402L386 291H211L178
102H280Q347 102 397 145Z" />
<glyph unicode="&#xd1;" glyph-name="Ntilde" horiz-adv-x="693" d="M700 700L577 0H459L242 497L154 0H28L151 700H276L488 212L574 700H700ZM282 810T315 841T391 872Q410 872 426 865T463 844Q478 834 487 830T505 825Q531 825 542 876H613Q603 817 572 786T495
755Q475 755 459 762T420 784Q393 802 381 802Q370 802 359 789T344 755H274Q282 810 315 841Z" />
<glyph unicode="&#xd2;" glyph-name="Ograve" horiz-adv-x="681" d="M227 -10T167 24T74 119T41 263Q41 392 88 494T220 653T411 710Q490 710 550 676T643 581T676 438Q676 309 629 207T497 48T306 -10Q227 -10 167 24ZM381 91T434 135T517 256T548 430Q548 512
508 561T402 610Q336 610 283 566T200 445T169 272Q169 190 209 141T315 91Q381 91 434 135ZM300 912H412L467 755H376L300 912Z" />
<glyph unicode="&#xd3;" glyph-name="Oacute" horiz-adv-x="681" d="M227 -10T167 24T74 119T41 263Q41 392 88 494T220 653T411 710Q490 710 550 676T643 581T676 438Q676 309 629 207T497 48T306 -10Q227 -10 167 24ZM381 91T434 135T517 256T548 430Q548 512
508 561T402 610Q336 610 283 566T200 445T169 272Q169 190 209 141T315 91Q381 91 434 135ZM490 912H601L470 755H379L490 912Z" />
<glyph unicode="&#xd4;" glyph-name="Ocircumflex" horiz-adv-x="681" d="M227 -10T167 24T74 119T41 263Q41 392 88 494T220 653T411 710Q490 710 550 676T643 581T676 438Q676 309 629 207T497 48T306 -10Q227 -10 167 24ZM381 91T434 135T517 256T548 430Q548
512 508 561T402 610Q336 610 283 566T200 445T169 272Q169 190 209 141T315 91Q381 91 434 135ZM417 911H485L584 755H490L442 836L365 755H262L417 911Z" />
<glyph unicode="&#xd5;" glyph-name="Otilde" horiz-adv-x="681" d="M227 -10T167 24T74 119T41 263Q41 392 88 494T220 653T411 710Q490 710 550 676T643 581T676 438Q676 309 629 207T497 48T306 -10Q227 -10 167 24ZM381 91T434 135T517 256T548 430Q548 512
508 561T402 610Q336 610 283 566T200 445T169 272Q169 190 209 141T315 91Q381 91 434 135ZM269 810T302 841T378 872Q397 872 413 865T450 844Q465 834 474 830T492 825Q518 825 529 876H600Q590 817 559 786T482 755Q462 755 446 762T407 784Q380 802 368 802Q357
802 346 789T331 755H261Q269 810 302 841Z" />
<glyph unicode="&#xd6;" glyph-name="Odieresis" horiz-adv-x="681" d="M227 -10T167 24T74 119T41 263Q41 392 88 494T220 653T411 710Q490 710 550 676T643 581T676 438Q676 309 629 207T497 48T306 -10Q227 -10 167 24ZM381 91T434 135T517 256T548 430Q548
512 508 561T402 610Q336 610 283 566T200 445T169 272Q169 190 209 141T315 91Q381 91 434 135ZM296 755T282 768T267 804Q267 836 287 856T341 877Q364 877 378 863T393 827Q393 795 373 775T319 755Q296 755 282 768ZM504 755T489 769T474 805Q474 837 494 857T548
877Q571 877 585 863T600 827Q600 795 580 775T527 755Q504 755 489 769Z" />
<glyph unicode="&#xd7;" glyph-name="multiply" horiz-adv-x="614" d="M296 192L85 5L25 70L240 262L93 452L175 517L320 331L532 517L593 452L378 262L525 70L442 5L296 192Z" />
<glyph unicode="&#xd8;" glyph-name="Oslash" horiz-adv-x="681" d="M637 602T656 551T676 438Q676 309 629 207T497 48T306 -10Q225 -10 166 25L118 -43H20L104 76Q41 150 41 263Q41 392 88 494T220 653T411 710Q477 710 532 685L560 725H662L600 638Q637 602
656 551ZM169 225T183 188L468 594Q438 610 402 610Q336 610 283 566T200 445T169 272Q169 225 183 188ZM381 91T434 135T517 256T548 430Q548 489 526 533L232 118Q267 91 315 91Q381 91 434 135Z" />
<glyph unicode="&#xd9;" glyph-name="Ugrave" horiz-adv-x="661" d="M180 -10T122 43T63 198Q63 235 70 273L145 700H272L197 275Q190 233 190 210Q190 92 303 92Q440 92 473 275L548 700H674L599 273Q550 -10 292 -10Q180 -10 122 43ZM297 912H409L464 755H373L297 912Z" />
<glyph unicode="&#xda;" glyph-name="Uacute" horiz-adv-x="661" d="M180 -10T122 43T63 198Q63 235 70 273L145 700H272L197 275Q190 233 190 210Q190 92 303 92Q440 92 473 275L548 700H674L599 273Q550 -10 292 -10Q180 -10 122 43ZM487 912H598L467 755H376L487 912Z" />
<glyph unicode="&#xdb;" glyph-name="Ucircumflex" horiz-adv-x="661" d="M180 -10T122 43T63 198Q63 235 70 273L145 700H272L197 275Q190 233 190 210Q190 92 303 92Q440 92 473 275L548 700H674L599 273Q550 -10 292 -10Q180 -10 122 43ZM414 911H482L581 755H487L439
836L362 755H259L414 911Z" />
<glyph unicode="&#xdc;" glyph-name="Udieresis" horiz-adv-x="661" d="M180 -10T122 43T63 198Q63 235 70 273L145 700H272L197 275Q190 233 190 210Q190 92 303 92Q440 92 473 275L548 700H674L599 273Q550 -10 292 -10Q180 -10 122 43ZM293 755T279 768T264
804Q264 836 284 856T338 877Q361 877 375 863T390 827Q390 795 370 775T316 755Q293 755 279 768ZM501 755T486 769T471 805Q471 837 491 857T545 877Q568 877 582 863T597 827Q597 795 577 775T524 755Q501 755 486 769Z" />
<glyph unicode="&#xdd;" glyph-name="Yacute" horiz-adv-x="610" d="M247 279L95 700H230L329 405L532 700H673L374 279L325 0H198L247 279ZM459 912H570L439 755H348L459 912Z" />
<glyph unicode="&#xde;" glyph-name="Thorn" horiz-adv-x="572" d="M152 700H278L262 607H340Q443 607 501 561T560 434Q560 351 526 290T426 196T273 163H184L155 0H29L152 700ZM294 265Q356 265 395 307T435 418Q435 461 408 483T329 506H244L201 265H294Z" />
<glyph unicode="&#xdf;" glyph-name="germandbls" horiz-adv-x="572" d="M268 -10T226 14T168 83L247 131Q273 75 327 75Q363 75 388 100T414 161Q414 185 398 199T344 230Q303 247 282 275T260 339Q260 385 281 411T344 466Q380 491 398 511T416 565Q416 594
396 609T339 624Q281 624 249 587T203 480L118 0H6L92 485Q111 594 174 652T340 710Q426 710 477 675T529 578Q529 537 514 508T479 459T426 418Q398 398 385 385T371 353Q371 338 385 326T442 293Q483 274 505 242T528 171Q528 118 503 77T431 13T327 -10Q268
-10 226 14Z" />
<glyph unicode="&#xe0;" glyph-name="agrave" horiz-adv-x="553" d="M119 -10T72 43T24 188Q24 281 56 354T147 469T280 510Q333 510 371 490T425 434H427L448 500H542L477 131Q458 27 457 0H351Q352 21 362 71H360Q330 34 288 12T201 -10Q119 -10 72 43ZM287
78T326 111T376 200L393 299Q395 308 395 325Q395 370 367 397T292 425Q249 425 214 395T158 313T138 195Q138 139 162 109T231 78Q287 78 326 111ZM195 712H307L362 555H271L195 712Z" />
<glyph unicode="&#xe1;" glyph-name="aacute" horiz-adv-x="553" d="M119 -10T72 43T24 188Q24 281 56 354T147 469T280 510Q333 510 371 490T425 434H427L448 500H542L477 131Q458 27 457 0H351Q352 21 362 71H360Q330 34 288 12T201 -10Q119 -10 72 43ZM287
78T326 111T376 200L393 299Q395 308 395 325Q395 370 367 397T292 425Q249 425 214 395T158 313T138 195Q138 139 162 109T231 78Q287 78 326 111ZM385 712H496L365 555H274L385 712Z" />
<glyph unicode="&#xe2;" glyph-name="acircumflex" horiz-adv-x="553" d="M119 -10T72 43T24 188Q24 281 56 354T147 469T280 510Q333 510 371 490T425 434H427L448 500H542L477 131Q458 27 457 0H351Q352 21 362 71H360Q330 34 288 12T201 -10Q119 -10 72 43ZM287
78T326 111T376 200L393 299Q395 308 395 325Q395 370 367 397T292 425Q249 425 214 395T158 313T138 195Q138 139 162 109T231 78Q287 78 326 111ZM312 711H380L479 555H385L337 636L260 555H157L312 711Z" />
<glyph unicode="&#xe3;" glyph-name="atilde" horiz-adv-x="553" d="M119 -10T72 43T24 188Q24 281 56 354T147 469T280 510Q333 510 371 490T425 434H427L448 500H542L477 131Q458 27 457 0H351Q352 21 362 71H360Q330 34 288 12T201 -10Q119 -10 72 43ZM287
78T326 111T376 200L393 299Q395 308 395 325Q395 370 367 397T292 425Q249 425 214 395T158 313T138 195Q138 139 162 109T231 78Q287 78 326 111ZM164 610T197 641T273 672Q292 672 308 665T345 644Q360 634 369 630T387 625Q413 625 424 676H495Q485 617 454
586T377 555Q357 555 341 562T302 584Q275 602 263 602Q252 602 241 589T226 555H156Q164 610 197 641Z" />
<glyph unicode="&#xe4;" glyph-name="adieresis" horiz-adv-x="553" d="M119 -10T72 43T24 188Q24 281 56 354T147 469T280 510Q333 510 371 490T425 434H427L448 500H542L477 131Q458 27 457 0H351Q352 21 362 71H360Q330 34 288 12T201 -10Q119 -10 72 43ZM287
78T326 111T376 200L393 299Q395 308 395 325Q395 370 367 397T292 425Q249 425 214 395T158 313T138 195Q138 139 162 109T231 78Q287 78 326 111ZM191 555T177 568T162 604Q162 636 182 656T236 677Q259 677 273 663T288 627Q288 595 268 575T214 555Q191 555
177 568ZM399 555T384 569T369 605Q369 637 389 657T443 677Q466 677 480 663T495 627Q495 595 475 575T422 555Q399 555 384 569Z" />
<glyph unicode="&#xe5;" glyph-name="aring" horiz-adv-x="553" d="M119 -10T72 43T24 188Q24 281 56 354T147 469T280 510Q333 510 371 490T425 434H427L448 500H542L477 131Q458 27 457 0H351Q352 21 362 71H360Q330 34 288 12T201 -10Q119 -10 72 43ZM287 78T326
111T376 200L393 299Q395 308 395 325Q395 370 367 397T292 425Q249 425 214 395T158 313T138 195Q138 139 162 109T231 78Q287 78 326 111ZM279 547T255 569T230 625Q230 676 264 708T351 740Q389 740 413 719T437 662Q437 611 404 579T317 547Q279 547 255 569ZM351
592T367 609T384 654Q384 672 373 683T343 694Q317 694 300 677T283 633Q283 615 294 604T325 592Q351 592 367 609Z" />
<glyph unicode="&#xe6;" glyph-name="ae" horiz-adv-x="820" d="M692 510T744 462T796 323Q796 294 790 261L783 221H440V219Q439 212 439 197Q439 142 466 114T545 86Q587 86 622 101T693 152L744 93Q708 45 651 18T527 -10Q474 -10 432 8T363 61Q326 28 278
9T177 -10Q96 -10 53 27T9 125Q9 208 71 253T247 298H341L347 329Q349 338 349 354Q349 422 270 422Q225 422 185 406T113 358L73 426Q163 510 283 510Q336 510 375 494T436 449Q506 510 601 510Q692 510 744 462ZM694 321Q694 365 669 391T594 418Q548 418 511
386T455 298H692L693 306L694 321ZM237 76T274 103T319 171L327 216V221H243Q186 221 153 198T120 131Q120 105 138 91T189 76Q237 76 274 103Z" />
<glyph unicode="&#xe7;" glyph-name="ccedilla" horiz-adv-x="486" d="M287 78T323 96T385 149L442 89Q376 2 268 -8L227 -65Q263 -65 285 -83T307 -130Q307 -175 270 -205T177 -235Q153 -235 129 -230T92 -217L112 -167Q140 -178 173 -178Q196 -178 211 -167T226
-138Q226 -124 209 -116T162 -109L141 -80L195 -7Q115 4 70 56T24 191Q24 285 60 357T163 469T314 510Q382 510 431 484T500 412L421 352Q407 384 377 403T309 422Q261 422 222 393T161 314T138 201Q138 142 167 110T249 78Q287 78 323 96Z" />
<glyph unicode="&#xe8;" glyph-name="egrave" horiz-adv-x="534" d="M405 510T456 458T508 315Q508 281 501 247L494 208H141V201Q141 145 169 116T253 86Q296 86 333 102T405 152L457 93Q419 44 361 17T237 -10Q140 -10 84 44T27 191Q27 284 63 356T164 469T313
510Q405 510 456 458ZM403 300T403 313Q403 364 377 391T301 418Q249 418 210 383T152 287H402V293Q403 300 403 313ZM202 712H314L369 555H278L202 712Z" />
<glyph unicode="&#xe9;" glyph-name="eacute" horiz-adv-x="534" d="M405 510T456 458T508 315Q508 281 501 247L494 208H141V201Q141 145 169 116T253 86Q296 86 333 102T405 152L457 93Q419 44 361 17T237 -10Q140 -10 84 44T27 191Q27 284 63 356T164 469T313
510Q405 510 456 458ZM403 300T403 313Q403 364 377 391T301 418Q249 418 210 383T152 287H402V293Q403 300 403 313ZM392 712H503L372 555H281L392 712Z" />
<glyph unicode="&#xea;" glyph-name="ecircumflex" horiz-adv-x="534" d="M405 510T456 458T508 315Q508 281 501 247L494 208H141V201Q141 145 169 116T253 86Q296 86 333 102T405 152L457 93Q419 44 361 17T237 -10Q140 -10 84 44T27 191Q27 284 63 356T164
469T313 510Q405 510 456 458ZM403 300T403 313Q403 364 377 391T301 418Q249 418 210 383T152 287H402V293Q403 300 403 313ZM319 711H387L486 555H392L344 636L267 555H164L319 711Z" />
<glyph unicode="&#xeb;" glyph-name="edieresis" horiz-adv-x="534" d="M405 510T456 458T508 315Q508 281 501 247L494 208H141V201Q141 145 169 116T253 86Q296 86 333 102T405 152L457 93Q419 44 361 17T237 -10Q140 -10 84 44T27 191Q27 284 63 356T164 469T313
510Q405 510 456 458ZM403 300T403 313Q403 364 377 391T301 418Q249 418 210 383T152 287H402V293Q403 300 403 313ZM198 555T184 568T169 604Q169 636 189 656T243 677Q266 677 280 663T295 627Q295 595 275 575T221 555Q198 555 184 568ZM406 555T391 569T376
605Q376 637 396 657T450 677Q473 677 487 663T502 627Q502 595 482 575T429 555Q406 555 391 569Z" />
<glyph unicode="&#xec;" glyph-name="igrave" horiz-adv-x="271" d="M123 500H236L148 0H35L123 500ZM66 712H178L233 555H142L66 712Z" />
<glyph unicode="&#xed;" glyph-name="iacute" horiz-adv-x="271" d="M123 500H236L148 0H35L123 500ZM256 712H367L236 555H145L256 712Z" />
<glyph unicode="&#xee;" glyph-name="icircumflex" horiz-adv-x="271" d="M123 500H236L148 0H35L123 500ZM183 711H251L350 555H256L208 636L131 555H28L183 711Z" />
<glyph unicode="&#xef;" glyph-name="idieresis" horiz-adv-x="271" d="M123 500H236L148 0H35L123 500ZM62 555T48 568T33 604Q33 636 53 656T107 677Q130 677 144 663T159 627Q159 595 139 575T85 555Q62 555 48 568ZM270 555T255 569T240 605Q240 637 260 657T314
677Q337 677 351 663T366 627Q366 595 346 575T293 555Q270 555 255 569Z" />
<glyph unicode="&#xf0;" glyph-name="eth" horiz-adv-x="506" d="M380 589Q429 538 455 472T481 328Q481 231 446 154T347 34T205 -10Q121 -10 71 39T21 168Q21 243 55 307T148 408T275 446Q299 446 321 438T358 417Q342 484 294 539L153 458L121 519L237 587Q190
618 134 630L155 698Q251 686 323 637L454 714L485 650L380 589ZM261 80T292 103T342 167T361 257Q361 305 338 331T271 358Q233 358 202 334T152 269T134 179Q134 132 157 106T222 80Q261 80 292 103Z" />
<glyph unicode="&#xf1;" glyph-name="ntilde" horiz-adv-x="559" d="M73 370Q89 463 92 500H198Q195 453 187 412H190Q216 458 263 484T368 510Q441 510 478 470T515 353Q515 318 508 282L459 0H345L395 283Q400 315 400 333Q400 377 381 398T322 419Q265 419
223 379T169 274L121 0H8L73 370ZM178 610T211 641T287 672Q306 672 322 665T359 644Q374 634 383 630T401 625Q427 625 438 676H509Q499 617 468 586T391 555Q371 555 355 562T316 584Q289 602 277 602Q266 602 255 589T240 555H170Q178 610 211 641Z" />
<glyph unicode="&#xf2;" glyph-name="ograve" horiz-adv-x="572" d="M146 -10T87 45T27 195Q27 288 64 359T169 470T325 510Q426 510 485 455T544 306Q544 213 507 141T402 30T247 -10Q146 -10 87 45ZM305 75T345 104T407 184T430 298Q430 358 400 391T315 425Q266
425 227 396T165 316T142 202Q142 142 172 109T256 75Q305 75 345 104ZM217 712H329L384 555H293L217 712Z" />
<glyph unicode="&#xf3;" glyph-name="oacute" horiz-adv-x="572" d="M146 -10T87 45T27 195Q27 288 64 359T169 470T325 510Q426 510 485 455T544 306Q544 213 507 141T402 30T247 -10Q146 -10 87 45ZM305 75T345 104T407 184T430 298Q430 358 400 391T315 425Q266
425 227 396T165 316T142 202Q142 142 172 109T256 75Q305 75 345 104ZM407 712H518L387 555H296L407 712Z" />
<glyph unicode="&#xf4;" glyph-name="ocircumflex" horiz-adv-x="572" d="M146 -10T87 45T27 195Q27 288 64 359T169 470T325 510Q426 510 485 455T544 306Q544 213 507 141T402 30T247 -10Q146 -10 87 45ZM305 75T345 104T407 184T430 298Q430 358 400 391T315
425Q266 425 227 396T165 316T142 202Q142 142 172 109T256 75Q305 75 345 104ZM334 711H402L501 555H407L359 636L282 555H179L334 711Z" />
<glyph unicode="&#xf5;" glyph-name="otilde" horiz-adv-x="572" d="M146 -10T87 45T27 195Q27 288 64 359T169 470T325 510Q426 510 485 455T544 306Q544 213 507 141T402 30T247 -10Q146 -10 87 45ZM305 75T345 104T407 184T430 298Q430 358 400 391T315 425Q266
425 227 396T165 316T142 202Q142 142 172 109T256 75Q305 75 345 104ZM186 610T219 641T295 672Q314 672 330 665T367 644Q382 634 391 630T409 625Q435 625 446 676H517Q507 617 476 586T399 555Q379 555 363 562T324 584Q297 602 285 602Q274 602 263 589T248
555H178Q186 610 219 641Z" />
<glyph unicode="&#xf6;" glyph-name="odieresis" horiz-adv-x="572" d="M146 -10T87 45T27 195Q27 288 64 359T169 470T325 510Q426 510 485 455T544 306Q544 213 507 141T402 30T247 -10Q146 -10 87 45ZM305 75T345 104T407 184T430 298Q430 358 400 391T315
425Q266 425 227 396T165 316T142 202Q142 142 172 109T256 75Q305 75 345 104ZM213 555T199 568T184 604Q184 636 204 656T258 677Q281 677 295 663T310 627Q310 595 290 575T236 555Q213 555 199 568ZM421 555T406 569T391 605Q391 637 411 657T465 677Q488 677
502 663T517 627Q517 595 497 575T444 555Q421 555 406 569Z" />
<glyph unicode="&#xf7;" glyph-name="divide" horiz-adv-x="614" d="M302 376T286 391T269 431Q269 466 293 488T354 511Q381 511 398 496T415 457Q415 422 391 399T330 376Q302 376 286 391ZM58 306H576L560 219H43L58 306ZM238 14T222 29T205 69Q205 103 229
125T290 148Q318 148 334 133T351 95Q351 60 327 37T266 14Q238 14 222 29Z" />
<glyph unicode="&#xf8;" glyph-name="oslash" horiz-adv-x="572" d="M509 436T526 396T544 306Q544 213 507 141T402 30T247 -10Q193 -10 152 6L118 -43H37L94 39Q62 65 45 105T27 195Q27 288 64 359T169 470T325 510Q375 510 415 496L443 535H528L476 462Q509
436 526 396ZM142 161T158 129L360 418Q337 425 315 425Q266 425 227 396T165 316T142 202Q142 161 158 129ZM305 75T345 104T407 184T430 298Q430 342 413 373L208 84Q229 75 256 75Q305 75 345 104Z" />
<glyph unicode="&#xf9;" glyph-name="ugrave" horiz-adv-x="558" d="M113 -10T76 28T39 143Q39 177 46 213L97 500H210L160 215Q155 183 155 165Q155 82 230 82Q286 82 330 124T387 232L434 500H547L480 120Q470 54 468 0H361Q361 50 367 88H365Q337 43 289 17T185
-10Q113 -10 76 28ZM216 712H328L383 555H292L216 712Z" />
<glyph unicode="&#xfa;" glyph-name="uacute" horiz-adv-x="558" d="M113 -10T76 28T39 143Q39 177 46 213L97 500H210L160 215Q155 183 155 165Q155 82 230 82Q286 82 330 124T387 232L434 500H547L480 120Q470 54 468 0H361Q361 50 367 88H365Q337 43 289 17T185
-10Q113 -10 76 28ZM406 712H517L386 555H295L406 712Z" />
<glyph unicode="&#xfb;" glyph-name="ucircumflex" horiz-adv-x="558" d="M113 -10T76 28T39 143Q39 177 46 213L97 500H210L160 215Q155 183 155 165Q155 82 230 82Q286 82 330 124T387 232L434 500H547L480 120Q470 54 468 0H361Q361 50 367 88H365Q337 43 289
17T185 -10Q113 -10 76 28ZM333 711H401L500 555H406L358 636L281 555H178L333 711Z" />
<glyph unicode="&#xfc;" glyph-name="udieresis" horiz-adv-x="558" d="M113 -10T76 28T39 143Q39 177 46 213L97 500H210L160 215Q155 183 155 165Q155 82 230 82Q286 82 330 124T387 232L434 500H547L480 120Q470 54 468 0H361Q361 50 367 88H365Q337 43 289
17T185 -10Q113 -10 76 28ZM212 555T198 568T183 604Q183 636 203 656T257 677Q280 677 294 663T309 627Q309 595 289 575T235 555Q212 555 198 568ZM420 555T405 569T390 605Q390 637 410 657T464 677Q487 677 501 663T516 627Q516 595 496 575T443 555Q420 555
405 569Z" />
<glyph unicode="&#xfd;" glyph-name="yacute" horiz-adv-x="491" d="M523 500L244 -19Q197 -107 135 -151T-3 -196Q-37 -196 -74 -186L-59 -97Q-37 -105 -4 -105Q43 -105 81 -73T161 34L57 500H175L233 160L399 500H523ZM370 712H481L350 555H259L370 712Z" />
<glyph unicode="&#xfe;" glyph-name="thorn" horiz-adv-x="540" d="M139 742H251L201 455Q223 481 261 495T344 510Q423 510 469 459T515 320Q515 226 481 151T387 33T252 -10Q210 -10 177 3T127 39L81 -226H-32L139 742ZM287 75T323 107T380 193T402 311Q402
366 378 395T310 424Q258 424 221 390T173 297L159 218Q155 190 155 177Q155 129 178 102T245 75Q287 75 323 107Z" />
<glyph unicode="&#xff;" glyph-name="ydieresis" horiz-adv-x="491" d="M523 500L244 -19Q197 -107 135 -151T-3 -196Q-37 -196 -74 -186L-59 -97Q-37 -105 -4 -105Q43 -105 81 -73T161 34L57 500H175L233 160L399 500H523ZM176 555T162 568T147 604Q147 636 167
656T221 677Q244 677 258 663T273 627Q273 595 253 575T199 555Q176 555 162 568ZM384 555T369 569T354 605Q354 637 374 657T428 677Q451 677 465 663T480 627Q480 595 460 575T407 555Q384 555 369 569Z" />
<glyph unicode="&#x2013;" glyph-name="endash" horiz-adv-x="540" d="M36 306H523L509 227H22L36 306Z" />
<glyph unicode="&#x2014;" glyph-name="emdash" horiz-adv-x="836" d="M36 306H819L805 227H22L36 306Z" />
<glyph unicode="&#x2018;" glyph-name="quoteleft" horiz-adv-x="331" d="M301 667T275 634T233 568Q237 569 245 569Q267 569 281 554T295 513Q295 471 266 443T194 414Q163 414 144 434T124 489Q124 551 171 625T290 746L329 689Q301 667 275 634Z" />
<glyph unicode="&#x2019;" glyph-name="quoteright" horiz-adv-x="331" d="M282 726T301 706T320 651Q320 589 273 515T155 395L115 452Q142 473 168 506T211 573Q207 572 199 572Q177 572 163 587T149 627Q149 670 177 698T250 726Q282 726 301 706Z" />
<glyph unicode="&#x201a;" glyph-name="quotesinglbase" horiz-adv-x="331" d="M180 148T199 128T218 73Q218 34 196 -15T136 -109T53 -184L13 -127Q42 -105 67 -74T108 -7Q105 -8 97 -8Q75 -8 61 7T47 49Q47 90 76 119T148 148Q180 148 199 128Z" />
<glyph unicode="&#x201c;" glyph-name="quotedblleft" horiz-adv-x="554" d="M124 551T171 625T290 746L329 689Q302 667 276 635T233 568Q237 569 245 569Q267 569 281 554T295 513Q295 471 266 443T194 414Q163 414 144 434T124 489Q124 551 171 625ZM525 666T499
634T457 568Q461 569 468 569Q491 569 505 554T519 513Q519 471 490 443T417 414Q385 414 366 434T347 489Q347 551 394 625T513 746L552 689Q525 666 499 634Z" />
<glyph unicode="&#x201d;" glyph-name="quotedblright" horiz-adv-x="554" d="M282 730T301 710T321 655Q321 593 274 519T156 399L116 456Q144 477 170 510T211 577Q207 576 200 576Q178 576 164 591T149 631Q149 674 178 702T250 730Q282 730 301 710ZM506 730T525
710T544 655Q544 593 497 520T379 399L339 456Q366 477 392 510T435 577Q431 576 423 576Q401 576 387 591T373 631Q373 674 401 702T474 730Q506 730 525 710Z" />
<glyph unicode="&#x201e;" glyph-name="quotedblbase" horiz-adv-x="554" d="M180 148T199 128T218 73Q218 10 171 -63T53 -184L13 -127Q41 -106 66 -74T108 -7Q104 -8 97 -8Q75 -8 61 8T47 49Q47 91 76 119T148 148Q180 148 199 128ZM403 148T422 128T441 73Q441
10 394 -63T276 -184L236 -127Q264 -106 290 -74T331 -7Q328 -8 320 -8Q298 -8 284 8T270 49Q270 91 299 119T371 148Q403 148 422 128Z" />
<glyph unicode="&#x2022;" glyph-name="bullet" horiz-adv-x="368" d="M115 155T83 186T50 266Q50 340 96 387T217 434Q269 434 301 403T334 322Q334 248 288 202T167 155Q115 155 83 186Z" />
<glyph unicode="&#x2039;" glyph-name="guilsinglleft" horiz-adv-x="342" d="M36 260L223 459H346L161 260L276 62H153L36 260Z" />
<glyph unicode="&#x203a;" glyph-name="guilsinglright" horiz-adv-x="342" d="M185 260L70 459H193L310 260L123 62H0L185 260Z" />
</font>
</defs>
</svg>
