<?xml version="1.0" encoding="UTF-8" standalone="no"?>
<!DOCTYPE svg PUBLIC "-//W3C//DTD SVG 1.1//EN" "http://www.w3.org/Graphics/SVG/1.1/DTD/svg11.dtd">
<svg width="100%" height="100%" viewBox="0 0 720 640" version="1.1" xmlns="http://www.w3.org/2000/svg" xmlns:xlink="http://www.w3.org/1999/xlink" xml:space="preserve" xmlns:serif="http://www.serif.com/" style="fill-rule:evenodd;clip-rule:evenodd;stroke-linejoin:round;stroke-miterlimit:2;">
    <g>
        <path d="M646.592,487.457l30.311,4.737c10.259,-12.422 17.333,-27.163 20.604,-42.938c-22.164,18.142 -55.869,8.501 -82.745,18.406c-16.92,6.384 -30.042,20.141 -35.62,37.344l-14.813,15.937c27.121,10.737 57.632,9.058 83.411,-4.592c7.113,-3.857 13.711,-8.594 19.64,-14.099c-10.606,-6.679 -20.788,-14.795 -20.788,-14.795Z" style="fill:#2f2e41;fill-rule:nonzero;"/>
    </g>
    <g>
        <path d="M635.831,438.98l29.242,-9.278c3.643,-15.694 3.4,-32.043 -0.708,-47.621c-11.746,26.123 -46.213,32.526 -65.851,53.377c-12.297,13.26 -17.907,31.425 -15.227,49.31l-6.15,20.871c29.063,-2.486 55.622,-17.596 72.608,-41.31c4.646,-6.624 8.44,-13.807 11.291,-21.379c-12.471,-1.247 -25.205,-3.97 -25.205,-3.97Z" style="fill:#2f2e41;fill-rule:nonzero;"/>
    </g>
    <g>
        <path d="M697.67,530.594l0,0.007c0,0.651 -0.536,1.187 -1.186,1.187l-673.294,0c-0.653,0 -1.19,-0.537 -1.19,-1.19c0,-0.653 0.537,-1.19 1.19,-1.19l673.293,0c0.651,0 1.187,0.535 1.187,1.186Z" style="fill:#ccc;fill-rule:nonzero;"/>
    </g>
    <circle cx="300.998" cy="264.866" r="215" style="fill:#2f2e41;"/>
    <g>
        <path d="M485.998,264.865c0.044,58.493 -27.694,113.66 -74.67,148.51c-1.55,1.16 -3.13,2.29 -4.72,3.39c-63.345,44.033 -147.875,44.033 -211.22,0c-1.59,-1.1 -3.17,-2.23 -4.72,-3.39c-46.942,-34.88 -74.67,-90.027 -74.67,-148.51c0,-58.482 27.728,-113.63 74.67,-148.51c1.55,-1.16 3.13,-2.29 4.72,-3.39c63.345,-44.032 147.875,-44.032 211.22,-0c1.59,1.1 3.17,2.23 4.72,3.39c46.976,34.851 74.714,90.018 74.67,148.51Z" style="fill:#fff;fill-rule:nonzero;"/>
    </g>
    <circle cx="300.998" cy="264.866" r="169" style="fill:#13b655;"/>
    <g>
        <path d="M301.439,96.338c-2.562,0 -5.109,0.067 -7.643,0.18c86.805,7.627 154.202,81.207 154.202,168.346c-0,89.828 -71.622,164.762 -161.358,168.822c4.878,0.423 9.811,0.652 14.799,0.652c92.71,0 169,-76.289 169,-169c0,-92.711 -76.29,-169 -169,-169Z" style="fill-opacity:0.2;fill-rule:nonzero;"/>
    </g>
    <g>
        <path d="M301.498,83.865c-3.015,0.006 -5.495,2.485 -5.5,5.5l0,24c0,3.018 2.482,5.5 5.5,5.5c3.017,0 5.5,-2.482 5.5,-5.5l0,-24c-0.006,-3.015 -2.485,-5.494 -5.5,-5.5Z" style="fill:#fff;fill-rule:nonzero;"/>
    </g>
    <g>
        <path d="M411.328,116.355c-1.55,-1.16 -3.13,-2.29 -4.72,-3.39c-1.939,-0.126 -3.806,0.785 -4.9,2.39l-13.51,19.83c-0.622,0.913 -0.954,1.992 -0.954,3.095c-0,3.017 2.482,5.499 5.499,5.499c1.817,0 3.522,-0.901 4.545,-2.404l13.51,-19.83c1.043,-1.527 1.243,-3.483 0.53,-5.19Z" style="fill:#fff;fill-rule:nonzero;"/>
    </g>
    <g>
        <path d="M472.708,206.775c-0.84,-2.066 -2.859,-3.425 -5.089,-3.425c-0.71,0 -1.414,0.138 -2.071,0.405l-22.24,9.03c-2.067,0.842 -3.425,2.862 -3.425,5.094c0,3.016 2.482,5.499 5.499,5.499c0.708,0 1.41,-0.137 2.066,-0.403l22.24,-9.03c2.79,-1.143 4.152,-4.374 3.02,-7.17Z" style="fill:#fff;fill-rule:nonzero;"/>
    </g>
    <g>
        <path d="M213.798,135.185l-13.51,-19.83c-1.094,-1.605 -2.961,-2.516 -4.9,-2.39c-1.59,1.1 -3.17,2.23 -4.72,3.39c-0.713,1.707 -0.514,3.663 0.53,5.19l13.51,19.83c1.023,1.503 2.727,2.404 4.545,2.404c3.016,0 5.498,-2.482 5.498,-5.499c0,-1.103 -0.332,-2.182 -0.953,-3.095Z" style="fill:#fff;fill-rule:nonzero;"/>
    </g>
    <g>
        <path d="M158.688,212.785l-22.24,-9.03c-0.657,-0.266 -1.36,-0.404 -2.069,-0.404c-3.017,0 -5.5,2.483 -5.5,5.5c-0,2.233 1.36,4.254 3.429,5.094l22.24,9.03c0.656,0.266 1.357,0.403 2.065,0.403c3.017,0 5.499,-2.483 5.499,-5.5c-0,-2.231 -1.358,-4.251 -3.424,-5.093Z" style="fill:#fff;fill-rule:nonzero;"/>
    </g>
    <g>
        <path d="M301.498,410.865c-3.015,0.006 -5.495,2.485 -5.5,5.5l0,24c0,3.018 2.482,5.5 5.5,5.5c3.017,0 5.5,-2.482 5.5,-5.5l0,-24c-0.006,-3.015 -2.485,-5.494 -5.5,-5.5Z" style="fill:#fff;fill-rule:nonzero;"/>
    </g>
    <g>
        <path d="M410.798,408.185l-13.51,-19.83c-1.023,-1.502 -2.728,-2.403 -4.545,-2.403c-3.017,0 -5.499,2.482 -5.499,5.498c0,1.104 0.332,2.183 0.954,3.095l13.51,19.83c1.094,1.606 2.961,2.517 4.9,2.39c1.59,-1.1 3.17,-2.23 4.72,-3.39c0.713,-1.706 0.513,-3.663 -0.53,-5.19Z" style="fill:#fff;fill-rule:nonzero;"/>
    </g>
    <g>
        <path d="M469.688,315.785l-22.24,-9.03c-0.657,-0.266 -1.36,-0.404 -2.069,-0.404c-3.017,-0 -5.5,2.483 -5.5,5.5c0,2.233 1.36,4.254 3.429,5.094l22.24,9.03c0.656,0.266 1.357,0.403 2.065,0.403c3.017,-0 5.499,-2.483 5.499,-5.5c0,-2.231 -1.358,-4.251 -3.424,-5.093Z" style="fill:#fff;fill-rule:nonzero;"/>
    </g>
    <g>
        <path d="M212.348,386.905c-2.494,-1.697 -5.942,-1.042 -7.64,1.45l-13.51,19.83c-1.044,1.527 -1.243,3.484 -0.53,5.19c1.55,1.16 3.13,2.29 4.72,3.39c1.939,0.127 3.806,-0.784 4.9,-2.39l13.51,-19.83c0.621,-0.912 0.954,-1.991 0.954,-3.095c-0,-1.817 -0.902,-3.522 -2.404,-4.545Z" style="fill:#fff;fill-rule:nonzero;"/>
    </g>
    <g>
        <path d="M161.708,309.775c-0.84,-2.066 -2.859,-3.425 -5.089,-3.425c-0.71,0 -1.414,0.138 -2.071,0.405l-22.24,9.03c-2.067,0.842 -3.425,2.862 -3.425,5.094c0,3.016 2.482,5.499 5.499,5.499c0.708,0 1.41,-0.137 2.066,-0.403l22.24,-9.03c2.79,-1.143 4.152,-4.374 3.02,-7.17Z" style="fill:#fff;fill-rule:nonzero;"/>
    </g>
    <g>
        <path d="M308.634,262.136c1.05,6.218 -3.193,12.201 -9.409,13.266l-97.598,16.601c-0.637,0.109 -1.282,0.163 -1.928,0.163c-6.309,-0 -11.5,-5.191 -11.5,-11.5c-0,-5.584 4.066,-10.401 9.571,-11.337l97.598,-16.601c6.218,-1.051 12.201,3.193 13.266,9.408Z" style="fill:#3f3d56;fill-rule:nonzero;"/>
    </g>
    <g>
        <path d="M411.353,370.267c-2.899,2.917 -7.683,2.936 -10.606,0.042l-105.063,-104.239c-1.416,-1.407 -2.213,-3.323 -2.213,-5.319c-0,-4.115 3.386,-7.5 7.5,-7.5c1.976,0 3.874,0.781 5.278,2.171l105.063,104.239c2.916,2.9 2.935,7.684 0.041,10.606Z" style="fill:#3f3d56;fill-rule:nonzero;"/>
    </g>
    <circle cx="300.998" cy="264.866" r="13" style="fill:#ccc;"/>
    <g>
        <path d="M211.454,39.444c-19.955,31.373 -50.402,52.193 -87.95,65.871c-1.221,0.914 -2.706,1.409 -4.232,1.409c-2.221,0 -4.318,-1.049 -5.649,-2.828c-20.396,-27.232 -15.791,-66.153 11.127,-86.962c10.861,-8.381 24.201,-12.93 37.92,-12.93c19.512,0 37.924,9.201 49.638,24.806l0.564,0.753c0.915,1.221 1.409,2.706 1.409,4.231c0,2.222 -1.049,4.318 -2.827,5.65Z" style="fill:#2f2e41;fill-rule:nonzero;"/>
    </g>
    <g>
        <path d="M389.687,28.809c11.714,-15.604 30.126,-24.805 49.638,-24.805c13.719,0 27.059,4.549 37.92,12.93c26.918,20.809 31.524,59.73 11.128,86.962c-1.332,1.779 -3.428,2.828 -5.65,2.828c-1.526,0 -3.011,-0.495 -4.232,-1.409c-34.857,-13.346 -63.442,-36.44 -87.949,-65.871c-3.1,-2.321 -3.74,-6.782 -1.419,-9.881l0.564,-0.754Z" style="fill:#2f2e41;fill-rule:nonzero;"/>
    </g>
    <g>
        <path d="M380.941,451.134c-2.629,1.477 -3.582,4.851 -2.114,7.485l31.742,56.723c0.971,1.735 2.811,2.813 4.799,2.813c3.017,0 5.5,-2.483 5.5,-5.5c-0,-0.94 -0.241,-1.865 -0.7,-2.685l-31.742,-56.723c-1.477,-2.628 -4.851,-3.581 -7.485,-2.113Z" style="fill:#2f2e41;fill-rule:nonzero;"/>
    </g>
    <g>
        <path d="M213.569,453.247l-31.742,56.723c-0.459,0.82 -0.7,1.745 -0.7,2.685c-0,3.017 2.483,5.5 5.5,5.5c1.989,0 3.828,-1.078 4.799,-2.813l31.742,-56.723c0.46,-0.821 0.701,-1.746 0.701,-2.687c-0,-3.017 -2.483,-5.5 -5.5,-5.5c-1.989,0 -3.829,1.079 -4.8,2.815Z" style="fill:#2f2e41;fill-rule:nonzero;"/>
    </g>
    <circle cx="416.998" cy="512.866" r="17" style="fill:#2f2e41;"/>
    <circle cx="428.998" cy="77.866" r="17" style="fill:#2f2e41;"/>
    <circle cx="299.998" cy="37.866" r="17" style="fill:#2f2e41;"/>
    <circle cx="176.998" cy="75.866" r="17" style="fill:#2f2e41;"/>
    <circle cx="187.998" cy="512.866" r="17" style="fill:#2f2e41;"/>
    <g>
        <path d="M403.663,360.706c1.563,2.447 4.273,3.933 7.177,3.933c2.139,0 4.201,-0.806 5.773,-2.256l26.676,14.294l-1.431,-15.662l-25.112,-11.172c-1.591,-1.511 -3.703,-2.354 -5.897,-2.354c-4.697,0 -8.562,3.865 -8.562,8.562c-0,1.652 0.478,3.269 1.376,4.655Z" style="fill:#ffb7b7;fill-rule:nonzero;"/>
    </g>
    <g>
        <path d="M423.099,366.172l10.454,-14.43l50.36,23.807l62.667,-11.758c1.305,-0.245 2.63,-0.369 3.959,-0.369c11.763,0 21.449,9.668 21.471,21.431c0.009,11.774 -9.658,21.476 -21.431,21.511l-71.817,0.133l-55.663,-40.325Z" style="fill:#3f3d56;fill-rule:nonzero;"/>
    </g>
    <path d="M406.999,615.399l-10.577,-5.058l14.529,-44.208l15.609,7.466l-19.561,41.8Z" style="fill:#ffb7b7;fill-rule:nonzero;"/>
    <g>
        <path d="M477.905,608.272c-0.769,0.481 -1.538,0.955 -2.315,1.429c-1.546,0.948 -3.108,1.88 -4.669,2.797c-0.785,0.458 -1.577,0.917 -2.362,1.367l0,0.024l-0.046,0.007l-0.016,0.008l-1.196,0.295l-1.717,-4.537l-0.793,-2.089l-1.118,-2.96l-2.051,-5.415l-10.799,-28.511l16.788,-4.141l0.63,2.571l0.007,0l0.311,1.274l5.866,23.788l1.196,4.864l0.039,0.147l0.722,2.906l0.622,2.517l0.691,2.812l0.21,0.847Z" style="fill:#ffb7b7;fill-rule:nonzero;"/>
    </g>
    <g>
        <path d="M578.053,508.147c-1.064,1.709 -2.152,3.41 -3.247,5.096c-2.035,3.139 -4.125,6.231 -6.269,9.276c0,0.008 -0.008,0.008 -0.016,0.015c-1.251,1.159 -2.633,2.168 -4.117,3.007c-0.062,0.047 -0.132,0.078 -0.195,0.116c-1.093,0.605 -2.257,1.072 -3.464,1.391c-0.435,0.109 -0.878,0.218 -1.313,0.326c-1.57,0.373 -3.123,0.692 -4.669,0.971c-2.75,0.49 -5.469,0.839 -8.173,1.057c-0.218,0.023 -0.435,0.039 -0.653,0.054c-11.117,0.816 -21.938,-0.497 -33.234,-2.649c-5.578,-1.056 -11.273,-2.323 -17.169,-3.636c-1.927,-0.435 -3.861,-0.862 -5.819,-1.289c-0.147,-0.031 -0.303,-0.07 -0.458,-0.101c-2.797,-0.614 -5.64,-1.22 -8.554,-1.818c-3.666,-0.754 -7.45,-1.484 -11.381,-2.175l0.28,5.539c0.233,4.261 1.118,8.461 2.626,12.453c1.678,4.91 3.006,8.794 0.202,16.882l-1.352,3.915c1.419,3.939 0.91,8.324 -1.375,11.832l-0.272,0.412l11.272,28.519l0.731,1.849l-5.773,0l-7.1,0.007l-12.034,0l-17.363,-34.835l-0.831,-1.662l0,-0.086l1.794,-66.943c0.024,-0.59 0.07,-1.188 0.148,-1.779c0.639,-5.42 3.432,-10.361 7.745,-13.704c4.134,-3.23 9.396,-4.67 14.598,-3.993l5.943,0.769l12.142,1.569l8.554,1.111l0.171,0.024l25.225,3.262l1.81,-7.38l0.334,-0.124l10.62,-3.892l36.73,-13.464l0.094,-0.031l2.416,-0.885l0.287,0.466c0.086,0.14 0.171,0.28 0.249,0.419c2.388,4.282 4.332,8.795 5.803,13.471c2.473,7.639 4.509,15.413 6.098,23.283c0.07,0.342 0.132,0.653 0.187,0.933l0.023,0.085c0.023,0.132 0.039,0.218 0.047,0.241c0.847,3.527 0.256,7.831 -1.298,12.096Z" style="fill:#2f2e41;fill-rule:nonzero;"/>
    </g>
    <g>
        <path d="M579.604,483.476c-0.117,-0.497 -0.264,-1.002 -0.42,-1.491c-1.233,-3.707 -2.67,-7.343 -4.304,-10.892c-1.833,-4.04 -4.032,-8.367 -6.65,-13.052c-1.266,-2.268 -2.628,-4.627 -4.086,-7.077c-0.73,-1.227 -1.489,-2.478 -2.276,-3.752c-0.031,-0.059 -0.065,-0.116 -0.101,-0.171l-0.226,-0.373l-36.342,4.863l-13.533,1.81l-0.808,6.744l-0.194,1.67c-0.008,0 -0.008,0 -0,0.008l-0.544,4.552l-0,0.008l-0.722,6.013l-0.062,-0.008l-20.083,-2.602l-20.696,-2.681l-11.117,-1.437c-5.202,-0.678 -10.464,0.762 -14.597,3.993c-4.313,3.344 -7.105,8.285 -7.745,13.704c-0.07,0.544 -0.117,1.104 -0.14,1.655l-10.488,24.852c-6.276,14.863 -10.273,30.588 -11.855,46.644l-7.691,24.588l1.095,0.101l16.299,1.515l4.304,0.404l9.478,-13.836c1.079,-1.577 2.105,-3.201 3.061,-4.864c1.573,-2.715 2.971,-5.528 4.187,-8.421l20.502,-48.788c1.584,0.272 3.154,0.531 4.707,0.777c7.187,1.166 14.085,2.116 20.696,2.851c21.496,2.401 40.11,2.587 56.681,0.552c4.653,-0.567 9.152,-1.313 13.494,-2.237c1.593,-0.334 3.165,-0.694 4.716,-1.08c0.365,-0.086 0.722,-0.171 1.08,-0.264c6.517,-1.681 11.749,-6.57 13.867,-12.959c1.246,-3.646 1.423,-7.574 0.513,-11.319Z" style="fill:#2f2e41;fill-rule:nonzero;"/>
    </g>
    <g>
        <path d="M410.377,608.18l-11.443,-5.485l-1.795,-0.862l-2.866,7.038l-20.012,4.405c-2.172,0.476 -3.732,2.416 -3.732,4.639c-0,1.925 1.171,3.669 2.955,4.396l19.554,7.979l6.207,-5.586l-1.523,7.497l7.365,3.006l8.072,-25.691l-2.782,-1.336Z" style="fill:#2f2e41;fill-rule:nonzero;"/>
    </g>
    <path d="M480.703,597.34l0.731,1.849l-0.731,-0l-0,-1.849Z" style="fill:#2f2e41;fill-rule:nonzero;"/>
    <g>
        <path d="M476.718,599.584l-11.991,4.154l-1.881,0.65l2.915,7.018l-11.121,17.211c-0.497,0.769 -0.762,1.665 -0.762,2.581c-0,2.605 2.143,4.748 4.748,4.748c0.624,-0 1.243,-0.123 1.819,-0.362l19.509,-8.089l0.48,-8.337l4.193,6.399l7.349,-3.046l-12.342,-23.935l-2.916,1.008Z" style="fill:#2f2e41;fill-rule:nonzero;"/>
    </g>
    <g>
        <path d="M576.613,494.732c-0.711,-0.002 -1.413,-0.176 -2.043,-0.507l-63.274,-33.063l-0.731,-2.993l-1.378,-9.472l0.019,-0.088l6.018,-27.744c-0.111,-0.238 -0.341,-0.628 -0.601,-1.07c-2.687,-4.552 -10.863,-18.405 4.741,-37.48l27.395,-31.94l23.513,-1.012l0.268,0.338c12.756,16.012 16.67,37.397 10.41,56.889l-2.448,44.217l2.626,8.929c1.534,5.247 1.281,10.858 -0.722,15.945l0.602,14.459c0.002,0.058 0.003,0.116 0.003,0.174c-0,2.416 -1.982,4.407 -4.398,4.418Z" style="fill:#3f3d56;fill-rule:nonzero;"/>
    </g>
    <g>
        <path d="M521.727,531.197c2.591,-1.53 4.185,-4.323 4.185,-7.332c0,-2.037 -0.731,-4.007 -2.058,-5.552l15.212,-26.162l-15.701,0.885l-12.039,24.708c-1.639,1.61 -2.564,3.813 -2.564,6.11c0,4.697 3.866,8.562 8.563,8.562c1.55,-0 3.072,-0.421 4.402,-1.219Z" style="fill:#ffb7b7;fill-rule:nonzero;"/>
    </g>
    <g>
        <path d="M527.866,511.963l-14.057,-10.949l25.543,-49.501l-9.571,-63.039c-0.162,-1.066 -0.243,-2.143 -0.243,-3.222c0,-11.779 9.692,-21.471 21.471,-21.471c0.236,-0 0.471,0.004 0.706,0.011c11.767,0.401 21.127,10.399 20.752,22.167l-2.364,71.777l-42.237,54.227Z" style="fill:#3f3d56;fill-rule:nonzero;"/>
    </g>
    <g id="f4e08e8b-ef08-4d70-8ad3-b81af8a71ff9-82">
        <path d="M531.677,337.104l-0,-23.287c-0,-17.103 14.074,-31.177 31.177,-31.177c17.096,0 31.166,14.061 31.177,31.157l-0,0.04c5.495,11.451 2.058,16.894 -0,23.267c-0.003,2.295 -1.891,4.182 -4.186,4.186l-53.98,0c-2.295,-0.003 -4.184,-1.89 -4.188,-4.186Z" style="fill:#2f2e41;fill-rule:nonzero;"/>
    </g>
    <circle cx="552.632" cy="316.441" r="23.337" style="fill:#ffb7b7;"/>
    <g>
        <path d="M577.055,322.559c-0.211,-0.034 -0.423,-0.078 -0.634,-0.112c-3.64,-0.645 -7.281,-1.28 -10.91,-1.937l-0.334,-8.226l-4.397,7.369c-10.03,3.329 -19.414,1.447 -28.242,-2.705c-2.912,-1.382 -5.738,-2.94 -8.461,-4.664c1.501,-9.209 7.092,-17.262 15.196,-21.886c0.334,-0.19 0.656,-0.356 0.99,-0.524l0.001,0c0.006,0 0.011,-0.004 0.011,-0.01l0,-0.001c0.567,-0.267 1.146,-0.523 1.725,-0.757c9.235,-3.609 19.768,-1.566 26.985,5.232c7.124,6.802 10.33,18.035 8.07,28.221Z" style="fill:#2f2e41;fill-rule:nonzero;"/>
    </g>
</svg>
