<?xml version="1.0" encoding="UTF-8" standalone="no"?>
<!DOCTYPE svg PUBLIC "-//W3C//DTD SVG 1.1//EN" "http://www.w3.org/Graphics/SVG/1.1/DTD/svg11.dtd">
<svg width="100%" height="100%" viewBox="0 0 720 640" version="1.1" xmlns="http://www.w3.org/2000/svg" xmlns:xlink="http://www.w3.org/1999/xlink" xml:space="preserve" xmlns:serif="http://www.serif.com/" style="fill-rule:evenodd;clip-rule:evenodd;stroke-linejoin:round;stroke-miterlimit:2;">
    <g>
        <path d="M614.529,541.345l16.119,-5.113c2.008,-8.65 1.875,-17.661 -0.389,-26.249c-6.475,14.399 -25.474,17.927 -36.299,29.419c-6.779,7.309 -9.872,17.321 -8.396,27.18l-3.391,11.504c16.02,-1.369 30.66,-9.697 40.024,-22.768c2.561,-3.651 4.653,-7.61 6.225,-11.783c-6.875,-0.688 -13.893,-2.19 -13.893,-2.19Z" style="fill:#f2f2f2;fill-rule:nonzero;"/>
    </g>
    <g>
        <path d="M597.305,520.073l12.147,-11.765c-2.06,-8.638 -6.199,-16.645 -12.055,-23.321c0.626,15.776 -14.806,27.406 -19.369,42.52c-2.808,9.565 -1.111,19.906 4.607,28.071l2.096,11.809c13.728,-8.37 23.117,-22.353 25.669,-38.228c0.664,-4.41 0.77,-8.886 0.316,-13.322c-6.46,2.449 -13.411,4.236 -13.411,4.236Z" style="fill:#f2f2f2;fill-rule:nonzero;"/>
    </g>
    <g>
        <path d="M516.56,94.485l-454.293,0c-0.977,-0.021 -1.769,-0.83 -1.769,-1.807c-0,-0.977 0.792,-1.786 1.769,-1.807l454.293,0c0.977,0.021 1.769,0.83 1.769,1.807c-0,0.977 -0.792,1.786 -1.769,1.807Z" style="fill:#3f3d56;fill-rule:nonzero;"/>
    </g>
    <ellipse cx="93.192" cy="70.823" rx="10.588" ry="10.823" style="fill:#3f3d56;"/>
    <ellipse cx="129.767" cy="70.823" rx="10.588" ry="10.823" style="fill:#3f3d56;"/>
    <ellipse cx="166.342" cy="70.823" rx="10.588" ry="10.823" style="fill:#3f3d56;"/>
    <g>
        <path d="M494.539,62.683l-25.981,-0c-1.065,0.021 -1.929,0.903 -1.929,1.967c0,1.065 0.864,1.946 1.929,1.968l25.981,-0c1.064,-0.022 1.928,-0.903 1.928,-1.968c0,-1.064 -0.864,-1.946 -1.928,-1.967Z" style="fill:#3f3d56;fill-rule:nonzero;"/>
    </g>
    <g>
        <path d="M494.539,70.067l-25.981,0c-1.065,0.022 -1.929,0.903 -1.929,1.968c0,1.064 0.864,1.946 1.929,1.967l25.981,0c1.064,-0.021 1.928,-0.903 1.928,-1.967c0,-1.065 -0.864,-1.946 -1.928,-1.968Z" style="fill:#3f3d56;fill-rule:nonzero;"/>
    </g>
    <g>
        <path d="M494.539,77.442l-25.981,0c-1.065,0.021 -1.929,0.903 -1.929,1.967c0,1.065 0.864,1.947 1.929,1.968l25.981,0c1.064,-0.021 1.928,-0.903 1.928,-1.968c0,-1.064 -0.864,-1.946 -1.928,-1.967Z" style="fill:#3f3d56;fill-rule:nonzero;"/>
    </g>
    <circle cx="95.693" cy="154.795" r="13.089" style="fill:#52506e;"/>
    <g>
        <path d="M429.016,183.78l-342.514,0c-2.139,0 -3.898,-1.76 -3.898,-3.898c-0,-2.138 1.759,-3.897 3.898,-3.897l342.514,-0c2.138,-0 3.898,1.759 3.898,3.897c-0,2.138 -1.76,3.898 -3.898,3.898Z" style="fill:#52506e;fill-rule:nonzero;"/>
    </g>
    <g>
        <path d="M339.185,199.182l-252.683,-0c-2.139,-0 -3.898,-1.76 -3.898,-3.898c-0,-2.138 1.759,-3.898 3.898,-3.898l252.683,-0c2.139,-0 3.898,1.76 3.898,3.898c-0,2.138 -1.759,3.898 -3.898,3.898Z" style="fill:#52506e;fill-rule:nonzero;"/>
    </g>
    <circle cx="95.693" cy="359.1" r="13.089" style="fill:#52506e;"/>
    <g>
        <path d="M429.016,388.085l-342.521,0c-2.138,0 -3.897,-1.76 -3.897,-3.898c-0,-2.138 1.759,-3.898 3.897,-3.898l342.521,0c2.239,0.125 4.035,1.958 4.114,4.199c-0.127,2.016 -1.821,3.606 -3.842,3.606c-0.091,0 -0.181,-0.003 -0.272,-0.009Z" style="fill:#52506e;fill-rule:nonzero;"/>
    </g>
    <g>
        <path d="M339.185,403.487l-252.683,0c-2.139,0 -3.898,-1.76 -3.898,-3.898c-0,-2.139 1.759,-3.898 3.898,-3.898l252.683,0c2.139,0 3.898,1.759 3.898,3.898c-0,2.138 -1.759,3.898 -3.898,3.898Z" style="fill:#52506e;fill-rule:nonzero;"/>
    </g>
    <circle cx="95.693" cy="249.247" r="13.089" style="fill:#52506e;"/>
    <g>
        <path d="M429.016,278.231l-342.514,0c-2.139,0 -3.898,-1.759 -3.898,-3.897c-0,-2.139 1.759,-3.898 3.898,-3.898l342.514,0c2.138,0 3.898,1.759 3.898,3.898c-0,2.138 -1.76,3.897 -3.898,3.897Z" style="fill:#52506e;fill-rule:nonzero;"/>
    </g>
    <g>
        <path d="M381.318,293.633l-294.816,0c-2.139,0 -3.898,-1.759 -3.898,-3.898c0,-2.138 1.759,-3.898 3.898,-3.898l294.816,0c2.139,0 3.898,1.76 3.898,3.898c0,2.139 -1.759,3.898 -3.898,3.898Z" style="fill:#52506e;fill-rule:nonzero;"/>
    </g>
    <g>
        <path d="M361.308,309.035l-274.806,-0c-2.139,-0 -3.898,-1.759 -3.898,-3.898c-0,-2.138 1.759,-3.898 3.898,-3.898l274.806,0c2.139,0 3.898,1.76 3.898,3.898c0,2.139 -1.759,3.898 -3.898,3.898Z" style="fill:#52506e;fill-rule:nonzero;"/>
    </g>
    <circle cx="366.995" cy="384.421" r="96.934" style="fill:#13b655;"/>
    <circle cx="366.861" cy="404.393" r="13.848" style="fill:#3f3d56;"/>
    <circle cx="366.861" cy="404.393" r="6.391" style="fill:#13b655;"/>
    <g>
        <path d="M392.567,435.219l-51.144,0c-10.475,-0.012 -19.09,-8.627 -19.102,-19.101l0,-23.449c0.012,-10.474 8.627,-19.089 19.102,-19.101l51.144,0c10.474,0.012 19.089,8.627 19.101,19.101l0,23.449c-0.012,10.474 -8.628,19.089 -19.101,19.101Zm-51.144,-59.651c-9.378,0.01 -17.091,7.724 -17.102,17.101l0,23.449c0.011,9.378 7.724,17.091 17.102,17.101l51.144,0c9.377,-0.01 17.09,-7.723 17.101,-17.101l0,-23.449c-0.011,-9.377 -7.724,-17.091 -17.101,-17.101l-51.144,0Z" style="fill:#fff;fill-rule:nonzero;"/>
    </g>
    <g>
        <path d="M338.393,422.49l45.396,0c9.843,0 17.942,-8.099 17.942,-17.942l-0,-19.624c-0.003,-2.176 -0.404,-4.333 -1.183,-6.365c4.487,3.378 7.131,8.679 7.131,14.295l-0,19.624c-0,9.843 -8.1,17.942 -17.943,17.942l-45.395,0c-7.432,-0.004 -14.125,-4.628 -16.759,-11.577c3.107,2.366 6.906,3.648 10.811,3.647Z" style="fill:#3f3d56;fill-rule:nonzero;"/>
    </g>
    <path d="M477.409,566.542l-11.154,-0.001l-5.307,-43.027l16.464,0.001l-0.003,43.027Z" style="fill:#a0616a;fill-rule:nonzero;"/>
    <g>
        <path d="M477.802,578.179l-34.303,-0.001l0,-0.434c0.001,-7.325 6.028,-13.351 13.352,-13.352l0.001,0l6.266,-4.753l11.691,4.754l2.994,0l-0.001,13.786Z" style="fill:#2f2e41;fill-rule:nonzero;"/>
    </g>
    <path d="M556.338,566.542l11.155,-0.001l5.307,-43.027l-16.464,0.001l0.002,43.027Z" style="fill:#a0616a;fill-rule:nonzero;"/>
    <g>
        <path d="M555.945,578.179l34.303,-0.001l-0,-0.434c-0.001,-7.325 -6.027,-13.351 -13.352,-13.352l-0.001,0l-6.265,-4.753l-11.691,4.754l-2.995,0l0.001,13.786Z" style="fill:#2f2e41;fill-rule:nonzero;"/>
    </g>
    <g>
        <path d="M460.457,491.896c0.165,-2.455 1.475,-16.032 1.475,-16.032l3.137,-28.795l5.53,-76.328l0.361,-4.996l28.967,-5.562l19.798,-9.491l23.531,7.523l18.323,6.871c0,0 0.032,2.941 0.173,6.494c0.188,4.652 0.518,10.354 1.302,11.837c1.31,2.62 0.98,16.684 0.98,16.684c0,-0 1.302,28.614 2.942,31.751c1.639,3.138 1.969,9.672 1.474,10.982c-0.494,1.309 1.64,35.673 1.64,35.673c0,0 5.476,60.811 2.04,69.981c-3.436,9.169 -16.418,3.163 -16.418,3.163c0,0 0.628,-2.448 -3.137,-3.601c-3.765,-1.153 -15.233,-87.38 -15.233,-87.38c0,0 -2.134,-17.68 -4.095,-22.747c-1.961,-5.067 -3.765,-19.303 -3.765,-19.303c0,-0 -12.11,-23.563 -12.267,-28.803c0,-0 -1.585,-4.902 -3.083,0.494c-1.498,5.397 -5.914,18.323 -5.914,18.323l-4.306,15.876l-5.067,23.72l-3.279,19.97c-0,0 -4.91,26.505 -5.695,27.65c-0.784,1.145 0,25.359 0,25.359c0,0 -3.796,20.621 -9.161,24.221c-5.366,3.601 -19.58,0.058 -19.58,0.058c0,0 -0.838,-51.136 -0.673,-53.592Z" style="fill:#2f2e41;fill-rule:nonzero;"/>
    </g>
    <path d="M472.815,296.13l6.44,19.398l-7.946,9.459l3.499,3.601l-2.581,5.09l-6.73,53.354l36.897,13.993l12.425,-15.578l9.797,15.578l42.694,-10.432l-10.888,-68.037l0,-4.448l-3.074,-8.589l0,-18.182l8.118,-54.122l-24.23,-8.487l-11.585,-9.169l-3.749,12.895l-15.962,-2.839l-0.416,-9.688l-12.213,11.539l-10.284,2.933l-12.314,2.816l-1.569,3.922l3.137,-0.784l-0.509,51.024l1.043,4.753Z" style="fill:#2f2e41;fill-rule:nonzero;"/>
    <g>
        <path d="M461.786,367.105l6.197,-59.982l1.636,-24.687l-17.345,-3.136c0,-0 0.687,17.652 -1.585,27.611c-2.242,9.827 -0.298,58.877 -0.159,60.188c-1.789,1.6 -2.814,3.89 -2.814,6.291c0,4.629 3.81,8.438 8.439,8.438c4.629,0 8.439,-3.809 8.439,-8.438c-0,-2.398 -1.022,-4.685 -2.808,-6.285Z" style="fill:#a0616a;fill-rule:nonzero;"/>
    </g>
    <g>
        <path d="M444.868,319.552l4.823,0.996l16.551,3.428l0.918,0.188l1.953,-7.765l2.267,-2.416l4.314,-22.606l0.227,-1.177l6.518,-13.93l4.51,-41.87l-16.77,3.012c-0.086,0.086 -0.165,0.18 -0.243,0.274c-2.408,2.73 -4.126,6.526 -6.934,10.346c-9.138,12.433 -16.15,42.639 -15.875,59.189c0.007,0.267 -0.267,0.557 -0.597,0.855c-3.193,2.936 -3.891,7.754 -1.662,11.476Z" style="fill:#2f2e41;fill-rule:nonzero;"/>
    </g>
    <g>
        <path d="M569.608,367.105l-6.197,-59.982l-1.635,-24.687l17.344,-3.136c-0,-0 -0.687,17.652 1.585,27.611c2.243,9.827 0.298,58.877 0.159,60.188c1.79,1.6 2.814,3.89 2.814,6.291c-0,4.629 -3.81,8.438 -8.439,8.438c-4.629,0 -8.439,-3.809 -8.439,-8.438c-0,-2.398 1.022,-4.685 2.808,-6.285Z" style="fill:#a0616a;fill-rule:nonzero;"/>
    </g>
    <g>
        <path d="M586.527,319.552l-4.824,0.996l-16.551,3.428l-0.917,0.188l-1.954,-7.765l-2.266,-2.416l-4.315,-22.606l-0.227,-1.177l-6.518,-13.93l1.49,-41.87l10.77,3.012c0.086,0.086 0.165,0.18 0.243,0.274c2.408,2.73 4.126,6.526 6.934,10.346c9.138,12.433 16.15,42.639 15.876,59.189c-0.008,0.267 0.266,0.557 0.596,0.855c3.193,2.936 3.892,7.754 1.663,11.476Z" style="fill:#2f2e41;fill-rule:nonzero;"/>
    </g>
    <g>
        <path d="M497.644,240.595l7.88,-20.667l20.127,-0.369l6.679,21.036l24.006,134.103c0,0 -73.545,20.481 -72.798,-4.138c0.784,-25.884 4.323,-60.268 4.323,-60.268l9.783,-69.697Z" style="fill:#13b655;fill-rule:nonzero;"/>
    </g>
    <circle cx="515.137" cy="190.437" r="23.71" style="fill:#a0616a;"/>
    <g>
        <path d="M490.029,173.237c3.86,-4.201 8.688,-11.892 23.312,-15.121c18.071,-3.991 26.61,12.333 22.053,12.601c13.325,4.035 4.765,31.61 0.945,29.298c-0.033,-0.023 -0.065,-0.048 -0.095,-0.074c-4.15,-3.056 -6.863,-7.691 -7.497,-12.807l-0.725,-6.525c-0.104,5.309 -5.53,6.012 -11.074,4.056c0.666,-2.365 2.538,-4.209 4.914,-4.838c-3.864,3.503 -8.775,5.64 -13.972,6.079c0.551,-2.688 2.239,-5.01 4.625,-6.364l-0.218,-0.215c-2.165,1.826 -4.651,3.233 -7.33,4.15c-3.056,0.876 -6.718,0.402 -8.812,-1.99c-0.564,-0.66 -0.99,-1.426 -1.253,-2.254c0.453,4.205 -2.367,9.004 -4.558,8.18c-1.822,-0.354 -2.885,-11.379 -0.315,-14.176Z" style="fill:#2f2e41;fill-rule:nonzero;"/>
    </g>
    <g>
        <path d="M658.882,578.173l-0,0.007c-0,0.651 -0.535,1.186 -1.186,1.186l-280.294,0c-0.652,0 -1.19,-0.537 -1.19,-1.19c-0,-0.653 0.538,-1.19 1.19,-1.19l280.294,0c0.651,0 1.186,0.536 1.186,1.187Z" style="fill:#ccc;fill-rule:nonzero;"/>
    </g>
    <g>
        <path d="M367.782,331.863c-9.481,0 -17.815,4.292 -22.533,10.735c5.043,-3.671 11.135,-5.626 17.372,-5.575c14.682,0 26.626,10.285 26.626,22.926l0,10.507l5.161,0l0,-15.668c0,-12.641 -11.945,-22.925 -26.626,-22.925Z" style="fill:#3f3d56;fill-rule:nonzero;"/>
    </g>
    <g>
        <path d="M397.953,375.834l-61.918,-0l-0,-18.218c-0,-14.698 13.888,-26.656 30.959,-26.656c17.071,0 30.959,11.958 30.959,26.656l-0,18.218Zm-59.918,-2l57.918,-0l-0,-16.218c-0,-13.595 -12.99,-24.656 -28.959,-24.656c-15.968,0 -28.959,11.061 -28.959,24.656l-0,16.218Z" style="fill:#fff;fill-rule:nonzero;"/>
    </g>
    <g>
        <path d="M382.852,368.879l-31.715,0c-2.951,-0.003 -5.378,-2.431 -5.381,-5.382l-0,-7.25c-0,-10.108 9.527,-18.332 21.238,-18.332c11.711,-0 21.239,8.224 21.239,18.332l-0,7.25c-0.003,2.951 -2.43,5.379 -5.381,5.382Zm-15.858,-28.964c-10.608,-0 -19.238,7.326 -19.238,16.332l-0,7.25c0.001,1.855 1.527,3.38 3.381,3.382l31.715,0c1.854,-0.002 3.379,-1.527 3.381,-3.382l-0,-7.25c-0,-9.006 -8.63,-16.332 -19.239,-16.332Z" style="fill:#fff;fill-rule:nonzero;"/>
    </g>
</svg>
