<?xml version="1.0" encoding="UTF-8" standalone="no"?>
<!DOCTYPE svg PUBLIC "-//W3C//DTD SVG 1.1//EN" "http://www.w3.org/Graphics/SVG/1.1/DTD/svg11.dtd">
<svg width="100%" height="100%" viewBox="0 0 720 640" version="1.1" xmlns="http://www.w3.org/2000/svg" xmlns:xlink="http://www.w3.org/1999/xlink" xml:space="preserve" xmlns:serif="http://www.serif.com/" style="fill-rule:evenodd;clip-rule:evenodd;stroke-linejoin:round;stroke-miterlimit:2;">
    <g>
        <path d="M98.399,580.54l7.71,-12.39l1.54,7.08c0.27,1.24 0.54,2.5 0.79,3.75c2.19,-1.87 4.52,-3.6 6.8,-5.26c7,-5.08 13.997,-10.167 20.99,-15.26l-2.19,12.7c-1.35,7.82 -2.76,15.8 -6.1,22.95c-0.37,0.81 -0.77,1.61 -1.2,2.39l-32.54,-0c-0.262,-0.724 -0.443,-1.476 -0.54,-2.24c-0.008,-0.05 -0.012,-0.1 -0.01,-0.15c-0.51,-4.85 2.17,-9.42 4.75,-13.57Z" style="fill:#f0f0f0;fill-rule:nonzero;"/>
    </g>
    <g>
        <path d="M588.394,41.5l-457.997,0c-8.138,0.013 -14.831,6.706 -14.844,14.844l0,309.058c0.008,8.141 6.704,14.836 14.844,14.844l457.997,0c8.141,-0.008 14.836,-6.703 14.844,-14.844l0,-309.058c-0.013,-8.138 -6.705,-14.831 -14.844,-14.844Z" style="fill:#3f3d56;fill-rule:nonzero;"/>
    </g>
    <g>
        <path d="M585.572,370.014l-300.096,0c-86.959,-0.254 -158.437,-71.733 -158.691,-158.692l0,-151.146c0.001,-4.631 3.807,-8.445 8.438,-8.454l450.349,0c4.631,0.009 8.437,3.823 8.438,8.454l0,301.399c-0.005,4.627 -3.811,8.433 -8.438,8.439Z" style="fill:#fff;fill-rule:nonzero;"/>
    </g>
    <g>
        <path d="M561.933,93.747l-421.389,0c-0.905,-0.02 -1.639,-0.77 -1.639,-1.675c0,-0.906 0.734,-1.656 1.639,-1.676l421.389,0c0.906,0.02 1.64,0.77 1.64,1.676c0,0.905 -0.734,1.655 -1.64,1.675Z" style="fill:#cacaca;fill-rule:nonzero;"/>
    </g>
    <ellipse cx="169.229" cy="71.8" rx="9.821" ry="10.04" style="fill:#3f3d56;"/>
    <ellipse cx="203.155" cy="71.8" rx="9.821" ry="10.04" style="fill:#3f3d56;"/>
    <ellipse cx="237.081" cy="71.8" rx="9.821" ry="10.04" style="fill:#3f3d56;"/>
    <g>
        <path d="M427.516,244.39l-170.648,-0c-6.37,0.082 -11.788,-4.834 -12.325,-11.181c-0.018,-0.27 -0.027,-0.541 -0.027,-0.813c-0,-6.28 4.928,-11.554 11.194,-11.979c0.268,-0.018 0.537,-0.027 0.806,-0.027l171,-0c6.583,-0 12,5.417 12,12c0,6.583 -5.417,12 -12,12Z" style="fill:#13b655;fill-rule:nonzero;"/>
    </g>
    <circle cx="427.832" cy="166.341" r="10.841" style="fill:#7c7a92;"/>
    <g>
        <path d="M426.353,171.984c-0.379,-0 -0.737,-0.179 -0.965,-0.482l-2.957,-3.944c-0.159,-0.21 -0.245,-0.466 -0.245,-0.729c0,-0.661 0.544,-1.206 1.206,-1.206c0.381,-0 0.741,0.181 0.968,0.488l1.935,2.58l4.97,-7.455c0.223,-0.337 0.602,-0.541 1.006,-0.541c0.662,-0 1.206,0.545 1.206,1.206c0,0.237 -0.07,0.468 -0.2,0.666l-5.92,8.88c-0.217,0.325 -0.579,0.526 -0.97,0.537l-0.034,-0Z" style="fill:#fff;fill-rule:nonzero;"/>
    </g>
    <circle cx="427.832" cy="298.341" r="10.841" style="fill:#7c7a92;"/>
    <g>
        <path d="M426.353,303.984c-0.379,0 -0.737,-0.179 -0.965,-0.482l-2.957,-3.944c-0.159,-0.21 -0.245,-0.466 -0.245,-0.729c0,-0.661 0.544,-1.206 1.206,-1.206c0.381,0 0.741,0.181 0.968,0.488l1.935,2.58l4.97,-7.455c0.223,-0.337 0.602,-0.541 1.006,-0.541c0.662,0 1.206,0.545 1.206,1.206c0,0.237 -0.07,0.468 -0.2,0.666l-5.92,8.88c-0.217,0.325 -0.579,0.526 -0.97,0.537l-0.034,0Z" style="fill:#fff;fill-rule:nonzero;"/>
    </g>
    <g>
        <path d="M340.516,178.39l-83.648,-0c-6.37,0.082 -11.788,-4.834 -12.325,-11.181c-0.018,-0.27 -0.027,-0.541 -0.027,-0.813c-0,-6.28 4.928,-11.554 11.194,-11.979c0.268,-0.018 0.537,-0.027 0.806,-0.027l84,-0c6.583,-0 12,5.417 12,12c0,6.583 -5.417,12 -12,12Z" style="fill:#13b655;fill-rule:nonzero;"/>
    </g>
    <g>
        <path d="M427.516,178.89l-171,-0c-6.857,-0 -12.5,-5.643 -12.5,-12.5c-0,-6.858 5.643,-12.5 12.5,-12.5l171,-0c6.857,-0 12.5,5.642 12.5,12.5c0,6.857 -5.643,12.5 -12.5,12.5Zm-171,-23c-5.76,-0 -10.5,4.74 -10.5,10.5c-0,5.76 4.74,10.5 10.5,10.5l171,-0c5.76,-0 10.5,-4.74 10.5,-10.5c0,-5.76 -4.74,-10.5 -10.5,-10.5l-171,-0Z" style="fill:#3f3d56;fill-rule:nonzero;"/>
    </g>
    <g>
        <path d="M427.516,244.89l-171,-0c-6.857,-0 -12.5,-5.643 -12.5,-12.5c-0,-6.858 5.643,-12.5 12.5,-12.5l171,-0c6.857,-0 12.5,5.642 12.5,12.5c0,6.857 -5.643,12.5 -12.5,12.5Zm-171,-23c-5.76,-0 -10.5,4.74 -10.5,10.5c-0,5.76 4.74,10.5 10.5,10.5l171,-0c5.76,-0 10.5,-4.74 10.5,-10.5c0,-5.76 -4.74,-10.5 -10.5,-10.5l-171,-0Z" style="fill:#3f3d56;fill-rule:nonzero;"/>
    </g>
    <g>
        <path d="M304.516,310.39l-47.648,0c-6.37,0.082 -11.788,-4.834 -12.325,-11.181c-0.018,-0.27 -0.027,-0.541 -0.027,-0.813c-0,-6.28 4.928,-11.554 11.194,-11.979c0.268,-0.018 0.537,-0.027 0.806,-0.027l48,-0c6.583,-0 12,5.417 12,12c0,6.583 -5.417,12 -12,12Z" style="fill:#13b655;fill-rule:nonzero;"/>
    </g>
    <g>
        <path d="M427.516,310.89l-171,0c-6.857,0 -12.5,-5.643 -12.5,-12.5c-0,-6.858 5.643,-12.5 12.5,-12.5l171,0c6.857,0 12.5,5.642 12.5,12.5c0,6.857 -5.643,12.5 -12.5,12.5Zm-171,-23c-5.76,0 -10.5,4.74 -10.5,10.5c-0,5.76 4.74,10.5 10.5,10.5l171,0c5.76,0 10.5,-4.74 10.5,-10.5c0,-5.76 -4.74,-10.5 -10.5,-10.5l-171,0Z" style="fill:#3f3d56;fill-rule:nonzero;"/>
    </g>
    <g>
        <path d="M288.517,141.5l-40,0c-2.194,0 -4,-1.806 -4,-4c0,-2.194 1.806,-4 4,-4l40,0c2.194,0 4,1.806 4,4c0,2.194 -1.806,4 -4,4Z" style="fill:#ccc;fill-rule:nonzero;"/>
    </g>
    <g>
        <path d="M288.517,207.5l-40,0c-2.194,0 -4,-1.806 -4,-4c0,-2.194 1.806,-4 4,-4l40,0c2.194,0 4,1.806 4,4c0,2.194 -1.806,4 -4,4Z" style="fill:#ccc;fill-rule:nonzero;"/>
    </g>
    <g>
        <path d="M288.517,273.5l-40,0c-2.194,0 -4,-1.806 -4,-4c0,-2.194 1.806,-4 4,-4l40,0c2.194,0 4,1.806 4,4c0,2.194 -1.806,4 -4,4Z" style="fill:#ccc;fill-rule:nonzero;"/>
    </g>
    <ellipse cx="228.528" cy="137.917" rx="4.346" ry="4.443" style="fill:#3f3d56;"/>
    <ellipse cx="228.528" cy="203.917" rx="4.346" ry="4.443" style="fill:#3f3d56;"/>
    <ellipse cx="228.528" cy="269.917" rx="4.346" ry="4.443" style="fill:#3f3d56;"/>
    <path d="M514.946,585.691l-9.901,-0.001l-4.71,-38.19l14.613,0.001l-0.002,38.19Z" style="fill:#ffb6b6;fill-rule:nonzero;"/>
    <g>
        <path d="M515.294,596.02l-30.447,-0.002l0,-0.385c0.001,-6.5 5.35,-11.85 11.851,-11.85l0.001,-0l5.562,-4.219l10.376,4.219l2.658,0.001l-0.001,12.236Z" style="fill:#2f2e41;fill-rule:nonzero;"/>
    </g>
    <path d="M553.946,585.691l-9.901,-0.001l-4.71,-38.19l14.613,0.001l-0.002,38.19Z" style="fill:#ffb6b6;fill-rule:nonzero;"/>
    <g>
        <path d="M554.294,596.02l-30.447,-0.002l0,-0.385c0.001,-6.5 5.35,-11.85 11.851,-11.85l0.001,-0l5.562,-4.219l10.376,4.219l2.658,0.001l-0.001,12.236Z" style="fill:#2f2e41;fill-rule:nonzero;"/>
    </g>
    <g>
        <path d="M480.874,346.5l-7,24l8.247,101.645c-0,0 -4.247,6.355 -1.247,6.355c3,0 6.847,1.409 4.424,5.205c-2.424,3.795 5.86,17.421 5.86,17.421l11.716,72.374l14.929,-0.22c0,0 7.591,-4.229 3.331,-8.504c-4.26,-4.276 -7.26,-4.276 -3.26,-8.276c4,-4 4,-2.795 4,-5.898c0,-3.102 4.008,-41.015 -5.496,-55.559l2.864,-59.295l6.744,58.161l13.888,77.591l14.382,-0.118c0,0 6.643,-6.403 6.631,-11.143c-0.013,-4.739 -4.105,-5.133 -1.059,-7.936c3.046,-2.803 3.046,-45.866 -5.954,-69.803l0.069,-107.071c-0,0 8.843,-24.031 -0.113,-33.48c-8.956,-9.449 -72.956,4.551 -72.956,4.551Z" style="fill:#2f2e41;fill-rule:nonzero;"/>
    </g>
    <g>
        <path d="M571.015,304.626l6.029,-62.449c0.511,-5.471 -3.518,-10.412 -8.981,-11.01c-5.522,-0.605 -10.564,3.442 -11.169,8.964c-0.019,0.178 -0.034,0.357 -0.044,0.536l-4.274,65.061l-4.263,39.425c-3.726,1.119 -6.294,4.573 -6.294,8.463c0,4.847 3.99,8.837 8.837,8.837c4.848,-0 8.838,-3.99 8.838,-8.837c0,-1.389 -0.328,-2.759 -0.956,-3.998l12.277,-44.992Z" style="fill:#ffb6b6;fill-rule:nonzero;"/>
    </g>
    <g>
        <path d="M548.407,210.522l21.722,2.723c0,0 16.276,30.679 12.926,33.282c-3.35,2.604 -18.488,18.847 -29.648,11.401c-11.161,-7.446 -5,-47.406 -5,-47.406Z" style="fill:#3f3d56;fill-rule:nonzero;"/>
    </g>
    <circle cx="510.998" cy="158.032" r="23.056" style="fill:#ffb6b6;"/>
    <g>
        <path d="M519.907,179.198c-6.616,-0.217 -7.217,-1.964 -13.833,-2.182c-2.107,-0.069 -4.593,-0.357 -5.611,-2.203c-0.601,-1.4 -0.51,-3.005 0.246,-4.328c0.755,-1.297 1.436,-2.635 2.039,-4.009c0.242,-0.721 0.366,-1.476 0.366,-2.236c0,-3.842 -3.161,-7.003 -7.003,-7.003c-0.1,0 -0.201,0.002 -0.302,0.006c-2.013,0.087 -3.904,1.034 -5.912,1.207c-2.754,0.238 -8.843,-8.854 -7.575,-11.31c1.234,-2.391 3.718,-4.194 4.108,-6.856c0.255,-1.741 -0.463,-3.471 -0.561,-5.228c-0.146,-2.605 6.457,3.269 5.248,0.957c-2.967,-5.671 24.987,-12.701 29.59,-5.598c1.72,2.655 4.785,2.474 7.517,4.068c1.791,1.045 6.312,4.65 7.34,6.897c0.945,2.293 1.391,4.761 1.31,7.239c0.041,11.527 -1.715,22.129 -11.012,28.942" style="fill:#2f2e41;fill-rule:nonzero;"/>
    </g>
    <g>
        <path d="M504.874,187.5l19,-4l14.594,7.02c0,-0 34.519,13.885 34.402,27.576c-0.118,13.691 -6.185,43.691 -13.151,46.691c-6.967,3 6.033,13 2.033,19c-4,6 -10.059,46.991 -10.059,46.991c-0,0 14.165,28.218 2.181,33.722c-11.984,5.504 -62.629,10.649 -65.875,3.468c-3.247,-7.181 -3.277,-3.262 -10.762,-5.221c-7.485,-1.96 0.008,-29.432 6.762,-32.196c6.753,-2.764 10.753,-62.764 10.753,-62.764l-10.753,-46.653l16.407,-23.095l4.468,-10.539Z" style="fill:#3f3d56;fill-rule:nonzero;"/>
    </g>
    <g>
        <path d="M491.567,315.739l17.165,-60.346c1.488,-5.289 -1.587,-10.874 -6.853,-12.445c-5.323,-1.589 -11.011,1.485 -12.599,6.808c-0.051,0.172 -0.098,0.345 -0.14,0.519l-15.909,63.231l-11.287,38.014c-4.452,0.497 -7.858,4.303 -7.858,8.783c-0,4.848 3.99,8.837 8.838,8.837c4.848,-0 8.837,-3.989 8.837,-8.837c0,-0.852 -0.123,-1.698 -0.365,-2.514l20.171,-42.05Z" style="fill:#ffb6b6;fill-rule:nonzero;"/>
    </g>
    <g>
        <path d="M486.258,219.103l20.878,6.587c0,0 13.579,19.94 8.496,22.785c-5.084,2.845 -6.991,2.243 -4.38,7.261c2.611,5.018 6.375,3.06 2.611,5.018c-3.763,1.959 -21.577,15.213 -31.216,5.881c-9.638,-9.333 3.611,-47.532 3.611,-47.532Z" style="fill:#3f3d56;fill-rule:nonzero;"/>
    </g>
    <g>
        <path d="M1,596.625l0,0.011c0,0.649 0.533,1.184 1.183,1.186l715.297,-0c0.653,-0 1.19,-0.537 1.19,-1.19c0,-0.653 -0.537,-1.19 -1.19,-1.19l-715.294,0c-0.649,0 -1.184,0.533 -1.186,1.183Z" style="fill:#ccc;fill-rule:nonzero;"/>
    </g>
    <circle cx="427.832" cy="232.341" r="20.412" style="fill:#13b655;"/>
    <g>
        <path d="M425.048,242.965c-0.715,-0 -1.388,-0.337 -1.817,-0.908l-5.568,-7.425c-0.295,-0.393 -0.454,-0.871 -0.454,-1.363c0,-1.245 1.025,-2.27 2.27,-2.27c0.714,0 1.388,0.337 1.817,0.908l3.643,4.857l9.357,-14.035c0.42,-0.635 1.132,-1.018 1.894,-1.018c1.245,0 2.27,1.025 2.27,2.271c0,0.445 -0.131,0.881 -0.377,1.252l-11.146,16.72c-0.409,0.612 -1.09,0.99 -1.826,1.01l-0.063,0.001Z" style="fill:#fff;fill-rule:nonzero;"/>
    </g>
</svg>
