<?xml version="1.0" standalone="no"?>
<!DOCTYPE svg PUBLIC "-//W3C//DTD SVG 1.1//EN" "http://www.w3.org/Graphics/SVG/1.1/DTD/svg11.dtd">
<svg xmlns="http://www.w3.org/2000/svg">
<defs >
<font id="Sarabun" horiz-adv-x="540" ><font-face
    font-family="Sarabun Medium"
    units-per-em="1000"
    panose-1="0 0 6 0 0 0 0 0 0 0"
    ascent="1068"
    descent="-232"
    alphabetic="0" />
<glyph unicode=" " glyph-name="space" horiz-adv-x="240" />
<glyph unicode="!" glyph-name="exclam" horiz-adv-x="243" d="M62 700H181L168 202H75L62 700ZM87 -10T66 10T45 63Q45 95 66 115T121 136Q155 136 176 116T198 63Q198 31 177 11T121 -10Q87 -10 66 10Z" />
<glyph unicode="&quot;" glyph-name="quotedbl" horiz-adv-x="371" d="M45 710H151L141 458H55L45 710ZM220 710H326L316 458H230L220 710Z" />
<glyph unicode="#" glyph-name="numbersign" horiz-adv-x="693" d="M556 425L537 274H624V194H527L503 0H402L426 194H237L213 0H112L136 194H50V274H146L165 425H69V506H175L199 700H300L276 506H465L489 700H590L566 506H643V425H556ZM455 425H266L247 274H436L455
425Z" />
<glyph unicode="$" glyph-name="dollar" horiz-adv-x="533" d="M500 109T452 59T320 -6V-80H231V-8Q170 -1 119 28T35 104L100 168Q131 128 178 104T270 79Q325 79 358 106T392 177Q392 207 381 228T340 269T255 318Q147 371 103 418T59 531Q59 602 105 649T231
707V769H320V707Q377 699 420 672T486 602L416 550Q392 584 357 602T280 621Q228 621 198 598T168 533Q168 508 180 490T225 452T326 398Q421 352 460 304T500 185Q500 109 452 59Z" />
<glyph unicode="%" glyph-name="percent" horiz-adv-x="925" d="M136 308T91 363T45 509Q45 599 90 654T210 710Q283 710 328 655T374 509Q374 419 329 364T210 308Q136 308 91 363ZM619 700H730L301 -13H191L619 700ZM244 384T264 418T284 509Q284 565 264 599T210
633Q176 633 156 599T135 509Q135 452 155 418T210 384Q244 384 264 418ZM641 -10T596 45T551 192Q551 282 596 337T715 393Q789 393 834 338T880 192Q880 101 835 46T715 -10Q641 -10 596 45ZM749 67T769 101T789 192Q789 248 769 282T715 316Q681 316 661 282T641
192Q641 135 661 101T715 67Q749 67 769 101Z" />
<glyph unicode="&amp;" glyph-name="ampersand" horiz-adv-x="678" d="M587 -10Q543 24 499 61Q455 27 401 9T287 -10Q212 -10 156 16T68 90T37 199Q37 262 73 313T177 397Q122 483 122 553Q122 622 170 666T298 710Q375 710 422 668T470 558Q470 441 321 362L326
356Q387 284 493 191Q529 248 539 326H636Q626 213 565 129L648 62L587 -10ZM264 629T243 608T221 552Q221 497 278 417Q325 448 348 485T371 556Q371 589 352 609T300 629Q264 629 243 608ZM373 79T431 122Q311 230 244 308Q230 324 224 332Q188 308 168 275T148
204Q148 148 188 114T297 79Q373 79 431 122Z" />
<glyph unicode="&apos;" glyph-name="quotesingle" horiz-adv-x="196" d="M45 710H151L141 458H55L45 710Z" />
<glyph unicode="(" glyph-name="parenleft" horiz-adv-x="330" d="M119 5T80 109T40 344Q40 475 79 578T195 750H300Q228 690 188 583T147 344Q147 212 187 105T300 -62H195Q119 5 80 109Z" />
<glyph unicode=")" glyph-name="parenright" horiz-adv-x="330" d="M102 -2T142 105T183 344Q183 476 143 583T30 750H135Q211 682 250 579T290 344Q290 213 251 109T135 -62H30Q102 -2 142 105Z" />
<glyph unicode="*" glyph-name="asterisk" horiz-adv-x="448" d="M83 396L174 513L30 504V581L174 571L83 688L158 731L224 601L290 731L365 688L274 571L418 581V504L274 513L365 396L290 353L224 483L158 353L83 396Z" />
<glyph unicode="+" glyph-name="plus" horiz-adv-x="610" d="M258 223H50V301H258V524H352V301H561V223H352V0H258V223Z" />
<glyph unicode="," glyph-name="comma" horiz-adv-x="265" d="M169 135T190 110T212 40Q212 -16 181 -78T99 -180L56 -131Q80 -108 99 -76T127 -8Q123 -9 115 -9Q91 -9 74 10T57 58Q57 92 78 113T134 135Q169 135 190 110Z" />
<glyph unicode="-" glyph-name="hyphen" horiz-adv-x="340" d="M30 301H310V231H30V301Z" />
<glyph unicode="." glyph-name="period" horiz-adv-x="265" d="M102 -10T83 10T63 63Q63 95 82 115T133 135Q164 135 183 115T202 63Q202 31 183 11T133 -10Q102 -10 83 10Z" />
<glyph unicode="/" glyph-name="slash" horiz-adv-x="433" d="M357 725H456L76 -43H-23L357 725Z" />
<glyph unicode="0" glyph-name="zero" horiz-adv-x="555" d="M160 -10T97 81T34 350Q34 527 97 618T278 710Q396 710 458 619T521 350Q521 173 459 82T278 -10Q160 -10 97 81ZM344 71T378 141T412 350Q412 490 378 559T278 629Q143 629 143 350Q143 211 177 141T278
71Q344 71 378 141Z" />
<glyph unicode="1" glyph-name="one" horiz-adv-x="555" d="M125 84H243V574L107 495V593L281 700H352V84H469V0H125V84Z" />
<glyph unicode="2" glyph-name="two" horiz-adv-x="555" d="M61 87Q131 138 202 208T322 358T372 510Q372 561 343 591T263 621Q215 621 171 597T101 533L43 596Q76 649 134 679T264 710Q366 710 424 658T483 513Q483 413 405 303T206 84H512V0H61V87Z" />
<glyph unicode="3" glyph-name="three" horiz-adv-x="555" d="M195 -10T136 18T47 95L101 157Q128 122 173 101T267 79Q327 79 363 112T400 200Q400 259 355 292T231 325H187V408H230Q296 408 336 441T376 529Q376 573 347 597T266 621Q217 621 175 601T104 543L52
605Q85 653 145 681T277 710Q339 710 386 689T459 630T485 541Q485 483 452 438T359 371Q433 351 471 306T510 194Q510 134 481 88T397 16T271 -10Q195 -10 136 18Z" />
<glyph unicode="4" glyph-name="four" horiz-adv-x="555" d="M343 116H26V202L326 700H452V205H529V116H452V0H343V116ZM343 205V564L127 205H343Z" />
<glyph unicode="5" glyph-name="five" horiz-adv-x="555" d="M193 -10T134 18T42 95L92 165Q123 124 167 102T260 79Q325 79 363 120T401 234Q401 302 367 342T274 382Q238 382 206 364T157 315H66L99 700H489V611H197L180 425Q199 443 233 454T302 465Q365 465
413 437T487 357T513 236Q513 162 483 107T396 21T264 -10Q193 -10 134 18Z" />
<glyph unicode="6" glyph-name="six" horiz-adv-x="555" d="M210 -10T156 23T72 117T42 257Q42 368 96 467T245 633T453 713L463 630Q373 611 299 555T192 418Q206 433 232 443T290 454Q360 454 410 425T487 342T514 221Q514 154 486 102T405 20T283 -10Q210 -10
156 23ZM339 79T373 118T407 222Q407 287 373 326T282 365Q225 365 191 326T156 222Q156 157 190 118T282 79Q339 79 373 118Z" />
<glyph unicode="7" glyph-name="seven" horiz-adv-x="555" d="M186 185T227 330T377 611H50V700H506V620Q401 506 346 348T291 0H181Q186 185 227 330Z" />
<glyph unicode="8" glyph-name="eight" horiz-adv-x="555" d="M166 -10T102 44T37 194Q37 254 67 302T153 372Q112 390 87 433T61 527Q61 610 120 660T278 710Q376 710 435 660T494 527Q494 477 469 434T403 372Q457 350 487 302T518 194Q518 100 454 45T278 -10Q166
-10 102 44ZM327 412T356 440T385 517Q385 564 356 592T278 621Q229 621 200 593T170 517Q170 469 199 441T278 412Q327 412 356 440ZM339 79T374 113T409 207Q409 265 374 299T278 333Q217 333 182 300T146 207Q146 148 181 114T278 79Q339 79 374 113Z" />
<glyph unicode="9" glyph-name="nine" horiz-adv-x="555" d="M93 71Q189 91 266 148T370 283Q354 268 326 258T266 247Q198 247 147 277T69 359T42 479Q42 546 70 598T151 680T273 710Q346 710 400 677T484 582T514 439Q514 321 463 224T319 64T109 -13L93 71ZM331
330T365 370T400 478Q400 543 366 582T274 621Q217 621 183 582T149 478Q149 410 182 370T273 330Q331 330 365 370Z" />
<glyph unicode=":" glyph-name="colon" horiz-adv-x="265" d="M102 340T83 360T63 412Q63 444 82 464T133 484Q163 484 182 464T202 412Q202 381 183 361T133 340Q102 340 83 360ZM102 -11T83 9T63 61Q63 93 82 113T133 134Q163 134 182 114T202 61Q202 30 183
10T133 -11Q102 -11 83 9Z" />
<glyph unicode=";" glyph-name="semicolon" horiz-adv-x="265" d="M102 340T83 360T63 412Q63 444 82 464T133 484Q163 484 182 464T202 412Q202 381 183 361T133 340Q102 340 83 360ZM170 135T191 110T213 40Q213 -16 182 -78T100 -180L57 -131Q81 -108 100 -76T128
-8Q124 -9 116 -9Q92 -9 75 10T58 58Q58 92 79 113T135 135Q170 135 191 110Z" />
<glyph unicode="&lt;" glyph-name="less" horiz-adv-x="610" d="M58 262V309L551 571V485L178 285L551 86V0L58 262Z" />
<glyph unicode="=" glyph-name="equal" horiz-adv-x="610" d="M63 404H547V323H63V404ZM63 197H547V115H63V197Z" />
<glyph unicode="&gt;" glyph-name="greater" horiz-adv-x="610" d="M58 86L431 285L58 485V571L551 309V262L58 0V86Z" />
<glyph unicode="?" glyph-name="question" horiz-adv-x="460" d="M176 185T176 213Q176 255 195 291T253 378Q288 424 305 456T322 523Q322 575 295 601T217 628Q178 628 143 606T84 544L30 606Q59 655 110 682T228 709Q324 709 376 662T429 531Q429 486 409 449T347
364Q308 317 289 284T269 209Q269 185 273 170H181Q176 185 176 213ZM199 -10T180 8T160 57Q160 87 179 105T230 124Q261 124 280 106T300 57Q300 27 281 9T230 -10Q199 -10 180 8Z" />
<glyph unicode="@" glyph-name="at" horiz-adv-x="798" d="M276 -148T199 -104T78 21T34 204Q34 318 82 407T218 546T417 596Q517 596 595 555T716 438T760 268Q760 198 736 142T668 54T568 19L533 18L510 80Q485 50 445 31T366 11Q301 11 261 49T220 148Q220
210 269 249T396 289H489V309Q489 347 465 370T401 394Q364 394 329 377T273 332L234 374Q260 409 307 431T402 454Q472 454 515 410T559 294V150Q559 133 563 114T573 82Q623 90 654 141T685 265Q685 341 651 400T557 491T417 524Q329 524 261 484T154 371T115
205Q115 123 149 59T244 -40T384 -76Q430 -76 476 -65T549 -35L578 -93Q545 -118 489 -133T376 -148Q276 -148 199 -104ZM402 70T428 84T472 118T489 157V235H401Q352 235 323 212T294 149Q294 112 317 91T374 70Q402 70 428 84Z" />
<glyph unicode="A" glyph-name="A" horiz-adv-x="611" d="M436 139H175L132 0H16L256 700H355L595 0H479L436 139ZM408 228L306 559L203 228H408Z" />
<glyph unicode="B" glyph-name="B" horiz-adv-x="595" d="M77 700H276Q521 700 521 530Q521 474 496 437T418 377V374Q487 353 518 312T549 202Q549 0 316 0H77V700ZM295 410Q352 410 382 438T412 520Q412 569 380 591T276 614H186V410H295ZM315 86Q377 86 409
116T441 206Q441 270 402 299T276 329H186V86H315Z" />
<glyph unicode="C" glyph-name="C" horiz-adv-x="597" d="M248 -10T179 34T71 159T33 350Q33 460 71 541T179 666T345 710Q422 710 482 680T570 596L508 538Q454 621 347 621Q249 621 196 551T143 350Q143 221 195 150T342 79Q400 79 441 99T508 162L570 104Q541
50 482 20T342 -10Q248 -10 179 34Z" />
<glyph unicode="D" glyph-name="D" horiz-adv-x="629" d="M77 700H308Q447 700 517 616T588 364Q588 234 557 155T458 38T280 0H77V700ZM296 89Q392 89 435 154T479 364Q479 492 437 551T304 611H186V89H296Z" />
<glyph unicode="E" glyph-name="E" horiz-adv-x="558" d="M77 700H512V611H186V412H477V323H186V89H512V0H77V700Z" />
<glyph unicode="F" glyph-name="F" horiz-adv-x="558" d="M77 700H517V611H186V385H495V296H186V0H77V700Z" />
<glyph unicode="G" glyph-name="G" horiz-adv-x="642" d="M585 368V0H507L492 43Q425 -10 325 -10Q235 -10 169 33T68 158T33 350Q33 459 71 540T180 665T344 710Q424 710 485 680T575 596L513 538Q487 579 445 600T345 621Q249 621 196 550T143 350Q143 218 194
146T337 73Q378 73 414 84T477 118V289H315V368H585Z" />
<glyph unicode="H" glyph-name="H" horiz-adv-x="683" d="M76 700H185V399H498V700H607V0H498V310H185V0H76V700Z" />
<glyph unicode="I" glyph-name="I" horiz-adv-x="302" d="M97 700H206V0H97V700Z" />
<glyph unicode="J" glyph-name="J" horiz-adv-x="457" d="M125 -10T80 6T6 49L49 125Q72 104 104 92T167 79Q223 79 247 116T272 240V700H382V224Q382 103 331 47T172 -10Q125 -10 80 6Z" />
<glyph unicode="K" glyph-name="K" horiz-adv-x="622" d="M492 0L281 338L185 221V0H76V700H185V366L453 700H580L353 424L612 0H492Z" />
<glyph unicode="L" glyph-name="L" horiz-adv-x="554" d="M76 700H185V89H521V0H76V700Z" />
<glyph unicode="M" glyph-name="M" horiz-adv-x="804" d="M727 700V0H620V491L440 0H364L184 491V0H77V700H198L402 130L606 700H727Z" />
<glyph unicode="N" glyph-name="N" horiz-adv-x="688" d="M612 700V0H507L185 523V0H76V700H187L503 184V700H612Z" />
<glyph unicode="O" glyph-name="O" horiz-adv-x="671" d="M243 -10T175 33T70 158T33 350Q33 461 69 542T174 666T336 710Q429 710 497 667T601 542T638 350Q638 239 602 158T497 34T336 -10Q243 -10 175 33ZM425 77T477 150T529 350Q529 477 477 550T336 623Q247
623 195 550T142 350Q142 267 165 205T233 110T336 77Q425 77 477 150Z" />
<glyph unicode="P" glyph-name="P" horiz-adv-x="579" d="M77 700H292Q410 700 471 645T532 484Q532 372 469 313T287 254H186V0H77V700ZM299 343Q361 343 394 378T427 480Q427 544 392 577T291 611H186V343H299Z" />
<glyph unicode="Q" glyph-name="Q" horiz-adv-x="671" d="M638 209T580 118T417 0Q499 -31 623 -41L605 -117Q519 -109 430 -78T278 -5Q163 15 98 108T33 350Q33 461 69 542T174 666T336 710Q429 710 497 667T601 542T638 350Q638 209 580 118ZM142 267T165 205T233
110T336 77Q425 77 477 150T529 350Q529 477 477 550T336 623Q247 623 195 550T142 350Q142 267 165 205Z" />
<glyph unicode="R" glyph-name="R" horiz-adv-x="586" d="M77 700H302Q418 700 475 653T532 510Q532 441 499 393T406 325V323Q426 310 438 295T459 260L564 0H447L361 222Q346 262 324 275T252 289H186V0H77V700ZM294 377Q427 377 427 501Q427 557 394 584T291
611H186V377H294Z" />
<glyph unicode="S" glyph-name="S" horiz-adv-x="536" d="M194 -10T133 20T35 104L100 168Q131 128 178 104T270 79Q325 79 358 106T392 177Q392 207 381 228T340 269T255 318Q147 371 103 418T59 531Q59 584 86 625T163 688T278 710Q348 710 404 681T486 602L416
550Q392 584 357 602T280 621Q228 621 198 598T168 533Q168 508 180 490T225 452T326 398Q421 352 460 304T500 185Q500 127 471 83T389 14T265 -10Q194 -10 133 20Z" />
<glyph unicode="T" glyph-name="T" horiz-adv-x="569" d="M230 617H16V700H552V617H339V0H230V617Z" />
<glyph unicode="U" glyph-name="U" horiz-adv-x="659" d="M202 -10T137 61T71 274V700H181V276Q181 79 330 79Q478 79 478 276V700H588V274Q588 134 523 62T330 -10Q202 -10 137 61Z" />
<glyph unicode="V" glyph-name="V" horiz-adv-x="617" d="M601 700L360 0H257L16 700H132L309 144L485 700H601Z" />
<glyph unicode="W" glyph-name="W" horiz-adv-x="845" d="M818 700L673 0H566L423 557L279 0H173L26 700H143L234 173L369 700H476L611 175L701 700H818Z" />
<glyph unicode="X" glyph-name="X" horiz-adv-x="622" d="M248 359L41 700H166L311 442L456 700H581L374 359L590 0H468L311 270L155 0H32L248 359Z" />
<glyph unicode="Y" glyph-name="Y" horiz-adv-x="591" d="M241 279L16 700H136L295 381L454 700H574L351 279V0H241V279Z" />
<glyph unicode="Z" glyph-name="Z" horiz-adv-x="575" d="M32 57L395 611H60V700H531V641L169 89H544V0H32V57Z" />
<glyph unicode="[" glyph-name="bracketleft" horiz-adv-x="316" d="M55 700H286V623H162V-32H286V-109H55V700Z" />
<glyph unicode="\" glyph-name="backslash" horiz-adv-x="383" d="M-23 725H76L456 -43H357L-23 725Z" />
<glyph unicode="]" glyph-name="bracketright" horiz-adv-x="316" d="M30 -32H154V623H30V700H261V-109H30V-32Z" />
<glyph unicode="^" glyph-name="asciicircum" horiz-adv-x="590" d="M253 700H338L550 225H453L295 592L138 225H40L253 700Z" />
<glyph unicode="_" glyph-name="underscore" horiz-adv-x="335" d="M0 -223H335V-299H0V-223Z" />
<glyph unicode="`" glyph-name="grave" horiz-adv-x="400" d="M87 714H185L271 554H192L87 714Z" />
<glyph unicode="a" glyph-name="a" horiz-adv-x="519" d="M157 -10T119 10T59 65T37 146Q37 222 95 262T260 303H354V328Q354 378 327 405T248 432Q203 432 164 415T100 364L53 423Q89 465 140 487T252 510Q348 510 401 464T454 332V100Q454 55 466 0H379Q369
24 365 67H363Q306 -10 206 -10Q157 -10 119 10ZM279 67T316 96T354 168V234H256Q197 234 166 212T134 146Q134 109 158 88T225 67Q279 67 316 96Z" />
<glyph unicode="b" glyph-name="b" horiz-adv-x="547" d="M259 -10T216 13T151 75H149Q150 51 148 0H56Q59 32 59 128V742H158V438H160Q207 510 309 510Q405 510 460 443T516 259Q516 134 460 62T305 -10Q259 -10 216 13ZM349 68T383 118T417 257Q417 342 384
388T289 435Q231 435 195 396T158 295V200Q158 139 193 104T289 68Q349 68 383 118Z" />
<glyph unicode="c" glyph-name="c" horiz-adv-x="479" d="M158 -10T95 59T32 250Q32 373 95 441T271 510Q336 510 385 485T463 413L404 360Q383 394 349 413T275 432Q207 432 169 384T131 250Q131 165 169 117T275 68Q315 68 349 87T404 140L463 87Q435 40 386
15T271 -10Q158 -10 95 59Z" />
<glyph unicode="d" glyph-name="d" horiz-adv-x="547" d="M144 -10T88 62T32 259Q32 335 58 391T132 479T244 510Q334 510 388 438H390V742H489V128Q489 32 492 0H400Q398 22 398 75H396Q373 37 331 14T242 -10Q144 -10 88 62ZM318 68T354 103T390 200V295Q390
357 354 396T258 435Q198 435 165 389T131 257Q131 168 164 118T258 68Q318 68 354 103Z" />
<glyph unicode="e" glyph-name="e" horiz-adv-x="526" d="M492 212H136Q144 144 179 109T277 74Q365 74 419 143L474 90Q445 43 391 17T272 -10Q160 -10 98 58T35 249Q35 371 98 440T271 510Q375 510 433 442T492 250V212ZM398 290Q398 355 363 392T267 429Q210
429 176 391T135 283H398V290Z" />
<glyph unicode="f" glyph-name="f" horiz-adv-x="346" d="M92 430H9V500H92V562Q92 634 135 675T254 717Q286 717 314 707T361 679L325 619Q300 641 263 641Q230 641 211 619T191 557V500H333V430H191V0H92V430Z" />
<glyph unicode="g" glyph-name="g" horiz-adv-x="546" d="M489 500V17Q489 -105 429 -168T251 -231Q197 -231 149 -219T62 -182L95 -112Q171 -149 247 -149Q395 -149 395 32V67Q375 32 337 13T247 -6Q146 -6 89 64T32 258Q32 376 88 443T242 510Q294 510 333 490T395
431H397L407 500H489ZM390 282Q390 355 357 395T263 435Q201 435 166 388T131 255Q131 168 165 121T263 73Q323 73 356 109T390 210V282Z" />
<glyph unicode="h" glyph-name="h" horiz-adv-x="561" d="M57 742H156V428Q178 466 222 488T319 510Q406 510 455 452T504 291V0H405V288Q405 359 378 397T298 435Q236 435 196 390T156 273V0H57V742Z" />
<glyph unicode="i" glyph-name="i" horiz-adv-x="254" d="M96 577T78 594T60 640Q60 669 78 686T127 703Q158 703 176 686T195 640Q195 611 177 594T127 577Q96 577 78 594ZM78 500H177V0H78V500Z" />
<glyph unicode="j" glyph-name="j" horiz-adv-x="258" d="M107 577T89 594T70 640Q70 668 88 685T138 703Q169 703 187 686T206 640Q206 612 188 595T138 577Q107 577 89 594ZM-17 -195T-54 -186L-49 -115Q-32 -117 -2 -117Q49 -117 70 -91T91 -7V500H191V-9Q191
-195 22 -195Q-17 -195 -54 -186Z" />
<glyph unicode="k" glyph-name="k" horiz-adv-x="502" d="M385 0L226 245L157 177V0H57V742H157V296L361 500H482L293 312L497 0H385Z" />
<glyph unicode="l" glyph-name="l" horiz-adv-x="294" d="M124 -10T95 22T66 119V742H165V119Q165 88 176 75T214 62Q235 62 266 75L281 18Q242 -10 181 -10Q124 -10 95 22Z" />
<glyph unicode="m" glyph-name="m" horiz-adv-x="841" d="M57 372Q57 448 52 500H140Q144 463 144 412H147Q166 457 208 483T305 510Q358 510 396 485T447 413Q468 458 510 484T606 510Q689 510 735 457T782 309V0H683V300Q683 362 657 396T581 430Q531 430 500
394T468 299V0H370V296Q370 430 272 430Q240 430 214 412T171 363T155 296V0H57V372Z" />
<glyph unicode="n" glyph-name="n" horiz-adv-x="554" d="M56 372Q56 465 52 500H144Q149 463 149 412H152Q172 457 217 483T319 510Q495 510 495 282V0H396V283Q396 358 371 394T294 430Q233 430 194 386T155 274V0H56V372Z" />
<glyph unicode="o" glyph-name="o" horiz-adv-x="564" d="M167 -10T101 59T35 250Q35 371 101 440T282 510Q397 510 463 441T530 250Q530 129 464 60T282 -10Q167 -10 101 59ZM351 65T391 114T431 250Q431 336 391 385T282 435Q212 435 173 386T134 250Q134 164
173 115T282 65Q351 65 391 114Z" />
<glyph unicode="p" glyph-name="p" horiz-adv-x="552" d="M60 372Q60 442 56 500H148Q151 466 151 425H153Q175 464 217 487T311 510Q407 510 462 441T517 250Q517 130 461 60T307 -10Q257 -10 219 8T162 61H159V-242H60V372ZM349 65T383 115T418 253Q418 340
385 386T291 432Q233 432 196 396T159 300V205Q159 144 195 105T289 65Q349 65 383 115Z" />
<glyph unicode="q" glyph-name="q" horiz-adv-x="552" d="M393 65H390Q369 30 330 10T243 -10Q147 -10 91 60T35 251Q35 372 90 441T243 510Q295 510 337 488T399 427H401Q401 464 404 500H496Q492 442 492 372V-242H393V65ZM320 65T356 104T393 205V300Q393 359
357 395T261 432Q199 432 167 386T134 253Q134 165 168 115T262 65Q320 65 356 104Z" />
<glyph unicode="r" glyph-name="r" horiz-adv-x="366" d="M63 378Q63 463 60 500H153Q157 460 157 412V402H160Q180 453 223 481T326 510Q342 510 355 507V427Q348 429 324 429Q280 429 243 404T184 335T162 239V0H63V378Z" />
<glyph unicode="s" glyph-name="s" horiz-adv-x="424" d="M145 -10T98 14T32 78L95 121Q112 95 141 80T204 65Q243 65 268 87T294 143Q294 170 274 187T200 225Q113 258 78 292T42 378Q42 438 89 474T216 510Q267 510 309 489T375 430L316 386Q299 410 274 422T217
435Q183 435 162 420T140 381Q140 356 162 340T248 298Q328 267 360 234T393 147Q393 76 341 33T204 -10Q145 -10 98 14Z" />
<glyph unicode="t" glyph-name="t" horiz-adv-x="391" d="M180 -10T141 32T101 150V424H11V500H101V632L196 660H200V500H343V424H200V162Q200 113 219 90T279 67Q319 67 350 79L356 8Q319 -10 250 -10Q180 -10 141 32Z" />
<glyph unicode="u" glyph-name="u" horiz-adv-x="555" d="M146 -10T102 46T57 213V500H156V212Q156 140 181 105T257 70Q317 70 356 115T396 229V500H495V113Q495 59 504 0H411Q403 43 402 89H399Q379 43 334 17T232 -10Q146 -10 102 46Z" />
<glyph unicode="v" glyph-name="v" horiz-adv-x="495" d="M484 500L292 0H204L12 500H114L248 118L381 500H484Z" />
<glyph unicode="w" glyph-name="w" horiz-adv-x="681" d="M669 500L543 0H455L341 394L227 0H138L12 500H115L190 140L296 500H385L491 140L566 500H669Z" />
<glyph unicode="x" glyph-name="x" horiz-adv-x="480" d="M189 254L25 500H135L240 327L345 500H455L292 254L468 0H357L240 188L123 0H12L189 254Z" />
<glyph unicode="y" glyph-name="y" horiz-adv-x="476" d="M465 500L280 -14Q213 -199 66 -199Q38 -199 2 -190V-113Q23 -121 52 -121Q101 -121 135 -86T200 30L14 500H120L246 137L358 500H465Z" />
<glyph unicode="z" glyph-name="z" horiz-adv-x="459" d="M24 55L306 424H38V500H425V447L147 76H435V0H24V55Z" />
<glyph unicode="{" glyph-name="braceleft" horiz-adv-x="330" d="M175 -114T138 -77T101 37V202Q101 231 84 248T35 268V329Q67 330 84 347T101 394V559Q101 635 138 672T255 710H298V632H254Q227 632 216 617T204 568V395Q204 360 190 337T139 298Q175 283 189
259T204 201V28Q204 -5 215 -20T254 -36H298V-114H255Q175 -114 138 -77Z" />
<glyph unicode="|" glyph-name="bar" horiz-adv-x="247" d="M75 700H172V-160H75V700Z" />
<glyph unicode="}" glyph-name="braceright" horiz-adv-x="330" d="M32 -36H76Q103 -36 114 -21T126 28V201Q126 234 141 258T192 298Q155 314 141 337T127 395V568Q127 600 115 616T76 632H32V710H75Q155 710 192 672T230 559V394Q230 364 246 347T295 329V268Q263
266 246 249T229 202V37Q229 -39 192 -76T75 -114H32V-36Z" />
<glyph unicode="~" glyph-name="asciitilde" horiz-adv-x="610" d="M60 211Q60 273 98 311T196 349Q225 349 253 338T321 303Q355 285 374 277T411 268Q439 268 453 290T468 349H553V328Q553 264 517 225T420 186Q390 186 362 198T292 233Q258 251 240 259T204
268Q177 268 162 246T144 186H60V211Z" />
<glyph unicode="&#xa0;" glyph-name="uni00A0" horiz-adv-x="240" />
<glyph unicode="&#xa1;" glyph-name="exclamdown" horiz-adv-x="243" d="M87 364T66 384T45 438Q45 470 66 490T121 510Q155 510 176 490T198 438Q198 405 177 385T121 364Q87 364 66 384ZM75 298H168L181 -201H62L75 298Z" />
<glyph unicode="&#xa2;" glyph-name="cent" horiz-adv-x="478" d="M315 138T349 157T404 210L463 157Q438 115 397 91T299 61V-28H232V62Q137 74 85 141T32 320Q32 432 84 499T232 578V668H299V579Q355 574 396 550T463 483L404 430Q383 464 349 483T275 502Q207
502 169 454T131 320Q131 235 169 187T275 138Q315 138 349 157Z" />
<glyph unicode="&#xa3;" glyph-name="sterling" horiz-adv-x="541" d="M276 201T258 156T200 80H482V0H53V64Q108 93 141 142T175 239Q175 258 168 305H73V374H156Q139 472 139 515Q139 604 192 657T332 710Q375 710 416 695T483 654L448 579Q427 598 398 610T342
622Q296 622 269 591T242 508Q242 480 256 394L259 374H422V305H271Q276 268 276 247Q276 201 258 156Z" />
<glyph unicode="&#xa4;" glyph-name="currency" horiz-adv-x="620" d="M269 61T230 74T157 110L98 52L31 117L87 173Q63 205 50 247T36 331Q36 372 49 415T87 489L31 545L98 610L157 552Q191 575 230 588T308 601Q348 601 388 588T461 552L523 610L589 541L532
489Q556 459 569 417T582 331Q582 287 569 245T532 173L589 117L523 53L461 110Q429 87 389 74T308 61Q269 61 230 74ZM360 150T400 173T463 237T486 331Q486 384 464 426T401 491T309 515Q259 515 219 492T156 426T133 331Q133 279 155 238T218 173T309 150Q360
150 400 173Z" />
<glyph unicode="&#xa5;" glyph-name="yen" horiz-adv-x="598" d="M402 368H529V294H363L355 279V217H529V145H355V0H245V145H69V217H245V279L237 294H69V367H198L21 700H141L300 381L459 700H579L402 368Z" />
<glyph unicode="&#xa6;" glyph-name="brokenbar" horiz-adv-x="247" d="M75 700H172V313H75V700ZM75 227H172V-160H75V227Z" />
<glyph unicode="&#xa7;" glyph-name="section" horiz-adv-x="536" d="M491 128T491 65Q491 -15 429 -60T267 -105Q194 -105 137 -78T45 -5L107 58Q140 19 181 -1T269 -22Q320 -22 351 0T382 61Q382 86 367 103T328 134T252 171Q245 174 236 178T217 186Q156 213
126 231T76 276T57 344Q57 403 103 446Q57 487 57 546Q57 595 84 632T160 690T268 710Q340 710 393 683T474 607L415 562Q392 593 355 610T273 627Q224 627 195 605T166 550Q166 526 180 509T222 477T314 433Q374 406 408 386T467 336T491 262Q491 234 482 211T451
165Q491 128 491 65ZM154 324T178 307T262 263L314 238Q362 216 380 207Q399 237 399 256Q399 276 387 290T345 320T252 364Q207 384 175 400Q154 378 154 348Q154 324 178 307Z" />
<glyph unicode="&#xa8;" glyph-name="dieresis" horiz-adv-x="400" d="M73 554T57 570T41 610Q41 635 57 650T98 666Q122 666 138 650T155 610Q155 586 139 570T98 554Q73 554 57 570ZM278 554T262 570T245 610Q245 634 261 650T302 666Q327 666 343 651T359 610Q359
586 343 570T302 554Q278 554 262 570Z" />
<glyph unicode="&#xa9;" glyph-name="copyright" horiz-adv-x="806" d="M298 -10T216 36T87 164T40 350Q40 454 86 536T215 664T403 710Q508 710 590 664T719 536T766 350Q766 246 720 164T591 36T403 -10Q298 -10 216 36ZM488 50T555 88T661 195T699 350Q699
436 661 504T556 611T403 650Q318 650 251 612T146 505T108 350Q108 264 146 196T251 89T403 50Q488 50 555 88ZM356 140T316 166T253 241T230 353Q230 451 280 508T413 566Q459 566 495 546T547 494L506 452Q474 501 413 501Q363 501 334 461T304 353Q304 286
333 246T410 205Q469 205 506 256L547 212Q529 181 492 161T410 140Q356 140 316 166Z" />
<glyph unicode="&#xaa;" glyph-name="ordfeminine" horiz-adv-x="362" d="M97 361T67 390T36 465Q36 514 70 541T170 568H240V582Q240 616 224 632T173 649Q118 649 86 605L49 647Q96 707 182 707Q247 707 281 676T316 588V436Q316 401 323 368H254Q253 372 246
411Q233 388 206 375T145 361Q97 361 67 390ZM200 414T220 435T240 484V519H185Q111 519 111 465Q111 440 126 427T166 414Q200 414 220 435Z" />
<glyph unicode="&#xab;" glyph-name="guillemotleft" horiz-adv-x="538" d="M35 260L190 457H297L146 260L297 63H190L35 260ZM240 260L396 457H503L351 260L503 63H396L240 260Z" />
<glyph unicode="&#xac;" glyph-name="logicalnot" horiz-adv-x="610" d="M472 333H40V405H570V126H472V333Z" />
<glyph unicode="&#xad;" glyph-name="uni00AD" horiz-adv-x="340" d="M30 301H310V231H30V301Z" />
<glyph unicode="&#xae;" glyph-name="registered" horiz-adv-x="522" d="M324 710T372 684T446 610T472 500Q472 438 446 391T372 317T261 291Q199 291 151 317T77 390T50 500Q50 562 76 610T151 684T261 710Q324 710 372 684ZM335 334T381 378T427 498Q427 574
383 620T263 666Q187 666 141 622T95 502Q95 426 139 380T259 334Q335 334 381 378ZM351 487T298 474L347 383H297L250 470H221V383H174V622H269Q351 622 351 549Q351 487 298 474ZM282 510T293 519T305 549Q305 568 295 575T256 582H221V510H258Q282 510 293 519Z"
/>
<glyph unicode="&#xaf;" glyph-name="overscore" horiz-adv-x="400" d="M30 632H370V574H30V632Z" />
<glyph unicode="&#xb0;" glyph-name="degree" horiz-adv-x="317" d="M99 447T62 483T25 578Q25 636 62 673T158 710Q218 710 255 674T292 578Q292 520 255 484T158 447Q99 447 62 483ZM191 503T212 524T233 578Q233 612 212 633T158 655Q125 655 105 634T84 578Q84
545 104 524T158 503Q191 503 212 524Z" />
<glyph unicode="&#xb1;" glyph-name="plusminus" horiz-adv-x="610" d="M352 305V124H258V305H50V378H258V558H352V378H561V305H352ZM58 72H553V0H58V72Z" />
<glyph unicode="&#xb2;" glyph-name="uni00B2" horiz-adv-x="410" d="M47 276Q125 331 192 411T260 560Q260 591 241 609T189 627Q157 627 130 611T84 567L34 619Q59 660 102 682T197 705Q273 705 315 668T358 564Q358 501 309 430T177 281H376V208H47V276Z" />
<glyph unicode="&#xb3;" glyph-name="uni00B3" horiz-adv-x="410" d="M146 199T103 219T39 275L86 329Q107 304 137 290T197 276Q233 276 254 297T276 352Q276 387 250 407T177 428H136V498H176Q214 498 237 518T260 571Q260 597 242 612T192 627Q162 627 133
613T84 576L39 630Q64 665 109 685T205 705Q274 705 315 671T357 581Q357 545 336 514T279 467Q324 451 349 419T374 345Q374 279 327 239T201 199Q146 199 103 219Z" />
<glyph unicode="&#xb4;" glyph-name="acute" horiz-adv-x="400" d="M203 714H302L197 554H118L203 714Z" />
<glyph unicode="&#xb5;" glyph-name="uni00B5" horiz-adv-x="555" d="M57 500H155V212Q155 144 181 107T261 70Q321 70 358 116T396 232V500H495V113Q495 63 504 0H412Q403 37 402 78H399Q357 -10 261 -10Q230 -10 202 0T155 31V-211H57V500Z" />
<glyph unicode="&#xb6;" glyph-name="paragraph" horiz-adv-x="539" d="M272 267H266Q201 267 150 292T69 365T40 474Q40 586 112 643T327 700H449V-93H394V654H324V-93H272V267Z" />
<glyph unicode="&#xb7;" glyph-name="middot" horiz-adv-x="264" d="M101 190T82 210T62 262Q62 294 81 314T132 334Q162 334 181 314T201 262Q201 231 182 211T132 190Q101 190 82 210Z" />
<glyph unicode="&#xb8;" glyph-name="cedilla" horiz-adv-x="400" d="M165 -237T142 -233T105 -221L118 -171Q128 -176 145 -179T176 -183Q197 -183 211 -174T225 -145Q225 -128 206 -119T152 -110L126 -82L179 13H246L205 -63Q246 -63 270 -84T295 -141Q295 -183
266 -210T187 -237Q165 -237 142 -233Z" />
<glyph unicode="&#xb9;" glyph-name="uni00B9" horiz-adv-x="410" d="M86 281H166V588L74 534V621L200 698H265V281H343V208H86V281Z" />
<glyph unicode="&#xba;" glyph-name="ordmasculine" horiz-adv-x="390" d="M118 361T74 407T30 534Q30 614 74 660T195 707Q272 707 316 661T360 534Q360 454 316 408T195 361Q118 361 74 407ZM238 416T260 447T283 534Q283 590 261 621T195 652Q152 652 130 621T107
534Q107 478 129 447T195 416Q238 416 260 447Z" />
<glyph unicode="&#xbb;" glyph-name="guillemotright" horiz-adv-x="538" d="M187 260L35 457H143L297 260L143 63H35L187 260ZM393 260L240 457H348L503 260L348 63H240L393 260Z" />
<glyph unicode="&#xbc;" glyph-name="onequarter" horiz-adv-x="985" d="M658 706H741L342 -28H260L658 706ZM83 333H155V606L73 558V635L185 704H242V333H312V268H83V333ZM779 68H586V132L770 435H867V132H912V68H867V0H779V68ZM779 132V336L657 132H779Z" />
<glyph unicode="&#xbd;" glyph-name="onehalf" horiz-adv-x="985" d="M622 706H704L305 -28H223L622 706ZM83 333H155V606L73 558V635L185 704H242V333H312V268H83V333ZM627 60Q697 110 757 181T817 313Q817 340 800 356T753 373Q725 373 701 359T660 319L616
365Q638 402 677 422T761 442Q828 442 866 409T904 316Q904 213 743 65H920V0H627V60Z" />
<glyph unicode="&#xbe;" glyph-name="threequarters" horiz-adv-x="985" d="M140 261T102 279T45 328L87 376Q105 354 131 342T185 330Q217 330 236 348T255 397Q255 428 232 446T167 464H131V526H166Q200 526 220 544T241 592Q241 615 225 628T181 642Q154 642
129 630T85 596L44 644Q67 675 107 693T192 711Q254 711 291 681T328 600Q328 568 309 541T258 499Q298 486 320 457T343 391Q343 332 301 297T188 261Q140 261 102 279ZM648 706H730L331 -28H249L648 706ZM768 68H576V132L760 435H856V132H901V68H856V0H768V68ZM768
132V336L647 132H768Z" />
<glyph unicode="&#xbf;" glyph-name="questiondown" horiz-adv-x="460" d="M199 376T180 395T160 443Q160 472 179 491T230 510Q260 510 280 491T300 443Q300 414 280 395T230 376Q199 376 180 395ZM136 -211T83 -163T30 -32Q30 13 50 49T112 135Q151 181 171
215T191 291Q191 308 187 330H279Q284 314 284 287Q284 244 265 208T207 121Q171 73 154 42T137 -25Q137 -76 164 -102T243 -129Q282 -129 317 -107T376 -44L429 -107Q401 -155 349 -183T232 -211Q136 -211 83 -163Z" />
<glyph unicode="&#xc0;" glyph-name="Agrave" horiz-adv-x="611" d="M436 139H175L132 0H16L256 700H355L595 0H479L436 139ZM408 228L306 559L203 228H408ZM166 906H265L345 754H266L166 906Z" />
<glyph unicode="&#xc1;" glyph-name="Aacute" horiz-adv-x="611" d="M436 139H175L132 0H16L256 700H355L595 0H479L436 139ZM408 228L306 559L203 228H408ZM349 906H449L348 754H269L349 906Z" />
<glyph unicode="&#xc2;" glyph-name="Acircumflex" horiz-adv-x="611" d="M436 139H175L132 0H16L256 700H355L595 0H479L436 139ZM408 228L306 559L203 228H408ZM274 904H338L457 754H371L306 839L241 754H155L274 904Z" />
<glyph unicode="&#xc3;" glyph-name="Atilde" horiz-adv-x="611" d="M436 139H175L132 0H16L256 700H355L595 0H479L436 139ZM408 228L306 559L203 228H408ZM152 804T177 834T241 864Q260 864 277 857T316 836Q333 826 343 822T362 817Q389 817 392 868H453Q452
814 427 784T361 754Q341 754 323 762T282 784Q280 785 266 793T243 801Q231 801 223 789T213 754H152Q152 804 177 834Z" />
<glyph unicode="&#xc4;" glyph-name="Adieresis" horiz-adv-x="611" d="M436 139H175L132 0H16L256 700H355L595 0H479L436 139ZM408 228L306 559L203 228H408ZM179 754T163 770T147 810Q147 835 163 850T204 866Q228 866 244 850T261 810Q261 786 245 770T204
754Q179 754 163 770ZM384 754T368 770T351 810Q351 834 367 850T408 866Q433 866 449 851T465 810Q465 786 449 770T408 754Q384 754 368 770Z" />
<glyph unicode="&#xc5;" glyph-name="Aring" horiz-adv-x="611" d="M436 139H175L132 0H16L256 700H355L595 0H479L436 139ZM408 228L306 559L203 228H408ZM263 718T235 744T207 811Q207 852 235 878T306 904Q349 904 377 878T405 811Q405 770 377 744T306 718Q263
718 235 744ZM328 760T342 774T356 811Q356 833 342 847T306 862Q284 862 270 848T256 811Q256 789 270 775T306 760Q328 760 342 774Z" />
<glyph unicode="&#xc6;" glyph-name="AE" horiz-adv-x="809" d="M484 612V410H729V323H484V88H762V0H375V129H192L137 0H16L338 700H762V612H484ZM375 213V563L227 213H375Z" />
<glyph unicode="&#xc7;" glyph-name="Ccedilla" horiz-adv-x="597" d="M400 79T441 99T508 162L570 104Q544 56 495 27T379 -8L349 -63Q390 -63 415 -82T441 -136Q441 -177 412 -202T333 -228Q310 -228 287 -224T251 -212L260 -168Q289 -177 320 -177Q343 -177
357 -167T371 -139Q371 -122 352 -113T297 -104L274 -78L313 -9Q227 -2 164 43T67 167T33 350Q33 460 71 541T179 666T345 710Q422 710 482 680T570 596L508 538Q454 621 347 621Q249 621 196 551T143 350Q143 221 195 150T342 79Q400 79 441 99Z" />
<glyph unicode="&#xc8;" glyph-name="Egrave" horiz-adv-x="558" d="M77 700H512V611H186V412H477V323H186V89H512V0H77V700ZM158 906H257L337 754H258L158 906Z" />
<glyph unicode="&#xc9;" glyph-name="Eacute" horiz-adv-x="558" d="M77 700H512V611H186V412H477V323H186V89H512V0H77V700ZM341 906H441L340 754H261L341 906Z" />
<glyph unicode="&#xca;" glyph-name="Ecircumflex" horiz-adv-x="558" d="M77 700H512V611H186V412H477V323H186V89H512V0H77V700ZM266 904H330L449 754H363L298 839L233 754H147L266 904Z" />
<glyph unicode="&#xcb;" glyph-name="Edieresis" horiz-adv-x="558" d="M77 700H512V611H186V412H477V323H186V89H512V0H77V700ZM171 754T155 770T139 810Q139 835 155 850T196 866Q220 866 236 850T253 810Q253 786 237 770T196 754Q171 754 155 770ZM376 754T360
770T343 810Q343 834 359 850T400 866Q425 866 441 851T457 810Q457 786 441 770T400 754Q376 754 360 770Z" />
<glyph unicode="&#xcc;" glyph-name="Igrave" horiz-adv-x="302" d="M97 700H206V0H97V700ZM12 906H111L191 754H112L12 906Z" />
<glyph unicode="&#xcd;" glyph-name="Iacute" horiz-adv-x="302" d="M97 700H206V0H97V700ZM195 906H295L194 754H115L195 906Z" />
<glyph unicode="&#xce;" glyph-name="Icircumflex" horiz-adv-x="302" d="M97 700H206V0H97V700ZM120 904H184L303 754H217L152 839L87 754H1L120 904Z" />
<glyph unicode="&#xcf;" glyph-name="Idieresis" horiz-adv-x="302" d="M97 700H206V0H97V700ZM25 754T9 770T-7 810Q-7 835 9 850T50 866Q74 866 90 850T107 810Q107 786 91 770T50 754Q25 754 9 770ZM230 754T214 770T197 810Q197 834 213 850T254 866Q279 866
295 851T311 810Q311 786 295 770T254 754Q230 754 214 770Z" />
<glyph unicode="&#xd0;" glyph-name="Eth" horiz-adv-x="633" d="M450 700T520 616T591 364Q591 234 560 155T461 38T284 0H80V297H9V379H80V700H311Q450 700 520 616ZM396 89T439 154T482 364Q482 492 440 551T308 611H189V379H380V297H189V89H299Q396 89 439 154Z" />
<glyph unicode="&#xd1;" glyph-name="Ntilde" horiz-adv-x="688" d="M612 700V0H507L185 523V0H76V700H187L503 184V700H612ZM190 804T215 834T279 864Q298 864 315 857T354 836Q371 826 381 822T400 817Q427 817 430 868H491Q490 814 465 784T399 754Q379 754
361 762T320 784Q318 785 304 793T281 801Q269 801 261 789T251 754H190Q190 804 215 834Z" />
<glyph unicode="&#xd2;" glyph-name="Ograve" horiz-adv-x="671" d="M243 -10T175 33T70 158T33 350Q33 461 69 542T174 666T336 710Q429 710 497 667T601 542T638 350Q638 239 602 158T497 34T336 -10Q243 -10 175 33ZM425 77T477 150T529 350Q529 477 477 550T336
623Q247 623 195 550T142 350Q142 267 165 205T233 110T336 77Q425 77 477 150ZM196 906H295L375 754H296L196 906Z" />
<glyph unicode="&#xd3;" glyph-name="Oacute" horiz-adv-x="671" d="M243 -10T175 33T70 158T33 350Q33 461 69 542T174 666T336 710Q429 710 497 667T601 542T638 350Q638 239 602 158T497 34T336 -10Q243 -10 175 33ZM425 77T477 150T529 350Q529 477 477 550T336
623Q247 623 195 550T142 350Q142 267 165 205T233 110T336 77Q425 77 477 150ZM379 906H479L378 754H299L379 906Z" />
<glyph unicode="&#xd4;" glyph-name="Ocircumflex" horiz-adv-x="671" d="M243 -10T175 33T70 158T33 350Q33 461 69 542T174 666T336 710Q429 710 497 667T601 542T638 350Q638 239 602 158T497 34T336 -10Q243 -10 175 33ZM425 77T477 150T529 350Q529 477 477
550T336 623Q247 623 195 550T142 350Q142 267 165 205T233 110T336 77Q425 77 477 150ZM304 904H368L487 754H401L336 839L271 754H185L304 904Z" />
<glyph unicode="&#xd5;" glyph-name="Otilde" horiz-adv-x="671" d="M243 -10T175 33T70 158T33 350Q33 461 69 542T174 666T336 710Q429 710 497 667T601 542T638 350Q638 239 602 158T497 34T336 -10Q243 -10 175 33ZM425 77T477 150T529 350Q529 477 477 550T336
623Q247 623 195 550T142 350Q142 267 165 205T233 110T336 77Q425 77 477 150ZM182 804T207 834T271 864Q290 864 307 857T346 836Q363 826 373 822T392 817Q419 817 422 868H483Q482 814 457 784T391 754Q371 754 353 762T312 784Q310 785 296 793T273 801Q261
801 253 789T243 754H182Q182 804 207 834Z" />
<glyph unicode="&#xd6;" glyph-name="Odieresis" horiz-adv-x="671" d="M243 -10T175 33T70 158T33 350Q33 461 69 542T174 666T336 710Q429 710 497 667T601 542T638 350Q638 239 602 158T497 34T336 -10Q243 -10 175 33ZM425 77T477 150T529 350Q529 477 477
550T336 623Q247 623 195 550T142 350Q142 267 165 205T233 110T336 77Q425 77 477 150ZM209 754T193 770T177 810Q177 835 193 850T234 866Q258 866 274 850T291 810Q291 786 275 770T234 754Q209 754 193 770ZM414 754T398 770T381 810Q381 834 397 850T438 866Q463
866 479 851T495 810Q495 786 479 770T438 754Q414 754 398 770Z" />
<glyph unicode="&#xd7;" glyph-name="multiply" horiz-adv-x="610" d="M304 198L123 7L59 65L243 260L59 454L122 512L304 322L487 512L550 454L366 260L550 65L487 7L304 198Z" />
<glyph unicode="&#xd8;" glyph-name="Oslash" horiz-adv-x="671" d="M582 596T610 522T638 350Q638 239 602 158T497 34T336 -10Q258 -10 198 20L164 -43H78L135 64Q85 111 59 184T33 350Q33 461 69 542T174 666T336 710Q404 710 462 685L483 725H573L529 642Q582
596 610 522ZM142 235T186 163L419 603Q381 623 336 623Q247 623 195 550T142 350Q142 235 186 163ZM425 77T477 150T529 350Q529 475 479 548L242 104Q283 77 336 77Q425 77 477 150Z" />
<glyph unicode="&#xd9;" glyph-name="Ugrave" horiz-adv-x="659" d="M202 -10T137 61T71 274V700H181V276Q181 79 330 79Q478 79 478 276V700H588V274Q588 134 523 62T330 -10Q202 -10 137 61ZM190 906H289L369 754H290L190 906Z" />
<glyph unicode="&#xda;" glyph-name="Uacute" horiz-adv-x="659" d="M202 -10T137 61T71 274V700H181V276Q181 79 330 79Q478 79 478 276V700H588V274Q588 134 523 62T330 -10Q202 -10 137 61ZM373 906H473L372 754H293L373 906Z" />
<glyph unicode="&#xdb;" glyph-name="Ucircumflex" horiz-adv-x="659" d="M202 -10T137 61T71 274V700H181V276Q181 79 330 79Q478 79 478 276V700H588V274Q588 134 523 62T330 -10Q202 -10 137 61ZM298 904H362L481 754H395L330 839L265 754H179L298 904Z" />
<glyph unicode="&#xdc;" glyph-name="Udieresis" horiz-adv-x="659" d="M202 -10T137 61T71 274V700H181V276Q181 79 330 79Q478 79 478 276V700H588V274Q588 134 523 62T330 -10Q202 -10 137 61ZM203 754T187 770T171 810Q171 835 187 850T228 866Q252 866 268
850T285 810Q285 786 269 770T228 754Q203 754 187 770ZM408 754T392 770T375 810Q375 834 391 850T432 866Q457 866 473 851T489 810Q489 786 473 770T432 754Q408 754 392 770Z" />
<glyph unicode="&#xdd;" glyph-name="Yacute" horiz-adv-x="591" d="M241 279L16 700H136L295 381L454 700H574L351 279V0H241V279ZM338 906H438L337 754H258L338 906Z" />
<glyph unicode="&#xde;" glyph-name="Thorn" horiz-adv-x="569" d="M77 700H186V605H283Q401 605 462 551T523 392Q523 283 460 225T278 166H186V0H77V700ZM290 255Q351 255 384 289T418 388Q418 451 383 484T282 517H186V255H290Z" />
<glyph unicode="&#xdf;" glyph-name="germandbls" horiz-adv-x="568" d="M305 -10T261 12T196 78L260 121Q297 65 356 65Q393 65 416 87T439 143Q439 178 418 196T349 233Q295 254 271 284T247 357Q247 392 263 413T312 463Q341 487 355 505T369 551Q369 591 344
612T272 634Q211 634 182 596T153 480V0H55V485Q55 594 110 652T268 710Q363 710 414 669T465 551Q465 510 445 484T388 426Q363 405 352 392T341 364Q341 341 364 324T425 291Q477 269 507 235T537 147Q537 76 489 33T361 -10Q305 -10 261 12Z" />
<glyph unicode="&#xe0;" glyph-name="agrave" horiz-adv-x="519" d="M157 -10T119 10T59 65T37 146Q37 222 95 262T260 303H354V328Q354 378 327 405T248 432Q203 432 164 415T100 364L53 423Q89 465 140 487T252 510Q348 510 401 464T454 332V100Q454 55 466
0H379Q369 24 365 67H363Q306 -10 206 -10Q157 -10 119 10ZM279 67T316 96T354 168V234H256Q197 234 166 212T134 146Q134 109 158 88T225 67Q279 67 316 96ZM116 706H215L295 554H216L116 706Z" />
<glyph unicode="&#xe1;" glyph-name="aacute" horiz-adv-x="519" d="M157 -10T119 10T59 65T37 146Q37 222 95 262T260 303H354V328Q354 378 327 405T248 432Q203 432 164 415T100 364L53 423Q89 465 140 487T252 510Q348 510 401 464T454 332V100Q454 55 466
0H379Q369 24 365 67H363Q306 -10 206 -10Q157 -10 119 10ZM279 67T316 96T354 168V234H256Q197 234 166 212T134 146Q134 109 158 88T225 67Q279 67 316 96ZM299 706H399L298 554H219L299 706Z" />
<glyph unicode="&#xe2;" glyph-name="acircumflex" horiz-adv-x="519" d="M157 -10T119 10T59 65T37 146Q37 222 95 262T260 303H354V328Q354 378 327 405T248 432Q203 432 164 415T100 364L53 423Q89 465 140 487T252 510Q348 510 401 464T454 332V100Q454 55
466 0H379Q369 24 365 67H363Q306 -10 206 -10Q157 -10 119 10ZM279 67T316 96T354 168V234H256Q197 234 166 212T134 146Q134 109 158 88T225 67Q279 67 316 96ZM224 704H288L407 554H321L256 639L191 554H105L224 704Z" />
<glyph unicode="&#xe3;" glyph-name="atilde" horiz-adv-x="519" d="M157 -10T119 10T59 65T37 146Q37 222 95 262T260 303H354V328Q354 378 327 405T248 432Q203 432 164 415T100 364L53 423Q89 465 140 487T252 510Q348 510 401 464T454 332V100Q454 55 466
0H379Q369 24 365 67H363Q306 -10 206 -10Q157 -10 119 10ZM279 67T316 96T354 168V234H256Q197 234 166 212T134 146Q134 109 158 88T225 67Q279 67 316 96ZM102 604T127 634T191 664Q210 664 227 657T266 636Q283 626 293 622T312 617Q339 617 342 668H403Q402
614 377 584T311 554Q291 554 273 562T232 584Q230 585 216 593T193 601Q181 601 173 589T163 554H102Q102 604 127 634Z" />
<glyph unicode="&#xe4;" glyph-name="adieresis" horiz-adv-x="519" d="M157 -10T119 10T59 65T37 146Q37 222 95 262T260 303H354V328Q354 378 327 405T248 432Q203 432 164 415T100 364L53 423Q89 465 140 487T252 510Q348 510 401 464T454 332V100Q454 55 466
0H379Q369 24 365 67H363Q306 -10 206 -10Q157 -10 119 10ZM279 67T316 96T354 168V234H256Q197 234 166 212T134 146Q134 109 158 88T225 67Q279 67 316 96ZM129 554T113 570T97 610Q97 635 113 650T154 666Q178 666 194 650T211 610Q211 586 195 570T154 554Q129
554 113 570ZM334 554T318 570T301 610Q301 634 317 650T358 666Q383 666 399 651T415 610Q415 586 399 570T358 554Q334 554 318 570Z" />
<glyph unicode="&#xe5;" glyph-name="aring" horiz-adv-x="519" d="M157 -10T119 10T59 65T37 146Q37 222 95 262T260 303H354V328Q354 378 327 405T248 432Q203 432 164 415T100 364L53 423Q89 465 140 487T252 510Q348 510 401 464T454 332V100Q454 55 466 0H379Q369
24 365 67H363Q306 -10 206 -10Q157 -10 119 10ZM279 67T316 96T354 168V234H256Q197 234 166 212T134 146Q134 109 158 88T225 67Q279 67 316 96ZM213 542T185 568T157 635Q157 676 185 702T256 728Q299 728 327 702T355 635Q355 594 327 568T256 542Q213 542
185 568ZM278 584T292 598T306 635Q306 657 292 671T256 686Q234 686 220 672T206 635Q206 613 220 599T256 584Q278 584 292 598Z" />
<glyph unicode="&#xe6;" glyph-name="ae" horiz-adv-x="827" d="M793 227H444Q449 152 484 113T583 74Q626 74 659 91T721 143L775 90Q747 43 695 17T578 -10Q521 -10 476 10T400 69Q368 33 320 12T218 -10Q137 -10 87 32T37 143Q37 217 89 256T242 296H345V328Q345
379 319 405T243 432Q198 432 161 415T99 364L52 423Q88 466 137 488T247 510Q302 510 343 493T410 442Q472 510 576 510Q680 510 736 446T793 263V227ZM696 301Q696 363 665 396T573 429Q520 429 487 395T446 296H696V301ZM345 227H251Q194 227 164 205T133 143Q133
108 157 88T221 67Q273 67 309 96T345 168V227Z" />
<glyph unicode="&#xe7;" glyph-name="ccedilla" horiz-adv-x="479" d="M315 68T349 87T404 140L463 87Q439 46 399 22T305 -8L275 -63Q317 -63 342 -82T367 -136Q367 -177 338 -202T259 -228Q237 -228 214 -224T177 -212L187 -168Q216 -177 246 -177Q269 -177
283 -167T297 -139Q297 -122 278 -113T224 -104L201 -78L240 -9Q141 1 87 69T32 250Q32 373 95 441T271 510Q336 510 385 485T463 413L404 360Q383 394 349 413T275 432Q207 432 169 384T131 250Q131 165 169 117T275 68Q315 68 349 87Z" />
<glyph unicode="&#xe8;" glyph-name="egrave" horiz-adv-x="526" d="M492 212H136Q144 144 179 109T277 74Q365 74 419 143L474 90Q445 43 391 17T272 -10Q160 -10 98 58T35 249Q35 371 98 440T271 510Q375 510 433 442T492 250V212ZM398 290Q398 355 363 392T267
429Q210 429 176 391T135 283H398V290ZM129 706H228L308 554H229L129 706Z" />
<glyph unicode="&#xe9;" glyph-name="eacute" horiz-adv-x="526" d="M492 212H136Q144 144 179 109T277 74Q365 74 419 143L474 90Q445 43 391 17T272 -10Q160 -10 98 58T35 249Q35 371 98 440T271 510Q375 510 433 442T492 250V212ZM398 290Q398 355 363 392T267
429Q210 429 176 391T135 283H398V290ZM312 706H412L311 554H232L312 706Z" />
<glyph unicode="&#xea;" glyph-name="ecircumflex" horiz-adv-x="526" d="M492 212H136Q144 144 179 109T277 74Q365 74 419 143L474 90Q445 43 391 17T272 -10Q160 -10 98 58T35 249Q35 371 98 440T271 510Q375 510 433 442T492 250V212ZM398 290Q398 355 363
392T267 429Q210 429 176 391T135 283H398V290ZM237 704H301L420 554H334L269 639L204 554H118L237 704Z" />
<glyph unicode="&#xeb;" glyph-name="edieresis" horiz-adv-x="526" d="M492 212H136Q144 144 179 109T277 74Q365 74 419 143L474 90Q445 43 391 17T272 -10Q160 -10 98 58T35 249Q35 371 98 440T271 510Q375 510 433 442T492 250V212ZM398 290Q398 355 363 392T267
429Q210 429 176 391T135 283H398V290ZM142 554T126 570T110 610Q110 635 126 650T167 666Q191 666 207 650T224 610Q224 586 208 570T167 554Q142 554 126 570ZM347 554T331 570T314 610Q314 634 330 650T371 666Q396 666 412 651T428 610Q428 586 412 570T371
554Q347 554 331 570Z" />
<glyph unicode="&#xec;" glyph-name="igrave" horiz-adv-x="262" d="M82 500H180V0H82V500ZM-9 706H90L170 554H91L-9 706Z" />
<glyph unicode="&#xed;" glyph-name="iacute" horiz-adv-x="262" d="M82 500H180V0H82V500ZM174 706H274L173 554H94L174 706Z" />
<glyph unicode="&#xee;" glyph-name="icircumflex" horiz-adv-x="262" d="M82 500H180V0H82V500ZM99 704H163L282 554H196L131 639L66 554H-20L99 704Z" />
<glyph unicode="&#xef;" glyph-name="idieresis" horiz-adv-x="262" d="M82 500H180V0H82V500ZM4 554T-12 570T-28 610Q-28 635 -12 650T29 666Q53 666 69 650T86 610Q86 586 70 570T29 554Q4 554 -12 570ZM209 554T193 570T176 610Q176 634 192 650T233 666Q258
666 274 651T290 610Q290 586 274 570T233 554Q209 554 193 570Z" />
<glyph unicode="&#xf0;" glyph-name="eth" horiz-adv-x="503" d="M388 528T428 440T469 253Q469 173 442 114T364 22T246 -10Q184 -10 136 18T62 96T35 213Q35 279 61 332T135 414T243 444Q272 444 299 434T344 404Q314 487 248 547L121 465L83 521L190 591Q138
625 71 640L79 700Q175 687 258 635L375 711L412 653L316 591Q388 528 428 440ZM307 70T340 110T373 217Q373 286 340 326T251 367Q196 367 165 327T133 217Q133 149 164 110T251 70Q307 70 340 110Z" />
<glyph unicode="&#xf1;" glyph-name="ntilde" horiz-adv-x="554" d="M56 372Q56 465 52 500H144Q149 463 149 412H152Q172 457 217 483T319 510Q495 510 495 282V0H396V283Q396 358 371 394T294 430Q233 430 194 386T155 274V0H56V372ZM122 604T147 634T211 664Q230
664 247 657T286 636Q303 626 313 622T332 617Q359 617 362 668H423Q422 614 397 584T331 554Q311 554 293 562T252 584Q250 585 236 593T213 601Q201 601 193 589T183 554H122Q122 604 147 634Z" />
<glyph unicode="&#xf2;" glyph-name="ograve" horiz-adv-x="564" d="M167 -10T101 59T35 250Q35 371 101 440T282 510Q397 510 463 441T530 250Q530 129 464 60T282 -10Q167 -10 101 59ZM351 65T391 114T431 250Q431 336 391 385T282 435Q212 435 173 386T134
250Q134 164 173 115T282 65Q351 65 391 114ZM142 706H241L321 554H242L142 706Z" />
<glyph unicode="&#xf3;" glyph-name="oacute" horiz-adv-x="564" d="M167 -10T101 59T35 250Q35 371 101 440T282 510Q397 510 463 441T530 250Q530 129 464 60T282 -10Q167 -10 101 59ZM351 65T391 114T431 250Q431 336 391 385T282 435Q212 435 173 386T134
250Q134 164 173 115T282 65Q351 65 391 114ZM325 706H425L324 554H245L325 706Z" />
<glyph unicode="&#xf4;" glyph-name="ocircumflex" horiz-adv-x="564" d="M167 -10T101 59T35 250Q35 371 101 440T282 510Q397 510 463 441T530 250Q530 129 464 60T282 -10Q167 -10 101 59ZM351 65T391 114T431 250Q431 336 391 385T282 435Q212 435 173 386T134
250Q134 164 173 115T282 65Q351 65 391 114ZM250 704H314L433 554H347L282 639L217 554H131L250 704Z" />
<glyph unicode="&#xf5;" glyph-name="otilde" horiz-adv-x="564" d="M167 -10T101 59T35 250Q35 371 101 440T282 510Q397 510 463 441T530 250Q530 129 464 60T282 -10Q167 -10 101 59ZM351 65T391 114T431 250Q431 336 391 385T282 435Q212 435 173 386T134
250Q134 164 173 115T282 65Q351 65 391 114ZM128 604T153 634T217 664Q236 664 253 657T292 636Q309 626 319 622T338 617Q365 617 368 668H429Q428 614 403 584T337 554Q317 554 299 562T258 584Q256 585 242 593T219 601Q207 601 199 589T189 554H128Q128 604
153 634Z" />
<glyph unicode="&#xf6;" glyph-name="odieresis" horiz-adv-x="564" d="M167 -10T101 59T35 250Q35 371 101 440T282 510Q397 510 463 441T530 250Q530 129 464 60T282 -10Q167 -10 101 59ZM351 65T391 114T431 250Q431 336 391 385T282 435Q212 435 173 386T134
250Q134 164 173 115T282 65Q351 65 391 114ZM155 554T139 570T123 610Q123 635 139 650T180 666Q204 666 220 650T237 610Q237 586 221 570T180 554Q155 554 139 570ZM360 554T344 570T327 610Q327 634 343 650T384 666Q409 666 425 651T441 610Q441 586 425 570T384
554Q360 554 344 570Z" />
<glyph unicode="&#xf7;" glyph-name="divide" horiz-adv-x="610" d="M277 381T259 398T240 444Q240 472 258 489T306 506Q335 506 353 489T372 444Q372 416 354 399T306 381Q277 381 259 398ZM50 301H561V223H50V301ZM277 18T259 35T240 81Q240 108 258 125T306
143Q335 143 353 126T372 81Q372 53 354 36T306 18Q277 18 259 35Z" />
<glyph unicode="&#xf8;" glyph-name="oslash" horiz-adv-x="564" d="M481 433T505 378T530 250Q530 129 464 60T282 -10Q233 -10 189 4L164 -43H92L132 33Q85 66 60 121T35 250Q35 371 101 440T282 510Q331 510 375 496L396 535H472L435 465Q481 433 505 378ZM134
162T174 113L338 425Q314 435 282 435Q212 435 173 386T134 250Q134 162 174 113ZM351 65T391 114T431 250Q431 335 392 385L227 75Q250 65 282 65Q351 65 391 114Z" />
<glyph unicode="&#xf9;" glyph-name="ugrave" horiz-adv-x="555" d="M146 -10T102 46T57 213V500H156V212Q156 140 181 105T257 70Q317 70 356 115T396 229V500H495V113Q495 59 504 0H411Q403 43 402 89H399Q379 43 334 17T232 -10Q146 -10 102 46ZM142 706H241L321
554H242L142 706Z" />
<glyph unicode="&#xfa;" glyph-name="uacute" horiz-adv-x="555" d="M146 -10T102 46T57 213V500H156V212Q156 140 181 105T257 70Q317 70 356 115T396 229V500H495V113Q495 59 504 0H411Q403 43 402 89H399Q379 43 334 17T232 -10Q146 -10 102 46ZM325 706H425L324
554H245L325 706Z" />
<glyph unicode="&#xfb;" glyph-name="ucircumflex" horiz-adv-x="555" d="M146 -10T102 46T57 213V500H156V212Q156 140 181 105T257 70Q317 70 356 115T396 229V500H495V113Q495 59 504 0H411Q403 43 402 89H399Q379 43 334 17T232 -10Q146 -10 102 46ZM250 704H314L433
554H347L282 639L217 554H131L250 704Z" />
<glyph unicode="&#xfc;" glyph-name="udieresis" horiz-adv-x="555" d="M146 -10T102 46T57 213V500H156V212Q156 140 181 105T257 70Q317 70 356 115T396 229V500H495V113Q495 59 504 0H411Q403 43 402 89H399Q379 43 334 17T232 -10Q146 -10 102 46ZM155 554T139
570T123 610Q123 635 139 650T180 666Q204 666 220 650T237 610Q237 586 221 570T180 554Q155 554 139 570ZM360 554T344 570T327 610Q327 634 343 650T384 666Q409 666 425 651T441 610Q441 586 425 570T384 554Q360 554 344 570Z" />
<glyph unicode="&#xfd;" glyph-name="yacute" horiz-adv-x="476" d="M465 500L280 -14Q213 -199 66 -199Q38 -199 2 -190V-113Q23 -121 52 -121Q101 -121 135 -86T200 30L14 500H120L246 137L358 500H465ZM285 706H385L284 554H205L285 706Z" />
<glyph unicode="&#xfe;" glyph-name="thorn" horiz-adv-x="537" d="M56 742H154V447Q173 476 211 493T296 510Q393 510 447 442T502 254Q502 175 476 115T401 23T288 -10Q244 -10 208 5T154 48V-230H56V742ZM335 65T369 116T404 254Q404 340 371 387T278 434Q222
434 188 396T154 297V218Q154 147 186 106T276 65Q335 65 369 116Z" />
<glyph unicode="&#xff;" glyph-name="ydieresis" horiz-adv-x="476" d="M465 500L280 -14Q213 -199 66 -199Q38 -199 2 -190V-113Q23 -121 52 -121Q101 -121 135 -86T200 30L14 500H120L246 137L358 500H465ZM115 554T99 570T83 610Q83 635 99 650T140 666Q164
666 180 650T197 610Q197 586 181 570T140 554Q115 554 99 570ZM320 554T304 570T287 610Q287 634 303 650T344 666Q369 666 385 651T401 610Q401 586 385 570T344 554Q320 554 304 570Z" />
<glyph unicode="&#x2013;" glyph-name="endash" d="M30 301H510V231H30V301Z" />
<glyph unicode="&#x2014;" glyph-name="emdash" horiz-adv-x="836" d="M30 301H806V231H30V301Z" />
<glyph unicode="&#x2018;" glyph-name="quoteleft" horiz-adv-x="335" d="M210 573T227 554T244 506Q244 472 223 451T166 430Q131 430 110 455T89 524Q89 580 120 642T202 745L245 696Q220 672 201 640T174 572Q178 573 186 573Q210 573 227 554Z" />
<glyph unicode="&#x2019;" glyph-name="quoteright" horiz-adv-x="335" d="M203 724T224 699T245 630Q245 573 214 512T132 409L89 458Q114 481 133 514T160 582Q156 581 148 581Q124 581 107 599T90 648Q90 682 111 703T168 724Q203 724 224 699Z" />
<glyph unicode="&#x201a;" glyph-name="quotesinglbase" horiz-adv-x="335" d="M203 136T224 111T245 42Q245 -15 214 -77T132 -179L89 -130Q113 -107 132 -75T160 -7Q156 -8 148 -8Q124 -8 107 11T90 60Q90 94 111 115T168 136Q203 136 224 111Z" />
<glyph unicode="&#x201c;" glyph-name="quotedblleft" horiz-adv-x="544" d="M220 672T201 640T174 572Q178 573 186 573Q210 573 227 554T244 506Q244 472 223 451T166 430Q131 430 110 455T89 524Q89 580 120 642T202 745L245 696Q220 672 201 640ZM420 573T437
554T454 506Q454 472 433 451T377 430Q342 430 321 455T299 524Q299 580 330 642T412 745L455 696Q430 672 411 640T384 572Q387 573 396 573Q420 573 437 554Z" />
<glyph unicode="&#x201d;" glyph-name="quotedblright" horiz-adv-x="544" d="M203 730T224 705T245 636Q245 579 214 518T132 415L89 464Q114 487 133 520T160 588Q156 587 148 587Q124 587 107 605T90 654Q90 688 111 709T168 730Q203 730 224 705ZM413 730T434
705T455 636Q455 579 424 518T342 415L299 464Q324 487 343 520T370 588Q367 587 358 587Q334 587 318 605T301 654Q301 688 322 709T378 730Q413 730 434 705Z" />
<glyph unicode="&#x201e;" glyph-name="quotedblbase" horiz-adv-x="544" d="M203 136T224 111T245 42Q245 -15 214 -77T132 -179L89 -130Q113 -107 132 -75T160 -7Q156 -8 148 -8Q124 -8 107 11T90 60Q90 94 111 115T168 136Q203 136 224 111ZM413 136T434 111T455
42Q455 -15 424 -77T342 -179L299 -130Q324 -107 343 -75T370 -7Q367 -8 358 -8Q334 -8 318 11T301 60Q301 94 322 115T378 136Q413 136 434 111Z" />
<glyph unicode="&#x2022;" glyph-name="bullet" horiz-adv-x="368" d="M125 157T86 196T47 294Q47 354 86 392T184 431Q244 431 282 393T321 294Q321 235 283 196T184 157Q125 157 86 196Z" />
<glyph unicode="&#x2039;" glyph-name="guilsinglleft" horiz-adv-x="333" d="M35 260L190 457H297L146 260L297 63H190L35 260Z" />
<glyph unicode="&#x203a;" glyph-name="guilsinglright" horiz-adv-x="333" d="M187 260L35 457H143L297 260L143 63H35L187 260Z" />
</font>
</defs>
</svg>
