<?xml version="1.0" standalone="no"?>
<!DOCTYPE svg PUBLIC "-//W3C//DTD SVG 1.1//EN" "http://www.w3.org/Graphics/SVG/1.1/DTD/svg11.dtd">
<svg xmlns="http://www.w3.org/2000/svg">
<defs >
<font id="Sarabun" horiz-adv-x="511" ><font-face
    font-family="Sarabun Thin"
    units-per-em="1000"
    panose-1="0 0 3 0 0 0 0 0 0 0"
    ascent="1068"
    descent="-232"
    alphabetic="0" />
<glyph unicode=" " glyph-name="space" horiz-adv-x="254" />
<glyph unicode="!" glyph-name="exclam" horiz-adv-x="217" d="M163 700H211L108 166H78L163 700ZM46 -10T37 -1T27 24Q27 47 41 62T77 77Q93 77 103 68T114 43Q114 20 100 5T62 -10Q46 -10 37 -1Z" />
<glyph unicode="&quot;" glyph-name="quotedbl" horiz-adv-x="300" d="M147 710H194L143 479H116L147 710ZM268 710H315L264 479H237L268 710Z" />
<glyph unicode="#" glyph-name="numbersign" horiz-adv-x="664" d="M544 450L484 249H579L573 216H474L409 0H379L444 216H184L119 0H89L154 216H58L64 249H164L224 450H120L126 484H234L299 700H329L264 484H524L589 700H619L554 484H641L635 450H544ZM514 450H254L194
249H454L514 450Z" />
<glyph unicode="$" glyph-name="dollar" horiz-adv-x="521" d="M414 703T456 676T514 607L483 588Q467 628 427 652T335 676Q291 676 252 659T189 611T165 540Q165 507 182 481T230 433T318 378Q375 344 412 302T450 187Q450 128 421 84T342 15T230 -10L220 -70H184L195
-8Q143 -3 100 21T29 84L57 108Q83 70 127 47T220 24Q271 24 314 44T384 103T410 189Q410 231 391 262T345 312T281 354Q227 385 197 407T146 462T126 538Q126 588 152 626T223 686T321 710L332 770H368L357 709Q414 703 456 676Z" />
<glyph unicode="%" glyph-name="percent" horiz-adv-x="834" d="M154 331T124 366T94 463Q94 531 116 587T178 677T266 710Q319 710 349 675T380 578Q380 510 358 454T296 364T207 331Q154 331 124 366ZM690 700H725L170 -13H135L690 700ZM245 360T277 389T327
466T346 573Q346 624 325 652T265 680Q227 680 195 652T145 575T126 468Q126 417 147 389T208 360Q245 360 277 389ZM550 -10T520 25T490 122Q490 190 512 247T574 337T661 370Q714 370 744 335T775 238Q775 169 753 112T691 23T602 -10Q550 -10 520 25ZM641 20T673
48T723 125T742 232Q742 283 721 311T660 340Q623 340 592 311T541 233T522 127Q522 77 543 49T603 20Q641 20 673 48Z" />
<glyph unicode="&amp;" glyph-name="ampersand" horiz-adv-x="636" d="M561 179T486 102L565 16L539 -10Q489 45 460 79Q410 35 351 13T225 -10Q134 -10 81 34T27 152Q27 233 81 298T219 397Q182 468 182 534Q182 584 203 624T263 687T353 710Q411 710 447 680T483
601Q483 540 425 485T269 385Q271 381 286 356Q348 258 465 126Q532 195 570 299H604Q561 179 486 102ZM298 676T259 638T220 540Q220 483 254 413Q337 449 391 495T445 593Q445 630 421 653T355 676Q298 676 259 638ZM347 24T439 102Q311 250 256 334Q248 346
234 370Q161 338 114 281T66 156Q66 94 110 59T234 24Q347 24 439 102Z" />
<glyph unicode="&apos;" glyph-name="quotesingle" horiz-adv-x="179" d="M147 710H194L143 479H116L147 710Z" />
<glyph unicode="(" glyph-name="parenleft" horiz-adv-x="280" d="M96 -20T71 60T46 225Q46 326 74 427T154 612T272 750H318Q249 703 196 620T112 434T82 223Q82 134 108 55T175 -62H135Q96 -20 71 60Z" />
<glyph unicode=")" glyph-name="parenright" horiz-adv-x="280" d="M64 -15T117 68T201 255T231 465Q231 554 205 633T138 750H178Q217 708 242 628T267 463Q267 362 239 261T158 76T38 -62H-5Q64 -15 117 68Z" />
<glyph unicode="*" glyph-name="asterisk" horiz-adv-x="449" d="M129 391L248 519L90 508L98 556L253 546L179 674L233 702L280 565L376 702L419 674L302 546L459 556L451 508L297 519L369 391L316 362L269 500L173 362L129 391Z" />
<glyph unicode="+" glyph-name="plus" horiz-adv-x="596" d="M279 245H55L61 279H285L328 524H363L320 279H545L539 245H314L271 0H236L279 245Z" />
<glyph unicode="," glyph-name="comma" horiz-adv-x="208" d="M96 90T106 77T117 41Q117 0 84 -58T4 -156L-7 -140Q20 -113 42 -76T74 -5Q62 -7 58 -7Q41 -7 31 3T21 30Q21 55 37 72T78 90Q96 90 106 77Z" />
<glyph unicode="-" glyph-name="hyphen" horiz-adv-x="340" d="M50 284H302L296 248H44L50 284Z" />
<glyph unicode="." glyph-name="period" horiz-adv-x="208" d="M42 -10T32 -1T22 25Q22 48 36 63T74 78Q90 78 100 69T110 43Q110 20 96 5T58 -10Q42 -10 32 -1Z" />
<glyph unicode="/" glyph-name="slash" horiz-adv-x="359" d="M436 725H469L-46 -43H-79L436 725Z" />
<glyph unicode="0" glyph-name="zero" horiz-adv-x="535" d="M146 -10T101 46T55 211Q55 350 92 464T195 644T343 710Q425 710 470 654T515 489Q515 351 478 237T375 56T228 -10Q146 -10 101 46ZM294 25T351 87T442 253T476 479Q476 575 442 625T343 675Q276 675
219 613T128 447T94 221Q94 125 128 75T228 25Q294 25 351 87Z" />
<glyph unicode="1" glyph-name="one" horiz-adv-x="535" d="M105 38H231L338 649L178 563L185 601L364 700H385L269 38H395L388 0H98L105 38Z" />
<glyph unicode="2" glyph-name="two" horiz-adv-x="535" d="M37 48Q126 107 222 194T386 379T453 557Q453 612 420 643T326 675Q272 675 219 651T136 590L121 617Q153 659 209 684T327 710Q402 710 447 671T492 565Q492 493 443 405T300 223T81 38H442L435 0H29L37 48Z" />
<glyph unicode="3" glyph-name="three" horiz-adv-x="535" d="M150 -10T97 16T25 87L52 115Q68 73 112 49T217 25Q277 25 326 49T403 114T431 204Q431 272 376 309T223 346H213L220 388H230Q296 388 351 413T437 480T469 573Q469 623 437 649T347 675Q288 675
235 651T150 585L132 613Q168 659 223 684T342 710Q420 710 464 675T508 576Q508 529 482 486T412 412T315 368Q390 357 430 315T471 207Q471 146 440 97T351 19T220 -10Q150 -10 97 16Z" />
<glyph unicode="4" glyph-name="four" horiz-adv-x="535" d="M352 133H9L16 173L430 700H490L396 167H480L474 133H390L367 0H329L352 133ZM358 167L446 665L54 167H358Z" />
<glyph unicode="5" glyph-name="five" horiz-adv-x="535" d="M148 -10T96 16T26 87L55 113Q69 73 113 49T215 25Q278 25 328 56T408 143T437 267Q437 334 400 372T297 411Q248 411 203 392T129 340H97L191 700H534L528 665H221L152 398Q181 421 221 434T305 448Q385
448 432 400T480 272Q480 190 447 126T353 26T216 -10Q148 -10 96 16Z" />
<glyph unicode="6" glyph-name="six" horiz-adv-x="535" d="M147 -10T97 41T47 184Q47 295 109 407T277 601T501 709V678Q417 656 340 606T205 488T117 343Q186 435 308 435Q362 435 401 411T460 345T480 254Q480 180 448 120T360 25T234 -10Q147 -10 97 41ZM289
25T337 56T413 139T441 255Q441 320 403 360T299 400Q242 400 194 369T117 286T88 171Q88 105 127 65T232 25Q289 25 337 56Z" />
<glyph unicode="7" glyph-name="seven" horiz-adv-x="535" d="M183 122T218 223T324 437T512 665H136L142 700H552L543 647Q406 517 320 360T198 0H158Q183 122 218 223Z" />
<glyph unicode="8" glyph-name="eight" horiz-adv-x="535" d="M137 -10T84 34T31 151Q31 230 74 289T199 375Q161 391 140 426T119 507Q119 567 147 613T226 684T345 710Q425 710 471 672T518 570Q518 504 480 451T381 375Q432 355 457 317T482 228Q482 157 450
103T361 20T228 -10Q137 -10 84 34ZM347 391T389 413T455 475T479 566Q479 614 441 644T343 675Q289 675 247 653T180 592T156 503Q156 453 194 422T293 391Q347 391 389 413ZM291 25T340 50T416 122T444 227Q444 284 400 320T286 356Q223 356 174 331T98 260T70
156Q70 98 114 62T228 25Q291 25 340 50Z" />
<glyph unicode="9" glyph-name="nine" horiz-adv-x="535" d="M71 23Q158 43 236 92T371 210T451 353Q421 313 374 290T270 266Q219 266 178 289T114 354T91 447Q91 520 123 580T212 675T337 710Q427 710 475 658T523 513Q523 394 462 283T297 93T68 -9L71 23ZM329
302T377 332T454 415T483 529Q483 595 444 635T339 675Q282 675 234 644T158 561T130 446Q130 381 168 342T271 302Q329 302 377 332Z" />
<glyph unicode=":" glyph-name="colon" horiz-adv-x="208" d="M109 369T99 378T89 404Q89 427 103 442T141 457Q157 457 167 448T177 422Q177 399 163 384T125 369Q109 369 99 378ZM42 -13T32 -4T22 22Q22 45 36 60T73 75Q89 75 99 66T110 41Q110 17 96 2T58 -13Q42
-13 32 -4Z" />
<glyph unicode=";" glyph-name="semicolon" horiz-adv-x="208" d="M157 457T167 448T177 422Q177 399 163 384T125 369Q109 369 99 378T89 404Q89 427 103 442T141 457Q157 457 167 448ZM97 90T107 77T118 41Q118 0 85 -58T5 -156L-6 -140Q59 -76 75 -5Q65 -7
59 -7Q42 -7 32 3T22 30Q22 55 38 72T79 90Q97 90 107 77Z" />
<glyph unicode="&lt;" glyph-name="less" horiz-adv-x="596" d="M67 256L73 290L582 547L574 503L118 269L492 38L486 0L67 256Z" />
<glyph unicode="=" glyph-name="equal" horiz-adv-x="596" d="M105 380H537L531 346H99L105 380ZM70 184H502L496 150H64L70 184Z" />
<glyph unicode="&gt;" glyph-name="greater" horiz-adv-x="596" d="M30 45L486 276L112 510L118 547L537 290L531 256L22 0L30 45Z" />
<glyph unicode="?" glyph-name="question" horiz-adv-x="436" d="M179 152T179 164Q179 209 195 246T236 313T298 381Q335 419 356 444T392 502T407 572Q407 622 377 648T288 674Q243 674 202 653T132 596L110 623Q143 664 191 686T296 709Q370 709 408 676T447
580Q447 535 432 499T393 436T332 372Q292 332 269 304T229 237T213 150V147H180Q179 152 179 164ZM155 -10T145 0T134 26Q134 51 149 66T188 82Q204 82 214 72T225 46Q225 21 210 6T171 -10Q155 -10 145 0Z" />
<glyph unicode="@" glyph-name="at" horiz-adv-x="784" d="M218 -142T154 -106T55 -6T19 137Q19 271 76 374T235 533T470 590Q552 590 617 556T718 462T755 327Q755 238 726 168T645 57T525 11L482 8L483 81Q447 44 399 21T308 -3Q253 -3 219 28T185 108Q185 159
211 199T283 261T390 284H516L522 316Q524 325 524 341Q524 383 497 408T423 433Q383 433 343 413T277 359L255 387Q284 422 332 444T430 467Q492 467 526 433T561 341Q561 325 558 307L523 107Q519 81 519 46Q576 46 620 81T690 179T715 321Q715 390 685 443T598
525T466 555Q347 555 254 503T110 356T58 140Q58 69 90 14T181 -73T314 -104Q359 -104 407 -94T486 -66L496 -97Q462 -117 407 -129T299 -142Q218 -142 154 -106ZM355 32T394 51T461 99T493 153L510 249H391Q343 249 305 232T246 184T224 115Q224 74 253 53T319
32Q355 32 394 51Z" />
<glyph unicode="A" glyph-name="A" horiz-adv-x="551" d="M418 189H116L22 0H-23L334 700H375L486 0H445L418 189ZM413 222L351 664L132 222H413Z" />
<glyph unicode="B" glyph-name="B" horiz-adv-x="574" d="M175 700H352Q534 700 534 576Q534 502 491 445T381 374V372Q443 359 473 325T504 234Q504 114 439 57T237 0H52L175 700ZM294 388Q387 388 441 436T496 568Q496 618 462 641T352 665H207L158 388H294ZM251
35Q361 35 414 82T468 225Q468 292 417 323T256 354H152L96 35H251Z" />
<glyph unicode="C" glyph-name="C" horiz-adv-x="557" d="M178 -10T115 57T52 244Q52 375 97 481T222 649T402 710Q464 710 516 685T590 617L566 587Q543 632 505 653T409 675Q319 675 247 620T133 469T92 252Q92 143 142 84T288 25Q347 25 399 48T482 113L496
83Q461 40 406 15T289 -10Q178 -10 115 57Z" />
<glyph unicode="D" glyph-name="D" horiz-adv-x="607" d="M175 700H366Q472 700 529 654T587 496Q587 343 546 232T425 60T234 0H52L175 700ZM246 35Q336 35 404 91T511 251T549 490Q549 587 505 626T371 665H207L96 35H246Z" />
<glyph unicode="E" glyph-name="E" horiz-adv-x="535" d="M175 700H548L542 665H207L158 387H458L452 352H152L96 35H431L425 0H52L175 700Z" />
<glyph unicode="F" glyph-name="F" horiz-adv-x="528" d="M175 700H553L547 665H207L153 357H471L465 322H147L90 0H52L175 700Z" />
<glyph unicode="G" glyph-name="G" horiz-adv-x="626" d="M320 675T248 621T134 470T92 255Q92 145 145 85T298 25Q353 25 404 46T490 104L526 310H342L348 343H568L507 0H494L486 56Q449 24 402 7T300 -10Q225 -10 170 21T84 112T53 252Q53 380 98 485T224 650T406
710Q475 710 529 685T603 617L580 589Q560 630 516 652T409 675Q320 675 248 621Z" />
<glyph unicode="H" glyph-name="H" horiz-adv-x="666" d="M174 700H212L154 369H554L612 700H650L527 0H489L548 334H148L89 0H51L174 700Z" />
<glyph unicode="I" glyph-name="I" horiz-adv-x="268" d="M194 700H232L109 0H71L194 700Z" />
<glyph unicode="J" glyph-name="J" horiz-adv-x="390" d="M44 -10T16 -2T-30 22L-11 54Q29 25 82 25Q155 25 195 77T252 225L336 700H374L289 222Q269 106 217 48T78 -10Q44 -10 16 -2Z" />
<glyph unicode="K" glyph-name="K" horiz-adv-x="555" d="M296 415L498 0H462L270 390L136 263L90 0H52L175 700H213L145 314L549 700H596L296 415Z" />
<glyph unicode="L" glyph-name="L" horiz-adv-x="515" d="M175 700H213L96 35H442L436 0H52L175 700Z" />
<glyph unicode="M" glyph-name="M" horiz-adv-x="784" d="M767 700L644 0H608L727 670L358 0H336L206 665L88 0H52L175 700H233L356 53L707 700H767Z" />
<glyph unicode="N" glyph-name="N" horiz-adv-x="666" d="M649 700L526 0H482L204 658L88 0H52L175 700H225L499 49L613 700H649Z" />
<glyph unicode="O" glyph-name="O" horiz-adv-x="644" d="M176 -10T115 60T53 251Q53 376 99 481T224 648T398 710Q468 710 519 678T599 587T627 448Q627 323 581 218T456 52T282 -10Q176 -10 115 60ZM367 24T437 80T548 233T589 446Q589 553 539 614T398 676Q314
676 244 620T132 466T91 254Q91 146 141 85T283 24Q367 24 437 80Z" />
<glyph unicode="P" glyph-name="P" horiz-adv-x="557" d="M175 700H343Q436 700 488 662T540 550Q540 471 509 411T420 317T285 283H140L90 0H52L175 700ZM293 318Q352 318 399 346T474 425T501 539Q501 602 463 633T346 665H207L146 318H293Z" />
<glyph unicode="Q" glyph-name="Q" horiz-adv-x="644" d="M627 336T590 239T486 78T338 -4Q408 -40 508 -61L496 -91Q429 -75 375 -56T263 -9Q165 -3 109 66T53 251Q53 376 99 481T224 648T398 710Q468 710 519 678T599 587T627 448Q627 336 590 239ZM91 146T141
85T283 24Q367 24 437 80T548 233T589 446Q589 553 539 614T398 676Q314 676 244 620T132 466T91 254Q91 146 141 85Z" />
<glyph unicode="R" glyph-name="R" horiz-adv-x="569" d="M175 700H352Q446 700 495 667T545 568Q545 477 495 416T355 342V340Q376 329 388 311T408 260L469 0H426L373 239Q362 291 334 313T250 335H149L90 0H52L175 700ZM305 370Q399 370 452 421T506 562Q506
618 466 641T353 665H207L155 370H305Z" />
<glyph unicode="S" glyph-name="S" horiz-adv-x="516" d="M163 -10T112 15T29 84L57 108Q83 70 127 47T220 24Q271 24 314 44T384 103T410 189Q410 231 391 262T345 312T281 354Q227 385 197 407T146 462T126 538Q126 590 154 629T228 689T330 710Q397 710 447
682T514 607L483 588Q467 628 427 652T335 676Q291 676 252 659T189 611T165 540Q165 507 182 481T230 433T318 378Q375 344 412 302T450 187Q450 127 421 82T340 14T225 -10Q163 -10 112 15Z" />
<glyph unicode="T" glyph-name="T" horiz-adv-x="526" d="M317 665H94L100 700H584L578 665H355L238 0H200L317 665Z" />
<glyph unicode="U" glyph-name="U" horiz-adv-x="655" d="M195 -10T145 40T94 189Q94 233 102 276L177 700H215L140 278Q132 235 132 191Q132 24 289 24Q480 24 525 278L600 700H638L563 276Q537 132 472 61T293 -10Q195 -10 145 40Z" />
<glyph unicode="V" glyph-name="V" horiz-adv-x="558" d="M616 700L258 0H212L100 700H142L240 34L572 700H616Z" />
<glyph unicode="W" glyph-name="W" horiz-adv-x="788" d="M836 700L571 0H526L468 665L174 0H129L110 700H150L155 31L449 700H497L552 31L792 700H836Z" />
<glyph unicode="X" glyph-name="X" horiz-adv-x="558" d="M280 366L134 700H179L310 391L532 700H581L325 359L470 0H426L296 330L50 0H0L280 366Z" />
<glyph unicode="Y" glyph-name="Y" horiz-adv-x="517" d="M244 277L101 700H144L267 309L529 700H574L282 277L234 0H196L244 277Z" />
<glyph unicode="Z" glyph-name="Z" horiz-adv-x="544" d="M5 31L513 665H147L153 700H566L561 667L54 35H462L456 0H0L5 31Z" />
<glyph unicode="[" glyph-name="bracketleft" horiz-adv-x="282" d="M155 700H345L340 669H186L52 -86H206L201 -117H11L155 700Z" />
<glyph unicode="\" glyph-name="backslash" horiz-adv-x="379" d="M57 725H90L335 -43H302L57 725Z" />
<glyph unicode="]" glyph-name="bracketright" horiz-adv-x="282" d="M-44 -86H110L244 669H90L95 700H285L141 -117H-49L-44 -86Z" />
<glyph unicode="^" glyph-name="asciicircum" horiz-adv-x="571" d="M345 700H386L513 229H478L360 665L89 229H50L345 700Z" />
<glyph unicode="_" glyph-name="underscore" horiz-adv-x="286" d="M-83 -223H203L197 -257H-89L-83 -223Z" />
<glyph unicode="`" glyph-name="grave" horiz-adv-x="401" d="M197 678H245L292 554H259L197 678Z" />
<glyph unicode="a" glyph-name="a" horiz-adv-x="530" d="M126 -10T82 40T38 180Q38 275 70 350T161 467T294 510Q344 510 384 486T441 418H443L467 500H498L431 120Q419 57 413 0H381Q389 60 394 93H392Q360 45 312 18T209 -10Q126 -10 82 40ZM255 24T297 46T369
109T407 200L421 279Q426 309 426 331Q426 399 391 437T291 476Q230 476 181 438T104 334T76 185Q76 109 110 67T207 24Q255 24 297 46Z" />
<glyph unicode="b" glyph-name="b" horiz-adv-x="530" d="M178 -10T136 19T82 93H80Q71 41 61 0H29Q33 17 34 20Q38 37 53 120L163 742H201L143 416H145Q214 510 322 510Q402 510 448 459T494 314Q494 229 461 155T368 35T232 -10Q178 -10 136 19ZM298 24T349
64T427 171T455 312Q455 392 419 434T318 476Q243 476 189 423T119 279L105 200Q102 181 102 162Q102 99 138 62T231 24Q298 24 349 64Z" />
<glyph unicode="c" glyph-name="c" horiz-adv-x="456" d="M135 -10T86 39T37 177Q37 272 70 348T164 467T302 510Q358 510 400 487T464 421L437 397Q420 434 384 455T301 476Q238 476 187 438T106 333T76 185Q76 108 113 66T221 24Q268 24 311 44T385 103L404
79Q367 35 322 13T222 -10Q135 -10 86 39Z" />
<glyph unicode="d" glyph-name="d" horiz-adv-x="530" d="M126 -10T82 40T38 180Q38 275 70 350T161 467T293 510Q345 510 385 485T443 416H445L503 742H541L431 120Q419 57 413 0H381Q386 48 394 93H392Q360 45 312 18T209 -10Q126 -10 82 40ZM255 24T297 46T369
109T407 200L421 279Q426 309 426 331Q426 399 391 437T291 476Q230 476 181 438T104 334T76 185Q76 109 110 67T207 24Q255 24 297 46Z" />
<glyph unicode="e" glyph-name="e" horiz-adv-x="495" d="M372 510T417 463T463 330Q463 300 457 267L451 233H77Q74 209 74 185Q74 109 112 67T220 24Q266 24 309 45T379 103L400 77Q362 33 318 12T221 -10Q135 -10 86 41T36 180Q36 272 69 347T160 466T292 510Q372
510 417 463ZM427 306T427 331Q427 397 391 436T294 476Q217 476 159 418T82 267H419L421 277Q427 306 427 331Z" />
<glyph unicode="f" glyph-name="f" horiz-adv-x="287" d="M129 466H45L51 500H135L148 572Q160 640 200 678T299 717Q328 717 352 710T387 692L367 666Q344 683 301 683Q255 683 225 655T186 574L173 500H321L315 466H167L85 0H47L129 466Z" />
<glyph unicode="g" glyph-name="g" horiz-adv-x="531" d="M498 500L412 13Q392 -100 331 -159T165 -218Q72 -218 1 -181L21 -148Q57 -168 89 -176T164 -184Q255 -184 306 -135T376 17L387 76Q354 33 309 11T210 -12Q130 -12 84 39T38 180Q38 273 71 348T162 467T294
510Q344 510 384 486T441 418H443L467 500H498ZM426 308T426 332Q426 398 390 437T290 476Q230 476 181 438T104 333T76 184Q76 107 110 65T209 22Q284 22 338 69T406 196L422 285Q426 308 426 332Z" />
<glyph unicode="h" glyph-name="h" horiz-adv-x="550" d="M163 742H201L140 395Q175 448 226 479T334 510Q409 510 448 471T487 353Q487 319 480 283L430 0H392L442 284Q448 320 448 349Q448 411 420 443T339 476Q288 476 241 449T161 376T118 274L70 0H32L163 742Z" />
<glyph unicode="i" glyph-name="i" horiz-adv-x="218" d="M160 618T151 627T142 650Q142 670 155 685T188 700Q202 700 211 691T220 668Q220 648 207 633T174 618Q160 618 151 627ZM134 500H172L84 0H46L134 500Z" />
<glyph unicode="j" glyph-name="j" horiz-adv-x="218" d="M164 618T155 627T146 650Q146 670 159 685T192 700Q206 700 215 691T224 668Q224 648 211 633T178 618Q164 618 155 627ZM-95 -180T-105 -179L-100 -144H-84Q-17 -144 12 -101T57 25L141 500H179L94 18Q77
-80 38 -130T-70 -180Q-95 -180 -105 -179Z" />
<glyph unicode="k" glyph-name="k" horiz-adv-x="442" d="M240 302L386 0H340L209 275L101 181L69 0H31L162 742H200L109 229L422 500H467L240 302Z" />
<glyph unicode="l" glyph-name="l" horiz-adv-x="284" d="M90 -10T74 8T57 65Q57 87 61 110L172 742H210L99 111Q95 88 95 69Q95 44 105 34T139 24Q160 24 185 33L188 5Q157 -10 125 -10Q90 -10 74 8Z" />
<glyph unicode="m" glyph-name="m" horiz-adv-x="835" d="M99 380Q114 469 117 500H152Q148 462 138 410H140Q174 458 218 484T312 510Q368 510 405 478T444 392Q473 446 522 478T628 510Q697 510 736 471T775 361Q775 339 770 309L716 0H678L733 311Q738 339
738 359Q738 416 709 446T624 476Q584 476 547 454T483 394T448 310L393 0H355L408 300Q414 335 414 362Q414 476 311 476Q268 476 228 452T159 389T124 307L70 0H32L99 380Z" />
<glyph unicode="n" glyph-name="n" horiz-adv-x="538" d="M99 380Q113 453 117 500H149Q144 445 133 393H137Q171 448 222 479T329 510Q401 510 439 471T477 355Q477 329 470 285L420 0H382L432 286Q439 332 439 355Q439 476 333 476Q283 476 238 450T160 377T118
272L70 0H32L99 380Z" />
<glyph unicode="o" glyph-name="o" horiz-adv-x="536" d="M140 -10T88 44T36 188Q36 276 72 350T170 467T308 510Q396 510 447 456T499 312Q499 224 464 151T366 34T228 -10Q140 -10 88 44ZM290 24T344 62T429 165T461 305Q461 383 420 429T308 476Q246 476 192
438T107 336T75 195Q75 117 116 71T228 24Q290 24 344 62Z" />
<glyph unicode="p" glyph-name="p" horiz-adv-x="528" d="M98 380Q110 451 116 500H149Q145 463 135 405H137Q163 450 213 480T317 510Q398 510 445 461T493 324Q493 233 459 157T366 35T236 -10Q184 -10 141 17T86 88H84L26 -242H-12L98 380ZM296 26T345 65T424
172T454 317Q454 391 419 432T317 474Q270 474 229 452T159 390T122 300L108 221Q103 191 103 169Q103 102 138 64T238 26Q296 26 345 65Z" />
<glyph unicode="q" glyph-name="q" horiz-adv-x="527" d="M385 84H383Q353 40 308 15T211 -10Q131 -10 84 42T36 183Q36 275 69 349T160 467T290 510Q344 510 390 480T446 406H448Q459 465 467 500H499Q486 442 475 380L365 -242H327L385 84ZM286 26T339 78T409
221L423 300Q426 320 426 337Q426 398 389 436T290 474Q230 474 181 437T104 334T75 191Q75 115 111 71T210 26Q286 26 339 78Z" />
<glyph unicode="r" glyph-name="r" horiz-adv-x="301" d="M105 378Q120 465 123 500H156Q154 461 145 412L142 395H144Q173 451 214 480T306 510Q323 510 332 507L326 472Q314 474 299 474Q259 474 223 449T162 380T126 281L76 0H38L105 378Z" />
<glyph unicode="s" glyph-name="s" horiz-adv-x="395" d="M107 -10T65 10T11 62L43 82Q56 54 86 39T159 24Q196 24 226 41T274 89T292 154Q292 185 270 209T197 255Q132 282 104 310T76 376Q76 436 119 473T234 510Q277 510 316 489T364 434L332 415Q321 446 295
461T233 476Q182 476 149 449T116 380Q116 352 140 332T226 285Q281 262 307 230T333 156Q333 83 284 37T154 -10Q107 -10 65 10Z" />
<glyph unicode="t" glyph-name="t" horiz-adv-x="335" d="M74 -10T74 88Q74 107 79 135L137 466H47L53 500H143L167 638L204 651H208L181 500H321L315 466H175L119 147Q114 114 114 95Q114 60 129 43T177 26Q214 26 242 39V6Q207 -10 171 -10Q74 -10 74 88Z" />
<glyph unicode="u" glyph-name="u" horiz-adv-x="546" d="M138 -10T100 28T62 141Q62 170 68 204L120 500H158L105 198Q100 172 100 141Q100 24 212 24Q261 24 305 50T381 123T422 226L470 500H508L436 89Q428 39 429 0H397Q397 48 405 103H401Q366 48 317 19T210
-10Q138 -10 100 28Z" />
<glyph unicode="v" glyph-name="v" horiz-adv-x="430" d="M464 500L192 0H151L54 500H94L177 43L422 500H464Z" />
<glyph unicode="w" glyph-name="w" horiz-adv-x="630" d="M664 500L453 0H416L353 466L128 0H89L54 500H95L116 39L339 500H379L441 41L621 500H664Z" />
<glyph unicode="x" glyph-name="x" horiz-adv-x="400" d="M181 254L67 500H111L204 285L372 500H422L221 254L346 0H300L199 230L15 0H-34L181 254Z" />
<glyph unicode="y" glyph-name="y" horiz-adv-x="420" d="M454 500L196 6Q138 -106 81 -159T-48 -213Q-72 -213 -81 -211L-76 -185Q-69 -186 -47 -186Q-9 -186 23 -168T88 -107T164 13L64 500H108L189 56L407 500H454Z" />
<glyph unicode="z" glyph-name="z" horiz-adv-x="427" d="M-7 27L376 464H85L91 500H429L423 466L48 36H357L351 0H-12L-7 27Z" />
<glyph unicode="{" glyph-name="braceleft" horiz-adv-x="288" d="M119 -114T93 -93T67 -25Q67 -7 72 21L104 198Q107 212 107 224Q107 277 47 280L53 316Q92 318 111 337T139 398L170 575Q182 647 216 678T319 710H325L319 679H307Q257 679 233 654T197 563L169
403Q162 362 147 339T99 298Q137 275 137 225Q137 210 134 193L105 33Q100 1 100 -17Q100 -50 116 -66T173 -83H185L180 -114H174Q119 -114 93 -93Z" />
<glyph unicode="|" glyph-name="bar" horiz-adv-x="230" d="M176 700H214L62 -160H24L176 700Z" />
<glyph unicode="}" glyph-name="braceright" horiz-adv-x="288" d="M-15 -83H-2Q47 -83 71 -58T106 33L134 193Q147 269 208 298Q186 313 177 327T168 365Q168 383 172 403L200 563Q205 596 205 613Q205 649 189 664T133 679H120L125 710H131Q187 710 212 689T238
620Q238 598 234 575L203 398Q201 388 201 371Q201 344 214 331T258 316L251 280Q212 278 193 259T166 198L135 21Q122 -51 88 -82T-14 -114H-20L-15 -83Z" />
<glyph unicode="~" glyph-name="asciitilde" horiz-adv-x="596" d="M60 207Q68 265 106 300T197 336Q231 336 255 323T314 283Q344 259 367 247T420 234Q494 234 516 336H539V332Q539 273 503 237T414 200Q379 200 354 213T295 253Q264 278 242 290T191 302Q152
302 126 276T90 200H59L60 207Z" />
<glyph unicode="&#xa0;" glyph-name="uni00A0" horiz-adv-x="254" />
<glyph unicode="&#xa1;" glyph-name="exclamdown" horiz-adv-x="217" d="M122 423T113 432T103 457Q103 480 117 495T154 510Q170 510 180 501T190 475Q190 452 176 438T138 423Q122 423 113 432ZM107 332H137L52 -202H4L107 332Z" />
<glyph unicode="&#xa2;" glyph-name="cent" horiz-adv-x="456" d="M379 577T418 554T476 491L449 467Q432 504 396 525T313 546Q250 546 199 508T118 403T88 255Q88 178 125 136T233 94Q280 94 323 114T397 173L416 149Q378 105 334 83T236 60L221 -28H185L200
62Q129 71 89 119T49 247Q49 338 79 411T165 528T292 579L308 668H344L328 580Q379 577 418 554Z" />
<glyph unicode="&#xa3;" glyph-name="sterling" horiz-adv-x="520" d="M263 678T235 522Q228 480 227 425T226 359H399L393 324H226Q224 262 220 238Q209 176 174 123T80 32H406L400 0H18L23 29Q94 69 135 121T188 232Q192 256 194 324H97L103 359H194Q195 420
197 458T204 528Q220 617 268 663T398 710Q474 710 516 669L496 641Q478 659 452 668T396 678Q263 678 235 522Z" />
<glyph unicode="&#xa4;" glyph-name="currency" horiz-adv-x="598" d="M222 67T176 86T106 135L38 80L16 105L84 160Q69 181 61 214T53 283Q53 342 79 405T145 508L97 563L127 588L176 533Q211 564 264 583T367 602Q416 602 462 583T532 533L601 588L623 563L555
508Q569 487 577 455T585 386Q585 327 559 263T494 160L542 105L512 80L462 135Q428 105 375 86T272 67Q222 67 176 86ZM352 105T413 142T510 241T546 378Q546 432 524 474T459 540T362 564Q290 564 228 527T130 425T93 286Q93 205 144 155T281 105Q352 105 413
142Z" />
<glyph unicode="&#xa5;" glyph-name="yen" horiz-adv-x="537" d="M314 309H474L469 279H293L292 277L277 192H452L447 162H272L244 0H206L234 162H61L66 192H239L254 277L253 279H81L86 309H243L111 700H154L277 309L539 700H584L314 309Z" />
<glyph unicode="&#xa6;" glyph-name="brokenbar" horiz-adv-x="230" d="M176 700H214L147 322H109L176 700ZM91 218H129L62 -160H24L91 218Z" />
<glyph unicode="&#xa7;" glyph-name="section" horiz-adv-x="514" d="M285 676T248 659T189 611T167 544Q167 503 204 475T326 408Q398 376 433 346T468 272Q468 239 449 208T400 154Q430 124 430 81Q430 -1 369 -50T206 -99Q136 -99 85 -71T9 2L39 31Q63 -13
107 -39T211 -65Q293 -65 342 -27T391 75Q391 102 376 121T334 156T252 198Q187 230 157 247T107 287T86 343Q86 376 106 407T162 462Q128 496 128 538Q128 588 154 627T227 688T334 710Q399 710 449 682T516 605L481 583Q463 626 423 651T331 676Q285 676 248
659ZM429 296T414 314T373 346T285 388Q217 419 185 442Q158 425 142 399T125 347Q125 316 150 297T235 249Q244 244 257 238T288 223Q354 190 376 175Q429 216 429 269Q429 296 414 314Z" />
<glyph unicode="&#xa8;" glyph-name="dieresis" horiz-adv-x="400" d="M144 554T136 561T128 582Q128 601 140 612T171 624Q185 624 193 617T201 596Q201 577 189 566T158 554Q144 554 136 561ZM334 554T326 562T317 583Q317 601 329 612T360 624Q374 624 382
617T390 596Q390 577 378 566T347 554Q334 554 326 562Z" />
<glyph unicode="&#xa9;" glyph-name="copyright" horiz-adv-x="798" d="M265 -10T197 26T90 127T51 276Q51 403 105 501T257 655T480 710Q568 710 636 674T743 573T782 424Q782 297 728 199T576 45T353 -10Q265 -10 197 26ZM472 26T559 75T695 214T744 417Q744
492 710 550T614 641T474 674Q362 674 275 625T139 486T90 283Q90 208 124 150T220 59T360 26Q472 26 559 75ZM325 136T287 177T249 291Q249 369 276 433T352 533T460 570Q499 570 530 556T573 516L549 496Q537 516 513 527T458 539Q410 539 371 507T308 419T285
297Q285 235 313 201T392 167Q424 167 452 178T499 210L516 190Q495 165 462 151T391 136Q325 136 287 177Z" />
<glyph unicode="&#xaa;" glyph-name="ordfeminine" horiz-adv-x="363" d="M139 361T113 383T87 443Q87 499 130 533T244 568H327L330 586Q333 601 333 615Q333 682 258 682Q228 682 201 668T153 626L139 647Q160 675 192 691T259 707Q310 707 337 684T364 619Q364
607 361 592L332 428Q328 404 328 389Q328 377 329 368H300Q298 398 302 424Q276 392 247 377T182 361Q139 361 113 383ZM229 386T267 416T312 486L322 543H236Q182 543 149 517T116 447Q116 419 135 403T187 386Q229 386 267 416Z" />
<glyph unicode="&#xab;" glyph-name="guillemotleft" horiz-adv-x="440" d="M44 260L242 453H287L91 260L219 67H174L44 260ZM191 260L390 453H434L239 260L366 67H322L191 260Z" />
<glyph unicode="&#xac;" glyph-name="logicalnot" horiz-adv-x="596" d="M537 360H51L57 394H579L534 138H498L537 360Z" />
<glyph unicode="&#xad;" glyph-name="uni00AD" horiz-adv-x="340" d="M50 284H302L296 248H44L50 284Z" />
<glyph unicode="&#xae;" glyph-name="registered" horiz-adv-x="506" d="M404 710T448 668T493 560Q493 493 465 442T385 361T267 332Q197 332 153 374T108 482Q108 549 136 600T216 681T334 710Q404 710 448 668ZM328 357T372 382T441 452T466 555Q466 613 428
649T329 685Q273 685 229 660T160 590T135 487Q135 429 173 393T272 357Q328 357 372 382ZM354 637T374 623T394 584Q394 551 376 528T324 500L354 412H317L289 499H250L234 412H201L241 637H323Q354 637 374 623ZM330 525T345 540T361 579Q361 611 317 611H269L254
525H304Q330 525 345 540Z" />
<glyph unicode="&#xaf;" glyph-name="overscore" horiz-adv-x="401" d="M107 610H420L414 574H101L107 610Z" />
<glyph unicode="&#xb0;" glyph-name="degree" horiz-adv-x="307" d="M145 463T117 490T88 560Q88 626 129 668T234 710Q280 710 309 683T338 612Q338 546 297 505T191 463Q145 463 117 490ZM245 489T277 522T309 607Q309 641 287 662T230 684Q180 684 149 651T117
566Q117 532 139 511T195 489Q245 489 277 522Z" />
<glyph unicode="&#xb1;" glyph-name="plusminus" horiz-adv-x="596" d="M325 304L287 90H252L290 304H66L72 338H296L334 553H369L331 338H556L550 304H325ZM27 34H494L488 0H21L27 34Z" />
<glyph unicode="&#xb2;" glyph-name="uni00B2" horiz-adv-x="369" d="M44 248Q109 291 175 350T287 474T333 594Q333 630 311 652T249 674Q212 674 175 656T116 613L103 637Q126 668 166 685T249 703Q302 703 335 675T368 599Q368 513 284 418T84 238H332L327
208H37L44 248Z" />
<glyph unicode="&#xb3;" glyph-name="uni00B3" horiz-adv-x="369" d="M128 198T89 216T36 266L57 289Q70 259 102 243T175 226Q214 226 247 243T299 289T318 354Q318 398 281 422T178 447H168L174 480H184Q228 480 265 497T324 543T346 607Q346 639 323 656T262
674Q220 674 183 657T125 612L111 634Q134 666 175 684T261 703Q313 703 345 678T378 608Q378 558 342 519T245 465Q298 457 324 428T351 356Q351 311 329 275T267 219T177 198Q128 198 89 216Z" />
<glyph unicode="&#xb4;" glyph-name="acute" horiz-adv-x="400" d="M286 678H333L227 554H195L286 678Z" />
<glyph unicode="&#xb5;" glyph-name="uni00B5" horiz-adv-x="547" d="M120 500H158L106 203Q101 173 101 153Q101 92 130 57T218 21Q267 21 310 47T382 119T422 224L470 500H508L438 102Q437 98 433 68T430 0H397Q397 47 403 95H399Q363 43 316 17T214 -10Q169
-10 131 10T83 66L31 -228H-8L120 500Z" />
<glyph unicode="&#xb6;" glyph-name="paragraph" horiz-adv-x="526" d="M277 267H271Q214 267 170 288T101 349T76 438Q76 562 155 631T386 700H515L375 -93H337L470 662H384L251 -93H213L277 267Z" />
<glyph unicode="&#xb7;" glyph-name="middot" horiz-adv-x="208" d="M83 219T73 228T63 254Q63 278 77 293T115 308Q131 308 141 299T151 273Q151 249 137 234T99 219Q83 219 73 228Z" />
<glyph unicode="&#xb8;" glyph-name="cedilla" horiz-adv-x="400" d="M81 -195T51 -192L56 -171H102Q136 -171 158 -156T181 -116Q181 -99 161 -89T99 -79L92 -68L152 13H176L130 -58Q167 -58 188 -71T210 -109Q210 -147 182 -171T108 -195Q81 -195 51 -192Z" />
<glyph unicode="&#xb9;" glyph-name="uni00B9" horiz-adv-x="369" d="M85 238H173L247 655L136 597L141 628L267 698H286L205 238H292L287 208H80L85 238Z" />
<glyph unicode="&#xba;" glyph-name="ordmasculine" horiz-adv-x="391" d="M161 361T126 398T90 494Q90 556 113 604T177 680T271 707Q328 707 364 670T400 574Q400 512 377 464T313 388T218 361Q161 361 126 398ZM286 386T328 437T370 570Q370 619 343 650T271
682Q204 682 162 631T120 498Q120 449 147 418T219 386Q286 386 328 437Z" />
<glyph unicode="&#xbb;" glyph-name="guillemotright" horiz-adv-x="440" d="M205 260L78 453H122L253 260L54 67H10L205 260ZM353 260L225 453H270L400 260L202 67H157L353 260Z" />
<glyph unicode="&#xbc;" glyph-name="onequarter" horiz-adv-x="909" d="M98 295H176L242 665L143 614L147 641L259 704H276L204 295H282L277 268H93L98 295ZM735 679H770L224 -7H188L735 679ZM712 81H506L514 117L755 435H804L746 108H796L792 81H742L728 0H698L712
81ZM716 108L770 411L538 108H716Z" />
<glyph unicode="&#xbd;" glyph-name="onehalf" horiz-adv-x="909" d="M98 295H176L242 665L143 614L147 641L259 704H276L204 295H282L277 268H93L98 295ZM695 679H730L184 -7H148L695 679ZM555 35Q650 98 731 185T812 343Q812 376 792 395T737 414Q704 414 671
398T619 360L608 381Q628 409 664 424T737 440Q784 440 813 415T843 347Q843 271 768 186T591 27H811L807 0H549L555 35Z" />
<glyph unicode="&#xbe;" glyph-name="threequarters" horiz-adv-x="909" d="M125 260T90 276T43 320L62 341Q74 314 102 300T167 285Q220 285 257 318T294 399Q294 437 261 459T169 481H160L166 511H175Q214 511 247 526T299 567T319 624Q319 652 298 667T244
683Q207 683 174 668T122 628L110 648Q130 677 166 693T243 709Q289 709 318 687T347 625Q347 581 315 546T229 497Q276 491 299 465T323 400Q323 360 303 329T248 279T168 260Q125 260 90 276ZM735 679H770L224 -7H188L735 679ZM716 81H510L518 117L759 435H808L750
108H800L796 81H746L732 0H702L716 81ZM720 108L774 411L542 108H720Z" />
<glyph unicode="&#xbf;" glyph-name="questiondown" horiz-adv-x="436" d="M232 418T222 428T211 454Q211 479 226 494T265 510Q282 510 292 500T303 474Q303 449 288 434T249 418Q232 418 222 428ZM67 -209T29 -176T-10 -80Q-10 -35 5 1T44 64T105 128Q145 168
168 196T208 263T224 350V353H257Q258 348 258 336Q258 291 242 254T201 187T139 119Q102 81 81 56T45 -2T30 -72Q30 -122 60 -148T149 -174Q193 -174 235 -153T305 -96L327 -123Q294 -165 244 -187T141 -209Q67 -209 29 -176Z" />
<glyph unicode="&#xc0;" glyph-name="Agrave" horiz-adv-x="551" d="M418 189H116L22 0H-23L334 700H375L486 0H445L418 189ZM413 222L351 664L132 222H413ZM285 881H333L382 754H349L285 881Z" />
<glyph unicode="&#xc1;" glyph-name="Aacute" horiz-adv-x="551" d="M418 189H116L22 0H-23L334 700H375L486 0H445L418 189ZM413 222L351 664L132 222H413ZM444 881H491L383 754H350L444 881Z" />
<glyph unicode="&#xc2;" glyph-name="Acircumflex" horiz-adv-x="551" d="M418 189H116L22 0H-23L334 700H375L486 0H445L418 189ZM413 222L351 664L132 222H413ZM364 875H407L473 754H441L382 852L290 754H255L364 875Z" />
<glyph unicode="&#xc3;" glyph-name="Atilde" horiz-adv-x="551" d="M418 189H116L22 0H-23L334 700H375L486 0H445L418 189ZM413 222L351 664L132 222H413ZM243 784T261 806T308 828Q325 828 340 822T377 801Q395 790 405 786T425 781Q454 781 468 832H497Q491
802 471 778T423 754Q407 754 394 760T356 780Q339 791 329 796T309 801Q293 801 282 788T266 754H237Q243 784 261 806Z" />
<glyph unicode="&#xc4;" glyph-name="Adieresis" horiz-adv-x="551" d="M418 189H116L22 0H-23L334 700H375L486 0H445L418 189ZM413 222L351 664L132 222H413ZM254 754T246 761T238 782Q238 801 250 812T281 824Q295 824 303 817T311 796Q311 777 299 766T268
754Q254 754 246 761ZM444 754T436 762T427 783Q427 801 439 812T470 824Q484 824 492 817T500 796Q500 777 488 766T457 754Q444 754 436 762Z" />
<glyph unicode="&#xc5;" glyph-name="Aring" horiz-adv-x="551" d="M418 189H116L22 0H-23L334 700H375L486 0H445L418 189ZM413 222L351 664L132 222H413ZM333 724T314 741T294 787Q294 827 319 851T385 876Q416 876 435 859T454 813Q454 773 429 749T364 724Q333
724 314 741ZM393 747T410 764T427 810Q427 829 415 840T383 852Q355 852 338 835T321 790Q321 771 333 759T365 747Q393 747 410 764Z" />
<glyph unicode="&#xc6;" glyph-name="AE" horiz-adv-x="773" d="M482 665L433 388H696L690 353H427L371 35H669L663 0H327L361 194H148L19 0H-23L128 227V228L441 700H786L780 665H482ZM438 632L170 228H367L438 632Z" />
<glyph unicode="&#xc7;" glyph-name="Ccedilla" horiz-adv-x="557" d="M464 710T516 685T590 617L566 587Q543 632 505 653T409 675Q319 675 247 620T133 469T92 252Q92 143 142 84T288 25Q347 25 399 48T482 113L496 83Q463 42 411 17T300 -10L262 -64Q300 -64
322 -81T344 -124Q344 -163 315 -183T242 -204Q209 -204 185 -200L192 -177Q204 -179 236 -179Q315 -179 315 -125Q315 -105 295 -96T233 -86L225 -75L272 -10Q169 -5 111 61T52 244Q52 375 97 481T222 649T402 710Q464 710 516 685Z" />
<glyph unicode="&#xc8;" glyph-name="Egrave" horiz-adv-x="535" d="M175 700H548L542 665H207L158 387H458L452 352H152L96 35H431L425 0H52L175 700ZM299 881H347L396 754H363L299 881Z" />
<glyph unicode="&#xc9;" glyph-name="Eacute" horiz-adv-x="535" d="M175 700H548L542 665H207L158 387H458L452 352H152L96 35H431L425 0H52L175 700ZM458 881H505L397 754H364L458 881Z" />
<glyph unicode="&#xca;" glyph-name="Ecircumflex" horiz-adv-x="535" d="M175 700H548L542 665H207L158 387H458L452 352H152L96 35H431L425 0H52L175 700ZM378 875H421L487 754H455L396 852L304 754H269L378 875Z" />
<glyph unicode="&#xcb;" glyph-name="Edieresis" horiz-adv-x="535" d="M175 700H548L542 665H207L158 387H458L452 352H152L96 35H431L425 0H52L175 700ZM268 754T260 761T252 782Q252 801 264 812T295 824Q309 824 317 817T325 796Q325 777 313 766T282 754Q268
754 260 761ZM458 754T450 762T441 783Q441 801 453 812T484 824Q498 824 506 817T514 796Q514 777 502 766T471 754Q458 754 450 762Z" />
<glyph unicode="&#xcc;" glyph-name="Igrave" horiz-adv-x="268" d="M194 700H232L109 0H71L194 700ZM144 881H192L241 754H208L144 881Z" />
<glyph unicode="&#xcd;" glyph-name="Iacute" horiz-adv-x="268" d="M194 700H232L109 0H71L194 700ZM303 881H350L242 754H209L303 881Z" />
<glyph unicode="&#xce;" glyph-name="Icircumflex" horiz-adv-x="268" d="M194 700H232L109 0H71L194 700ZM223 875H266L332 754H300L241 852L149 754H114L223 875Z" />
<glyph unicode="&#xcf;" glyph-name="Idieresis" horiz-adv-x="268" d="M194 700H232L109 0H71L194 700ZM113 754T105 761T97 782Q97 801 109 812T140 824Q154 824 162 817T170 796Q170 777 158 766T127 754Q113 754 105 761ZM303 754T295 762T286 783Q286 801
298 812T329 824Q343 824 351 817T359 796Q359 777 347 766T316 754Q303 754 295 762Z" />
<glyph unicode="&#xd0;" glyph-name="Eth" horiz-adv-x="606" d="M471 700T528 654T586 496Q586 343 545 232T424 60T233 0H51L107 321H20L26 356H114L174 700H365Q471 700 528 654ZM335 35T403 91T510 251T548 490Q548 587 504 626T370 665H206L152 356H404L398
321H145L95 35H245Q335 35 403 91Z" />
<glyph unicode="&#xd1;" glyph-name="Ntilde" horiz-adv-x="666" d="M649 700L526 0H482L204 658L88 0H52L175 700H225L499 49L613 700H649ZM301 784T319 806T366 828Q383 828 398 822T435 801Q453 790 463 786T483 781Q512 781 526 832H555Q549 802 529 778T481
754Q465 754 452 760T414 780Q397 791 387 796T367 801Q351 801 340 788T324 754H295Q301 784 319 806Z" />
<glyph unicode="&#xd2;" glyph-name="Ograve" horiz-adv-x="644" d="M176 -10T115 60T53 251Q53 376 99 481T224 648T398 710Q468 710 519 678T599 587T627 448Q627 323 581 218T456 52T282 -10Q176 -10 115 60ZM367 24T437 80T548 233T589 446Q589 553 539 614T398
676Q314 676 244 620T132 466T91 254Q91 146 141 85T283 24Q367 24 437 80ZM333 881H381L430 754H397L333 881Z" />
<glyph unicode="&#xd3;" glyph-name="Oacute" horiz-adv-x="644" d="M176 -10T115 60T53 251Q53 376 99 481T224 648T398 710Q468 710 519 678T599 587T627 448Q627 323 581 218T456 52T282 -10Q176 -10 115 60ZM367 24T437 80T548 233T589 446Q589 553 539 614T398
676Q314 676 244 620T132 466T91 254Q91 146 141 85T283 24Q367 24 437 80ZM492 881H539L431 754H398L492 881Z" />
<glyph unicode="&#xd4;" glyph-name="Ocircumflex" horiz-adv-x="644" d="M176 -10T115 60T53 251Q53 376 99 481T224 648T398 710Q468 710 519 678T599 587T627 448Q627 323 581 218T456 52T282 -10Q176 -10 115 60ZM367 24T437 80T548 233T589 446Q589 553 539
614T398 676Q314 676 244 620T132 466T91 254Q91 146 141 85T283 24Q367 24 437 80ZM412 875H455L521 754H489L430 852L338 754H303L412 875Z" />
<glyph unicode="&#xd5;" glyph-name="Otilde" horiz-adv-x="644" d="M176 -10T115 60T53 251Q53 376 99 481T224 648T398 710Q468 710 519 678T599 587T627 448Q627 323 581 218T456 52T282 -10Q176 -10 115 60ZM367 24T437 80T548 233T589 446Q589 553 539 614T398
676Q314 676 244 620T132 466T91 254Q91 146 141 85T283 24Q367 24 437 80ZM291 784T309 806T356 828Q373 828 388 822T425 801Q443 790 453 786T473 781Q502 781 516 832H545Q539 802 519 778T471 754Q455 754 442 760T404 780Q387 791 377 796T357 801Q341 801
330 788T314 754H285Q291 784 309 806Z" />
<glyph unicode="&#xd6;" glyph-name="Odieresis" horiz-adv-x="644" d="M176 -10T115 60T53 251Q53 376 99 481T224 648T398 710Q468 710 519 678T599 587T627 448Q627 323 581 218T456 52T282 -10Q176 -10 115 60ZM367 24T437 80T548 233T589 446Q589 553 539
614T398 676Q314 676 244 620T132 466T91 254Q91 146 141 85T283 24Q367 24 437 80ZM302 754T294 761T286 782Q286 801 298 812T329 824Q343 824 351 817T359 796Q359 777 347 766T316 754Q302 754 294 761ZM492 754T484 762T475 783Q475 801 487 812T518 824Q532
824 540 817T548 796Q548 777 536 766T505 754Q492 754 484 762Z" />
<glyph unicode="&#xd7;" glyph-name="multiply" horiz-adv-x="596" d="M293 227L60 20L36 45L270 255L110 462L142 489L303 282L538 489L563 462L329 255L489 45L456 20L293 227Z" />
<glyph unicode="&#xd8;" glyph-name="Oslash" horiz-adv-x="644" d="M568 636Q597 602 612 554T627 448Q627 323 581 218T456 52T282 -10Q202 -10 144 32L91 -43H55L122 52Q89 86 71 137T53 251Q53 376 99 481T224 648T398 710Q488 710 547 657L595 725H631L568
636ZM91 143T143 83L527 628Q477 676 398 676Q314 676 244 620T132 466T91 254Q91 143 143 83ZM589 545T546 605L165 62Q212 24 283 24Q367 24 437 80T548 233T589 446Q589 545 546 605Z" />
<glyph unicode="&#xd9;" glyph-name="Ugrave" horiz-adv-x="655" d="M195 -10T145 40T94 189Q94 233 102 276L177 700H215L140 278Q132 235 132 191Q132 24 289 24Q480 24 525 278L600 700H638L563 276Q537 132 472 61T293 -10Q195 -10 145 40ZM339 881H387L436
754H403L339 881Z" />
<glyph unicode="&#xda;" glyph-name="Uacute" horiz-adv-x="655" d="M195 -10T145 40T94 189Q94 233 102 276L177 700H215L140 278Q132 235 132 191Q132 24 289 24Q480 24 525 278L600 700H638L563 276Q537 132 472 61T293 -10Q195 -10 145 40ZM498 881H545L437
754H404L498 881Z" />
<glyph unicode="&#xdb;" glyph-name="Ucircumflex" horiz-adv-x="655" d="M195 -10T145 40T94 189Q94 233 102 276L177 700H215L140 278Q132 235 132 191Q132 24 289 24Q480 24 525 278L600 700H638L563 276Q537 132 472 61T293 -10Q195 -10 145 40ZM418 875H461L527
754H495L436 852L344 754H309L418 875Z" />
<glyph unicode="&#xdc;" glyph-name="Udieresis" horiz-adv-x="655" d="M195 -10T145 40T94 189Q94 233 102 276L177 700H215L140 278Q132 235 132 191Q132 24 289 24Q480 24 525 278L600 700H638L563 276Q537 132 472 61T293 -10Q195 -10 145 40ZM308 754T300
761T292 782Q292 801 304 812T335 824Q349 824 357 817T365 796Q365 777 353 766T322 754Q308 754 300 761ZM498 754T490 762T481 783Q481 801 493 812T524 824Q538 824 546 817T554 796Q554 777 542 766T511 754Q498 754 490 762Z" />
<glyph unicode="&#xdd;" glyph-name="Yacute" horiz-adv-x="517" d="M244 277L101 700H144L267 309L529 700H574L282 277L234 0H196L244 277ZM427 881H474L366 754H333L427 881Z" />
<glyph unicode="&#xde;" glyph-name="Thorn" horiz-adv-x="562" d="M175 700H213L195 598H330Q422 598 474 557T526 440Q526 320 458 250T269 179H122L90 0H52L175 700ZM279 213Q341 213 388 240T461 318T487 434Q487 497 448 530T332 563H189L128 213H279Z" />
<glyph unicode="&#xdf;" glyph-name="germandbls" horiz-adv-x="556" d="M268 -10T227 8T168 64L197 82Q214 52 243 38T309 24Q374 24 415 63T457 160Q457 197 434 217T357 256Q314 271 294 288T274 334Q274 375 296 401T364 458Q410 490 433 517T456 587Q456
631 427 653T343 676Q266 676 220 628T156 483L71 0H33L119 488Q138 597 193 653T339 710Q412 710 452 679T493 592Q493 551 478 522T441 473T384 430Q347 405 329 386T311 340Q311 321 324 310T371 287Q409 273 434 260T477 222T495 161Q495 113 472 74T407 12T313
-10Q268 -10 227 8Z" />
<glyph unicode="&#xe0;" glyph-name="agrave" horiz-adv-x="530" d="M126 -10T82 40T38 180Q38 275 70 350T161 467T294 510Q344 510 384 486T441 418H443L467 500H498L431 120Q419 57 413 0H381Q389 60 394 93H392Q360 45 312 18T209 -10Q126 -10 82 40ZM255
24T297 46T369 109T407 200L421 279Q426 309 426 331Q426 399 391 437T291 476Q230 476 181 438T104 334T76 185Q76 109 110 67T207 24Q255 24 297 46ZM224 681H272L321 554H288L224 681Z" />
<glyph unicode="&#xe1;" glyph-name="aacute" horiz-adv-x="530" d="M126 -10T82 40T38 180Q38 275 70 350T161 467T294 510Q344 510 384 486T441 418H443L467 500H498L431 120Q419 57 413 0H381Q389 60 394 93H392Q360 45 312 18T209 -10Q126 -10 82 40ZM255
24T297 46T369 109T407 200L421 279Q426 309 426 331Q426 399 391 437T291 476Q230 476 181 438T104 334T76 185Q76 109 110 67T207 24Q255 24 297 46ZM383 681H430L322 554H289L383 681Z" />
<glyph unicode="&#xe2;" glyph-name="acircumflex" horiz-adv-x="530" d="M126 -10T82 40T38 180Q38 275 70 350T161 467T294 510Q344 510 384 486T441 418H443L467 500H498L431 120Q419 57 413 0H381Q389 60 394 93H392Q360 45 312 18T209 -10Q126 -10 82 40ZM255
24T297 46T369 109T407 200L421 279Q426 309 426 331Q426 399 391 437T291 476Q230 476 181 438T104 334T76 185Q76 109 110 67T207 24Q255 24 297 46ZM303 675H346L412 554H380L321 652L229 554H194L303 675Z" />
<glyph unicode="&#xe3;" glyph-name="atilde" horiz-adv-x="530" d="M126 -10T82 40T38 180Q38 275 70 350T161 467T294 510Q344 510 384 486T441 418H443L467 500H498L431 120Q419 57 413 0H381Q389 60 394 93H392Q360 45 312 18T209 -10Q126 -10 82 40ZM255
24T297 46T369 109T407 200L421 279Q426 309 426 331Q426 399 391 437T291 476Q230 476 181 438T104 334T76 185Q76 109 110 67T207 24Q255 24 297 46ZM182 584T200 606T247 628Q264 628 279 622T316 601Q334 590 344 586T364 581Q393 581 407 632H436Q430 602
410 578T362 554Q346 554 333 560T295 580Q278 591 268 596T248 601Q232 601 221 588T205 554H176Q182 584 200 606Z" />
<glyph unicode="&#xe4;" glyph-name="adieresis" horiz-adv-x="530" d="M126 -10T82 40T38 180Q38 275 70 350T161 467T294 510Q344 510 384 486T441 418H443L467 500H498L431 120Q419 57 413 0H381Q389 60 394 93H392Q360 45 312 18T209 -10Q126 -10 82 40ZM255
24T297 46T369 109T407 200L421 279Q426 309 426 331Q426 399 391 437T291 476Q230 476 181 438T104 334T76 185Q76 109 110 67T207 24Q255 24 297 46ZM193 554T185 561T177 582Q177 601 189 612T220 624Q234 624 242 617T250 596Q250 577 238 566T207 554Q193
554 185 561ZM383 554T375 562T366 583Q366 601 378 612T409 624Q423 624 431 617T439 596Q439 577 427 566T396 554Q383 554 375 562Z" />
<glyph unicode="&#xe5;" glyph-name="aring" horiz-adv-x="530" d="M126 -10T82 40T38 180Q38 275 70 350T161 467T294 510Q344 510 384 486T441 418H443L467 500H498L431 120Q419 57 413 0H381Q389 60 394 93H392Q360 45 312 18T209 -10Q126 -10 82 40ZM255 24T297
46T369 109T407 200L421 279Q426 309 426 331Q426 399 391 437T291 476Q230 476 181 438T104 334T76 185Q76 109 110 67T207 24Q255 24 297 46ZM275 554T256 571T236 617Q236 657 261 681T327 706Q358 706 377 689T396 643Q396 603 371 579T306 554Q275 554 256
571ZM335 577T352 594T369 640Q369 659 357 670T325 682Q297 682 280 665T263 620Q263 601 275 589T307 577Q335 577 352 594Z" />
<glyph unicode="&#xe6;" glyph-name="ae" horiz-adv-x="833" d="M713 510T758 466T803 340Q803 307 798 282L793 253H416L411 227Q409 199 409 186Q409 110 447 67T556 24Q603 24 646 45T716 103L737 77Q702 36 656 13T559 -10Q490 -10 444 21T381 112Q353 55
298 23T166 -10Q101 -10 62 26T22 119Q22 170 50 208T130 267T246 288H383L390 325Q394 344 394 364Q394 416 364 446T277 476Q231 476 189 454T117 392L95 418Q127 462 174 486T279 510Q343 510 383 480T431 395Q466 449 518 479T632 510Q713 510 758 466ZM767
327T767 344Q767 407 731 441T631 476Q559 476 503 424T422 287H761L764 306Q767 327 767 344ZM240 24T294 61T360 160L377 254H243Q192 254 150 237T84 188T60 118Q60 77 89 51T166 24Q240 24 294 61Z" />
<glyph unicode="&#xe7;" glyph-name="ccedilla" horiz-adv-x="456" d="M358 510T400 487T464 421L437 397Q420 434 384 455T301 476Q238 476 187 438T106 333T76 185Q76 108 113 66T221 24Q268 24 311 44T385 103L404 79Q366 35 322 13T224 -10L186 -64Q224 -64
246 -81T268 -124Q268 -163 239 -183T166 -204Q133 -204 109 -200L116 -177Q128 -179 160 -179Q239 -179 239 -125Q239 -105 219 -96T157 -86L149 -75L197 -9Q121 -1 79 47T37 177Q37 272 70 348T164 467T302 510Q358 510 400 487Z" />
<glyph unicode="&#xe8;" glyph-name="egrave" horiz-adv-x="495" d="M372 510T417 463T463 330Q463 300 457 267L451 233H77Q74 209 74 185Q74 109 112 67T220 24Q266 24 309 45T379 103L400 77Q362 33 318 12T221 -10Q135 -10 86 41T36 180Q36 272 69 347T160
466T292 510Q372 510 417 463ZM427 306T427 331Q427 397 391 436T294 476Q217 476 159 418T82 267H419L421 277Q427 306 427 331ZM235 681H283L332 554H299L235 681Z" />
<glyph unicode="&#xe9;" glyph-name="eacute" horiz-adv-x="495" d="M372 510T417 463T463 330Q463 300 457 267L451 233H77Q74 209 74 185Q74 109 112 67T220 24Q266 24 309 45T379 103L400 77Q362 33 318 12T221 -10Q135 -10 86 41T36 180Q36 272 69 347T160
466T292 510Q372 510 417 463ZM427 306T427 331Q427 397 391 436T294 476Q217 476 159 418T82 267H419L421 277Q427 306 427 331ZM394 681H441L333 554H300L394 681Z" />
<glyph unicode="&#xea;" glyph-name="ecircumflex" horiz-adv-x="495" d="M372 510T417 463T463 330Q463 300 457 267L451 233H77Q74 209 74 185Q74 109 112 67T220 24Q266 24 309 45T379 103L400 77Q362 33 318 12T221 -10Q135 -10 86 41T36 180Q36 272 69 347T160
466T292 510Q372 510 417 463ZM427 306T427 331Q427 397 391 436T294 476Q217 476 159 418T82 267H419L421 277Q427 306 427 331ZM314 675H357L423 554H391L332 652L240 554H205L314 675Z" />
<glyph unicode="&#xeb;" glyph-name="edieresis" horiz-adv-x="495" d="M372 510T417 463T463 330Q463 300 457 267L451 233H77Q74 209 74 185Q74 109 112 67T220 24Q266 24 309 45T379 103L400 77Q362 33 318 12T221 -10Q135 -10 86 41T36 180Q36 272 69 347T160
466T292 510Q372 510 417 463ZM427 306T427 331Q427 397 391 436T294 476Q217 476 159 418T82 267H419L421 277Q427 306 427 331ZM204 554T196 561T188 582Q188 601 200 612T231 624Q245 624 253 617T261 596Q261 577 249 566T218 554Q204 554 196 561ZM394 554T386
562T377 583Q377 601 389 612T420 624Q434 624 442 617T450 596Q450 577 438 566T407 554Q394 554 386 562Z" />
<glyph unicode="&#xec;" glyph-name="igrave" horiz-adv-x="226" d="M138 500H176L88 0H50L138 500ZM88 681H136L185 554H152L88 681Z" />
<glyph unicode="&#xed;" glyph-name="iacute" horiz-adv-x="226" d="M138 500H176L88 0H50L138 500ZM247 681H294L186 554H153L247 681Z" />
<glyph unicode="&#xee;" glyph-name="icircumflex" horiz-adv-x="226" d="M138 500H176L88 0H50L138 500ZM167 675H210L276 554H244L185 652L93 554H58L167 675Z" />
<glyph unicode="&#xef;" glyph-name="idieresis" horiz-adv-x="226" d="M138 500H176L88 0H50L138 500ZM57 554T49 561T41 582Q41 601 53 612T84 624Q98 624 106 617T114 596Q114 577 102 566T71 554Q57 554 49 561ZM247 554T239 562T230 583Q230 601 242 612T273
624Q287 624 295 617T303 596Q303 577 291 566T260 554Q247 554 239 562Z" />
<glyph unicode="&#xf0;" glyph-name="eth" horiz-adv-x="488" d="M359 599Q404 549 428 482T452 339Q452 235 421 156T333 34T200 -10Q124 -10 78 39T31 166Q31 240 62 302T147 402T265 439Q320 439 361 415T418 353Q417 420 395 478T329 582L179 494L165 523L306
604Q243 658 159 681L168 709Q268 687 337 622L461 694L474 666L359 599ZM256 24T302 56T376 142T403 259Q403 325 367 365T269 405Q216 405 170 373T97 287T70 169Q70 103 105 64T202 24Q256 24 302 56Z" />
<glyph unicode="&#xf1;" glyph-name="ntilde" horiz-adv-x="538" d="M99 380Q113 453 117 500H149Q144 445 133 393H137Q171 448 222 479T329 510Q401 510 439 471T477 355Q477 329 470 285L420 0H382L432 286Q439 332 439 355Q439 476 333 476Q283 476 238 450T160
377T118 272L70 0H32L99 380ZM203 584T221 606T268 628Q285 628 300 622T337 601Q355 590 365 586T385 581Q414 581 428 632H457Q451 602 431 578T383 554Q367 554 354 560T316 580Q299 591 289 596T269 601Q253 601 242 588T226 554H197Q203 584 221 606Z" />
<glyph unicode="&#xf2;" glyph-name="ograve" horiz-adv-x="536" d="M140 -10T88 44T36 188Q36 276 72 350T170 467T308 510Q396 510 447 456T499 312Q499 224 464 151T366 34T228 -10Q140 -10 88 44ZM290 24T344 62T429 165T461 305Q461 383 420 429T308 476Q246
476 192 438T107 336T75 195Q75 117 116 71T228 24Q290 24 344 62ZM243 681H291L340 554H307L243 681Z" />
<glyph unicode="&#xf3;" glyph-name="oacute" horiz-adv-x="536" d="M140 -10T88 44T36 188Q36 276 72 350T170 467T308 510Q396 510 447 456T499 312Q499 224 464 151T366 34T228 -10Q140 -10 88 44ZM290 24T344 62T429 165T461 305Q461 383 420 429T308 476Q246
476 192 438T107 336T75 195Q75 117 116 71T228 24Q290 24 344 62ZM402 681H449L341 554H308L402 681Z" />
<glyph unicode="&#xf4;" glyph-name="ocircumflex" horiz-adv-x="536" d="M140 -10T88 44T36 188Q36 276 72 350T170 467T308 510Q396 510 447 456T499 312Q499 224 464 151T366 34T228 -10Q140 -10 88 44ZM290 24T344 62T429 165T461 305Q461 383 420 429T308
476Q246 476 192 438T107 336T75 195Q75 117 116 71T228 24Q290 24 344 62ZM322 675H365L431 554H399L340 652L248 554H213L322 675Z" />
<glyph unicode="&#xf5;" glyph-name="otilde" horiz-adv-x="536" d="M140 -10T88 44T36 188Q36 276 72 350T170 467T308 510Q396 510 447 456T499 312Q499 224 464 151T366 34T228 -10Q140 -10 88 44ZM290 24T344 62T429 165T461 305Q461 383 420 429T308 476Q246
476 192 438T107 336T75 195Q75 117 116 71T228 24Q290 24 344 62ZM201 584T219 606T266 628Q283 628 298 622T335 601Q353 590 363 586T383 581Q412 581 426 632H455Q449 602 429 578T381 554Q365 554 352 560T314 580Q297 591 287 596T267 601Q251 601 240 588T224
554H195Q201 584 219 606Z" />
<glyph unicode="&#xf6;" glyph-name="odieresis" horiz-adv-x="536" d="M140 -10T88 44T36 188Q36 276 72 350T170 467T308 510Q396 510 447 456T499 312Q499 224 464 151T366 34T228 -10Q140 -10 88 44ZM290 24T344 62T429 165T461 305Q461 383 420 429T308 476Q246
476 192 438T107 336T75 195Q75 117 116 71T228 24Q290 24 344 62ZM212 554T204 561T196 582Q196 601 208 612T239 624Q253 624 261 617T269 596Q269 577 257 566T226 554Q212 554 204 561ZM402 554T394 562T385 583Q385 601 397 612T428 624Q442 624 450 617T458
596Q458 577 446 566T415 554Q402 554 394 562Z" />
<glyph unicode="&#xf7;" glyph-name="divide" horiz-adv-x="596" d="M309 402T299 411T289 437Q289 460 303 474T340 488Q356 488 365 479T375 454Q375 431 361 417T325 402Q309 402 299 411ZM61 279H545L539 245H55L61 279ZM244 36T235 46T225 72Q225 94 239
108T275 122Q291 122 301 113T311 88Q311 65 297 51T260 36Q244 36 235 46Z" />
<glyph unicode="&#xf8;" glyph-name="oslash" horiz-adv-x="536" d="M471 433T485 396T499 312Q499 224 464 151T366 34T228 -10Q169 -10 127 14L87 -43H54L104 29Q71 55 54 96T36 188Q36 276 72 350T170 467T308 510Q374 510 420 479L460 535H497L444 460Q471
433 485 396ZM75 152T88 118T126 60L399 448Q362 476 308 476Q246 476 192 438T107 336T75 195Q75 152 88 118ZM290 24T344 62T429 165T461 305Q461 382 421 428L149 44Q183 24 228 24Q290 24 344 62Z" />
<glyph unicode="&#xf9;" glyph-name="ugrave" horiz-adv-x="546" d="M138 -10T100 28T62 141Q62 170 68 204L120 500H158L105 198Q100 172 100 141Q100 24 212 24Q261 24 305 50T381 123T422 226L470 500H508L436 89Q428 39 429 0H397Q397 48 405 103H401Q366
48 317 19T210 -10Q138 -10 100 28ZM247 681H295L344 554H311L247 681Z" />
<glyph unicode="&#xfa;" glyph-name="uacute" horiz-adv-x="546" d="M138 -10T100 28T62 141Q62 170 68 204L120 500H158L105 198Q100 172 100 141Q100 24 212 24Q261 24 305 50T381 123T422 226L470 500H508L436 89Q428 39 429 0H397Q397 48 405 103H401Q366
48 317 19T210 -10Q138 -10 100 28ZM406 681H453L345 554H312L406 681Z" />
<glyph unicode="&#xfb;" glyph-name="ucircumflex" horiz-adv-x="546" d="M138 -10T100 28T62 141Q62 170 68 204L120 500H158L105 198Q100 172 100 141Q100 24 212 24Q261 24 305 50T381 123T422 226L470 500H508L436 89Q428 39 429 0H397Q397 48 405 103H401Q366
48 317 19T210 -10Q138 -10 100 28ZM326 675H369L435 554H403L344 652L252 554H217L326 675Z" />
<glyph unicode="&#xfc;" glyph-name="udieresis" horiz-adv-x="546" d="M138 -10T100 28T62 141Q62 170 68 204L120 500H158L105 198Q100 172 100 141Q100 24 212 24Q261 24 305 50T381 123T422 226L470 500H508L436 89Q428 39 429 0H397Q397 48 405 103H401Q366
48 317 19T210 -10Q138 -10 100 28ZM216 554T208 561T200 582Q200 601 212 612T243 624Q257 624 265 617T273 596Q273 577 261 566T230 554Q216 554 208 561ZM406 554T398 562T389 583Q389 601 401 612T432 624Q446 624 454 617T462 596Q462 577 450 566T419 554Q406
554 398 562Z" />
<glyph unicode="&#xfd;" glyph-name="yacute" horiz-adv-x="420" d="M454 500L196 6Q138 -106 81 -159T-48 -213Q-72 -213 -81 -211L-76 -185Q-69 -186 -47 -186Q-9 -186 23 -168T88 -107T164 13L64 500H108L189 56L407 500H454ZM351 681H398L290 554H257L351 681Z" />
<glyph unicode="&#xfe;" glyph-name="thorn" horiz-adv-x="525" d="M159 742H192L132 403Q158 453 209 481T314 510Q395 510 442 461T490 324Q490 233 456 157T363 35T233 -10Q178 -10 137 15T82 90L23 -242H-15L159 742ZM293 26T342 65T421 172T451 317Q451 391
416 432T314 474Q267 474 226 452T156 390T119 300L105 221Q100 191 100 169Q100 102 135 64T235 26Q293 26 342 65Z" />
<glyph unicode="&#xff;" glyph-name="ydieresis" horiz-adv-x="420" d="M454 500L196 6Q138 -106 81 -159T-48 -213Q-72 -213 -81 -211L-76 -185Q-69 -186 -47 -186Q-9 -186 23 -168T88 -107T164 13L64 500H108L189 56L407 500H454ZM161 554T153 561T145 582Q145
601 157 612T188 624Q202 624 210 617T218 596Q218 577 206 566T175 554Q161 554 153 561ZM351 554T343 562T334 583Q334 601 346 612T377 624Q391 624 399 617T407 596Q407 577 395 566T364 554Q351 554 343 562Z" />
<glyph unicode="&#x2013;" glyph-name="endash" horiz-adv-x="542" d="M50 284H504L498 248H44L50 284Z" />
<glyph unicode="&#x2014;" glyph-name="emdash" horiz-adv-x="836" d="M50 284H798L792 248H44L50 284Z" />
<glyph unicode="&#x2018;" glyph-name="quoteleft" horiz-adv-x="344" d="M252 591T261 581T271 554Q271 530 255 513T217 495Q200 495 190 508T179 543Q179 585 211 643T290 741L301 725Q239 663 219 589Q231 591 236 591Q252 591 261 581Z" />
<glyph unicode="&#x2019;" glyph-name="quoteright" horiz-adv-x="346" d="M271 716T281 703T292 668Q292 626 259 567T180 469L169 484Q234 549 250 621Q242 619 235 619Q219 619 209 629T199 656Q199 681 215 698T254 716Q271 716 281 703Z" />
<glyph unicode="&#x201a;" glyph-name="quotesinglbase" horiz-adv-x="346" d="M160 89T170 76T181 40Q181 -2 148 -60T69 -158L58 -143Q123 -80 139 -6Q129 -8 124 -8Q108 -8 98 2T88 29Q88 53 104 71T143 89Q160 89 170 76Z" />
<glyph unicode="&#x201c;" glyph-name="quotedblleft" horiz-adv-x="497" d="M301 725Q239 663 219 589Q231 591 236 591Q252 591 261 581T271 554Q271 530 255 513T217 495Q200 495 190 508T179 543Q179 585 211 643T290 741L301 725ZM405 591T414 581T424 554Q424
530 409 513T371 495Q353 495 343 508T332 544Q332 585 365 643T444 741L454 725Q393 664 373 589Q383 591 389 591Q405 591 414 581Z" />
<glyph unicode="&#x201d;" glyph-name="quotedblright" horiz-adv-x="499" d="M273 730T283 717T294 682Q294 640 261 582T182 483L171 499Q237 566 252 635Q242 633 237 633Q221 633 211 643T201 670Q201 695 217 712T256 730Q273 730 283 717ZM427 730T437 717T447
682Q447 640 414 581T335 483L324 499Q389 564 407 635Q397 633 391 633Q375 633 366 643T356 670Q356 695 372 712T410 730Q427 730 437 717Z" />
<glyph unicode="&#x201e;" glyph-name="quotedblbase" horiz-adv-x="499" d="M160 89T170 76T181 40Q181 -2 148 -60T69 -158L58 -143Q123 -80 139 -6Q129 -8 124 -8Q108 -8 98 2T88 29Q88 53 104 71T143 89Q160 89 170 76ZM314 89T324 76T334 40Q334 -3 302 -60T222
-158L211 -143Q276 -78 294 -6Q284 -8 278 -8Q262 -8 253 2T243 28Q243 53 259 71T297 89Q314 89 324 76Z" />
<glyph unicode="&#x2022;" glyph-name="bullet" horiz-adv-x="368" d="M124 170T95 197T66 269Q66 335 107 376T214 418Q260 418 289 391T319 319Q319 253 278 212T170 170Q124 170 95 197Z" />
<glyph unicode="&#x2039;" glyph-name="guilsinglleft" horiz-adv-x="293" d="M44 260L242 453H287L91 260L219 67H174L44 260Z" />
<glyph unicode="&#x203a;" glyph-name="guilsinglright" horiz-adv-x="293" d="M205 260L78 453H122L253 260L54 67H10L205 260Z" />
</font>
</defs>
</svg>
