<?xml version="1.0" standalone="no"?>
<!DOCTYPE svg PUBLIC "-//W3C//DTD SVG 1.1//EN" "http://www.w3.org/Graphics/SVG/1.1/DTD/svg11.dtd">
<svg xmlns="http://www.w3.org/2000/svg">
<defs >
<font id="Sarabun" horiz-adv-x="525" ><font-face
    font-family="Sarabun Light"
    units-per-em="1000"
    panose-1="0 0 4 0 0 0 0 0 0 0"
    ascent="1068"
    descent="-232"
    alphabetic="0" />
<glyph unicode=" " glyph-name="space" horiz-adv-x="247" />
<glyph unicode="!" glyph-name="exclam" horiz-adv-x="230" d="M73 700H157L146 184H84L73 700ZM89 -10T72 6T55 48Q55 73 72 89T115 106Q141 106 158 90T175 48Q175 23 158 7T115 -10Q89 -10 72 6Z" />
<glyph unicode="&quot;" glyph-name="quotedbl" horiz-adv-x="336" d="M55 710H132L122 468H65L55 710ZM204 710H281L271 468H214L204 710Z" />
<glyph unicode="#" glyph-name="numbersign" horiz-adv-x="679" d="M532 437L511 262H602V205H503L478 0H412L437 205H213L188 0H122L147 205H57V262H155L176 437H77V495H184L209 700H275L250 495H474L499 700H565L540 495H622V437H532ZM466 437H242L221 262H445L466
437Z" />
<glyph unicode="$" glyph-name="dollar" horiz-adv-x="526" d="M479 103T431 54T302 -7V-77H237V-9Q178 -4 127 23T44 94L90 140Q121 101 168 77T262 52Q326 52 365 85T405 172Q405 223 373 259T257 336Q184 372 143 402T84 465T66 538Q66 609 112 654T237 708V769H302V708Q357
701 401 674T468 604L418 569Q395 605 355 626T270 648Q211 648 176 619T140 540Q140 511 153 491T200 448T306 389Q399 343 439 294T479 178Q479 103 431 54Z" />
<glyph unicode="%" glyph-name="percent" horiz-adv-x="880" d="M131 319T90 372T49 514Q49 604 89 657T200 710Q269 710 310 657T351 514Q351 425 310 372T200 319Q131 319 90 372ZM615 700H689L260 -13H187L615 700ZM241 372T265 410T289 514Q289 579 265 617T200
656Q158 656 134 618T110 514Q110 449 134 411T200 372Q241 372 265 410ZM611 -10T570 43T529 186Q529 275 570 328T680 381Q749 381 790 328T831 186Q831 97 790 44T680 -10Q611 -10 570 43ZM721 44T745 82T769 186Q769 251 745 289T680 328Q639 328 615 290T591
186Q591 121 615 83T680 44Q721 44 745 82Z" />
<glyph unicode="&amp;" glyph-name="ampersand" horiz-adv-x="657" d="M585 -10Q557 14 495 70Q451 31 396 11T277 -10Q205 -10 151 15T68 87T39 195Q39 257 78 311T185 396Q125 486 125 561Q125 627 170 668T288 710Q359 710 403 671T447 566Q447 511 406 462T285
370Q297 355 298 354Q373 264 490 158Q534 222 549 312H616Q602 199 538 115L627 39L585 -10ZM246 652T220 627T194 560Q194 499 254 412Q314 445 346 485T378 564Q378 604 354 628T290 652Q246 652 220 627ZM379 51T449 112Q309 242 243 320Q234 330 218 350Q169
323 142 283T114 196Q114 130 160 91T285 51Q379 51 449 112Z" />
<glyph unicode="&apos;" glyph-name="quotesingle" horiz-adv-x="188" d="M55 710H132L122 468H65L55 710Z" />
<glyph unicode="(" glyph-name="parenleft" horiz-adv-x="305" d="M120 2T80 109T40 344Q40 471 80 578T191 750H267Q195 692 154 584T112 344Q112 213 153 105T267 -62H191Q120 2 80 109Z" />
<glyph unicode=")" glyph-name="parenright" horiz-adv-x="305" d="M110 -4T151 104T193 344Q193 475 152 583T39 750H114Q185 686 225 579T265 344Q265 217 225 110T114 -62H39Q110 -4 151 104Z" />
<glyph unicode="*" glyph-name="asterisk" horiz-adv-x="448" d="M93 394L187 516L37 506V569L187 559L93 681L156 717L224 583L293 717L355 681L262 559L412 569V506L262 516L355 394L293 357L224 491L156 357L93 394Z" />
<glyph unicode="+" glyph-name="plus" horiz-adv-x="603" d="M269 234H53V290H269V524H334V290H551V234H334V0H269V234Z" />
<glyph unicode="," glyph-name="comma" horiz-adv-x="237" d="M149 113T166 92T184 32Q184 -18 158 -74T88 -168L59 -135Q83 -110 100 -76T123 -7Q119 -8 110 -8Q88 -8 74 8T59 50Q59 78 76 95T121 113Q149 113 166 92Z" />
<glyph unicode="-" glyph-name="hyphen" horiz-adv-x="340" d="M37 293H303V239H37V293Z" />
<glyph unicode="." glyph-name="period" horiz-adv-x="237" d="M94 -10T79 6T63 49Q63 75 78 91T119 107Q144 107 159 91T174 49Q174 23 159 7T119 -10Q94 -10 79 6Z" />
<glyph unicode="/" glyph-name="slash" horiz-adv-x="396" d="M355 725H421L41 -43H-25L355 725Z" />
<glyph unicode="0" glyph-name="zero" horiz-adv-x="545" d="M161 -10T102 81T42 350Q42 528 101 619T273 710Q384 710 443 619T503 350Q503 172 444 81T273 -10Q161 -10 102 81ZM347 48T388 125T429 350Q429 499 389 575T273 652Q198 652 157 576T116 350Q116
201 157 125T273 48Q347 48 388 125Z" />
<glyph unicode="1" glyph-name="one" horiz-adv-x="545" d="M133 61H255V611L115 528V597L283 700H329V61H451V0H133V61Z" />
<glyph unicode="2" glyph-name="two" horiz-adv-x="545" d="M67 69Q140 123 213 198T337 357T387 516Q387 576 352 612T257 648Q206 648 160 624T89 561L49 606Q80 655 135 682T258 710Q352 710 407 658T462 519Q462 406 374 286T163 61H496V0H67V69Z" />
<glyph unicode="3" glyph-name="three" horiz-adv-x="545" d="M193 -10T136 17T51 91L89 136Q114 97 161 75T263 52Q334 52 377 90T420 190Q420 258 366 296T219 335H191V398H218Q298 398 346 438T395 540Q395 591 362 619T269 648Q215 648 170 626T98 564L60
609Q90 656 147 683T273 710Q362 710 415 666T469 548Q469 486 431 438T327 369Q407 354 451 307T495 188Q495 130 467 85T386 15T265 -10Q193 -10 136 17Z" />
<glyph unicode="4" glyph-name="four" horiz-adv-x="545" d="M358 124H29V188L338 700H432V186H512V124H432V0H358V124ZM358 186V617L98 186H358Z" />
<glyph unicode="5" glyph-name="five" horiz-adv-x="545" d="M191 -10T134 17T48 91L86 139Q112 98 157 75T258 52Q332 52 375 99T419 227Q419 305 380 350T272 396Q229 396 192 378T135 327H73L105 700H472V638H173L153 413Q175 433 212 445T289 457Q384 457
440 396T497 230Q497 120 433 55T260 -10Q191 -10 134 17Z" />
<glyph unicode="6" glyph-name="six" horiz-adv-x="545" d="M208 -10T156 22T76 113T48 252Q48 361 99 460T240 626T437 711L444 653Q339 627 258 553T147 382Q165 410 201 427T286 444Q352 444 400 414T473 333T498 217Q498 152 472 101T396 20T279 -10Q208 -10
156 22ZM344 52T384 97T425 218Q425 292 385 337T277 382Q210 382 169 337T127 218Q127 143 168 98T277 52Q344 52 384 97Z" />
<glyph unicode="7" glyph-name="seven" horiz-adv-x="545" d="M194 121T211 222T275 428T408 638H56V700H490V633Q267 387 267 0H191Q194 121 211 222Z" />
<glyph unicode="8" glyph-name="eight" horiz-adv-x="545" d="M164 -10T103 43T42 190Q42 253 72 301T163 374Q118 393 92 436T66 533Q66 614 122 662T273 710Q367 710 423 662T479 533Q479 480 453 436T382 374Q442 350 472 302T503 190Q503 96 442 43T273 -10Q164
-10 103 43ZM334 402T369 435T405 525Q405 582 370 615T273 648Q211 648 176 615T140 525Q140 469 176 436T273 402Q334 402 369 435ZM346 52T387 91T429 199Q429 267 388 305T273 344Q199 344 158 306T116 199Q116 131 158 92T273 52Q346 52 387 91Z" />
<glyph unicode="9" glyph-name="nine" horiz-adv-x="545" d="M102 47Q175 64 238 103T344 198T401 316Q382 290 345 273T263 256Q198 256 150 285T75 366T48 483Q48 549 75 600T151 681T267 710Q375 710 436 638T498 443Q498 329 449 232T311 71T111 -11L102 47ZM335
316T377 362T419 482Q419 557 378 602T269 648Q202 648 162 603T121 482Q121 407 161 362T267 316Q335 316 377 362Z" />
<glyph unicode=":" glyph-name="colon" horiz-adv-x="237" d="M94 355T79 371T63 413Q63 439 78 455T119 471Q143 471 158 455T174 413Q174 388 159 372T119 355Q94 355 79 371ZM94 -12T79 4T63 47Q63 72 78 88T119 105Q143 105 158 89T174 47Q174 21 159 5T119
-12Q94 -12 79 4Z" />
<glyph unicode=";" glyph-name="semicolon" horiz-adv-x="237" d="M94 355T79 371T63 413Q63 439 78 455T119 471Q143 471 158 455T174 413Q174 388 159 372T119 355Q94 355 79 371ZM151 113T169 92T187 32Q187 -17 161 -73T91 -168L62 -135Q86 -109 103 -76T126
-7Q122 -8 113 -8Q91 -8 77 8T62 50Q62 78 79 95T123 113Q151 113 169 92Z" />
<glyph unicode="&lt;" glyph-name="less" horiz-adv-x="603" d="M62 259V299L541 559V495L147 279L541 64V0L62 259Z" />
<glyph unicode="=" glyph-name="equal" horiz-adv-x="603" d="M71 392H532V334H71V392ZM71 191H532V133H71V191Z" />
<glyph unicode="&gt;" glyph-name="greater" horiz-adv-x="603" d="M62 64L456 279L62 495V559L541 299V259L62 0V64Z" />
<glyph unicode="?" glyph-name="question" horiz-adv-x="448" d="M183 179T183 207Q183 251 203 289T264 379Q301 427 319 460T338 529Q338 589 307 620T215 651Q172 651 136 629T78 569L37 614Q65 659 113 684T222 709Q313 709 362 663T411 533Q411 490 391 454T330
369Q289 319 269 283T248 203Q248 175 252 158H189Q183 179 183 207ZM198 -10T182 5T166 47Q166 72 182 87T224 103Q249 103 265 88T281 47Q281 22 266 6T224 -10Q198 -10 182 5Z" />
<glyph unicode="@" glyph-name="at" horiz-adv-x="791" d="M273 -145T196 -101T77 22T34 204Q34 317 82 405T217 543T415 593Q513 593 590 552T710 436T753 268Q753 197 730 141T664 52T568 15L528 13L510 80Q484 46 442 25T360 4Q296 4 255 42T214 142Q214 206
263 246T390 287H499V313Q499 357 471 385T396 413Q357 413 321 394T265 345L232 380Q257 415 302 437T397 460Q468 460 511 416T555 299V129Q555 97 564 65Q623 70 659 125T696 263Q696 344 661 406T561 504T415 539Q322 539 249 497T136 378T95 205Q95 119 131
52T232 -52T380 -90Q426 -90 472 -79T545 -50L568 -95Q535 -117 481 -131T372 -145Q273 -145 196 -101ZM398 51T429 67T479 109T499 155V242H396Q340 242 306 215T271 142Q271 98 299 75T366 51Q398 51 429 67Z" />
<glyph unicode="A" glyph-name="A" horiz-adv-x="581" d="M431 164H150L98 0H18L255 700H326L563 0H483L431 164ZM412 225L291 610L169 225H412Z" />
<glyph unicode="B" glyph-name="B" horiz-adv-x="584" d="M86 700H268Q385 700 443 659T501 534Q501 411 389 375V373Q462 355 495 314T529 198Q529 97 472 49T294 0H86V700ZM283 399Q427 399 427 530Q427 586 389 612T269 639H160V399H283ZM302 61Q381 61 419
94T457 198Q457 274 410 307T257 341H160V61H302Z" />
<glyph unicode="C" glyph-name="C" horiz-adv-x="576" d="M242 -10T176 33T73 158T37 350Q37 460 73 541T178 666T337 710Q406 710 462 683T547 606L506 562Q450 648 339 648Q231 648 172 570T112 350Q112 210 170 131T333 52Q453 52 506 138L547 94Q519 45 462
18T332 -10Q242 -10 176 33Z" />
<glyph unicode="D" glyph-name="D" horiz-adv-x="618" d="M86 700H301Q438 700 504 618T570 364Q570 235 540 155T444 38T273 0H86V700ZM289 62Q397 62 447 134T497 364Q497 507 450 572T299 638H160V62H289Z" />
<glyph unicode="E" glyph-name="E" horiz-adv-x="546" d="M86 700H490V638H160V400H455V337H160V62H490V0H86V700Z" />
<glyph unicode="F" glyph-name="F" horiz-adv-x="543" d="M86 700H495V638H160V371H473V309H160V0H86V700Z" />
<glyph unicode="G" glyph-name="G" horiz-adv-x="633" d="M567 356V0H521L505 48Q472 20 427 5T329 -10Q240 -10 174 33T73 158T37 350Q37 459 74 540T178 666T337 710Q411 710 469 683T555 606L515 563Q489 604 443 626T337 648Q231 648 172 569T112 350Q112
208 171 129T335 50Q383 50 424 65T494 109V299H322V356H567Z" />
<glyph unicode="H" glyph-name="H" horiz-adv-x="674" d="M85 700H159V384H515V700H589V0H515V322H159V0H85V700Z" />
<glyph unicode="I" glyph-name="I" horiz-adv-x="284" d="M105 700H179V0H105V700Z" />
<glyph unicode="J" glyph-name="J" horiz-adv-x="423" d="M107 -10T70 2T8 35L36 90Q57 73 86 63T144 52Q207 52 235 95T264 234V700H338V223Q338 104 292 47T146 -10Q107 -10 70 2Z" />
<glyph unicode="K" glyph-name="K" horiz-adv-x="588" d="M499 0L263 363L159 240V0H85V700H159V339L463 700H548L311 420L578 0H499Z" />
<glyph unicode="L" glyph-name="L" horiz-adv-x="537" d="M85 700H159V62H500V0H85V700Z" />
<glyph unicode="M" glyph-name="M" horiz-adv-x="793" d="M707 700V0H635V575L421 0H371L158 575V0H86V700H177L396 97L616 700H707Z" />
<glyph unicode="N" glyph-name="N" horiz-adv-x="677" d="M591 700V0H516L159 588V0H85V700H167L518 119V700H591Z" />
<glyph unicode="O" glyph-name="O" horiz-adv-x="655" d="M240 -10T174 34T73 159T37 350Q37 460 72 541T174 666T328 710Q416 710 481 666T582 541T618 350Q618 240 583 159T482 34T328 -10Q240 -10 174 34ZM394 51T443 87T518 191T544 350Q544 441 518 508T443
612T328 649Q262 649 213 613T138 509T111 350Q111 259 137 192T213 88T328 51Q394 51 443 87Z" />
<glyph unicode="P" glyph-name="P" horiz-adv-x="568" d="M86 700H283Q395 700 453 647T512 492Q512 384 452 326T278 268H160V0H86V700ZM290 331Q362 331 401 372T440 489Q440 563 400 600T282 638H160V331H290Z" />
<glyph unicode="Q" glyph-name="Q" horiz-adv-x="655" d="M618 208T560 116T399 -2Q475 -34 594 -51L581 -104Q504 -93 431 -68T295 -8Q216 0 158 45T69 169T37 350Q37 460 72 541T174 666T328 710Q416 710 481 666T582 541T618 350Q618 208 560 116ZM111 259T137
192T213 88T328 51Q394 51 443 87T518 191T544 350Q544 441 518 508T443 612T328 649Q262 649 213 613T138 509T111 350Q111 259 137 192Z" />
<glyph unicode="R" glyph-name="R" horiz-adv-x="577" d="M86 700H292Q403 700 457 655T512 516Q512 446 475 398T373 333V331Q395 318 409 302T433 260L538 0H458L368 230Q349 277 323 294T244 312H160V0H86V700ZM289 373Q366 373 403 408T441 514Q441 577 403
607T285 638H160V373H289Z" />
<glyph unicode="S" glyph-name="S" d="M194 -10T137 18T44 94L90 140Q121 101 168 77T262 52Q326 52 365 85T405 172Q405 223 373 259T257 336Q184 372 143 402T84 465T66 538Q66 617 121 663T270 710Q334 710 388 681T468 604L418 569Q395 605 355 626T270 648Q211
648 176 619T140 540Q140 511 153 491T200 448T306 389Q399 343 439 294T479 178Q479 122 452 79T374 13T259 -10Q194 -10 137 18Z" />
<glyph unicode="T" glyph-name="T" horiz-adv-x="547" d="M237 640H18V700H528V640H311V0H237V640Z" />
<glyph unicode="U" glyph-name="U" horiz-adv-x="656" d="M84 -10T84 275V700H158V277Q158 52 329 52Q499 52 499 277V700H573V275Q573 134 512 62T329 -10Q84 -10 84 275Z" />
<glyph unicode="V" glyph-name="V" horiz-adv-x="587" d="M569 700L331 0H256L18 700H98L294 94L489 700H569Z" />
<glyph unicode="W" glyph-name="W" horiz-adv-x="817" d="M788 700L644 0H568L409 602L249 0H173L28 700H108L215 108L369 700H447L601 108L708 700H788Z" />
<glyph unicode="X" glyph-name="X" horiz-adv-x="589" d="M250 359L48 700H134L295 412L455 700H542L339 359L552 0H467L295 300L123 0H37L250 359Z" />
<glyph unicode="Y" glyph-name="Y" horiz-adv-x="554" d="M240 278L19 700H101L277 347L452 700H535L315 278V0H240V278Z" />
<glyph unicode="Z" glyph-name="Z" horiz-adv-x="559" d="M37 44L419 638H67V700H509V654L128 62H522V0H37V44Z" />
<glyph unicode="[" glyph-name="bracketleft" horiz-adv-x="299" d="M65 700H276V646H137V-59H276V-113H65V700Z" />
<glyph unicode="\" glyph-name="backslash" horiz-adv-x="381" d="M-25 725H41L421 -43H355L-25 725Z" />
<glyph unicode="]" glyph-name="bracketright" horiz-adv-x="299" d="M23 -59H162V646H23V700H234V-113H23V-59Z" />
<glyph unicode="^" glyph-name="asciicircum" horiz-adv-x="580" d="M259 700H322L534 227H466L291 628L115 227H47L259 700Z" />
<glyph unicode="_" glyph-name="underscore" horiz-adv-x="311" d="M0 -223H311V-278H0V-223Z" />
<glyph unicode="`" glyph-name="grave" horiz-adv-x="400" d="M104 696H177L255 554H198L104 696Z" />
<glyph unicode="a" glyph-name="a" horiz-adv-x="510" d="M138 -10T91 32T44 142Q44 216 99 257T255 299H367V326Q367 388 336 420T243 453Q198 453 161 434T100 377L62 421Q94 464 141 487T247 510Q338 510 387 464T437 334V94Q437 57 448 0H388Q381 22 375 74H373Q345
34 303 12T211 -10Q138 -10 91 32ZM258 46T292 62T346 105T367 164V246H252Q185 246 149 219T112 142Q112 99 141 73T218 46Q258 46 292 62Z" />
<glyph unicode="b" glyph-name="b" horiz-adv-x="538" d="M241 -10T197 16T131 84H129Q129 41 126 0H64Q67 35 67 124V742H136V427H138Q163 468 202 489T292 510Q388 510 444 442T501 259Q501 177 476 117T403 23T291 -10Q241 -10 197 16ZM352 47T391 103T431
257Q431 349 392 402T284 455Q217 455 177 410T136 287V200Q136 129 176 88T284 47Q352 47 391 103Z" />
<glyph unicode="c" glyph-name="c" horiz-adv-x="467" d="M158 -10T98 58T37 250Q37 373 97 441T266 510Q327 510 374 487T449 417L407 378Q385 414 348 433T268 453Q192 453 150 400T107 250Q107 155 149 101T268 47Q311 47 348 66T407 122L449 83Q421 37 374
14T266 -10Q158 -10 98 58Z" />
<glyph unicode="d" glyph-name="d" horiz-adv-x="538" d="M149 -10T93 62T37 259Q37 375 94 442T248 510Q296 510 335 489T401 427H403V742H471V124Q471 35 474 0H412Q409 42 409 84H407Q384 41 341 16T246 -10Q149 -10 93 62ZM320 47T361 89T402 200V287Q402
364 362 409T254 455Q185 455 146 403T107 257Q107 159 146 103T253 47Q320 47 361 89Z" />
<glyph unicode="e" glyph-name="e" horiz-adv-x="510" d="M472 222H108Q114 139 155 94T268 49Q313 49 350 68T411 123L452 84Q423 39 375 15T266 -10Q159 -10 99 58T38 249Q38 371 97 440T262 510Q361 510 416 443T472 256V222ZM408 284Q408 362 368 407T260
453Q192 453 153 407T108 276H408V284Z" />
<glyph unicode="f" glyph-name="f" horiz-adv-x="316" d="M91 447H8V500H91V566Q91 636 131 676T240 717Q269 717 294 709T335 685L309 641Q285 662 244 662Q205 662 183 637T160 565V500H305V447H160V0H91V447Z" />
<glyph unicode="g" glyph-name="g" horiz-adv-x="538" d="M471 500V15Q471 -103 414 -164T246 -225Q147 -225 69 -182L92 -129Q131 -148 167 -156T244 -165Q326 -165 366 -119T406 25V75Q384 36 343 14T248 -9Q150 -9 94 62T37 259Q37 375 93 442T247 510Q298
510 338 488T402 425H404L414 500H471ZM402 284Q402 363 363 409T256 455Q187 455 147 402T107 257Q107 159 146 104T256 48Q324 48 363 89T402 203V284Z" />
<glyph unicode="h" glyph-name="h" horiz-adv-x="555" d="M66 742H135V413Q159 457 205 483T307 510Q395 510 442 452T489 285V0H420V286Q420 368 389 411T298 455Q252 455 215 432T157 367T135 273V0H66V742Z" />
<glyph unicode="i" glyph-name="i" horiz-adv-x="236" d="M94 597T80 611T65 648Q65 672 79 686T118 700Q142 700 156 686T171 648Q171 625 157 611T118 597Q94 597 80 611ZM83 500H153V0H83V500Z" />
<glyph unicode="j" glyph-name="j" horiz-adv-x="237" d="M102 597T87 611T72 648Q72 671 87 685T126 700Q149 700 163 686T178 648Q178 625 164 611T126 597Q102 597 87 611ZM-10 -187T-42 -182L-40 -128Q-28 -129 -8 -129Q50 -129 72 -95T94 10V500H163V5Q163
-187 11 -187Q-10 -187 -42 -182Z" />
<glyph unicode="k" glyph-name="k" horiz-adv-x="472" d="M384 0L214 259L135 179V0H66V742H135V263L369 500H452L261 306L464 0H384Z" />
<glyph unicode="l" glyph-name="l" horiz-adv-x="289" d="M75 -10T75 115V742H145V116Q145 76 156 60T197 44Q217 44 245 55L257 12Q221 -10 176 -10Q75 -10 75 115Z" />
<glyph unicode="m" glyph-name="m" horiz-adv-x="838" d="M66 376Q66 444 62 500H124Q127 472 127 411H130Q152 457 194 483T289 510Q343 510 381 482T433 403Q453 452 497 481T597 510Q679 510 725 457T771 309V0H702V305Q702 377 671 415T582 453Q526 453 489
411T452 304V0H384V299Q384 453 271 453Q235 453 204 432T154 376T135 301V0H66V376Z" />
<glyph unicode="n" glyph-name="n" horiz-adv-x="545" d="M65 376Q65 464 62 500H125Q129 466 129 405H132Q154 453 201 481T304 510Q391 510 435 453T479 284V0H410V285Q410 370 381 411T293 453Q248 453 212 430T156 365T135 273V0H65V376Z" />
<glyph unicode="o" glyph-name="o" horiz-adv-x="550" d="M203 -10T150 22T67 113T38 250Q38 328 67 387T149 478T275 510Q347 510 400 478T483 387T512 250Q512 172 483 113T401 22T275 -10Q203 -10 150 22ZM352 45T397 100T443 250Q443 344 398 399T275 455Q198
455 153 400T107 250Q107 156 152 101T275 45Q352 45 397 100Z" />
<glyph unicode="p" glyph-name="p" horiz-adv-x="539" d="M67 376Q67 440 63 500H126Q129 464 129 416H131Q151 457 196 483T294 510Q391 510 446 441T501 250Q501 172 475 113T402 22T291 -10Q240 -10 199 12T139 73H136V-242H67V376ZM351 45T391 101T432 253Q432
347 393 400T284 453Q219 453 178 410T136 300V213Q136 137 176 91T283 45Q351 45 391 101Z" />
<glyph unicode="q" glyph-name="q" horiz-adv-x="539" d="M403 74H400Q378 35 337 13T247 -10Q184 -10 137 22T64 114T38 251Q38 372 93 441T246 510Q299 510 344 484T408 417H410Q410 457 413 500H476Q472 444 472 376V-242H403V74ZM322 45T362 91T403 213V300Q403
367 362 410T255 453Q185 453 146 400T107 253Q107 158 147 102T256 45Q322 45 362 91Z" />
<glyph unicode="r" glyph-name="r" horiz-adv-x="334" d="M72 378Q72 463 69 500H133Q137 461 137 412V400H139Q158 453 198 481T293 510Q311 510 322 507V449Q306 451 289 451Q248 451 214 426T161 357T141 260V0H72V378Z" />
<glyph unicode="s" glyph-name="s" horiz-adv-x="409" d="M143 -10T100 12T37 70L83 102Q101 74 131 60T199 45Q244 45 273 71T302 139Q302 172 279 194T197 239Q114 270 81 303T47 385Q47 441 91 475T208 510Q255 510 294 489T353 432L309 400Q275 455 207 455Q167
455 142 436T116 387Q116 358 141 338T234 292Q308 263 340 228T372 141Q372 73 324 32T196 -10Q143 -10 100 12Z" />
<glyph unicode="t" glyph-name="t" horiz-adv-x="363" d="M170 -10T135 30T100 145V445H10V500H100V635L165 656H169V500H310V445H169V154Q169 98 188 73T248 47Q288 47 315 59L321 6Q288 -10 234 -10Q170 -10 135 30Z" />
<glyph unicode="u" glyph-name="u" horiz-adv-x="550" d="M155 -10T111 45T66 209V500H135V206Q135 47 253 47Q298 47 333 70T389 134T410 226V500H479V100Q479 54 488 0H426Q417 41 416 94H412Q390 45 344 18T241 -10Q155 -10 111 45Z" />
<glyph unicode="v" glyph-name="v" horiz-adv-x="463" d="M452 500L264 0H199L11 500H83L232 80L380 500H452Z" />
<glyph unicode="w" glyph-name="w" horiz-adv-x="655" d="M645 500L520 0H456L328 427L199 0H135L11 500H84L171 90L295 500H360L484 90L571 500H645Z" />
<glyph unicode="x" glyph-name="x" horiz-adv-x="440" d="M184 254L24 500H102L220 304L337 500H417L256 254L429 0H349L220 210L90 0H11L184 254Z" />
<glyph unicode="y" glyph-name="y" horiz-adv-x="448" d="M437 500L260 -4Q223 -107 172 -156T49 -206Q22 -206 1 -200V-148Q18 -153 40 -153Q93 -153 129 -114T203 22L17 500H92L234 97L361 500H437Z" />
<glyph unicode="z" glyph-name="z" horiz-adv-x="443" d="M28 41L324 444H42V500H405V456L114 56H415V0H28V41Z" />
<glyph unicode="{" glyph-name="braceleft" horiz-adv-x="309" d="M173 -114T140 -80T107 29V200Q107 270 39 274V323Q107 326 107 396V567Q107 641 140 675T247 710H271V655H243Q204 655 189 635T173 566V399Q173 360 161 337T115 298Q175 271 175 197V30Q175
-18 190 -38T243 -59H271V-114H247Q173 -114 140 -80Z" />
<glyph unicode="|" glyph-name="bar" horiz-adv-x="238" d="M85 700H153V-160H85V700Z" />
<glyph unicode="}" glyph-name="braceright" horiz-adv-x="309" d="M38 -59H66Q105 -59 120 -39T135 30V197Q135 233 149 258T195 298Q161 315 149 337T136 399V566Q136 614 121 634T66 655H38V710H63Q137 710 170 676T204 567V396Q204 360 220 342T271 323V274Q236
272 219 254T202 200V29Q202 -45 169 -79T63 -114H38V-59Z" />
<glyph unicode="~" glyph-name="asciitilde" horiz-adv-x="603" d="M64 209Q64 269 99 306T189 343Q220 343 248 331T314 294Q349 272 371 262T417 251Q451 251 467 276T484 343H543V330Q543 267 510 230T422 193Q390 193 363 205T294 243Q262 264 239 274T193
285Q160 285 142 261T122 193H64V209Z" />
<glyph unicode="&#xa0;" glyph-name="uni00A0" horiz-adv-x="247" />
<glyph unicode="&#xa1;" glyph-name="exclamdown" horiz-adv-x="230" d="M89 394T72 410T55 452Q55 477 72 493T115 510Q141 510 158 494T175 452Q175 427 158 411T115 394Q89 394 72 410ZM84 315H146L157 -201H73L84 315Z" />
<glyph unicode="&#xa2;" glyph-name="cent" horiz-adv-x="467" d="M311 117T348 136T407 192L449 153Q423 111 381 88T285 61V-28H233V62Q140 73 89 140T37 320Q37 433 88 500T233 578V668H285V579Q339 576 381 553T449 487L407 448Q385 484 348 503T268 523Q192
523 150 470T107 320Q107 225 149 171T268 117Q311 117 348 136Z" />
<glyph unicode="&#xa3;" glyph-name="sterling" horiz-adv-x="531" d="M249 190T226 140T159 57H463V0H57V47Q117 81 150 132T183 235Q183 255 174 314H79V366H166Q147 472 147 521Q147 609 195 659T328 710Q366 710 402 698T463 662L438 610Q417 628 388 638T331
649Q275 649 245 614T215 514Q215 488 221 447T234 366H401V314H242Q249 267 249 243Q249 190 226 140Z" />
<glyph unicode="&#xa4;" glyph-name="currency" horiz-adv-x="609" d="M261 63T218 78T141 121L82 64L34 110L92 167Q67 198 52 243T37 332Q37 376 52 421T92 497L34 554L82 600L141 543Q174 570 218 585T305 601Q349 601 393 586T469 543L530 600L578 552L520
497Q545 467 559 423T573 332Q573 286 559 242T520 167L578 110L530 64L469 121Q438 94 394 79T305 63Q261 63 218 78ZM363 127T408 153T480 225T506 331Q506 390 480 437T409 512T306 539Q248 539 203 513T132 439T106 331Q106 272 132 226T203 153T306 127Q363
127 408 153Z" />
<glyph unicode="&#xa5;" glyph-name="yen" horiz-adv-x="564" d="M352 339H494V286H324L320 278V205H494V153H320V0H245V153H70V205H245V278L241 286H70V338H213L24 700H107L282 347L458 700H540L352 339Z" />
<glyph unicode="&#xa6;" glyph-name="brokenbar" horiz-adv-x="238" d="M85 700H153V317H85V700ZM85 223H153V-160H85V223Z" />
<glyph unicode="&#xa7;" glyph-name="section" d="M477 123T477 61Q477 -17 419 -59T265 -102Q193 -102 138 -75T49 -1L93 44Q125 3 170 -19T268 -42Q329 -42 366 -17T403 57Q403 87 387 107T344 142T257 184L228 197Q166 224 135 242T84 286T64 351Q64 410 113
452Q66 491 66 550Q66 624 121 667T264 710Q332 710 385 683T464 606L419 572Q394 609 353 630T265 651Q209 651 175 624T140 554Q140 525 158 505T207 468T306 421Q368 394 401 375T456 327T478 258Q478 204 435 160Q477 123 477 61ZM132 333T145 317T180 289T247
257Q292 237 304 231L332 218Q342 213 356 207T387 192Q413 225 413 252Q413 279 399 297T355 330T256 375Q191 403 162 419Q132 391 132 354Q132 333 145 317Z" />
<glyph unicode="&#xa8;" glyph-name="dieresis" horiz-adv-x="400" d="M82 554T69 567T55 600Q55 619 68 632T102 645Q122 645 135 632T148 600Q148 581 135 568T102 554Q82 554 69 567ZM278 554T265 567T251 600Q251 619 264 632T298 645Q318 645 331 632T345
600Q345 580 332 567T298 554Q278 554 265 567Z" />
<glyph unicode="&#xa9;" glyph-name="copyright" horiz-adv-x="802" d="M297 -10T215 36T86 164T40 350Q40 454 86 536T214 664T401 710Q505 710 587 664T716 536T762 350Q762 246 716 164T588 36T401 -10Q297 -10 215 36ZM491 36T561 76T672 188T712 350Q712
440 672 511T562 623T401 664Q312 664 241 624T130 512T90 350Q90 260 130 189T241 77T401 36Q491 36 561 76ZM328 138T281 196T234 353Q234 452 281 510T410 568Q452 568 486 551T537 505L507 473Q491 495 466 507T410 520Q353 520 320 475T287 353Q287 276 320
231T408 186Q440 186 465 198T507 233L537 201Q519 173 485 156T408 138Q328 138 281 196Z" />
<glyph unicode="&#xaa;" glyph-name="ordfeminine" horiz-adv-x="362" d="M105 361T75 389T44 463Q44 512 79 540T179 568H255V584Q255 625 237 645T177 665Q119 665 87 615L59 647Q79 675 110 691T182 707Q244 707 276 676T308 590V432Q308 405 315 368H267Q265
374 259 417Q243 390 216 376T154 361Q105 361 75 389ZM207 401T231 427T255 484V530H185Q141 530 118 513T95 463Q95 434 114 418T164 401Q207 401 231 427Z" />
<glyph unicode="&#xab;" glyph-name="guillemotleft" horiz-adv-x="490" d="M39 260L198 455H274L118 260L274 65H198L39 260ZM215 260L375 455H451L295 260L451 65H375L215 260Z" />
<glyph unicode="&#xac;" glyph-name="logicalnot" horiz-adv-x="603" d="M495 346H36V400H563V132H495V346Z" />
<glyph unicode="&#xad;" glyph-name="uni00AD" horiz-adv-x="340" d="M37 293H303V239H37V293Z" />
<glyph unicode="&#xae;" glyph-name="registered" horiz-adv-x="514" d="M347 710T402 655T457 510Q457 451 432 406T362 336T257 311Q198 311 153 336T82 406T57 510Q57 600 112 655T257 710Q347 710 402 655ZM330 346T375 390T421 508Q421 583 377 629T259 675Q184
675 139 631T93 512Q93 437 137 392T255 346Q330 346 375 390ZM343 499T289 487L337 397H294L248 484H213V397H174V629H265Q303 629 323 611T343 559Q343 499 289 487ZM305 517T305 559Q305 579 294 587T254 596H213V517H256Q305 517 305 559Z" />
<glyph unicode="&#xaf;" glyph-name="overscore" horiz-adv-x="400" d="M37 622H364V574H37V622Z" />
<glyph unicode="&#xb0;" glyph-name="degree" horiz-adv-x="312" d="M99 455T64 490T28 582Q28 639 63 674T156 710Q213 710 248 675T284 582Q284 526 249 491T156 455Q99 455 64 490ZM192 498T215 521T239 582Q239 620 216 643T156 667Q119 667 97 644T74 582Q74
544 96 521T156 498Q192 498 215 521Z" />
<glyph unicode="&#xb1;" glyph-name="plusminus" horiz-adv-x="603" d="M334 304V107H269V304H53V359H269V556H334V359H551V304H334ZM62 54H543V0H62V54Z" />
<glyph unicode="&#xb2;" glyph-name="uni00B2" horiz-adv-x="390" d="M46 262Q130 323 198 407T267 566Q267 605 244 628T182 651Q147 651 117 634T68 590L34 628Q57 664 97 684T185 704Q254 704 294 667T334 568Q334 438 132 260H356V208H46V262Z" />
<glyph unicode="&#xb3;" glyph-name="uni00B3" horiz-adv-x="390" d="M139 199T98 218T36 271L69 310Q88 282 120 267T188 252Q233 252 260 277T288 343Q288 387 254 412T160 438H135V489H159Q210 489 241 515T272 581Q272 614 249 632T189 651Q153 651 122 635T73
594L41 632Q64 666 105 685T195 704Q258 704 297 672T337 587Q337 546 312 513T243 466Q296 453 325 420T354 340Q354 277 309 238T190 199Q139 199 98 218Z" />
<glyph unicode="&#xb4;" glyph-name="acute" horiz-adv-x="400" d="M207 696H280L185 554H129L207 696Z" />
<glyph unicode="&#xb5;" glyph-name="uni00B5" horiz-adv-x="550" d="M66 500H135V208Q135 133 166 90T259 46Q326 46 368 97T410 228V500H479V105Q479 57 489 0H426Q417 43 415 86H412Q364 -10 260 -10Q221 -10 187 4T135 47V-219H66V500Z" />
<glyph unicode="&#xb6;" glyph-name="paragraph" horiz-adv-x="533" d="M274 267H268Q205 267 153 293T71 367T40 474Q40 700 331 700H443V-93H397V657H320V-93H274V267Z" />
<glyph unicode="&#xb7;" glyph-name="middot" horiz-adv-x="237" d="M94 204T78 220T62 262Q62 288 78 304T118 321Q142 321 158 305T174 262Q174 237 158 221T118 204Q94 204 78 220Z" />
<glyph unicode="&#xb8;" glyph-name="cedilla" horiz-adv-x="400" d="M169 -216T148 -214T117 -207L124 -171Q132 -173 147 -175T176 -177Q202 -177 218 -166T235 -133Q235 -115 214 -105T154 -94L137 -75L186 13H232L195 -61Q236 -61 260 -79T285 -131Q285 -170
259 -193T187 -216Q169 -216 148 -214Z" />
<glyph unicode="&#xb9;" glyph-name="uni00B9" horiz-adv-x="390" d="M85 260H169V621L73 565V625L193 698H235V260H318V208H85V260Z" />
<glyph unicode="&#xba;" glyph-name="ordmasculine" horiz-adv-x="390" d="M122 361T80 408T37 534Q37 613 79 660T195 707Q268 707 311 660T354 534Q354 455 311 408T195 361Q122 361 80 408ZM245 401T272 437T300 534Q300 595 273 631T195 667Q146 667 119 631T91
534Q91 473 118 437T195 401Q245 401 272 437Z" />
<glyph unicode="&#xbb;" glyph-name="guillemotright" horiz-adv-x="490" d="M195 260L39 455H115L274 260L115 65H39L195 260ZM372 260L215 455H292L451 260L292 65H215L372 260Z" />
<glyph unicode="&#xbc;" glyph-name="onequarter" horiz-adv-x="948" d="M83 314H158V635L72 585V638L179 704H216V314H289V268H83V314ZM656 692H715L304 -18H244L656 692ZM758 74H559V124L746 435H818V120H865V74H818V0H758V74ZM758 120V373L609 120H758Z" />
<glyph unicode="&#xbd;" glyph-name="onehalf" horiz-adv-x="948" d="M83 314H158V635L72 585V638L179 704H216V314H289V268H83V314ZM616 692H675L264 -18H204L616 692ZM608 48Q683 103 744 178T805 318Q805 352 785 372T729 393Q698 393 671 378T628 339L598
374Q618 406 654 423T732 441Q793 441 828 409T864 320Q864 205 685 46H884V0H608V48Z" />
<glyph unicode="&#xbe;" glyph-name="threequarters" horiz-adv-x="948" d="M126 261T90 278T36 325L64 359Q81 335 110 322T170 308Q210 308 234 331T259 389Q259 428 229 450T146 473H123V519H145Q190 519 217 541T245 600Q245 629 225 645T172 662Q140 662
112 648T68 612L39 646Q60 676 97 693T177 710Q233 710 268 681T303 606Q303 570 281 541T220 499Q267 487 292 458T318 387Q318 331 278 296T172 261Q126 261 90 278ZM652 692H711L299 -18H240L652 692ZM755 74H556V124L742 435H814V120H862V74H814V0H755V74ZM755
120V373L606 120H755Z" />
<glyph unicode="&#xbf;" glyph-name="questiondown" horiz-adv-x="448" d="M199 397T183 412T167 453Q167 478 183 494T224 510Q249 510 265 494T282 453Q282 428 266 413T224 397Q199 397 183 412ZM135 -210T86 -164T37 -35Q37 10 57 46T119 132Q159 181 179
217T200 297Q200 315 196 341H259Q265 320 265 293Q265 248 245 210T184 120Q147 72 129 39T110 -31Q110 -91 141 -121T233 -151Q276 -151 311 -130T370 -70L411 -115Q383 -160 335 -185T226 -210Q135 -210 86 -164Z" />
<glyph unicode="&#xc0;" glyph-name="Agrave" horiz-adv-x="581" d="M431 164H150L98 0H18L255 700H326L563 0H483L431 164ZM412 225L291 610L169 225H412ZM169 894H243L319 754H262L169 894Z" />
<glyph unicode="&#xc1;" glyph-name="Aacute" horiz-adv-x="581" d="M431 164H150L98 0H18L255 700H326L563 0H483L431 164ZM412 225L291 610L169 225H412ZM341 894H415L322 754H265L341 894Z" />
<glyph unicode="&#xc2;" glyph-name="Acircumflex" horiz-adv-x="581" d="M431 164H150L98 0H18L255 700H326L563 0H483L431 164ZM412 225L291 610L169 225H412ZM264 890H317L420 754H360L290 845L220 754H160L264 890Z" />
<glyph unicode="&#xc3;" glyph-name="Atilde" horiz-adv-x="581" d="M431 164H150L98 0H18L255 700H326L563 0H483L431 164ZM412 225L291 610L169 225H412ZM151 793T171 819T225 846Q243 846 259 839T298 819Q331 799 346 799Q374 799 378 850H422Q421 809 400
782T345 754Q327 754 310 761T272 782Q260 789 248 795T227 801Q214 801 205 789T195 754H150Q151 793 171 819Z" />
<glyph unicode="&#xc4;" glyph-name="Adieresis" horiz-adv-x="581" d="M431 164H150L98 0H18L255 700H326L563 0H483L431 164ZM412 225L291 610L169 225H412ZM172 754T159 767T145 800Q145 819 158 832T192 845Q212 845 225 832T238 800Q238 781 225 768T192
754Q172 754 159 767ZM368 754T355 767T341 800Q341 819 354 832T388 845Q408 845 421 832T435 800Q435 780 422 767T388 754Q368 754 355 767Z" />
<glyph unicode="&#xc5;" glyph-name="Aring" horiz-adv-x="581" d="M431 164H150L98 0H18L255 700H326L563 0H483L431 164ZM412 225L291 610L169 225H412ZM251 720T226 744T200 805Q200 842 225 866T290 890Q329 890 354 866T380 805Q380 768 355 744T290 720Q251
720 226 744ZM312 753T326 768T341 805Q341 827 327 841T290 856Q268 856 254 842T239 805Q239 783 253 768T290 753Q312 753 326 768Z" />
<glyph unicode="&#xc6;" glyph-name="AE" horiz-adv-x="791" d="M447 638V399H701V338H447V62H735V0H373V161H173L100 0H18L349 700H735V638H447ZM373 220V601L200 220H373Z" />
<glyph unicode="&#xc7;" glyph-name="Ccedilla" horiz-adv-x="576" d="M453 52T506 138L547 94Q522 51 473 24T361 -9L333 -62Q375 -62 399 -80T424 -131Q424 -169 398 -192T327 -215Q307 -215 287 -212T257 -205L263 -172Q281 -177 315 -177Q375 -177 375 -134Q375
-93 294 -94L277 -76L314 -10Q229 -6 167 39T71 163T37 350Q37 460 73 541T178 666T337 710Q406 710 462 683T547 606L506 562Q450 648 339 648Q231 648 172 570T112 350Q112 210 170 131T333 52Q453 52 506 138Z" />
<glyph unicode="&#xc8;" glyph-name="Egrave" horiz-adv-x="546" d="M86 700H490V638H160V400H455V337H160V62H490V0H86V700ZM172 894H246L322 754H265L172 894Z" />
<glyph unicode="&#xc9;" glyph-name="Eacute" horiz-adv-x="546" d="M86 700H490V638H160V400H455V337H160V62H490V0H86V700ZM344 894H418L325 754H268L344 894Z" />
<glyph unicode="&#xca;" glyph-name="Ecircumflex" horiz-adv-x="546" d="M86 700H490V638H160V400H455V337H160V62H490V0H86V700ZM267 890H320L423 754H363L293 845L223 754H163L267 890Z" />
<glyph unicode="&#xcb;" glyph-name="Edieresis" horiz-adv-x="546" d="M86 700H490V638H160V400H455V337H160V62H490V0H86V700ZM175 754T162 767T148 800Q148 819 161 832T195 845Q215 845 228 832T241 800Q241 781 228 768T195 754Q175 754 162 767ZM371 754T358
767T344 800Q344 819 357 832T391 845Q411 845 424 832T438 800Q438 780 425 767T391 754Q371 754 358 767Z" />
<glyph unicode="&#xcc;" glyph-name="Igrave" horiz-adv-x="284" d="M105 700H179V0H105V700ZM22 894H96L172 754H115L22 894Z" />
<glyph unicode="&#xcd;" glyph-name="Iacute" horiz-adv-x="284" d="M105 700H179V0H105V700ZM194 894H268L175 754H118L194 894Z" />
<glyph unicode="&#xce;" glyph-name="Icircumflex" horiz-adv-x="284" d="M105 700H179V0H105V700ZM117 890H170L273 754H213L143 845L73 754H13L117 890Z" />
<glyph unicode="&#xcf;" glyph-name="Idieresis" horiz-adv-x="284" d="M105 700H179V0H105V700ZM25 754T12 767T-2 800Q-2 819 11 832T45 845Q65 845 78 832T91 800Q91 781 78 768T45 754Q25 754 12 767ZM221 754T208 767T194 800Q194 819 207 832T241 845Q261
845 274 832T288 800Q288 780 275 767T241 754Q221 754 208 767Z" />
<glyph unicode="&#xd0;" glyph-name="Eth" horiz-adv-x="619" d="M439 700T505 618T571 364Q571 235 541 155T445 38T274 0H87V308H8V367H87V700H302Q439 700 505 618ZM398 62T448 134T498 364Q498 507 451 572T300 638H161V367H382V308H161V62H290Q398 62 448 134Z" />
<glyph unicode="&#xd1;" glyph-name="Ntilde" horiz-adv-x="677" d="M591 700V0H516L159 588V0H85V700H167L518 119V700H591ZM199 793T219 819T273 846Q291 846 307 839T346 819Q379 799 394 799Q422 799 426 850H470Q469 809 448 782T393 754Q375 754 358 761T320
782Q308 789 296 795T275 801Q262 801 253 789T243 754H198Q199 793 219 819Z" />
<glyph unicode="&#xd2;" glyph-name="Ograve" horiz-adv-x="655" d="M240 -10T174 34T73 159T37 350Q37 460 72 541T174 666T328 710Q416 710 481 666T582 541T618 350Q618 240 583 159T482 34T328 -10Q240 -10 174 34ZM394 51T443 87T518 191T544 350Q544 441
518 508T443 612T328 649Q262 649 213 613T138 509T111 350Q111 259 137 192T213 88T328 51Q394 51 443 87ZM207 894H281L357 754H300L207 894Z" />
<glyph unicode="&#xd3;" glyph-name="Oacute" horiz-adv-x="655" d="M240 -10T174 34T73 159T37 350Q37 460 72 541T174 666T328 710Q416 710 481 666T582 541T618 350Q618 240 583 159T482 34T328 -10Q240 -10 174 34ZM394 51T443 87T518 191T544 350Q544 441
518 508T443 612T328 649Q262 649 213 613T138 509T111 350Q111 259 137 192T213 88T328 51Q394 51 443 87ZM379 894H453L360 754H303L379 894Z" />
<glyph unicode="&#xd4;" glyph-name="Ocircumflex" horiz-adv-x="655" d="M240 -10T174 34T73 159T37 350Q37 460 72 541T174 666T328 710Q416 710 481 666T582 541T618 350Q618 240 583 159T482 34T328 -10Q240 -10 174 34ZM394 51T443 87T518 191T544 350Q544
441 518 508T443 612T328 649Q262 649 213 613T138 509T111 350Q111 259 137 192T213 88T328 51Q394 51 443 87ZM302 890H355L458 754H398L328 845L258 754H198L302 890Z" />
<glyph unicode="&#xd5;" glyph-name="Otilde" horiz-adv-x="655" d="M240 -10T174 34T73 159T37 350Q37 460 72 541T174 666T328 710Q416 710 481 666T582 541T618 350Q618 240 583 159T482 34T328 -10Q240 -10 174 34ZM394 51T443 87T518 191T544 350Q544 441
518 508T443 612T328 649Q262 649 213 613T138 509T111 350Q111 259 137 192T213 88T328 51Q394 51 443 87ZM189 793T209 819T263 846Q281 846 297 839T336 819Q369 799 384 799Q412 799 416 850H460Q459 809 438 782T383 754Q365 754 348 761T310 782Q298 789
286 795T265 801Q252 801 243 789T233 754H188Q189 793 209 819Z" />
<glyph unicode="&#xd6;" glyph-name="Odieresis" horiz-adv-x="655" d="M240 -10T174 34T73 159T37 350Q37 460 72 541T174 666T328 710Q416 710 481 666T582 541T618 350Q618 240 583 159T482 34T328 -10Q240 -10 174 34ZM394 51T443 87T518 191T544 350Q544
441 518 508T443 612T328 649Q262 649 213 613T138 509T111 350Q111 259 137 192T213 88T328 51Q394 51 443 87ZM210 754T197 767T183 800Q183 819 196 832T230 845Q250 845 263 832T276 800Q276 781 263 768T230 754Q210 754 197 767ZM406 754T393 767T379 800Q379
819 392 832T426 845Q446 845 459 832T473 800Q473 780 460 767T426 754Q406 754 393 767Z" />
<glyph unicode="&#xd7;" glyph-name="multiply" horiz-adv-x="603" d="M300 212L111 13L65 55L256 258L65 458L111 500L300 302L491 500L538 458L347 258L538 55L491 13L300 212Z" />
<glyph unicode="&#xd8;" glyph-name="Oslash" horiz-adv-x="655" d="M565 592T591 519T618 350Q618 240 583 159T482 34T328 -10Q250 -10 189 25L153 -43H92L145 57Q93 103 65 178T37 350Q37 460 72 541T174 666T328 710Q406 710 470 674L497 725H561L515 639Q565
592 591 519ZM111 276T128 218T178 120L439 615Q391 649 328 649Q262 649 213 613T138 509T111 350Q111 276 128 218ZM394 51T443 87T518 191T544 350Q544 495 481 575L220 83Q266 51 328 51Q394 51 443 87Z" />
<glyph unicode="&#xd9;" glyph-name="Ugrave" horiz-adv-x="656" d="M84 -10T84 275V700H158V277Q158 52 329 52Q499 52 499 277V700H573V275Q573 134 512 62T329 -10Q84 -10 84 275ZM208 894H282L358 754H301L208 894Z" />
<glyph unicode="&#xda;" glyph-name="Uacute" horiz-adv-x="656" d="M84 -10T84 275V700H158V277Q158 52 329 52Q499 52 499 277V700H573V275Q573 134 512 62T329 -10Q84 -10 84 275ZM380 894H454L361 754H304L380 894Z" />
<glyph unicode="&#xdb;" glyph-name="Ucircumflex" horiz-adv-x="656" d="M84 -10T84 275V700H158V277Q158 52 329 52Q499 52 499 277V700H573V275Q573 134 512 62T329 -10Q84 -10 84 275ZM303 890H356L459 754H399L329 845L259 754H199L303 890Z" />
<glyph unicode="&#xdc;" glyph-name="Udieresis" horiz-adv-x="656" d="M84 -10T84 275V700H158V277Q158 52 329 52Q499 52 499 277V700H573V275Q573 134 512 62T329 -10Q84 -10 84 275ZM211 754T198 767T184 800Q184 819 197 832T231 845Q251 845 264 832T277
800Q277 781 264 768T231 754Q211 754 198 767ZM407 754T394 767T380 800Q380 819 393 832T427 845Q447 845 460 832T474 800Q474 780 461 767T427 754Q407 754 394 767Z" />
<glyph unicode="&#xdd;" glyph-name="Yacute" horiz-adv-x="554" d="M240 278L19 700H101L277 347L452 700H535L315 278V0H240V278ZM328 894H402L309 754H252L328 894Z" />
<glyph unicode="&#xde;" glyph-name="Thorn" horiz-adv-x="565" d="M86 700H160V601H280Q392 601 450 548T509 394Q509 287 449 230T275 172H160V0H86V700ZM287 234Q360 234 399 274T438 390Q438 463 397 501T279 540H160V234H287Z" />
<glyph unicode="&#xdf;" glyph-name="germandbls" horiz-adv-x="562" d="M307 -10T264 10T198 70L244 102Q263 74 291 60T352 45Q398 45 427 70T456 139Q456 181 432 202T353 243Q299 263 276 289T253 356Q253 389 269 410T320 459Q353 485 368 505T384 555Q384
603 355 628T270 654Q200 654 167 612T134 482V0H66V487Q66 596 117 653T266 710Q356 710 403 671T450 555Q450 515 429 488T370 429Q343 407 331 393T318 360Q318 334 339 318T398 288Q456 266 490 233T525 141Q525 72 479 31T357 -10Q307 -10 264 10Z" />
<glyph unicode="&#xe0;" glyph-name="agrave" horiz-adv-x="510" d="M138 -10T91 32T44 142Q44 216 99 257T255 299H367V326Q367 388 336 420T243 453Q198 453 161 434T100 377L62 421Q94 464 141 487T247 510Q338 510 387 464T437 334V94Q437 57 448 0H388Q381
22 375 74H373Q345 34 303 12T211 -10Q138 -10 91 32ZM258 46T292 62T346 105T367 164V246H252Q185 246 149 219T112 142Q112 99 141 73T218 46Q258 46 292 62ZM131 694H205L281 554H224L131 694Z" />
<glyph unicode="&#xe1;" glyph-name="aacute" horiz-adv-x="510" d="M138 -10T91 32T44 142Q44 216 99 257T255 299H367V326Q367 388 336 420T243 453Q198 453 161 434T100 377L62 421Q94 464 141 487T247 510Q338 510 387 464T437 334V94Q437 57 448 0H388Q381
22 375 74H373Q345 34 303 12T211 -10Q138 -10 91 32ZM258 46T292 62T346 105T367 164V246H252Q185 246 149 219T112 142Q112 99 141 73T218 46Q258 46 292 62ZM303 694H377L284 554H227L303 694Z" />
<glyph unicode="&#xe2;" glyph-name="acircumflex" horiz-adv-x="510" d="M138 -10T91 32T44 142Q44 216 99 257T255 299H367V326Q367 388 336 420T243 453Q198 453 161 434T100 377L62 421Q94 464 141 487T247 510Q338 510 387 464T437 334V94Q437 57 448 0H388Q381
22 375 74H373Q345 34 303 12T211 -10Q138 -10 91 32ZM258 46T292 62T346 105T367 164V246H252Q185 246 149 219T112 142Q112 99 141 73T218 46Q258 46 292 62ZM226 690H279L382 554H322L252 645L182 554H122L226 690Z" />
<glyph unicode="&#xe3;" glyph-name="atilde" horiz-adv-x="510" d="M138 -10T91 32T44 142Q44 216 99 257T255 299H367V326Q367 388 336 420T243 453Q198 453 161 434T100 377L62 421Q94 464 141 487T247 510Q338 510 387 464T437 334V94Q437 57 448 0H388Q381
22 375 74H373Q345 34 303 12T211 -10Q138 -10 91 32ZM258 46T292 62T346 105T367 164V246H252Q185 246 149 219T112 142Q112 99 141 73T218 46Q258 46 292 62ZM113 593T133 619T187 646Q205 646 221 639T260 619Q293 599 308 599Q336 599 340 650H384Q383 609
362 582T307 554Q289 554 272 561T234 582Q222 589 210 595T189 601Q176 601 167 589T157 554H112Q113 593 133 619Z" />
<glyph unicode="&#xe4;" glyph-name="adieresis" horiz-adv-x="510" d="M138 -10T91 32T44 142Q44 216 99 257T255 299H367V326Q367 388 336 420T243 453Q198 453 161 434T100 377L62 421Q94 464 141 487T247 510Q338 510 387 464T437 334V94Q437 57 448 0H388Q381
22 375 74H373Q345 34 303 12T211 -10Q138 -10 91 32ZM258 46T292 62T346 105T367 164V246H252Q185 246 149 219T112 142Q112 99 141 73T218 46Q258 46 292 62ZM134 554T121 567T107 600Q107 619 120 632T154 645Q174 645 187 632T200 600Q200 581 187 568T154
554Q134 554 121 567ZM330 554T317 567T303 600Q303 619 316 632T350 645Q370 645 383 632T397 600Q397 580 384 567T350 554Q330 554 317 567Z" />
<glyph unicode="&#xe5;" glyph-name="aring" horiz-adv-x="510" d="M138 -10T91 32T44 142Q44 216 99 257T255 299H367V326Q367 388 336 420T243 453Q198 453 161 434T100 377L62 421Q94 464 141 487T247 510Q338 510 387 464T437 334V94Q437 57 448 0H388Q381
22 375 74H373Q345 34 303 12T211 -10Q138 -10 91 32ZM258 46T292 62T346 105T367 164V246H252Q185 246 149 219T112 142Q112 99 141 73T218 46Q258 46 292 62ZM213 543T188 567T162 628Q162 665 187 689T252 713Q291 713 316 689T342 628Q342 591 317 567T252
543Q213 543 188 567ZM274 576T288 591T303 628Q303 650 289 664T252 679Q230 679 216 665T201 628Q201 606 215 591T252 576Q274 576 288 591Z" />
<glyph unicode="&#xe6;" glyph-name="ae" horiz-adv-x="834" d="M796 240H433Q435 149 477 99T592 49Q637 49 673 68T735 123L775 84Q747 40 699 15T591 -10Q528 -10 481 14T405 86Q377 42 326 16T213 -10Q138 -10 91 31T44 137Q44 209 97 250T242 292H364V326Q364
388 333 420T243 453Q198 453 160 433T99 377L62 421Q93 464 141 487T247 510Q307 510 349 488T412 424Q442 466 486 488T588 510Q688 510 742 448T796 271V240ZM728 301Q728 374 691 413T585 453Q522 453 483 411T435 292H728V301ZM364 240H250Q186 240 149 212T111
137Q111 96 140 71T217 46Q280 46 322 80T364 164V240Z" />
<glyph unicode="&#xe7;" glyph-name="ccedilla" horiz-adv-x="467" d="M311 47T348 66T407 122L449 83Q396 -1 286 -9L259 -62Q301 -62 325 -80T350 -131Q350 -169 324 -192T253 -215Q233 -215 213 -212T183 -205L189 -172Q207 -177 241 -177Q301 -177 301 -134Q301
-93 220 -94L203 -76L241 -9Q144 -1 91 67T37 250Q37 373 97 441T266 510Q327 510 374 487T449 417L407 378Q385 414 348 433T268 453Q192 453 150 400T107 250Q107 155 149 101T268 47Q311 47 348 66Z" />
<glyph unicode="&#xe8;" glyph-name="egrave" horiz-adv-x="510" d="M472 222H108Q114 139 155 94T268 49Q313 49 350 68T411 123L452 84Q423 39 375 15T266 -10Q159 -10 99 58T38 249Q38 371 97 440T262 510Q361 510 416 443T472 256V222ZM408 284Q408 362 368
407T260 453Q192 453 153 407T108 276H408V284ZM143 694H217L293 554H236L143 694Z" />
<glyph unicode="&#xe9;" glyph-name="eacute" horiz-adv-x="510" d="M472 222H108Q114 139 155 94T268 49Q313 49 350 68T411 123L452 84Q423 39 375 15T266 -10Q159 -10 99 58T38 249Q38 371 97 440T262 510Q361 510 416 443T472 256V222ZM408 284Q408 362 368
407T260 453Q192 453 153 407T108 276H408V284ZM315 694H389L296 554H239L315 694Z" />
<glyph unicode="&#xea;" glyph-name="ecircumflex" horiz-adv-x="510" d="M472 222H108Q114 139 155 94T268 49Q313 49 350 68T411 123L452 84Q423 39 375 15T266 -10Q159 -10 99 58T38 249Q38 371 97 440T262 510Q361 510 416 443T472 256V222ZM408 284Q408 362
368 407T260 453Q192 453 153 407T108 276H408V284ZM238 690H291L394 554H334L264 645L194 554H134L238 690Z" />
<glyph unicode="&#xeb;" glyph-name="edieresis" horiz-adv-x="510" d="M472 222H108Q114 139 155 94T268 49Q313 49 350 68T411 123L452 84Q423 39 375 15T266 -10Q159 -10 99 58T38 249Q38 371 97 440T262 510Q361 510 416 443T472 256V222ZM408 284Q408 362
368 407T260 453Q192 453 153 407T108 276H408V284ZM146 554T133 567T119 600Q119 619 132 632T166 645Q186 645 199 632T212 600Q212 581 199 568T166 554Q146 554 133 567ZM342 554T329 567T315 600Q315 619 328 632T362 645Q382 645 395 632T409 600Q409 580
396 567T362 554Q342 554 329 567Z" />
<glyph unicode="&#xec;" glyph-name="igrave" horiz-adv-x="244" d="M87 500H157V0H87V500ZM1 694H75L151 554H94L1 694Z" />
<glyph unicode="&#xed;" glyph-name="iacute" horiz-adv-x="244" d="M87 500H157V0H87V500ZM173 694H247L154 554H97L173 694Z" />
<glyph unicode="&#xee;" glyph-name="icircumflex" horiz-adv-x="244" d="M87 500H157V0H87V500ZM96 690H149L252 554H192L122 645L52 554H-8L96 690Z" />
<glyph unicode="&#xef;" glyph-name="idieresis" horiz-adv-x="244" d="M87 500H157V0H87V500ZM4 554T-9 567T-23 600Q-23 619 -10 632T24 645Q44 645 57 632T70 600Q70 581 57 568T24 554Q4 554 -9 567ZM200 554T187 567T173 600Q173 619 186 632T220 645Q240
645 253 632T267 600Q267 580 254 567T220 554Q200 554 187 567Z" />
<glyph unicode="&#xf0;" glyph-name="eth" horiz-adv-x="494" d="M377 530T416 442T456 253Q456 131 399 61T241 -10Q182 -10 136 18T64 96T38 211Q38 277 64 330T135 412T239 442Q280 442 315 425T371 379Q343 485 258 563L128 479L99 522L215 597Q151 641 76
660L82 704Q179 688 264 629L378 703L406 659L306 594Q377 530 416 442ZM310 48T349 94T388 215Q388 292 350 338T246 385Q183 385 145 339T107 215Q107 140 145 94T246 48Q310 48 349 94Z" />
<glyph unicode="&#xf1;" glyph-name="ntilde" horiz-adv-x="545" d="M65 376Q65 464 62 500H125Q129 466 129 405H132Q154 453 201 481T304 510Q391 510 435 453T479 284V0H410V285Q410 370 381 411T293 453Q248 453 212 430T156 365T135 273V0H65V376ZM134 593T154
619T208 646Q226 646 242 639T281 619Q314 599 329 599Q357 599 361 650H405Q404 609 383 582T328 554Q310 554 293 561T255 582Q243 589 231 595T210 601Q197 601 188 589T178 554H133Q134 593 154 619Z" />
<glyph unicode="&#xf2;" glyph-name="ograve" horiz-adv-x="550" d="M203 -10T150 22T67 113T38 250Q38 328 67 387T149 478T275 510Q347 510 400 478T483 387T512 250Q512 172 483 113T401 22T275 -10Q203 -10 150 22ZM352 45T397 100T443 250Q443 344 398 399T275
455Q198 455 153 400T107 250Q107 156 152 101T275 45Q352 45 397 100ZM154 694H228L304 554H247L154 694Z" />
<glyph unicode="&#xf3;" glyph-name="oacute" horiz-adv-x="550" d="M203 -10T150 22T67 113T38 250Q38 328 67 387T149 478T275 510Q347 510 400 478T483 387T512 250Q512 172 483 113T401 22T275 -10Q203 -10 150 22ZM352 45T397 100T443 250Q443 344 398 399T275
455Q198 455 153 400T107 250Q107 156 152 101T275 45Q352 45 397 100ZM326 694H400L307 554H250L326 694Z" />
<glyph unicode="&#xf4;" glyph-name="ocircumflex" horiz-adv-x="550" d="M203 -10T150 22T67 113T38 250Q38 328 67 387T149 478T275 510Q347 510 400 478T483 387T512 250Q512 172 483 113T401 22T275 -10Q203 -10 150 22ZM352 45T397 100T443 250Q443 344 398
399T275 455Q198 455 153 400T107 250Q107 156 152 101T275 45Q352 45 397 100ZM249 690H302L405 554H345L275 645L205 554H145L249 690Z" />
<glyph unicode="&#xf5;" glyph-name="otilde" horiz-adv-x="550" d="M203 -10T150 22T67 113T38 250Q38 328 67 387T149 478T275 510Q347 510 400 478T483 387T512 250Q512 172 483 113T401 22T275 -10Q203 -10 150 22ZM352 45T397 100T443 250Q443 344 398 399T275
455Q198 455 153 400T107 250Q107 156 152 101T275 45Q352 45 397 100ZM136 593T156 619T210 646Q228 646 244 639T283 619Q316 599 331 599Q359 599 363 650H407Q406 609 385 582T330 554Q312 554 295 561T257 582Q245 589 233 595T212 601Q199 601 190 589T180
554H135Q136 593 156 619Z" />
<glyph unicode="&#xf6;" glyph-name="odieresis" horiz-adv-x="550" d="M203 -10T150 22T67 113T38 250Q38 328 67 387T149 478T275 510Q347 510 400 478T483 387T512 250Q512 172 483 113T401 22T275 -10Q203 -10 150 22ZM352 45T397 100T443 250Q443 344 398
399T275 455Q198 455 153 400T107 250Q107 156 152 101T275 45Q352 45 397 100ZM157 554T144 567T130 600Q130 619 143 632T177 645Q197 645 210 632T223 600Q223 581 210 568T177 554Q157 554 144 567ZM353 554T340 567T326 600Q326 619 339 632T373 645Q393 645
406 632T420 600Q420 580 407 567T373 554Q353 554 340 567Z" />
<glyph unicode="&#xf7;" glyph-name="divide" horiz-adv-x="603" d="M279 391T264 406T248 444Q248 467 263 482T302 497Q326 497 341 482T356 444Q356 421 341 406T302 391Q279 391 264 406ZM53 290H551V234H53V290ZM279 27T264 42T248 81Q248 103 263 118T302
133Q326 133 341 119T356 81Q356 58 341 43T302 27Q279 27 264 42Z" />
<glyph unicode="&#xf8;" glyph-name="oslash" horiz-adv-x="550" d="M465 430T488 375T512 250Q512 172 483 113T401 22T275 -10Q221 -10 179 8L152 -43H98L137 30Q89 63 64 119T38 250Q38 328 67 387T149 478T275 510Q332 510 378 490L402 535H460L422 463Q465
430 488 375ZM107 142T166 86L351 437Q318 455 275 455Q198 455 153 400T107 250Q107 142 166 86ZM352 45T397 100T443 250Q443 349 391 406L206 59Q239 45 275 45Q352 45 397 100Z" />
<glyph unicode="&#xf9;" glyph-name="ugrave" horiz-adv-x="550" d="M155 -10T111 45T66 209V500H135V206Q135 47 253 47Q298 47 333 70T389 134T410 226V500H479V100Q479 54 488 0H426Q417 41 416 94H412Q390 45 344 18T241 -10Q155 -10 111 45ZM156 694H230L306
554H249L156 694Z" />
<glyph unicode="&#xfa;" glyph-name="uacute" horiz-adv-x="550" d="M155 -10T111 45T66 209V500H135V206Q135 47 253 47Q298 47 333 70T389 134T410 226V500H479V100Q479 54 488 0H426Q417 41 416 94H412Q390 45 344 18T241 -10Q155 -10 111 45ZM328 694H402L309
554H252L328 694Z" />
<glyph unicode="&#xfb;" glyph-name="ucircumflex" horiz-adv-x="550" d="M155 -10T111 45T66 209V500H135V206Q135 47 253 47Q298 47 333 70T389 134T410 226V500H479V100Q479 54 488 0H426Q417 41 416 94H412Q390 45 344 18T241 -10Q155 -10 111 45ZM251 690H304L407
554H347L277 645L207 554H147L251 690Z" />
<glyph unicode="&#xfc;" glyph-name="udieresis" horiz-adv-x="550" d="M155 -10T111 45T66 209V500H135V206Q135 47 253 47Q298 47 333 70T389 134T410 226V500H479V100Q479 54 488 0H426Q417 41 416 94H412Q390 45 344 18T241 -10Q155 -10 111 45ZM159 554T146
567T132 600Q132 619 145 632T179 645Q199 645 212 632T225 600Q225 581 212 568T179 554Q159 554 146 567ZM355 554T342 567T328 600Q328 619 341 632T375 645Q395 645 408 632T422 600Q422 580 409 567T375 554Q355 554 342 567Z" />
<glyph unicode="&#xfd;" glyph-name="yacute" horiz-adv-x="448" d="M437 500L260 -4Q223 -107 172 -156T49 -206Q22 -206 1 -200V-148Q18 -153 40 -153Q93 -153 129 -114T203 22L17 500H92L234 97L361 500H437ZM281 694H355L262 554H205L281 694Z" />
<glyph unicode="&#xfe;" glyph-name="thorn" horiz-adv-x="531" d="M63 742H130V427Q150 464 193 487T285 510Q382 510 437 442T493 252Q493 174 467 115T392 23T281 -10Q232 -10 192 11T132 69V-237H63V742ZM343 45T383 102T424 254Q424 348 385 400T277 453Q213
453 173 410T132 299V218Q132 138 170 92T276 45Q343 45 383 102Z" />
<glyph unicode="&#xff;" glyph-name="ydieresis" horiz-adv-x="448" d="M437 500L260 -4Q223 -107 172 -156T49 -206Q22 -206 1 -200V-148Q18 -153 40 -153Q93 -153 129 -114T203 22L17 500H92L234 97L361 500H437ZM112 554T99 567T85 600Q85 619 98 632T132 645Q152
645 165 632T178 600Q178 581 165 568T132 554Q112 554 99 567ZM308 554T295 567T281 600Q281 619 294 632T328 645Q348 645 361 632T375 600Q375 580 362 567T328 554Q308 554 295 567Z" />
<glyph unicode="&#x2013;" glyph-name="endash" horiz-adv-x="541" d="M37 293H504V239H37V293Z" />
<glyph unicode="&#x2014;" glyph-name="emdash" horiz-adv-x="836" d="M37 293H799V239H37V293Z" />
<glyph unicode="&#x2018;" glyph-name="quoteleft" horiz-adv-x="340" d="M202 582T216 566T231 525Q231 497 214 480T170 462Q142 462 125 483T108 543Q108 593 133 648T203 743L232 710Q207 683 190 650T167 581Q171 582 181 582Q202 582 216 566Z" />
<glyph unicode="&#x2019;" glyph-name="quoteright" horiz-adv-x="340" d="M198 720T215 699T232 639Q232 590 207 534T137 438L108 471Q133 498 150 531T172 601Q168 600 159 600Q138 600 124 616T109 657Q109 685 125 702T170 720Q198 720 215 699Z" />
<glyph unicode="&#x201a;" glyph-name="quotesinglbase" horiz-adv-x="340" d="M198 113T215 92T232 32Q232 -18 207 -74T137 -169L108 -136Q133 -110 150 -77T172 -7Q168 -8 159 -8Q138 -8 124 8T109 50Q109 78 125 95T170 113Q198 113 215 92Z" />
<glyph unicode="&#x201c;" glyph-name="quotedblleft" horiz-adv-x="522" d="M232 710Q207 683 190 650T167 581Q171 582 181 582Q202 582 216 566T231 525Q231 497 214 480T170 462Q142 462 125 483T108 543Q108 594 134 649T203 743L232 710ZM384 582T398 566T413
525Q413 497 397 480T353 462Q325 462 308 483T290 543Q290 593 316 648T385 743L414 710Q389 683 372 650T350 581Q354 582 363 582Q384 582 398 566Z" />
<glyph unicode="&#x201d;" glyph-name="quotedblright" horiz-adv-x="522" d="M198 730T215 709T232 649Q232 599 207 543T137 448L108 481Q133 508 150 541T172 611Q169 610 159 610Q138 610 124 626T109 667Q109 695 125 712T170 730Q198 730 215 709ZM380 730T397
709T414 649Q414 599 389 543T319 448L290 481Q315 508 332 542T355 611Q351 610 341 610Q320 610 306 626T292 667Q292 695 308 712T352 730Q380 730 397 709Z" />
<glyph unicode="&#x201e;" glyph-name="quotedblbase" horiz-adv-x="522" d="M198 113T215 92T232 32Q232 -18 207 -74T137 -169L108 -136Q133 -110 150 -77T172 -7Q168 -8 159 -8Q138 -8 124 8T109 50Q109 78 125 95T170 113Q198 113 215 92ZM380 113T397 92T414
32Q414 -19 389 -75T319 -169L290 -136Q315 -109 332 -76T355 -7Q351 -8 341 -8Q320 -8 306 8T292 50Q292 78 308 95T352 113Q380 113 397 92Z" />
<glyph unicode="&#x2022;" glyph-name="bullet" horiz-adv-x="368" d="M127 163T90 200T53 294Q53 351 90 388T184 425Q241 425 278 388T315 294Q315 237 278 200T184 163Q127 163 90 200Z" />
<glyph unicode="&#x2039;" glyph-name="guilsinglleft" horiz-adv-x="313" d="M39 260L198 455H274L118 260L274 65H198L39 260Z" />
<glyph unicode="&#x203a;" glyph-name="guilsinglright" horiz-adv-x="313" d="M195 260L39 455H115L274 260L115 65H39L195 260Z" />
</font>
</defs>
</svg>
