<?xml version="1.0" standalone="no"?>
<!DOCTYPE svg PUBLIC "-//W3C//DTD SVG 1.1//EN" "http://www.w3.org/Graphics/SVG/1.1/DTD/svg11.dtd">
<svg xmlns="http://www.w3.org/2000/svg">
<defs >
<font id="Sarabun" horiz-adv-x="565" ><font-face
    font-family="Sarabun ExtraBold"
    units-per-em="1000"
    panose-1="0 0 9 0 0 0 0 0 0 0"
    ascent="1068"
    descent="-232"
    alphabetic="0" />
<glyph unicode=" " glyph-name="space" horiz-adv-x="230" />
<glyph unicode="!" glyph-name="exclam" horiz-adv-x="262" d="M125 700H295L196 227H58L125 700ZM47 -10T23 11T-1 66Q-1 117 32 149T119 181Q156 181 180 160T204 104Q204 54 171 22T85 -10Q47 -10 23 11Z" />
<glyph unicode="&quot;" glyph-name="quotedbl" horiz-adv-x="422" d="M111 710H260L202 443H74L111 710ZM324 710H473L416 443H288L324 710Z" />
<glyph unicode="#" glyph-name="numbersign" horiz-adv-x="714" d="M617 408L583 292H663L643 178H548L495 0H342L395 178H258L205 0H52L105 178H27L47 292H140L174 408H86L106 522H209L262 700H415L362 522H499L552 700H705L652 522H722L702 408H617ZM464 408H327L293
292H430L464 408Z" />
<glyph unicode="$" glyph-name="dollar" horiz-adv-x="545" d="M464 373T496 330T528 225Q528 125 466 64T290 -8L278 -79H158L171 -3Q114 9 70 40T0 119L109 207Q134 167 174 143T256 118Q307 118 335 139T364 198Q364 220 344 238T262 290Q173 339 134 387T94
495Q94 577 148 633T296 704L308 769H428L417 706Q473 697 514 670T578 600L463 524Q424 582 357 582Q312 582 285 564T258 514Q258 491 286 469T391 409Q464 373 496 330Z" />
<glyph unicode="%" glyph-name="percent" horiz-adv-x="990" d="M162 292T121 336T80 453Q80 522 110 581T193 675T305 710Q375 710 416 666T457 549Q457 480 427 421T344 327T232 292Q162 292 121 336ZM703 700H868L315 -13H150L703 700ZM269 402T286 421T313
472T324 537Q324 566 314 583T286 600Q268 600 251 581T224 531T213 465Q213 436 223 419T251 402Q269 402 286 421ZM651 -9T610 35T569 152Q569 221 599 280T682 374T794 409Q864 409 905 365T946 248Q946 179 916 120T833 26T720 -9Q651 -9 610 35ZM758 101T775
120T802 171T813 236Q813 265 803 282T775 299Q756 299 740 280T713 229T702 164Q702 135 712 118T740 101Q758 101 775 120Z" />
<glyph unicode="&amp;" glyph-name="ampersand" horiz-adv-x="707" d="M659 240T588 151L650 94L543 -10L472 51Q370 -10 256 -10Q148 -10 85 38T22 169Q22 239 67 299T190 400Q165 458 165 506Q165 563 195 609T277 683T393 710Q468 710 513 673T559 575Q559
512 516 457T389 356Q408 328 432 301T496 236Q526 280 545 345H682Q659 240 588 151ZM347 595T329 576T311 525Q311 489 338 438Q374 468 394 499T414 557Q414 575 404 585T375 595Q347 595 329 576ZM189 159T216 139T291 119Q341 119 382 138Q301 221 249 296L244
303Q218 279 204 251T189 195Q189 159 216 139Z" />
<glyph unicode="&apos;" glyph-name="quotesingle" horiz-adv-x="209" d="M111 710H260L202 443H74L111 710Z" />
<glyph unicode="(" glyph-name="parenleft" horiz-adv-x="366" d="M97 -11T71 60T45 218Q45 377 111 521T290 750H434Q369 701 316 614T233 423T203 217Q203 127 226 55T291 -61H147Q97 -11 71 60Z" />
<glyph unicode=")" glyph-name="parenright" horiz-adv-x="366" d="M30 -13T82 73T165 265T196 472Q196 562 173 634T108 750H252Q354 647 354 470Q354 309 288 166T109 -61H-35Q30 -13 82 73Z" />
<glyph unicode="*" glyph-name="asterisk" horiz-adv-x="448" d="M94 400L201 508L64 500L81 598L216 590L147 698L250 752L290 626L374 752L459 698L352 590L489 598L472 500L337 508L406 400L303 346L263 472L179 346L94 400Z" />
<glyph unicode="+" glyph-name="plus" horiz-adv-x="620" d="M235 209H38L57 315H254L291 524H427L390 315H587L568 209H371L334 0H198L235 209Z" />
<glyph unicode="," glyph-name="comma" horiz-adv-x="304" d="M175 167T198 143T222 80Q222 9 170 -68T35 -197L-16 -124Q12 -105 39 -74T85 -9Q81 -10 75 -10Q50 -10 34 7T18 53Q18 103 51 135T138 167Q175 167 198 143Z" />
<glyph unicode="-" glyph-name="hyphen" horiz-adv-x="340" d="M31 314H331L314 218H14L31 314Z" />
<glyph unicode="." glyph-name="period" horiz-adv-x="304" d="M72 -9T51 11T29 64Q29 113 59 144T139 175Q173 175 194 155T216 102Q216 53 186 22T106 -9Q72 -9 51 11Z" />
<glyph unicode="/" glyph-name="slash" horiz-adv-x="486" d="M443 725H589L74 -43H-72L443 725Z" />
<glyph unicode="0" glyph-name="zero" horiz-adv-x="570" d="M183 -10T134 21T56 109T28 236Q28 375 70 482T187 650T358 710Q422 710 471 679T549 591T577 464Q577 325 535 218T418 50T247 -10Q183 -10 134 21ZM305 105T341 152T398 285T418 479Q418 530 398
562T346 595Q300 595 264 548T207 415T187 221Q187 170 207 138T259 105Q305 105 341 152Z" />
<glyph unicode="1" glyph-name="one" horiz-adv-x="570" d="M90 118H201L272 521L131 446L156 588L358 700H464L362 118H472L451 0H69L90 118Z" />
<glyph unicode="2" glyph-name="two" horiz-adv-x="570" d="M29 112Q136 178 220 253T351 398T398 520Q398 550 381 566T331 583Q287 583 242 559T163 492L91 585Q138 645 205 677T350 710Q451 710 507 667T563 548Q563 460 487 357T245 118H513L492 0H9L29 112Z" />
<glyph unicode="3" glyph-name="three" horiz-adv-x="570" d="M157 -9T98 20T16 102L109 188Q133 157 171 138T248 118Q302 118 334 148T367 228Q367 265 339 287T259 310H191L210 422H277Q327 422 361 452T396 526Q396 553 377 567T320 582Q278 582 237 564T159
512L101 599Q148 651 216 680T358 709Q417 709 463 690T534 635T560 555Q560 497 526 451T427 373Q527 329 527 233Q527 163 490 108T387 22T238 -9Q157 -9 98 20Z" />
<glyph unicode="4" glyph-name="four" horiz-adv-x="570" d="M296 105H-9L10 213L395 700H562L479 232H551L529 105H457L438 0H277L296 105ZM318 232L361 476L165 232H318Z" />
<glyph unicode="5" glyph-name="five" horiz-adv-x="570" d="M156 -10T95 21T8 101L94 202Q125 160 162 139T241 117Q279 117 310 138T359 195T377 277Q377 317 357 339T298 361Q271 361 243 344T197 298H64L170 700H594L571 573H289L253 438Q269 454 300 466T361
478Q443 478 491 428T540 293Q540 207 500 138T389 29T229 -10Q156 -10 95 21Z" />
<glyph unicode="6" glyph-name="six" horiz-adv-x="570" d="M186 -10T136 17T59 93T31 206Q31 327 106 442T303 632T559 716L552 595Q472 583 407 550T295 464Q313 467 336 467Q431 467 485 417T539 278Q539 195 502 130T400 27T251 -10Q186 -10 136 17ZM297 118T322
136T363 187T378 258Q378 296 359 318T305 340Q275 340 249 321T208 270T193 200Q193 162 212 140T266 118Q297 118 322 136Z" />
<glyph unicode="7" glyph-name="seven" horiz-adv-x="570" d="M159 182T222 320T390 573H99L121 700H608L591 600Q474 497 394 337T282 0H121Q159 182 222 320Z" />
<glyph unicode="8" glyph-name="eight" horiz-adv-x="570" d="M178 -10T127 13T46 77T17 170Q17 235 57 291T163 370Q134 383 116 418T97 496Q97 558 130 607T223 683T360 710Q421 710 468 690T541 632T568 546Q568 488 535 439T449 370Q487 354 511 314T535 226Q535
157 498 104T395 20T245 -10Q178 -10 127 13ZM356 425T380 452T405 522Q405 549 388 566T344 583Q304 583 279 556T254 486Q254 459 271 442T316 425Q356 425 380 452ZM312 117T344 151T377 239Q377 273 355 295T297 317Q246 317 214 283T181 195Q181 161 203 139T261
117Q312 117 344 151Z" />
<glyph unicode="9" glyph-name="nine" horiz-adv-x="570" d="M55 105Q139 119 210 154T322 237Q284 233 272 233Q180 233 125 286T69 427Q69 507 106 571T209 672T357 709Q422 709 471 682T548 606T576 491Q576 364 507 252T320 68T59 -16L55 105ZM329 350T355
370T398 425T414 500Q414 538 395 560T340 582Q309 582 284 563T243 510T228 437Q228 397 247 374T299 350Q329 350 355 370Z" />
<glyph unicode=":" glyph-name="colon" horiz-adv-x="304" d="M131 321T109 341T87 394Q87 443 117 474T197 505Q231 505 253 485T275 432Q275 383 245 352T165 321Q131 321 109 341ZM72 -9T51 11T29 64Q29 113 59 144T139 175Q173 175 194 155T216 102Q216 53
186 22T106 -9Q72 -9 51 11Z" />
<glyph unicode=";" glyph-name="semicolon" horiz-adv-x="304" d="M231 505T253 485T275 432Q275 383 245 352T165 321Q131 321 109 341T87 394Q87 443 117 474T197 505Q231 505 253 485ZM173 167T196 143T220 80Q220 9 168 -68T33 -197L-18 -124Q10 -105 37 -74T83
-9Q79 -10 73 -10Q48 -10 32 7T16 53Q16 103 49 135T136 167Q173 167 196 143Z" />
<glyph unicode="&lt;" glyph-name="less" horiz-adv-x="620" d="M56 266L66 322L627 588L606 469L232 294L544 119L523 0L56 266Z" />
<glyph unicode="=" glyph-name="equal" horiz-adv-x="620" d="M84 422H596L576 306H64L84 422ZM45 202H557L537 86H25L45 202Z" />
<glyph unicode="&gt;" glyph-name="greater" horiz-adv-x="620" d="M30 119L404 294L92 469L113 588L580 322L570 266L9 0L30 119Z" />
<glyph unicode="?" glyph-name="question" horiz-adv-x="477" d="M157 188Q157 229 171 262T206 321T260 381Q305 427 326 459T348 534Q348 563 331 579T281 595Q247 595 209 571T140 506L79 598Q117 651 179 680T315 710Q406 710 458 671T510 563Q510 518 492
479T447 410T379 339Q335 297 313 268T291 209V186H157V188ZM165 -10T144 8T123 56Q123 99 152 126T227 154Q260 154 281 136T302 88Q302 45 273 18T198 -10Q165 -10 144 8Z" />
<glyph unicode="@" glyph-name="at" horiz-adv-x="808" d="M223 -152T157 -117T55 -18T19 130Q19 256 81 364T250 536T482 600Q572 600 639 567T743 474T779 334Q779 250 746 179T655 67T529 25H503L485 84Q455 56 413 39T334 21Q277 21 243 51T209 131Q209 177
235 214T308 272T411 293H480L482 304Q483 308 483 316Q483 339 468 352T428 366Q394 366 357 351T294 312L256 366Q291 400 343 422T443 444Q503 444 538 411T573 322Q573 307 570 292L551 181Q549 172 549 153Q549 118 560 104Q590 113 617 145T660 222T677 315Q677
401 620 452T466 504Q375 504 297 456T173 326T127 149Q127 56 183 0T335 -56Q380 -56 428 -44T508 -12L532 -90Q495 -118 434 -135T311 -152Q223 -152 157 -117ZM380 97T402 107T439 131T457 159L468 225H403Q362 225 335 203T308 145Q308 123 321 110T359 97Q380
97 402 107Z" />
<glyph unicode="A" glyph-name="A" horiz-adv-x="656" d="M423 104H194L144 0H-30L337 700H477L598 0H436L423 104ZM407 232L375 484L255 232H407Z" />
<glyph unicode="B" glyph-name="B" horiz-adv-x="612" d="M143 700H384Q488 700 545 661T603 550Q603 494 574 453T484 378L483 376Q575 334 575 243Q575 129 509 65T326 0H20L143 700ZM345 426Q384 426 410 450T437 514Q437 543 416 560T353 577H283L256 426H345ZM313
123Q357 123 386 154T416 236Q416 271 391 290T315 310H236L203 123H313Z" />
<glyph unicode="C" glyph-name="C" horiz-adv-x="631" d="M248 -10T181 24T77 122T40 272Q40 400 88 499T223 654T421 710Q512 710 578 676T666 582L560 503Q541 541 505 561T422 582Q357 582 307 543T229 434T201 274Q201 199 237 159T340 118Q442 118 506 197L588
117Q503 -10 340 -10Q248 -10 181 24Z" />
<glyph unicode="D" glyph-name="D" horiz-adv-x="648" d="M143 700H387Q511 700 577 638T643 457Q643 234 549 117T272 0H20L143 700ZM290 128Q348 128 391 167T458 276T482 441Q482 508 457 540T377 572H282L204 128H290Z" />
<glyph unicode="E" glyph-name="E" horiz-adv-x="577" d="M143 700H622L600 572H282L257 431H541L518 303H234L204 128H522L499 0H20L143 700Z" />
<glyph unicode="F" glyph-name="F" horiz-adv-x="582" d="M143 700H627L605 572H282L252 405H554L532 277H230L181 0H20L143 700Z" />
<glyph unicode="G" glyph-name="G" horiz-adv-x="659" d="M332 386H637L569 0H445L440 32Q377 -10 298 -10Q219 -10 161 22T70 113T38 251Q38 387 86 491T220 652T420 710Q512 710 579 674T665 582L559 503Q542 541 507 561T421 582Q356 582 306 541T228 426T200
257Q200 107 321 107Q380 107 434 134L458 273H312L332 386Z" />
<glyph unicode="H" glyph-name="H" horiz-adv-x="697" d="M143 700H304L255 421H502L551 700H712L589 0H428L480 293H233L181 0H20L143 700Z" />
<glyph unicode="I" glyph-name="I" horiz-adv-x="333" d="M165 700H326L203 0H42L165 700Z" />
<glyph unicode="J" glyph-name="J" horiz-adv-x="509" d="M111 -10T58 12T-26 75L56 176Q80 148 112 133T178 118Q223 118 248 147T284 242L364 700H525L442 225Q421 105 355 48T173 -10Q111 -10 58 12Z" />
<glyph unicode="K" glyph-name="K" horiz-adv-x="673" d="M440 426L610 0H438L318 301L216 197L181 0H20L144 700H305L253 409L519 700H708L440 426Z" />
<glyph unicode="L" glyph-name="L" horiz-adv-x="570" d="M143 700H304L204 128H531L508 0H20L143 700Z" />
<glyph unicode="M" glyph-name="M" horiz-adv-x="822" d="M837 700L713 0H554L620 374L422 0H308L243 364L179 0H20L144 700H303L391 173L664 700H837Z" />
<glyph unicode="N" glyph-name="N" horiz-adv-x="704" d="M719 700L596 0H450L257 435L180 0H20L143 700H296L484 273L559 700H719Z" />
<glyph unicode="O" glyph-name="O" horiz-adv-x="700" d="M238 -10T174 25T75 122T39 266Q39 396 86 496T219 653T415 710Q497 710 561 675T661 578T697 434Q697 305 649 204T516 47T320 -10Q238 -10 174 25ZM391 117T437 155T508 262T534 422Q534 468 517 504T471
562T405 583Q345 583 299 545T228 438T202 279Q202 233 219 196T265 138T331 117Q391 117 437 155Z" />
<glyph unicode="P" glyph-name="P" horiz-adv-x="596" d="M143 700H375Q485 700 546 653T608 522Q608 385 529 309T308 233H222L181 0H20L143 700ZM331 360Q383 360 415 398T447 497Q447 534 426 553T362 572H282L244 360H331Z" />
<glyph unicode="Q" glyph-name="Q" horiz-adv-x="700" d="M697 322T661 232T560 81T407 0Q491 -27 616 -27L571 -136Q503 -134 430 -114T297 -62T207 3L222 5Q138 32 89 101T39 266Q39 396 86 496T219 653T415 710Q497 710 561 675T661 578T697 434Q697 322 661
232ZM345 583T299 545T228 438T202 279Q202 233 219 196T265 138T331 117Q391 117 437 155T508 262T534 422Q534 468 517 504T471 562T405 583Q345 583 299 545Z" />
<glyph unicode="R" glyph-name="R" horiz-adv-x="601" d="M143 700H390Q497 700 554 656T611 528Q611 447 576 394T466 312V310Q482 296 489 285T500 259L557 0H387L346 209Q341 237 325 246T263 255H226L181 0H20L143 700ZM326 382Q381 382 414 415T448 504Q448
572 358 572H282L248 382H326Z" />
<glyph unicode="S" glyph-name="S" horiz-adv-x="555" d="M160 -10T97 24T0 119L109 207Q134 167 174 143T256 118Q307 118 335 139T364 198Q364 220 344 238T262 290Q173 339 134 387T94 495Q94 559 127 607T222 683T365 710Q439 710 495 681T578 600L463 524Q424
582 357 582Q312 582 285 564T258 514Q258 491 286 469T391 409Q464 373 496 330T528 225Q528 114 453 52T241 -10Q160 -10 97 24Z" />
<glyph unicode="T" glyph-name="T" horiz-adv-x="601" d="M279 583H73L94 700H667L646 583H440L337 0H176L279 583Z" />
<glyph unicode="U" glyph-name="U" horiz-adv-x="664" d="M176 -10T114 43T51 201Q51 228 58 272L133 700H294L219 274Q214 242 214 222Q214 118 309 118Q366 118 403 157T453 274L528 700H689L614 272Q590 133 510 62T294 -10Q176 -10 114 43Z" />
<glyph unicode="V" glyph-name="V" horiz-adv-x="662" d="M727 700L358 0H214L93 700H258L319 205L556 700H727Z" />
<glyph unicode="W" glyph-name="W" horiz-adv-x="888" d="M943 700L671 0H522L491 503L282 0H127L103 700H271L264 270L445 700H595L625 270L769 700H943Z" />
<glyph unicode="X" glyph-name="X" horiz-adv-x="672" d="M262 358L112 700H285L370 489L529 700H718L448 358L604 0H436L341 223L169 0H-20L262 358Z" />
<glyph unicode="Y" glyph-name="Y" horiz-adv-x="646" d="M248 280L93 700H263L353 444L533 700H711L409 280L360 0H199L248 280Z" />
<glyph unicode="Z" glyph-name="Z" horiz-adv-x="600" d="M-7 76L415 572H109L131 700H642L629 622L212 128H555L532 0H-20L-7 76Z" />
<glyph unicode="[" glyph-name="bracketleft" horiz-adv-x="340" d="M120 700H380L360 589H258L156 8H258L238 -103H-22L120 700Z" />
<glyph unicode="\" glyph-name="backslash" horiz-adv-x="386" d="M64 725H210L455 -43H309L64 725Z" />
<glyph unicode="]" glyph-name="bracketright" horiz-adv-x="340" d="M-2 8H100L202 589H100L120 700H380L238 -103H-22L-2 8Z" />
<glyph unicode="^" glyph-name="asciicircum" horiz-adv-x="604" d="M324 700H439L569 222H428L353 539L167 222H25L324 700Z" />
<glyph unicode="_" glyph-name="underscore" horiz-adv-x="370" d="M-83 -223H287L268 -329H-102L-83 -223Z" />
<glyph unicode="`" glyph-name="grave" horiz-adv-x="400" d="M148 739H284L349 555H236L148 739Z" />
<glyph unicode="a" glyph-name="a" horiz-adv-x="563" d="M114 -10T67 42T19 186Q19 280 51 353T142 468T275 510Q327 510 365 492T419 440H421L440 500H559L495 135Q475 24 474 0H340Q341 21 350 62H348Q318 28 278 9T196 -10Q114 -10 67 42ZM287 98T321 125T364
199L383 306Q385 318 385 322Q385 357 359 381T292 405Q254 405 225 378T178 304T161 196Q161 148 180 123T238 98Q287 98 321 125Z" />
<glyph unicode="b" glyph-name="b" horiz-adv-x="563" d="M244 -10T205 10T149 62H147Q136 4 135 0H1Q11 42 28 135L135 742H277L226 454H228Q291 510 374 510Q455 510 500 463T546 330Q546 234 513 156T420 34T287 -10Q244 -10 205 10ZM308 98T338 126T385 202T403
310Q403 405 325 405Q281 405 244 376T200 306L181 199Q179 185 179 178Q179 142 204 120T271 98Q308 98 338 126Z" />
<glyph unicode="c" glyph-name="c" horiz-adv-x="498" d="M138 -10T79 45T19 194Q19 286 57 358T163 470T319 510Q392 510 443 483T513 408L415 334Q401 366 374 384T313 402Q271 402 237 377T182 306T162 206Q162 154 187 126T259 98Q294 98 327 116T385 166L457
92Q421 42 365 16T239 -10Q138 -10 79 45Z" />
<glyph unicode="d" glyph-name="d" horiz-adv-x="563" d="M114 -10T67 42T19 186Q19 280 52 353T144 468T279 510Q369 510 407 454H409L460 742H602L495 135L486 83Q475 10 474 0H340L350 62H348Q318 28 278 9T196 -10Q114 -10 67 42ZM287 98T321 125T364 199L383
306Q385 318 385 322Q385 357 359 381T292 405Q254 405 225 378T178 304T161 196Q161 148 180 123T238 98Q287 98 321 125Z" />
<glyph unicode="e" glyph-name="e" horiz-adv-x="550" d="M418 510T472 456T527 310Q527 277 520 243L511 198H167Q173 109 266 109Q309 109 343 123T416 171L480 99Q442 49 378 20T242 -10Q141 -10 83 44T24 192Q24 284 61 356T167 469T321 510Q418 510 472 456ZM394
299Q394 394 305 394Q262 394 229 368T179 293H394V299Z" />
<glyph unicode="f" glyph-name="f" horiz-adv-x="392" d="M120 405H39L56 500H137L147 559Q160 634 212 675T346 717Q387 717 421 705T473 671L409 588Q399 598 384 604T354 611Q328 611 310 594T287 546L279 500H419L402 405H262L191 0H49L120 405Z" />
<glyph unicode="g" glyph-name="g" horiz-adv-x="559" d="M559 500L475 21Q430 -238 179 -238Q118 -238 65 -223T-24 -182L40 -87Q72 -105 111 -116T186 -127Q249 -127 287 -86T341 40L342 44Q294 -1 208 -1Q120 -1 70 49T19 188Q19 283 51 356T141 469T275 510Q327
510 365 492T419 440H421L440 500H559ZM381 300T381 315Q381 359 359 382T296 405Q235 405 199 349T162 202Q162 107 248 107Q297 107 328 136T368 220L378 280Q381 300 381 315Z" />
<glyph unicode="h" glyph-name="h" horiz-adv-x="570" d="M131 742H273L221 447Q248 477 288 493T377 510Q452 510 496 467T540 350Q540 326 536 305L482 0H340L391 292Q394 309 394 324Q394 362 376 383T323 405Q272 405 237 370T190 272L142 0H0L131 742Z" />
<glyph unicode="i" glyph-name="i" horiz-adv-x="282" d="M160 548T139 566T117 613Q117 656 146 683T222 710Q256 710 277 692T298 645Q298 602 269 575T194 548Q160 548 139 566ZM114 500H256L168 0H26L114 500Z" />
<glyph unicode="j" glyph-name="j" horiz-adv-x="289" d="M175 548T154 566T132 614Q132 657 161 683T238 710Q272 710 293 692T315 644Q315 601 286 575T209 548Q175 548 154 566ZM-66 -210T-97 -206T-149 -196L-124 -98Q-93 -102 -53 -102Q26 -102 38 -35L133
500H275L181 -32Q165 -122 111 -166T-39 -210Q-66 -210 -97 -206Z" />
<glyph unicode="k" glyph-name="k" horiz-adv-x="548" d="M356 323L502 0H347L245 231L175 173L144 0H2L133 742H275L203 344L392 500H570L356 323Z" />
<glyph unicode="l" glyph-name="l" horiz-adv-x="304" d="M87 -10T57 16T27 91Q27 108 30 126L139 742H281L171 123L170 115Q170 87 209 87Q232 87 271 101L279 27Q224 -10 145 -10Q87 -10 57 16Z" />
<glyph unicode="m" glyph-name="m" horiz-adv-x="848" d="M64 365L72 410Q83 467 84 500H208Q207 471 198 413H200Q222 459 266 484T366 510Q420 510 454 488T494 427Q521 465 565 487T659 510Q731 510 772 469T813 357Q813 337 808 309L754 0H613L664 292Q667
307 667 321Q667 356 650 375T599 395Q559 395 533 368T498 291L447 0H307L358 288Q361 305 361 319Q361 355 344 375T294 395Q254 395 228 368T192 288L141 0H0L64 365Z" />
<glyph unicode="n" glyph-name="n" horiz-adv-x="568" d="M64 366Q80 462 83 500H216Q213 447 207 413H209Q236 460 281 485T384 510Q456 510 493 470T530 352Q530 316 523 280L474 0H332L382 281Q386 311 386 321Q386 395 316 395Q267 395 233 362T189 273L141
0H-1L64 366Z" />
<glyph unicode="o" glyph-name="o" horiz-adv-x="586" d="M147 -10T86 44T24 194Q24 288 62 359T171 470T333 510Q439 510 500 456T561 306Q561 212 523 141T415 30T253 -10Q147 -10 86 44ZM311 95T345 120T398 191T418 292Q418 345 391 375T317 405Q274 405 240
380T187 309T167 208Q167 156 194 126T268 95Q311 95 345 120Z" />
<glyph unicode="p" glyph-name="p" horiz-adv-x="571" d="M70 365Q85 454 89 500H224Q222 475 216 438H218Q266 510 372 510Q452 510 500 458T548 317Q548 222 517 148T429 32T298 -10Q252 -10 215 4T159 46H156L105 -242H-37L70 365ZM314 95T343 121T388 195T405
304Q405 351 385 376T328 402Q279 402 244 374T201 301L182 194Q181 189 181 179Q181 144 209 120T277 95Q314 95 343 121Z" />
<glyph unicode="q" glyph-name="q" horiz-adv-x="571" d="M344 51H341Q316 22 279 6T195 -10Q117 -10 70 45T23 192Q23 286 55 358T144 470T277 510Q327 510 365 492T420 443H422L435 500H570Q555 442 541 365L434 -242H292L344 51ZM289 95T325 124T369 194L388
301Q390 315 390 321Q390 357 365 379T297 402Q259 402 230 376T184 302T167 194Q167 145 187 120T245 95Q289 95 325 124Z" />
<glyph unicode="r" glyph-name="r" horiz-adv-x="413" d="M73 378Q88 465 91 500H226Q223 451 215 412L213 402H217Q244 451 299 480T418 510Q432 510 448 507L429 396Q427 397 409 397Q358 397 310 371T228 302T185 209L148 0H6L73 378Z" />
<glyph unicode="s" glyph-name="s" horiz-adv-x="449" d="M111 -10T60 17T-4 89L95 149Q108 124 132 110T185 95Q223 95 244 108T266 144Q266 161 250 175T197 205Q124 236 90 272T55 353Q55 426 110 468T262 510Q324 510 370 488T439 426L347 365Q319 405 261
405Q231 405 215 394T198 363Q198 350 213 340T281 308Q348 280 379 247T411 173Q411 119 382 78T300 13T179 -10Q111 -10 60 17Z" />
<glyph unicode="t" glyph-name="t" horiz-adv-x="434" d="M162 -10T123 22T84 114Q84 131 87 150L130 395H39L58 500H149L171 627L316 667H320L291 500H437L418 395H272L233 172Q231 156 231 150Q231 122 248 109T301 95Q341 95 377 108L366 12Q313 -10 233 -10Q162
-10 123 22Z" />
<glyph unicode="u" glyph-name="u" horiz-adv-x="564" d="M106 -10T69 30T32 148Q32 184 39 220L88 500H230L181 219Q176 191 176 174Q176 138 191 122T240 105Q288 105 326 142T375 237L421 500H563L499 134Q489 70 483 0H347Q350 56 355 87H353Q327 42 280 16T178
-10Q106 -10 69 30Z" />
<glyph unicode="v" glyph-name="v" horiz-adv-x="544" d="M574 500L289 0H167L58 500H200L254 175L424 500H574Z" />
<glyph unicode="w" glyph-name="w" horiz-adv-x="720" d="M750 500L533 0H409L379 346L223 0H99L58 500H203L210 215L340 500H464L494 215L601 500H750Z" />
<glyph unicode="x" glyph-name="x" horiz-adv-x="540" d="M197 254L72 500H223L285 365L395 500H556L345 254L482 0H329L257 150L133 0H-30L197 254Z" />
<glyph unicode="y" glyph-name="y" horiz-adv-x="519" d="M549 500L262 -28Q218 -108 157 -148T17 -189Q-24 -189 -71 -176L-51 -63Q-40 -68 -21 -71T15 -74Q56 -74 91 -46T159 41L54 500H201L251 201L396 500H549Z" />
<glyph unicode="z" glyph-name="z" horiz-adv-x="484" d="M-12 75L303 394H58L77 500H498L486 433L175 106H440L421 0H-25L-12 75Z" />
<glyph unicode="{" glyph-name="braceleft" horiz-adv-x="360" d="M54 -114T54 8Q54 20 58 48L85 204L86 212Q86 231 72 244T32 260L46 337Q74 338 93 353T118 392L146 548Q160 628 211 669T347 710H417L398 598H332Q322 598 314 591T304 572L272 390Q258 323
182 298Q241 275 241 225Q241 220 239 206L207 24L206 19Q206 11 212 5T226 -2H292L272 -114H202Q54 -114 54 8Z" />
<glyph unicode="|" glyph-name="bar" horiz-adv-x="262" d="M140 700H282L130 -160H-12L140 700Z" />
<glyph unicode="}" glyph-name="braceright" horiz-adv-x="360" d="M-20 -2H46Q55 -2 63 5T73 24L105 206Q118 273 196 298Q136 321 136 372Q136 378 138 390L170 572L171 577Q171 586 166 592T152 598H86L105 710H175Q248 710 286 679T324 588Q324 567 320 548L292
392Q291 389 291 382Q291 363 305 351T346 337L332 260Q303 256 283 241T259 204L232 48Q218 -31 167 -72T30 -114H-40L-20 -2Z" />
<glyph unicode="~" glyph-name="asciitilde" horiz-adv-x="620" d="M47 213Q59 278 108 318T225 359Q251 359 279 348T345 317Q364 307 381 299T409 291Q428 291 443 310T463 359H586L580 324Q569 259 520 218T405 176Q378 176 348 188T279 220Q233 244 219 244Q202
244 186 225T163 176H40L47 213Z" />
<glyph unicode="&#xa0;" glyph-name="uni00A0" horiz-adv-x="230" />
<glyph unicode="&#xa1;" glyph-name="exclamdown" horiz-adv-x="262" d="M106 319T82 340T58 396Q58 446 91 478T177 510Q215 510 239 489T263 434Q263 383 230 351T144 319Q106 319 82 340ZM66 273H204L137 -200H-33L66 273Z" />
<glyph unicode="&#xa2;" glyph-name="cent" horiz-adv-x="494" d="M306 168T339 186T397 236L469 162Q403 72 282 61L266 -28H181L198 64Q120 78 76 130T31 264Q31 349 63 416T153 526T288 577L304 668H389L373 577Q430 570 469 545T525 478L427 404Q413 436 386
454T325 472Q283 472 249 447T194 376T174 276Q174 224 199 196T271 168Q306 168 339 186Z" />
<glyph unicode="&#xa3;" glyph-name="sterling" horiz-adv-x="556" d="M468 710T512 691T580 639L512 535Q494 557 468 570T417 584Q382 584 358 561T326 499Q320 464 320 384H476L459 291H319Q317 266 315 255Q308 213 288 178T228 114H485L465 0H2L18 89Q69
108 110 153T160 244Q162 257 164 291H72L89 384H166Q168 476 173 505Q190 598 257 654T420 710Q468 710 512 691Z" />
<glyph unicode="&#xa4;" glyph-name="currency" horiz-adv-x="636" d="M250 62T216 72T153 99L84 41L9 128L73 183Q50 226 50 291Q50 346 74 398T125 479L81 534L186 621L235 563Q309 600 378 600Q411 600 448 590T512 563L583 620L655 524L592 479Q603 460 609
433T615 376Q615 322 592 269T540 183L585 128L481 42L430 99Q397 82 357 72T283 62Q250 62 216 72ZM353 184T392 208T454 274T477 364Q477 416 445 448T359 480Q313 480 274 456T212 390T189 300Q189 248 221 216T307 184Q353 184 392 208Z" />
<glyph unicode="&#xa5;" glyph-name="yen" horiz-adv-x="658" d="M509 408H613L594 304H434L417 280L409 234H582L564 132H391L368 0H207L230 132H53L71 234H248L256 280L247 304H83L101 407H209L101 700H271L361 444L541 700H719L509 408Z" />
<glyph unicode="&#xa6;" glyph-name="brokenbar" horiz-adv-x="262" d="M140 700H282L212 306H70L140 700ZM57 234H199L130 -160H-12L57 234Z" />
<glyph unicode="&#xa7;" glyph-name="section" horiz-adv-x="551" d="M516 226T458 170Q482 143 482 103Q482 43 446 -5T348 -81T208 -109Q133 -109 77 -83T-6 -10L96 77Q124 42 158 25T227 7Q265 7 292 26T319 74Q319 97 297 114T228 153L191 171Q141 194 115
210T72 249T55 306Q55 383 123 438Q92 474 92 517Q92 571 127 615T222 684T355 710Q432 710 481 684T551 608L460 548Q444 570 413 582T345 594Q306 594 281 579T255 539Q255 518 277 500T362 450Q407 428 438 409T492 359T516 289Q516 226 458 170ZM195 322T216
308T284 270L328 247L365 228Q383 251 383 266Q383 279 358 298T263 352L215 375Q195 355 195 336Q195 322 216 308Z" />
<glyph unicode="&#xa8;" glyph-name="dieresis" horiz-adv-x="400" d="M120 555T103 571T86 613Q86 650 110 673T172 697Q198 697 215 681T232 639Q232 602 209 579T147 555Q120 555 103 571ZM334 555T317 571T300 613Q300 650 324 673T386 697Q412 697 429 681T446
639Q446 602 423 579T361 555Q334 555 317 571Z" />
<glyph unicode="&#xa9;" glyph-name="copyright" horiz-adv-x="812" d="M266 -10T196 25T89 126T51 277Q51 395 109 494T268 652T487 710Q581 710 651 675T758 574T796 423Q796 304 738 205T579 48T360 -10Q266 -10 196 25ZM462 78T535 122T650 242T693 407Q693
504 633 563T472 622Q386 622 313 578T197 458T154 293Q154 196 214 137T376 78Q462 78 535 122ZM321 144T280 187T239 304Q239 376 269 435T353 528T472 562Q522 562 557 539T601 478L534 420Q521 447 503 459T456 471Q427 471 402 451T362 395T347 318Q347 279
363 257T409 234Q439 234 461 247T511 289L557 228Q534 193 488 169T393 144Q321 144 280 187Z" />
<glyph unicode="&#xaa;" glyph-name="ordfeminine" horiz-adv-x="362" d="M113 361T88 384T62 446Q62 503 102 535T214 568H275L277 580Q278 584 278 592Q278 629 235 629Q184 629 144 591L103 649Q162 707 257 707Q321 707 355 683T389 611Q389 594 387 585L361
441Q355 394 356 367H255Q254 378 254 403Q241 385 213 373T154 361Q113 361 88 384ZM221 430T238 446T260 486L264 505H230Q201 505 186 493T171 458Q171 445 178 438T200 430Q221 430 238 446Z" />
<glyph unicode="&#xab;" glyph-name="guillemotleft" horiz-adv-x="608" d="M32 260L215 461H368L188 260L298 59H145L32 260ZM279 260L462 461H615L435 260L545 59H392L279 260Z" />
<glyph unicode="&#xac;" glyph-name="logicalnot" horiz-adv-x="618" d="M449 313H57L74 410H606L555 118H415L449 313Z" />
<glyph unicode="&#xad;" glyph-name="uni00AD" horiz-adv-x="340" d="M31 314H331L314 218H14L31 314Z" />
<glyph unicode="&#xae;" glyph-name="registered" horiz-adv-x="534" d="M436 710T488 661T540 531Q540 458 504 396T406 298T270 262Q182 262 130 311T78 441Q78 514 114 576T212 674T349 710Q436 710 488 661ZM334 317T380 344T453 417T480 520Q480 581 443
618T341 655Q285 655 239 628T165 555T138 451Q138 390 175 354T277 317Q334 317 380 344ZM414 611T414 552Q414 516 397 491T348 456L381 363H320L288 450H268L252 363H195L239 611H339Q414 611 414 552ZM357 499T357 542Q357 554 348 558T318 562H288L276 499H308Q357
499 357 542Z" />
<glyph unicode="&#xaf;" glyph-name="overscore" horiz-adv-x="400" d="M89 644H449L437 574H77L89 644Z" />
<glyph unicode="&#xb0;" glyph-name="degree" horiz-adv-x="324" d="M140 436T108 466T75 546Q75 591 97 628T159 688T244 710Q299 710 331 680T364 600Q364 555 342 518T280 458T195 436Q140 436 108 466ZM242 504T266 528T290 587Q290 612 275 627T232 642Q198
642 174 618T149 559Q149 534 164 519T207 504Q242 504 266 528Z" />
<glyph unicode="&#xb1;" glyph-name="plusminus" horiz-adv-x="620" d="M388 307L360 149H224L252 307H55L72 404H269L297 562H433L405 404H602L585 307H388ZM26 97H541L524 0H9L26 97Z" />
<glyph unicode="&#xb2;" glyph-name="uni00B2" horiz-adv-x="440" d="M56 296Q121 334 178 384T269 481T303 560Q303 575 292 583T259 592Q234 592 209 578T156 532L92 607Q128 654 179 679T291 705Q367 705 409 675T451 588Q451 530 404 465T253 312H416L398
208H40L56 296Z" />
<glyph unicode="&#xb3;" glyph-name="uni00B3" horiz-adv-x="440" d="M154 198T113 219T49 280L131 355Q151 334 174 323T220 311Q246 311 263 327T280 369Q280 389 266 401T230 413H167L184 509H246Q267 509 282 525T297 563Q297 577 287 584T257 592Q235 592
207 580T154 548L102 627Q139 664 189 684T296 705Q364 705 405 674T447 592Q447 556 427 524T369 467Q394 451 408 424T423 367Q423 318 396 280T321 220T212 198Q154 198 113 219Z" />
<glyph unicode="&#xb4;" glyph-name="acute" horiz-adv-x="400" d="M284 739H420L268 555H155L284 739Z" />
<glyph unicode="&#xb5;" glyph-name="uni00B5" horiz-adv-x="564" d="M88 500H230L181 219Q176 191 176 174Q176 138 191 122T240 105Q289 105 327 143T375 237L421 500H563L499 134Q489 70 483 0H348L347 22Q347 44 351 67H349Q323 28 293 9T217 -10Q178 -10
142 11L105 -200H-35L88 500Z" />
<glyph unicode="&#xb6;" glyph-name="paragraph" horiz-adv-x="546" d="M267 267H261Q170 267 123 306T75 422Q75 507 113 570T224 666T394 700H536L396 -93H326L458 654H396L264 -93H204L267 267Z" />
<glyph unicode="&#xb7;" glyph-name="middot" horiz-adv-x="304" d="M103 169T82 189T60 242Q60 291 90 322T170 353Q204 353 225 333T247 280Q247 231 217 200T137 169Q103 169 82 189Z" />
<glyph unicode="&#xb8;" glyph-name="cedilla" horiz-adv-x="400" d="M70 -267T43 -260T1 -243L35 -172Q48 -180 65 -185T99 -191Q115 -191 127 -181T139 -158Q139 -145 123 -138T81 -132L50 -92L126 13H224L163 -67Q198 -67 219 -89T241 -144Q241 -197 201 -232T97
-267Q70 -267 43 -260Z" />
<glyph unicode="&#xb9;" glyph-name="uni00B9" horiz-adv-x="440" d="M102 312H176L216 539L123 489L145 616L292 698H389L321 312H394L376 208H84L102 312Z" />
<glyph unicode="&#xba;" glyph-name="ordmasculine" horiz-adv-x="390" d="M148 361T107 397T66 497Q66 559 91 607T163 681T271 707Q342 707 383 671T424 571Q424 509 399 461T326 387T218 361Q148 361 107 397ZM263 437T288 474T313 566Q313 597 300 614T262
631Q226 631 202 595T177 506Q177 474 190 456T228 437Q263 437 288 474Z" />
<glyph unicode="&#xbb;" glyph-name="guillemotright" horiz-adv-x="608" d="M176 260L67 461H220L332 260L149 59H-4L176 260ZM423 260L314 461H467L579 260L396 59H243L423 260Z" />
<glyph unicode="&#xbc;" glyph-name="onequarter" horiz-adv-x="1040" d="M751 725H867L352 -43H236L751 725ZM113 360H178L214 562L131 518L151 631L282 704H368L307 360H372L356 268H97L113 360ZM779 59H596L611 143L843 435H976L925 148H967L951 59H909L898
0H769L779 59ZM795 148L818 282L715 148H795Z" />
<glyph unicode="&#xbd;" glyph-name="onehalf" horiz-adv-x="1040" d="M725 725H841L326 -43H210L725 725ZM113 360H178L214 562L131 518L151 631L282 704H368L307 360H372L356 268H97L113 360ZM630 78Q688 112 738 156T819 242T849 313Q849 326 839 333T810 341Q788
341 766 328T719 288L662 355Q693 397 739 419T839 442Q906 442 943 415T981 338Q981 286 940 228T805 92H950L934 0H616L630 78Z" />
<glyph unicode="&#xbe;" glyph-name="threequarters" horiz-adv-x="1040" d="M729 725H845L330 -43H214L729 725ZM172 260T135 279T79 333L151 400Q169 381 190 371T231 360Q254 360 269 375T284 412Q284 429 272 440T239 451H183L199 537H254Q273 537 286 551T299
585Q299 597 290 603T263 610Q244 610 219 600T172 571L126 641Q159 675 203 693T298 711Q359 711 395 684T432 610Q432 579 414 550T363 499Q385 485 398 461T411 410Q411 367 387 333T320 279T223 260Q172 260 135 279ZM759 59H576L591 143L823 435H956L905 148H947L931
59H889L878 0H749L759 59ZM775 148L798 282L695 148H775Z" />
<glyph unicode="&#xbf;" glyph-name="questiondown" horiz-adv-x="477" d="M220 346T200 364T179 412Q179 453 209 481T283 510Q317 510 337 492T358 444Q358 403 328 375T254 346Q220 346 200 364ZM68 -210T18 -171T-32 -63Q-32 -18 -16 18T23 80T84 142Q129
184 152 214T183 283Q186 304 186 314H320V312Q320 271 306 238T271 179T217 119Q172 72 151 41T130 -34Q130 -63 147 -79T196 -95Q230 -95 268 -71T338 -6L397 -93Q359 -147 295 -178T158 -210Q68 -210 18 -171Z" />
<glyph unicode="&#xc0;" glyph-name="Agrave" horiz-adv-x="656" d="M423 104H194L144 0H-30L337 700H477L598 0H436L423 104ZM407 232L375 484L255 232H407ZM278 923H414L471 755H358L278 923Z" />
<glyph unicode="&#xc1;" glyph-name="Aacute" horiz-adv-x="656" d="M423 104H194L144 0H-30L337 700H477L598 0H436L423 104ZM407 232L375 484L255 232H407ZM476 923H612L472 755H359L476 923Z" />
<glyph unicode="&#xc2;" glyph-name="Acircumflex" horiz-adv-x="656" d="M423 104H194L144 0H-30L337 700H477L598 0H436L423 104ZM407 232L375 484L255 232H407ZM408 924H486L598 755H480L436 830L366 755H236L408 924Z" />
<glyph unicode="&#xc3;" glyph-name="Atilde" horiz-adv-x="656" d="M423 104H194L144 0H-30L337 700H477L598 0H436L423 104ZM407 232L375 484L255 232H407ZM249 820T287 854T373 889Q394 889 410 882T447 860Q450 858 459 853T475 845T488 842Q515 842 523 893H612Q602
823 566 789T480 755Q459 755 441 763T401 785Q390 792 380 797T362 802Q352 802 342 789T328 755H239Q249 820 287 854Z" />
<glyph unicode="&#xc4;" glyph-name="Adieresis" horiz-adv-x="656" d="M423 104H194L144 0H-30L337 700H477L598 0H436L423 104ZM407 232L375 484L255 232H407ZM283 755T266 771T249 813Q249 850 273 873T335 897Q361 897 378 881T395 839Q395 802 372 779T310
755Q283 755 266 771ZM497 755T480 771T463 813Q463 850 487 873T549 897Q575 897 592 881T609 839Q609 802 586 779T524 755Q497 755 480 771Z" />
<glyph unicode="&#xc5;" glyph-name="Aring" horiz-adv-x="656" d="M423 104H194L144 0H-30L337 700H477L598 0H436L423 104ZM407 232L375 484L255 232H407ZM377 720T351 743T325 804Q325 859 361 893T454 928Q495 928 521 905T547 844Q547 789 511 755T418 720Q377
720 351 743ZM453 773T469 790T486 835Q486 853 475 864T445 875Q419 875 403 858T386 813Q386 795 397 784T427 773Q453 773 469 790Z" />
<glyph unicode="&#xc6;" glyph-name="AE" horiz-adv-x="836" d="M596 572L570 426H801L779 300H548L518 128H781L758 0H335L349 82H195L148 0H-30L401 700H881L859 572H596ZM370 202L417 466L265 202H370Z" />
<glyph unicode="&#xc7;" glyph-name="Ccedilla" horiz-adv-x="631" d="M442 118T506 197L588 117Q508 -2 362 -9L318 -67Q355 -67 377 -84T400 -131Q400 -163 381 -190T330 -233T258 -249Q231 -249 204 -243T162 -225L188 -165Q222 -179 255 -179Q274 -179 286
-170T299 -145Q299 -132 283 -126T241 -120L215 -84L274 -5Q164 12 102 85T40 272Q40 400 88 499T223 654T421 710Q512 710 578 676T666 582L560 503Q541 541 505 561T422 582Q357 582 307 543T229 434T201 274Q201 199 237 159T340 118Q442 118 506 197Z" />
<glyph unicode="&#xc8;" glyph-name="Egrave" horiz-adv-x="577" d="M143 700H622L600 572H282L257 431H541L518 303H234L204 128H522L499 0H20L143 700ZM256 923H392L449 755H336L256 923Z" />
<glyph unicode="&#xc9;" glyph-name="Eacute" horiz-adv-x="577" d="M143 700H622L600 572H282L257 431H541L518 303H234L204 128H522L499 0H20L143 700ZM454 923H590L450 755H337L454 923Z" />
<glyph unicode="&#xca;" glyph-name="Ecircumflex" horiz-adv-x="577" d="M143 700H622L600 572H282L257 431H541L518 303H234L204 128H522L499 0H20L143 700ZM386 924H464L576 755H458L414 830L344 755H214L386 924Z" />
<glyph unicode="&#xcb;" glyph-name="Edieresis" horiz-adv-x="577" d="M143 700H622L600 572H282L257 431H541L518 303H234L204 128H522L499 0H20L143 700ZM261 755T244 771T227 813Q227 850 251 873T313 897Q339 897 356 881T373 839Q373 802 350 779T288 755Q261
755 244 771ZM475 755T458 771T441 813Q441 850 465 873T527 897Q553 897 570 881T587 839Q587 802 564 779T502 755Q475 755 458 771Z" />
<glyph unicode="&#xcc;" glyph-name="Igrave" horiz-adv-x="333" d="M165 700H326L203 0H42L165 700ZM117 923H253L310 755H197L117 923Z" />
<glyph unicode="&#xcd;" glyph-name="Iacute" horiz-adv-x="333" d="M165 700H326L203 0H42L165 700ZM315 923H451L311 755H198L315 923Z" />
<glyph unicode="&#xce;" glyph-name="Icircumflex" horiz-adv-x="333" d="M165 700H326L203 0H42L165 700ZM247 924H325L437 755H319L275 830L205 755H75L247 924Z" />
<glyph unicode="&#xcf;" glyph-name="Idieresis" horiz-adv-x="333" d="M165 700H326L203 0H42L165 700ZM122 755T105 771T88 813Q88 850 112 873T174 897Q200 897 217 881T234 839Q234 802 211 779T149 755Q122 755 105 771ZM336 755T319 771T302 813Q302 850
326 873T388 897Q414 897 431 881T448 839Q448 802 425 779T363 755Q336 755 319 771Z" />
<glyph unicode="&#xd0;" glyph-name="Eth" horiz-adv-x="655" d="M518 700T584 638T650 457Q650 234 556 117T279 0H27L76 280H15L35 395H96L150 700H394Q518 700 584 638ZM355 128T398 167T465 276T489 441Q489 508 464 540T384 572H289L258 395H401L381 280H238L211
128H297Q355 128 398 167Z" />
<glyph unicode="&#xd1;" glyph-name="Ntilde" horiz-adv-x="704" d="M719 700L596 0H450L257 435L180 0H20L143 700H296L484 273L559 700H719ZM273 820T311 854T397 889Q418 889 434 882T471 860Q474 858 483 853T499 845T512 842Q539 842 547 893H636Q626 823
590 789T504 755Q483 755 465 763T425 785Q414 792 404 797T386 802Q376 802 366 789T352 755H263Q273 820 311 854Z" />
<glyph unicode="&#xd2;" glyph-name="Ograve" horiz-adv-x="700" d="M238 -10T174 25T75 122T39 266Q39 396 86 496T219 653T415 710Q497 710 561 675T661 578T697 434Q697 305 649 204T516 47T320 -10Q238 -10 174 25ZM391 117T437 155T508 262T534 422Q534 468
517 504T471 562T405 583Q345 583 299 545T228 438T202 279Q202 233 219 196T265 138T331 117Q391 117 437 155ZM286 923H422L479 755H366L286 923Z" />
<glyph unicode="&#xd3;" glyph-name="Oacute" horiz-adv-x="700" d="M238 -10T174 25T75 122T39 266Q39 396 86 496T219 653T415 710Q497 710 561 675T661 578T697 434Q697 305 649 204T516 47T320 -10Q238 -10 174 25ZM391 117T437 155T508 262T534 422Q534 468
517 504T471 562T405 583Q345 583 299 545T228 438T202 279Q202 233 219 196T265 138T331 117Q391 117 437 155ZM484 923H620L480 755H367L484 923Z" />
<glyph unicode="&#xd4;" glyph-name="Ocircumflex" horiz-adv-x="700" d="M238 -10T174 25T75 122T39 266Q39 396 86 496T219 653T415 710Q497 710 561 675T661 578T697 434Q697 305 649 204T516 47T320 -10Q238 -10 174 25ZM391 117T437 155T508 262T534 422Q534
468 517 504T471 562T405 583Q345 583 299 545T228 438T202 279Q202 233 219 196T265 138T331 117Q391 117 437 155ZM416 924H494L606 755H488L444 830L374 755H244L416 924Z" />
<glyph unicode="&#xd5;" glyph-name="Otilde" horiz-adv-x="700" d="M238 -10T174 25T75 122T39 266Q39 396 86 496T219 653T415 710Q497 710 561 675T661 578T697 434Q697 305 649 204T516 47T320 -10Q238 -10 174 25ZM391 117T437 155T508 262T534 422Q534 468
517 504T471 562T405 583Q345 583 299 545T228 438T202 279Q202 233 219 196T265 138T331 117Q391 117 437 155ZM257 820T295 854T381 889Q402 889 418 882T455 860Q458 858 467 853T483 845T496 842Q523 842 531 893H620Q610 823 574 789T488 755Q467 755 449
763T409 785Q398 792 388 797T370 802Q360 802 350 789T336 755H247Q257 820 295 854Z" />
<glyph unicode="&#xd6;" glyph-name="Odieresis" horiz-adv-x="700" d="M238 -10T174 25T75 122T39 266Q39 396 86 496T219 653T415 710Q497 710 561 675T661 578T697 434Q697 305 649 204T516 47T320 -10Q238 -10 174 25ZM391 117T437 155T508 262T534 422Q534
468 517 504T471 562T405 583Q345 583 299 545T228 438T202 279Q202 233 219 196T265 138T331 117Q391 117 437 155ZM291 755T274 771T257 813Q257 850 281 873T343 897Q369 897 386 881T403 839Q403 802 380 779T318 755Q291 755 274 771ZM505 755T488 771T471
813Q471 850 495 873T557 897Q583 897 600 881T617 839Q617 802 594 779T532 755Q505 755 488 771Z" />
<glyph unicode="&#xd7;" glyph-name="multiply" horiz-adv-x="620" d="M296 178L95 -1L21 79L228 264L86 448L187 528L327 350L529 528L604 448L397 264L539 79L436 -1L296 178Z" />
<glyph unicode="&#xd8;" glyph-name="Oslash" horiz-adv-x="700" d="M653 602T675 550T697 434Q697 305 649 204T516 47T320 -10Q241 -10 177 23L130 -43H6L98 88Q39 161 39 266Q39 396 86 496T219 653T415 710Q474 710 523 692L546 725H674L613 638Q653 602 675
550ZM202 260T205 240L442 577Q424 583 405 583Q345 583 299 545T228 438T202 279Q202 260 205 240ZM391 117T437 155T508 262T534 422Q534 467 517 504L261 141Q293 117 331 117Q391 117 437 155Z" />
<glyph unicode="&#xd9;" glyph-name="Ugrave" horiz-adv-x="664" d="M176 -10T114 43T51 201Q51 228 58 272L133 700H294L219 274Q214 242 214 222Q214 118 309 118Q366 118 403 157T453 274L528 700H689L614 272Q590 133 510 62T294 -10Q176 -10 114 43ZM282
923H418L475 755H362L282 923Z" />
<glyph unicode="&#xda;" glyph-name="Uacute" horiz-adv-x="664" d="M176 -10T114 43T51 201Q51 228 58 272L133 700H294L219 274Q214 242 214 222Q214 118 309 118Q366 118 403 157T453 274L528 700H689L614 272Q590 133 510 62T294 -10Q176 -10 114 43ZM480
923H616L476 755H363L480 923Z" />
<glyph unicode="&#xdb;" glyph-name="Ucircumflex" horiz-adv-x="664" d="M176 -10T114 43T51 201Q51 228 58 272L133 700H294L219 274Q214 242 214 222Q214 118 309 118Q366 118 403 157T453 274L528 700H689L614 272Q590 133 510 62T294 -10Q176 -10 114 43ZM412
924H490L602 755H484L440 830L370 755H240L412 924Z" />
<glyph unicode="&#xdc;" glyph-name="Udieresis" horiz-adv-x="664" d="M176 -10T114 43T51 201Q51 228 58 272L133 700H294L219 274Q214 242 214 222Q214 118 309 118Q366 118 403 157T453 274L528 700H689L614 272Q590 133 510 62T294 -10Q176 -10 114 43ZM287
755T270 771T253 813Q253 850 277 873T339 897Q365 897 382 881T399 839Q399 802 376 779T314 755Q287 755 270 771ZM501 755T484 771T467 813Q467 850 491 873T553 897Q579 897 596 881T613 839Q613 802 590 779T528 755Q501 755 484 771Z" />
<glyph unicode="&#xdd;" glyph-name="Yacute" horiz-adv-x="646" d="M248 280L93 700H263L353 444L533 700H711L409 280L360 0H199L248 280ZM467 923H603L463 755H350L467 923Z" />
<glyph unicode="&#xde;" glyph-name="Thorn" horiz-adv-x="576" d="M143 700H303L288 610H342Q450 610 511 563T573 433Q573 303 495 230T277 157H208L180 0H20L143 700ZM300 284Q350 284 381 319T413 411Q413 484 328 484H265L230 284H300Z" />
<glyph unicode="&#xdf;" glyph-name="germandbls" horiz-adv-x="578" d="M271 -10T228 16T169 92L265 149Q278 123 293 109T334 95Q360 95 379 115T398 164Q398 182 385 195T339 222Q297 239 275 271T253 339Q253 385 274 412T336 469Q369 493 384 511T400 557Q400
580 384 592T337 605Q289 605 260 572T220 478L136 0H-4L81 483Q100 590 167 650T341 710Q432 710 487 672T542 572Q542 530 527 500T492 452T441 411Q415 392 404 381T393 356Q393 344 405 334T462 298Q500 277 520 246T540 177Q540 122 514 80T442 14T335 -10Q271
-10 228 16Z" />
<glyph unicode="&#xe0;" glyph-name="agrave" horiz-adv-x="563" d="M114 -10T67 42T19 186Q19 280 51 353T142 468T275 510Q327 510 365 492T419 440H421L440 500H559L495 135Q475 24 474 0H340Q341 21 350 62H348Q318 28 278 9T196 -10Q114 -10 67 42ZM287 98T321
125T364 199L383 306Q385 318 385 322Q385 357 359 381T292 405Q254 405 225 378T178 304T161 196Q161 148 180 123T238 98Q287 98 321 125ZM188 723H324L381 555H268L188 723Z" />
<glyph unicode="&#xe1;" glyph-name="aacute" horiz-adv-x="563" d="M114 -10T67 42T19 186Q19 280 51 353T142 468T275 510Q327 510 365 492T419 440H421L440 500H559L495 135Q475 24 474 0H340Q341 21 350 62H348Q318 28 278 9T196 -10Q114 -10 67 42ZM287 98T321
125T364 199L383 306Q385 318 385 322Q385 357 359 381T292 405Q254 405 225 378T178 304T161 196Q161 148 180 123T238 98Q287 98 321 125ZM386 723H522L382 555H269L386 723Z" />
<glyph unicode="&#xe2;" glyph-name="acircumflex" horiz-adv-x="563" d="M114 -10T67 42T19 186Q19 280 51 353T142 468T275 510Q327 510 365 492T419 440H421L440 500H559L495 135Q475 24 474 0H340Q341 21 350 62H348Q318 28 278 9T196 -10Q114 -10 67 42ZM287
98T321 125T364 199L383 306Q385 318 385 322Q385 357 359 381T292 405Q254 405 225 378T178 304T161 196Q161 148 180 123T238 98Q287 98 321 125ZM318 724H396L508 555H390L346 630L276 555H146L318 724Z" />
<glyph unicode="&#xe3;" glyph-name="atilde" horiz-adv-x="563" d="M114 -10T67 42T19 186Q19 280 51 353T142 468T275 510Q327 510 365 492T419 440H421L440 500H559L495 135Q475 24 474 0H340Q341 21 350 62H348Q318 28 278 9T196 -10Q114 -10 67 42ZM287 98T321
125T364 199L383 306Q385 318 385 322Q385 357 359 381T292 405Q254 405 225 378T178 304T161 196Q161 148 180 123T238 98Q287 98 321 125ZM159 620T197 654T283 689Q304 689 320 682T357 660Q360 658 369 653T385 645T398 642Q425 642 433 693H522Q512 623 476
589T390 555Q369 555 351 563T311 585Q300 592 290 597T272 602Q262 602 252 589T238 555H149Q159 620 197 654Z" />
<glyph unicode="&#xe4;" glyph-name="adieresis" horiz-adv-x="563" d="M114 -10T67 42T19 186Q19 280 51 353T142 468T275 510Q327 510 365 492T419 440H421L440 500H559L495 135Q475 24 474 0H340Q341 21 350 62H348Q318 28 278 9T196 -10Q114 -10 67 42ZM287
98T321 125T364 199L383 306Q385 318 385 322Q385 357 359 381T292 405Q254 405 225 378T178 304T161 196Q161 148 180 123T238 98Q287 98 321 125ZM193 555T176 571T159 613Q159 650 183 673T245 697Q271 697 288 681T305 639Q305 602 282 579T220 555Q193 555
176 571ZM407 555T390 571T373 613Q373 650 397 673T459 697Q485 697 502 681T519 639Q519 602 496 579T434 555Q407 555 390 571Z" />
<glyph unicode="&#xe5;" glyph-name="aring" horiz-adv-x="563" d="M114 -10T67 42T19 186Q19 280 51 353T142 468T275 510Q327 510 365 492T419 440H421L440 500H559L495 135Q475 24 474 0H340Q341 21 350 62H348Q318 28 278 9T196 -10Q114 -10 67 42ZM287 98T321
125T364 199L383 306Q385 318 385 322Q385 357 359 381T292 405Q254 405 225 378T178 304T161 196Q161 148 180 123T238 98Q287 98 321 125ZM287 555T261 578T235 639Q235 694 271 728T364 763Q405 763 431 740T457 679Q457 624 421 590T328 555Q287 555 261 578ZM363
608T379 625T396 670Q396 688 385 699T355 710Q329 710 313 693T296 648Q296 630 307 619T337 608Q363 608 379 625Z" />
<glyph unicode="&#xe6;" glyph-name="ae" horiz-adv-x="816" d="M688 510T740 460T793 317Q793 284 788 256L780 208H452V201Q452 109 542 109Q583 109 614 123T685 171L747 99Q711 49 651 20T522 -10Q473 -10 432 5T363 50Q326 22 279 6T182 -10Q97 -10 51 27T5
127Q5 214 67 257T250 301H326L331 330Q333 344 333 349Q333 402 270 402Q179 402 112 346L65 430Q164 510 287 510Q389 510 438 459Q507 510 593 510Q688 510 740 460ZM662 306Q662 394 581 394Q545 394 516 369T469 301H662V306ZM310 208H244Q144 208 144 137Q144
117 158 106T199 95Q238 95 268 118T304 175L310 208Z" />
<glyph unicode="&#xe7;" glyph-name="ccedilla" horiz-adv-x="498" d="M294 98T327 116T385 166L457 92Q396 8 286 -7L240 -67Q277 -67 299 -84T322 -131Q322 -163 303 -190T252 -233T180 -249Q153 -249 126 -242T84 -225L110 -165Q144 -179 177 -179Q196 -179
208 -170T221 -145Q221 -132 205 -126T163 -120L137 -84L194 -7Q112 5 66 58T19 194Q19 286 57 358T163 470T319 510Q392 510 443 483T513 408L415 334Q401 366 374 384T313 402Q271 402 237 377T182 306T162 206Q162 154 187 126T259 98Q294 98 327 116Z" />
<glyph unicode="&#xe8;" glyph-name="egrave" horiz-adv-x="550" d="M418 510T472 456T527 310Q527 277 520 243L511 198H167Q173 109 266 109Q309 109 343 123T416 171L480 99Q442 49 378 20T242 -10Q141 -10 83 44T24 192Q24 284 61 356T167 469T321 510Q418
510 472 456ZM394 299Q394 394 305 394Q262 394 229 368T179 293H394V299ZM191 723H327L384 555H271L191 723Z" />
<glyph unicode="&#xe9;" glyph-name="eacute" horiz-adv-x="550" d="M418 510T472 456T527 310Q527 277 520 243L511 198H167Q173 109 266 109Q309 109 343 123T416 171L480 99Q442 49 378 20T242 -10Q141 -10 83 44T24 192Q24 284 61 356T167 469T321 510Q418
510 472 456ZM394 299Q394 394 305 394Q262 394 229 368T179 293H394V299ZM389 723H525L385 555H272L389 723Z" />
<glyph unicode="&#xea;" glyph-name="ecircumflex" horiz-adv-x="550" d="M418 510T472 456T527 310Q527 277 520 243L511 198H167Q173 109 266 109Q309 109 343 123T416 171L480 99Q442 49 378 20T242 -10Q141 -10 83 44T24 192Q24 284 61 356T167 469T321 510Q418
510 472 456ZM394 299Q394 394 305 394Q262 394 229 368T179 293H394V299ZM321 724H399L511 555H393L349 630L279 555H149L321 724Z" />
<glyph unicode="&#xeb;" glyph-name="edieresis" horiz-adv-x="550" d="M418 510T472 456T527 310Q527 277 520 243L511 198H167Q173 109 266 109Q309 109 343 123T416 171L480 99Q442 49 378 20T242 -10Q141 -10 83 44T24 192Q24 284 61 356T167 469T321 510Q418
510 472 456ZM394 299Q394 394 305 394Q262 394 229 368T179 293H394V299ZM196 555T179 571T162 613Q162 650 186 673T248 697Q274 697 291 681T308 639Q308 602 285 579T223 555Q196 555 179 571ZM410 555T393 571T376 613Q376 650 400 673T462 697Q488 697 505
681T522 639Q522 602 499 579T437 555Q410 555 393 571Z" />
<glyph unicode="&#xec;" glyph-name="igrave" horiz-adv-x="288" d="M118 500H258L170 0H30L118 500ZM59 723H195L252 555H139L59 723Z" />
<glyph unicode="&#xed;" glyph-name="iacute" horiz-adv-x="288" d="M118 500H258L170 0H30L118 500ZM257 723H393L253 555H140L257 723Z" />
<glyph unicode="&#xee;" glyph-name="icircumflex" horiz-adv-x="288" d="M118 500H258L170 0H30L118 500ZM189 724H267L379 555H261L217 630L147 555H17L189 724Z" />
<glyph unicode="&#xef;" glyph-name="idieresis" horiz-adv-x="288" d="M118 500H258L170 0H30L118 500ZM64 555T47 571T30 613Q30 650 54 673T116 697Q142 697 159 681T176 639Q176 602 153 579T91 555Q64 555 47 571ZM278 555T261 571T244 613Q244 650 268 673T330
697Q356 697 373 681T390 639Q390 602 367 579T305 555Q278 555 261 571Z" />
<glyph unicode="&#xf0;" glyph-name="eth" horiz-adv-x="516" d="M440 537T467 471T494 329Q494 232 457 155T354 34T207 -10Q120 -10 69 38T18 168Q18 243 54 307T151 410T284 448Q309 448 336 441Q316 489 284 524L144 443L105 516L213 579Q172 602 125 609L151
693Q245 684 319 641L453 719L490 644L390 586Q440 537 467 471ZM280 99T313 143T346 256Q346 297 327 319T273 341Q242 341 216 320T175 263T160 183Q160 143 178 121T230 99Q280 99 313 143Z" />
<glyph unicode="&#xf1;" glyph-name="ntilde" horiz-adv-x="568" d="M64 366Q80 462 83 500H216Q213 447 207 413H209Q236 460 281 485T384 510Q456 510 493 470T530 352Q530 316 523 280L474 0H332L382 281Q386 311 386 321Q386 395 316 395Q267 395 233 362T189
273L141 0H-1L64 366ZM167 620T205 654T291 689Q312 689 328 682T365 660Q368 658 377 653T393 645T406 642Q433 642 441 693H530Q520 623 484 589T398 555Q377 555 359 563T319 585Q308 592 298 597T280 602Q270 602 260 589T246 555H157Q167 620 205 654Z" />
<glyph unicode="&#xf2;" glyph-name="ograve" horiz-adv-x="586" d="M147 -10T86 44T24 194Q24 288 62 359T171 470T333 510Q439 510 500 456T561 306Q561 212 523 141T415 30T253 -10Q147 -10 86 44ZM311 95T345 120T398 191T418 292Q418 345 391 375T317 405Q274
405 240 380T187 309T167 208Q167 156 194 126T268 95Q311 95 345 120ZM208 723H344L401 555H288L208 723Z" />
<glyph unicode="&#xf3;" glyph-name="oacute" horiz-adv-x="586" d="M147 -10T86 44T24 194Q24 288 62 359T171 470T333 510Q439 510 500 456T561 306Q561 212 523 141T415 30T253 -10Q147 -10 86 44ZM311 95T345 120T398 191T418 292Q418 345 391 375T317 405Q274
405 240 380T187 309T167 208Q167 156 194 126T268 95Q311 95 345 120ZM406 723H542L402 555H289L406 723Z" />
<glyph unicode="&#xf4;" glyph-name="ocircumflex" horiz-adv-x="586" d="M147 -10T86 44T24 194Q24 288 62 359T171 470T333 510Q439 510 500 456T561 306Q561 212 523 141T415 30T253 -10Q147 -10 86 44ZM311 95T345 120T398 191T418 292Q418 345 391 375T317
405Q274 405 240 380T187 309T167 208Q167 156 194 126T268 95Q311 95 345 120ZM338 724H416L528 555H410L366 630L296 555H166L338 724Z" />
<glyph unicode="&#xf5;" glyph-name="otilde" horiz-adv-x="586" d="M147 -10T86 44T24 194Q24 288 62 359T171 470T333 510Q439 510 500 456T561 306Q561 212 523 141T415 30T253 -10Q147 -10 86 44ZM311 95T345 120T398 191T418 292Q418 345 391 375T317 405Q274
405 240 380T187 309T167 208Q167 156 194 126T268 95Q311 95 345 120ZM179 620T217 654T303 689Q324 689 340 682T377 660Q380 658 389 653T405 645T418 642Q445 642 453 693H542Q532 623 496 589T410 555Q389 555 371 563T331 585Q320 592 310 597T292 602Q282
602 272 589T258 555H169Q179 620 217 654Z" />
<glyph unicode="&#xf6;" glyph-name="odieresis" horiz-adv-x="586" d="M147 -10T86 44T24 194Q24 288 62 359T171 470T333 510Q439 510 500 456T561 306Q561 212 523 141T415 30T253 -10Q147 -10 86 44ZM311 95T345 120T398 191T418 292Q418 345 391 375T317
405Q274 405 240 380T187 309T167 208Q167 156 194 126T268 95Q311 95 345 120ZM213 555T196 571T179 613Q179 650 203 673T265 697Q291 697 308 681T325 639Q325 602 302 579T240 555Q213 555 196 571ZM427 555T410 571T393 613Q393 650 417 673T479 697Q505 697
522 681T539 639Q539 602 516 579T454 555Q427 555 410 571Z" />
<glyph unicode="&#xf7;" glyph-name="divide" horiz-adv-x="620" d="M299 366T280 383T260 428Q260 466 289 492T359 519Q391 519 410 502T430 458Q430 419 402 393T332 366Q299 366 280 383ZM57 315H587L568 209H38L57 315ZM235 5T216 22T196 67Q196 105 225
131T295 158Q328 158 347 141T366 97Q366 59 338 32T268 5Q235 5 216 22Z" />
<glyph unicode="&#xf8;" glyph-name="oslash" horiz-adv-x="586" d="M524 437T542 397T561 306Q561 212 523 141T415 30T253 -10Q201 -10 161 3L129 -43H32L90 40Q24 97 24 194Q24 288 62 359T171 470T333 510Q378 510 414 500L438 535H539L489 464Q524 437 542
397ZM167 185T174 160L345 402Q331 405 317 405Q274 405 240 380T187 309T167 208Q167 185 174 160ZM311 95T345 120T398 191T418 292Q418 324 407 349L231 101Q248 95 268 95Q311 95 345 120Z" />
<glyph unicode="&#xf9;" glyph-name="ugrave" horiz-adv-x="564" d="M106 -10T69 30T32 148Q32 184 39 220L88 500H230L181 219Q176 191 176 174Q176 138 191 122T240 105Q288 105 326 142T375 237L421 500H563L499 134Q489 70 483 0H347Q350 56 355 87H353Q327
42 280 16T178 -10Q106 -10 69 30ZM206 723H342L399 555H286L206 723Z" />
<glyph unicode="&#xfa;" glyph-name="uacute" horiz-adv-x="564" d="M106 -10T69 30T32 148Q32 184 39 220L88 500H230L181 219Q176 191 176 174Q176 138 191 122T240 105Q288 105 326 142T375 237L421 500H563L499 134Q489 70 483 0H347Q350 56 355 87H353Q327
42 280 16T178 -10Q106 -10 69 30ZM404 723H540L400 555H287L404 723Z" />
<glyph unicode="&#xfb;" glyph-name="ucircumflex" horiz-adv-x="564" d="M106 -10T69 30T32 148Q32 184 39 220L88 500H230L181 219Q176 191 176 174Q176 138 191 122T240 105Q288 105 326 142T375 237L421 500H563L499 134Q489 70 483 0H347Q350 56 355 87H353Q327
42 280 16T178 -10Q106 -10 69 30ZM336 724H414L526 555H408L364 630L294 555H164L336 724Z" />
<glyph unicode="&#xfc;" glyph-name="udieresis" horiz-adv-x="564" d="M106 -10T69 30T32 148Q32 184 39 220L88 500H230L181 219Q176 191 176 174Q176 138 191 122T240 105Q288 105 326 142T375 237L421 500H563L499 134Q489 70 483 0H347Q350 56 355 87H353Q327
42 280 16T178 -10Q106 -10 69 30ZM211 555T194 571T177 613Q177 650 201 673T263 697Q289 697 306 681T323 639Q323 602 300 579T238 555Q211 555 194 571ZM425 555T408 571T391 613Q391 650 415 673T477 697Q503 697 520 681T537 639Q537 602 514 579T452 555Q425
555 408 571Z" />
<glyph unicode="&#xfd;" glyph-name="yacute" horiz-adv-x="519" d="M549 500L262 -28Q218 -108 157 -148T17 -189Q-24 -189 -71 -176L-51 -63Q-40 -68 -21 -71T15 -74Q56 -74 91 -46T159 41L54 500H201L251 201L396 500H549ZM374 723H510L370 555H257L374 723Z" />
<glyph unicode="&#xfe;" glyph-name="thorn" horiz-adv-x="545" d="M132 742H272L224 470Q246 488 282 499T356 510Q434 510 478 460T523 320Q523 225 489 150T395 33T258 -10Q223 -10 191 -2T145 19L103 -218H-37L132 742ZM284 95T315 124T364 202T382 308Q382
355 363 380T307 405Q263 405 233 376T193 295L180 219Q177 198 177 181Q177 140 195 118T248 95Q284 95 315 124Z" />
<glyph unicode="&#xff;" glyph-name="ydieresis" horiz-adv-x="519" d="M549 500L262 -28Q218 -108 157 -148T17 -189Q-24 -189 -71 -176L-51 -63Q-40 -68 -21 -71T15 -74Q56 -74 91 -46T159 41L54 500H201L251 201L396 500H549ZM181 555T164 571T147 613Q147
650 171 673T233 697Q259 697 276 681T293 639Q293 602 270 579T208 555Q181 555 164 571ZM395 555T378 571T361 613Q361 650 385 673T447 697Q473 697 490 681T507 639Q507 602 484 579T422 555Q395 555 378 571Z" />
<glyph unicode="&#x2013;" glyph-name="endash" horiz-adv-x="540" d="M31 314H531L514 218H14L31 314Z" />
<glyph unicode="&#x2014;" glyph-name="emdash" horiz-adv-x="836" d="M31 314H827L810 218H14L31 314Z" />
<glyph unicode="&#x2018;" glyph-name="quoteleft" horiz-adv-x="324" d="M273 560T289 543T305 497Q305 450 270 417T184 383Q146 383 124 406T101 470Q101 513 126 566T194 667T288 747L339 674Q311 654 284 624T238 559Q242 560 248 560Q273 560 289 543Z" />
<glyph unicode="&#x2019;" glyph-name="quoteright" horiz-adv-x="324" d="M285 730T308 707T331 643Q331 600 306 547T237 446T144 366L93 439Q120 458 147 488T194 554Q190 553 184 553Q159 553 143 570T127 616Q127 663 162 696T247 730Q285 730 308 707Z" />
<glyph unicode="&#x201a;" glyph-name="quotesinglbase" horiz-adv-x="325" d="M187 170T210 147T233 83Q233 40 208 -13T139 -114T46 -194L-5 -121Q23 -102 50 -72T96 -6Q92 -7 86 -7Q61 -7 45 10T29 56Q29 103 64 136T149 170Q187 170 210 147Z" />
<glyph unicode="&#x201c;" glyph-name="quotedblleft" horiz-adv-x="574" d="M311 654T284 624T238 559Q242 560 248 560Q273 560 289 543T305 497Q305 450 270 417T184 383Q146 383 124 406T101 470Q101 513 126 566T194 667T288 747L339 674Q311 654 284 624ZM523
560T539 543T555 497Q555 450 520 417T434 383Q396 383 374 406T351 470Q351 513 376 566T444 667T538 747L589 674Q561 654 534 624T488 559Q492 560 498 560Q523 560 539 543Z" />
<glyph unicode="&#x201d;" glyph-name="quotedblright" horiz-adv-x="574" d="M285 730T308 707T331 643Q331 600 306 547T237 446T144 366L93 439Q120 458 147 488T194 554Q190 553 184 553Q159 553 143 570T127 616Q127 663 162 696T247 730Q285 730 308 707ZM535
730T558 707T581 643Q581 600 556 547T487 446T394 366L343 439Q370 458 397 488T444 554Q440 553 434 553Q409 553 393 570T377 616Q377 663 412 696T497 730Q535 730 558 707Z" />
<glyph unicode="&#x201e;" glyph-name="quotedblbase" horiz-adv-x="575" d="M187 170T210 147T233 83Q233 40 208 -13T139 -114T46 -194L-5 -121Q23 -102 50 -72T96 -6Q92 -7 86 -7Q61 -7 45 10T29 56Q29 103 64 136T149 170Q187 170 210 147ZM437 170T460 147T483
83Q483 40 458 -13T389 -114T296 -194L245 -121Q272 -102 299 -72T346 -6Q342 -7 336 -7Q311 -7 295 10T279 56Q279 103 314 136T399 170Q437 170 460 147Z" />
<glyph unicode="&#x2022;" glyph-name="bullet" horiz-adv-x="368" d="M112 149T78 181T44 265Q44 342 92 390T218 439Q272 439 306 407T340 323Q340 246 292 198T166 149Q112 149 78 181Z" />
<glyph unicode="&#x2039;" glyph-name="guilsinglleft" horiz-adv-x="361" d="M32 260L215 461H368L188 260L298 59H145L32 260Z" />
<glyph unicode="&#x203a;" glyph-name="guilsinglright" horiz-adv-x="361" d="M176 260L67 461H220L332 260L149 59H-4L176 260Z" />
</font>
</defs>
</svg>
